<svg id="Capa_1" data-name="Capa 1" xmlns="http://www.w3.org/2000/svg" viewBox="0 0 1842.52 1842.52"><defs><style>@import url('https://fonts.googleapis.com/css?family=Open+Sans:400,500,600,700');.cls-1{opacity:0.14;}.cls-2{fill:#9b155e;}.cls-24,.cls-3{fill:#fff;}.cls-4{opacity:0.7;}.cls-5{opacity:0.42;}.cls-6{opacity:0.85;}.cls-7{opacity:0.57;}.cls-8{opacity:0.28;}.cls-9{opacity:0.71;}.cls-10{fill:#d3af00;}.cls-11{opacity:0;}.cls-12{opacity:0.48;}.cls-13{font-size:41.55px;}.cls-13,.cls-16,.cls-17,.cls-18,.cls-19,.cls-21{fill:#323232;}.cls-13,.cls-14,.cls-16,.cls-17{font-family:OpenSans, Open Sans;}.cls-14{font-size:46.83px;fill:#757575;}.cls-15{fill:none;stroke:#323232;stroke-miterlimit:10;stroke-width:2px;}.cls-16,.cls-19,.cls-21{font-size:40px;}.cls-17{font-size:50px;}.cls-18{font-size:62px;}.cls-18,.cls-19,.cls-22{font-family:OpenSans-Bold, Open Sans;}.cls-18,.cls-19,.cls-21,.cls-23,.cls-24{font-weight:700;}.cls-20,.cls-21,.cls-23,.cls-24{font-family:OpenSans-Semibold, Open Sans;}.cls-23,.cls-24{font-size:65px;}</style></defs><title>19.04_ListasCandidatos</title><g class="cls-1"><rect class="cls-2" x="554.71" y="390.7" width="121.88" height="121.88"/><path class="cls-3" d="M556.23,392.18l118.88,0,0,118.88-118.88,0,0-118.88m-3-3,0,124.88,124.88,0,0-124.88-124.88,0Z"/></g><rect class="cls-2" x="554.66" y="513.36" width="121.88" height="121.88"/><path class="cls-3" d="M556.18,514.83l118.88,0,0,118.88-118.88,0,0-118.88m-3-3,0,124.88,124.88,0,0-124.88-124.88,0Z"/><g class="cls-4"><rect class="cls-2" x="554.61" y="636.01" width="121.88" height="121.88"/><path class="cls-3" d="M556.14,637.49l118.88,0,0,118.88-118.88,0,0-118.88m-3-3,0,124.88,124.88,0,0-124.88-124.88,0Z"/></g><g class="cls-5"><rect class="cls-2" x="554.56" y="758.67" width="121.88" height="121.88"/><path class="cls-3" d="M556.09,760.14l118.88,0,0,118.88L556,879l0-118.88m-3-3L553,882l124.88,0,0-124.88-124.88,0Z"/></g><g class="cls-5"><rect class="cls-2" x="554.52" y="881.32" width="121.88" height="121.88"/><path class="cls-3" d="M556,882.8l118.88,0,0,118.88-118.88,0,0-118.88m-3-3,0,124.88,124.88,0,0-124.88L553,879.8Z"/></g><g class="cls-6"><rect class="cls-2" x="554.47" y="1003.97" width="121.88" height="121.88"/><path class="cls-3" d="M556,1005.45l118.88,0,0,118.88-118.88,0,0-118.88m-3-3,0,124.88,124.88,0,0-124.88-124.88,0Z"/></g><g class="cls-5"><rect class="cls-2" x="554.42" y="1126.63" width="121.88" height="121.88"/><path class="cls-3" d="M555.94,1128.11l118.88,0,0,118.88-118.88,0,0-118.88m-3-3,0,124.88,124.88,0,0-124.88-124.88,0Z"/></g><g class="cls-5"><rect class="cls-2" x="554.37" y="1249.28" width="121.88" height="121.88"/><path class="cls-3" d="M555.9,1250.76l118.88,0,0,118.88-118.88,0,0-118.88m-3-3,0,124.88,124.88,0,0-124.88-124.88,0Z"/></g><g class="cls-5"><rect class="cls-2" x="554.32" y="1371.94" width="121.88" height="121.88"/><path class="cls-3" d="M555.85,1373.41l118.88,0,0,118.88-118.88,0,0-118.88m-3-3,0,124.88,124.88,0,0-124.88-124.88,0Z"/></g><g class="cls-7"><rect class="cls-2" x="554.28" y="1494.59" width="121.88" height="121.88"/><path class="cls-3" d="M555.8,1496.07l118.88,0,0,118.88-118.88,0,0-118.88m-3-3,0,124.88,124.88,0,0-124.88-124.88,0Z"/></g><g class="cls-8"><rect class="cls-2" x="433.13" y="390.75" width="121.88" height="121.88"/><path class="cls-3" d="M434.66,392.23l118.88,0,0,118.88-118.88,0,0-118.88m-3-3,0,124.88,124.88,0,0-124.88-124.88,0Z"/></g><g class="cls-9"><rect class="cls-2" x="433.08" y="513.41" width="121.88" height="121.88"/><path class="cls-3" d="M434.61,514.88l118.88,0,0,118.88-118.88,0,0-118.88m-3-3,0,124.88,124.88,0,0-124.88-124.88,0Z"/></g><g class="cls-5"><rect class="cls-2" x="433.04" y="636.06" width="121.88" height="121.88"/><path class="cls-3" d="M434.56,637.54l118.88,0,0,118.88-118.88,0,0-118.88m-3-3,0,124.88,124.88,0,0-124.88-124.88,0Z"/></g><g class="cls-9"><rect class="cls-2" x="432.99" y="758.71" width="121.88" height="121.88"/><path class="cls-3" d="M434.51,760.19l118.88,0,0,118.88-118.88,0,0-118.88m-3-3,0,124.88,124.88,0,0-124.88-124.88,0Z"/></g><g class="cls-5"><rect class="cls-2" x="432.94" y="881.37" width="121.88" height="121.88"/><path class="cls-3" d="M434.46,882.84l118.88,0,0,118.88-118.88,0,0-118.88m-3-3,0,124.88,124.88,0,0-124.88-124.88,0Z"/></g><g class="cls-9"><rect class="cls-2" x="432.89" y="1004.02" width="121.88" height="121.88"/><path class="cls-3" d="M434.42,1005.5l118.88,0,0,118.88-118.88,0,0-118.88m-3-3,0,124.88,124.88,0,0-124.88-124.88,0Z"/></g><g class="cls-8"><rect class="cls-2" x="432.84" y="1126.68" width="121.88" height="121.88"/><path class="cls-3" d="M434.37,1128.15l118.88,0,0,118.88-118.88,0,0-118.88m-3-3,0,124.88,124.88,0,0-124.88-124.88,0Z"/></g><g class="cls-9"><rect class="cls-2" x="432.8" y="1249.33" width="121.88" height="121.88"/><path class="cls-3" d="M434.32,1250.81l118.88,0,0,118.88-118.88,0,0-118.88m-3-3,0,124.88,124.88,0,0-124.88-124.88,0Z"/></g><g class="cls-5"><rect class="cls-2" x="432.75" y="1371.98" width="121.88" height="121.88"/><path class="cls-3" d="M434.27,1373.46l118.88,0,0,118.88-118.88,0,0-118.88m-3-3,0,124.88,124.88,0,0-124.88-124.88,0Z"/></g><g class="cls-9"><rect class="cls-2" x="432.7" y="1494.64" width="121.88" height="121.88"/><path class="cls-3" d="M434.22,1496.12l118.88,0,0,118.88-118.88,0,0-118.88m-3-3,0,124.88,124.88,0,0-124.88-124.88,0Z"/></g><g class="cls-7"><rect class="cls-2" x="677.79" y="390.8" width="121.88" height="121.88"/><path class="cls-3" d="M679.31,392.28l118.88,0,0,118.88-118.88,0,0-118.88m-3-3,0,124.88,124.88,0,0-124.88-124.88,0Z"/></g><g class="cls-8"><rect class="cls-2" x="677.74" y="513.45" width="121.88" height="121.88"/><path class="cls-3" d="M679.26,514.93l118.88,0,0,118.88-118.88,0,0-118.88m-3-3,0,124.88,124.88,0,0-124.88-124.88,0Z"/></g><g class="cls-7"><rect class="cls-2" x="677.69" y="636.11" width="121.88" height="121.88"/><path class="cls-3" d="M679.21,637.58l118.88,0,0,118.88-118.88,0,0-118.88m-3-3,0,124.88,124.88,0,0-124.88-124.88,0Z"/></g><g class="cls-1"><rect class="cls-2" x="677.64" y="758.76" width="121.88" height="121.88"/><path class="cls-3" d="M679.17,760.24l118.88,0,0,118.88-118.88,0,0-118.88m-3-3,0,124.88,124.88,0,0-124.88-124.88,0Z"/></g><rect class="cls-2" x="677.59" y="881.42" width="121.88" height="121.88"/><path class="cls-3" d="M679.12,882.89l118.88,0,0,118.88-118.88,0,0-118.88m-3-3,0,124.88,124.88,0,0-124.88-124.88,0Z"/><g class="cls-9"><rect class="cls-2" x="677.55" y="1004.07" width="121.88" height="121.88"/><path class="cls-3" d="M679.07,1005.55l118.88,0,0,118.88-118.88,0,0-118.88m-3-3,0,124.88,124.88,0,0-124.88-124.88,0Z"/></g><g class="cls-7"><rect class="cls-2" x="677.5" y="1126.72" width="121.88" height="121.88"/><path class="cls-3" d="M679,1128.2l118.88,0,0,118.88-118.88,0,0-118.88m-3-3,0,124.88,124.88,0,0-124.88-124.88,0Z"/></g><g class="cls-8"><rect class="cls-2" x="677.45" y="1249.38" width="121.88" height="121.88"/><path class="cls-3" d="M679,1250.86l118.88,0,0,118.88-118.88,0,0-118.88m-3-3,0,124.88,124.88,0,0-124.88-124.88,0Z"/></g><g class="cls-9"><rect class="cls-2" x="677.4" y="1372.03" width="121.88" height="121.88"/><path class="cls-3" d="M678.93,1373.51l118.88,0,0,118.88-118.88,0,0-118.88m-3-3,0,124.88,124.88,0,0-124.88-124.88,0Z"/></g><g class="cls-1"><rect class="cls-2" x="677.35" y="1494.69" width="121.88" height="121.88"/><path class="cls-3" d="M678.88,1496.16l118.88,0,0,118.88-118.88,0,0-118.88m-3-3,0,124.88,124.88,0,0-124.88-124.88,0Z"/></g><g class="cls-5"><rect class="cls-2" x="308.44" y="390.85" width="121.88" height="121.88"/><path class="cls-3" d="M310,392.32l118.88,0,0,118.88-118.88,0,0-118.88m-3-3,0,124.88,124.88,0,0-124.88-124.88,0Z"/></g><g class="cls-7"><rect class="cls-2" x="306.97" y="513.4" width="121.88" height="121.88"/><path class="cls-3" d="M308.49,514.87l118.88,0,0,118.88-118.88,0,0-118.88m-3-3,0,124.88,124.88,0,0-124.88-124.88,0Z"/></g><g class="cls-8"><rect class="cls-2" x="308.35" y="636.16" width="121.88" height="121.88"/><path class="cls-3" d="M309.87,637.63l118.88,0,0,118.88-118.88,0,0-118.88m-3-3,0,124.88,124.88,0,0-124.88-124.88,0Z"/></g><g class="cls-8"><rect class="cls-2" x="308.3" y="758.81" width="121.88" height="121.88"/><path class="cls-3" d="M309.82,760.29l118.88,0,0,118.88-118.88,0,0-118.88m-3-3,0,124.88,124.88,0,0-124.88-124.88,0Z"/></g><g class="cls-7"><rect class="cls-2" x="308.25" y="881.46" width="121.88" height="121.88"/><path class="cls-3" d="M309.77,882.94l118.88,0,0,118.88-118.88,0,0-118.88m-3-3,0,124.88,124.88,0,0-124.88-124.88,0Z"/></g><g class="cls-8"><rect class="cls-2" x="308.2" y="1004.12" width="121.88" height="121.88"/><path class="cls-3" d="M309.72,1005.6l118.88,0,0,118.88-118.88,0,0-118.88m-3-3,0,124.88,124.88,0,0-124.88-124.88,0Z"/></g><g class="cls-7"><rect class="cls-2" x="308.15" y="1126.77" width="121.88" height="121.88"/><path class="cls-3" d="M309.68,1128.25l118.88,0,0,118.88-118.88,0,0-118.88m-3-3,0,124.88,124.88,0,0-124.88-124.88,0Z"/></g><g class="cls-7"><rect class="cls-2" x="308.1" y="1249.43" width="121.88" height="121.88"/><path class="cls-3" d="M309.63,1250.9l118.88,0,0,118.88-118.88,0,0-118.88m-3-3,0,124.88,124.88,0,0-124.88-124.88,0Z"/></g><g class="cls-5"><rect class="cls-2" x="308.06" y="1372.08" width="121.88" height="121.88"/><path class="cls-3" d="M309.58,1373.56l118.88,0,0,118.88-118.88,0,0-118.88m-3-3,0,124.88,124.88,0,0-124.88-124.88,0Z"/></g><g class="cls-1"><rect class="cls-2" x="308.01" y="1494.74" width="121.88" height="121.88"/><path class="cls-3" d="M309.53,1496.21l118.88,0,0,118.88-118.88,0,0-118.88m-3-3,0,124.88,124.88,0,0-124.88-124.88,0Z"/></g><g class="cls-5"><rect class="cls-2" x="800.1" y="390.9" width="121.88" height="121.88"/><path class="cls-3" d="M801.62,392.37l118.88,0,0,118.88-118.88,0,0-118.88m-3-3,0,124.88,124.88,0,0-124.88-124.88,0Z"/></g><g class="cls-1"><rect class="cls-2" x="800.05" y="513.55" width="121.88" height="121.88"/><path class="cls-3" d="M801.57,515l118.88,0,0,118.88-118.88,0,0-118.88m-3-3,0,124.88,124.88,0,0-124.88-124.88,0Z"/></g><g class="cls-1"><rect class="cls-2" x="800" y="636.2" width="121.88" height="121.88"/><path class="cls-3" d="M801.52,637.68l118.88,0,0,118.88-118.88,0,0-118.88m-3-3,0,124.88,124.88,0,0-124.88-124.88,0Z"/></g><g class="cls-7"><rect class="cls-2" x="799.95" y="758.86" width="121.88" height="121.88"/><path class="cls-3" d="M801.47,760.33l118.88,0,0,118.88-118.88,0,0-118.88m-3-3,0,124.88,124.88,0,0-124.88-124.88,0Z"/></g><g class="cls-6"><rect class="cls-2" x="799.9" y="881.51" width="121.88" height="121.88"/><path class="cls-3" d="M801.43,883l118.88,0,0,118.88-118.88,0,0-118.88m-3-3,0,124.88,124.88,0,0-124.88-124.88,0Z"/></g><g class="cls-1"><rect class="cls-2" x="799.86" y="1004.17" width="121.88" height="121.88"/><path class="cls-3" d="M801.38,1005.64l118.88,0,0,118.88-118.88,0,0-118.88m-3-3,0,124.88,124.88,0,0-124.88-124.88,0Z"/></g><g class="cls-8"><rect class="cls-2" x="799.81" y="1126.82" width="121.88" height="121.88"/><path class="cls-3" d="M801.33,1128.3l118.88,0,0,118.88-118.88,0,0-118.88m-3-3,0,124.88,124.88,0,0-124.88-124.88,0Z"/></g><g class="cls-9"><rect class="cls-2" x="799.76" y="1249.48" width="121.88" height="121.88"/><path class="cls-3" d="M801.28,1251l118.88,0,0,118.88-118.88,0,0-118.88m-3-3,0,124.88,124.88,0,0-124.88-124.88,0Z"/></g><g class="cls-8"><rect class="cls-2" x="799.71" y="1372.13" width="121.88" height="121.88"/><path class="cls-3" d="M801.23,1373.61l118.88,0,0,118.88-118.88,0,0-118.88m-3-3,0,124.88,124.88,0,0-124.88-124.88,0Z"/></g><g class="cls-7"><rect class="cls-2" x="799.66" y="1494.78" width="121.88" height="121.88"/><path class="cls-3" d="M801.19,1496.26l118.88,0,0,118.88-118.88,0,0-118.88m-3-3,0,124.88,124.88,0,0-124.88-124.88,0Z"/></g><g class="cls-6"><rect class="cls-10" x="1402.17" y="387.35" width="121.88" height="121.88"/><path class="cls-3" d="M1403.69,388.83l118.88,0,0,118.88-118.88,0,0-118.88m-3-3,0,124.88,124.88,0,0-124.88-124.88,0Z"/></g><g class="cls-11"><rect class="cls-10" x="1402.12" y="510" width="121.88" height="121.88"/><path class="cls-3" d="M1403.64,511.48l118.88,0,0,118.88-118.88,0,0-118.88m-3-3,0,124.88,124.88,0,0-124.88-124.88,0Z"/></g><g class="cls-8"><rect class="cls-10" x="1402.07" y="632.66" width="121.88" height="121.88"/><path class="cls-3" d="M1403.59,634.13l118.88,0,0,118.88-118.88,0,0-118.88m-3-3,0,124.88,124.88,0,0-124.88-124.88,0Z"/></g><g class="cls-7"><rect class="cls-10" x="1402.02" y="755.31" width="121.88" height="121.88"/><path class="cls-3" d="M1403.54,756.79l118.88,0,0,118.88-118.88,0,0-118.88m-3-3,0,124.88,124.88,0,0-124.88-124.88,0Z"/></g><g class="cls-7"><rect class="cls-10" x="1401.97" y="877.97" width="121.88" height="121.88"/><path class="cls-3" d="M1403.5,879.44l118.88,0,0,118.88-118.88,0,0-118.88m-3-3,0,124.88,124.88,0,0-124.88-124.88,0Z"/></g><g class="cls-1"><rect class="cls-10" x="1401.92" y="1000.62" width="121.88" height="121.88"/><path class="cls-3" d="M1403.45,1002.1l118.88,0,0,118.88-118.88,0,0-118.88m-3-3,0,124.88,124.88,0,0-124.88-124.88,0Z"/></g><g class="cls-7"><rect class="cls-10" x="1401.88" y="1123.27" width="121.88" height="121.88"/><path class="cls-3" d="M1403.4,1124.75l118.88,0,0,118.88-118.88,0,0-118.88m-3-3,0,124.88,124.88,0,0-124.88-124.88,0Z"/></g><g class="cls-7"><rect class="cls-10" x="1401.83" y="1245.93" width="121.88" height="121.88"/><path class="cls-3" d="M1403.35,1247.41l118.88,0,0,118.88-118.88,0,0-118.88m-3-3,0,124.88,124.88,0,0-124.88-124.88,0Z"/></g><g class="cls-7"><rect class="cls-10" x="1401.78" y="1368.58" width="121.88" height="121.88"/><path class="cls-3" d="M1403.3,1370.06l118.88,0,0,118.88-118.88,0,0-118.88m-3-3,0,124.88,124.88,0,0-124.88-124.88,0Z"/></g><g class="cls-5"><rect class="cls-10" x="1401.73" y="1491.24" width="121.88" height="121.88"/><path class="cls-3" d="M1403.26,1492.71l118.88,0,0,118.88-118.88,0,0-118.88m-3-3,0,124.88,124.88,0,0-124.88-124.88,0Z"/></g><g class="cls-9"><rect class="cls-10" x="1277.63" y="387.4" width="121.88" height="121.88"/><path class="cls-3" d="M1279.15,388.87l118.88,0,0,118.88-118.88,0,0-118.88m-3-3,0,124.88,124.88,0,0-124.88-124.88,0Z"/></g><g class="cls-8"><rect class="cls-10" x="1277.58" y="510.05" width="121.88" height="121.88"/><path class="cls-3" d="M1279.1,511.53l118.88,0,0,118.88-118.88,0,0-118.88m-3-3,0,124.88,124.88,0,0-124.88-124.88,0Z"/></g><g class="cls-7"><rect class="cls-10" x="1277.53" y="632.71" width="121.88" height="121.88"/><path class="cls-3" d="M1279.06,634.18l118.88,0,0,118.88-118.88,0,0-118.88m-3-3,0,124.88,124.88,0,0-124.88-124.88,0Z"/></g><g class="cls-8"><rect class="cls-10" x="1277.48" y="755.36" width="121.88" height="121.88"/><path class="cls-3" d="M1279,756.84l118.88,0,0,118.88-118.88,0,0-118.88m-3-3,0,124.88,124.88,0,0-124.88-124.88,0Z"/></g><g class="cls-7"><rect class="cls-10" x="1277.44" y="878.01" width="121.88" height="121.88"/><path class="cls-3" d="M1279,879.49l118.88,0,0,118.88-118.88,0,0-118.88m-3-3,0,124.88,124.88,0,0-124.88-124.88,0Z"/></g><g class="cls-8"><rect class="cls-10" x="1277.39" y="1000.67" width="121.88" height="121.88"/><path class="cls-3" d="M1278.91,1002.14l118.88,0,0,118.88-118.88,0,0-118.88m-3-3,0,124.88,124.88,0,0-124.88-124.88,0Z"/></g><g class="cls-9"><rect class="cls-10" x="1277.34" y="1123.32" width="121.88" height="121.88"/><path class="cls-3" d="M1278.86,1124.8l118.88,0,0,118.88-118.88,0,0-118.88m-3-3,0,124.88,124.88,0,0-124.88-124.88,0Z"/></g><g class="cls-8"><rect class="cls-10" x="1277.29" y="1245.98" width="121.88" height="121.88"/><path class="cls-3" d="M1278.81,1247.45l118.88,0,0,118.88-118.88,0,0-118.88m-3-3,0,124.88,124.88,0,0-124.88-124.88,0Z"/></g><g class="cls-7"><rect class="cls-10" x="1277.24" y="1368.63" width="121.88" height="121.88"/><path class="cls-3" d="M1278.77,1370.11l118.88,0,0,118.88-118.88,0,0-118.88m-3-3,0,124.88,124.88,0,0-124.88-124.88,0Z"/></g><g class="cls-8"><rect class="cls-10" x="1277.2" y="1491.28" width="121.88" height="121.88"/><path class="cls-3" d="M1278.72,1492.76l118.88,0,0,118.88-118.88,0,0-118.88m-3-3,0,124.88,124.88,0,0-124.88-124.88,0Z"/></g><g class="cls-5"><rect class="cls-10" x="1525.28" y="387.44" width="121.88" height="121.88"/><path class="cls-3" d="M1526.81,388.92l118.88,0,0,118.88-118.88,0,0-118.88m-3-3,0,124.88,124.88,0,0-124.88-124.88,0Z"/></g><g class="cls-9"><rect class="cls-10" x="1525.23" y="510.1" width="121.88" height="121.88"/><path class="cls-3" d="M1526.76,511.58l118.88,0,0,118.88-118.88,0,0-118.88m-3-3,0,124.88,124.88,0,0-124.88-124.88,0Z"/></g><g class="cls-5"><rect class="cls-10" x="1525.19" y="632.75" width="121.88" height="121.88"/><path class="cls-3" d="M1526.71,634.23l118.88,0,0,118.88-118.88,0,0-118.88m-3-3,0,124.88,124.88,0,0-124.88-124.88,0Z"/></g><g class="cls-6"><rect class="cls-10" x="1525.14" y="755.41" width="121.88" height="121.88"/><path class="cls-3" d="M1526.66,756.88l118.88,0,0,118.88-118.88,0,0-118.88m-3-3,0,124.88,124.88,0,0-124.88-124.88,0Z"/></g><g class="cls-11"><rect class="cls-10" x="1525.09" y="878.06" width="121.88" height="121.88"/><path class="cls-3" d="M1526.61,879.54l118.88,0,0,118.88-118.88,0,0-118.88m-3-3,0,124.88,124.88,0,0-124.88-124.88,0Z"/></g><g class="cls-5"><rect class="cls-10" x="1525.04" y="1000.72" width="121.88" height="121.88"/><path class="cls-3" d="M1526.57,1002.19l118.88,0,0,118.88-118.88,0,0-118.88m-3-3,0,124.88,124.88,0,0-124.88-124.88,0Z"/></g><g class="cls-5"><rect class="cls-10" x="1524.99" y="1123.37" width="121.88" height="121.88"/><path class="cls-3" d="M1526.52,1124.85l118.88,0,0,118.88-118.88,0,0-118.88m-3-3,0,124.88,124.88,0,0-124.88-124.88,0Z"/></g><g class="cls-9"><rect class="cls-10" x="1524.95" y="1246.02" width="121.88" height="121.88"/><path class="cls-3" d="M1526.47,1247.5l118.88,0,0,118.88-118.88,0,0-118.88m-3-3,0,124.88,124.88,0,0-124.88-124.88,0Z"/></g><g class="cls-8"><rect class="cls-10" x="1524.9" y="1368.68" width="121.88" height="121.88"/><path class="cls-3" d="M1526.42,1370.16l118.88,0,0,118.88-118.88,0,0-118.88m-3-3,0,124.88,124.88,0,0-124.88-124.88,0Z"/></g><g class="cls-6"><rect class="cls-10" x="1524.85" y="1491.33" width="121.88" height="121.88"/><path class="cls-3" d="M1526.37,1492.81l118.88,0,0,118.88-118.88,0,0-118.88m-3-3,0,124.88,124.88,0,0-124.88-124.88,0Z"/></g><g class="cls-7"><rect class="cls-10" x="1153.94" y="387.49" width="121.88" height="121.88"/><path class="cls-3" d="M1155.46,389l118.88,0,0,118.88-118.88,0,0-118.88m-3-3,0,124.88,124.88,0,0-124.88-124.88,0Z"/></g><g class="cls-5"><rect class="cls-10" x="1153.89" y="510.15" width="121.88" height="121.88"/><path class="cls-3" d="M1155.41,511.62l118.88,0,0,118.88-118.88,0,0-118.88m-3-3,0,124.88,124.88,0,0-124.88-124.88,0Z"/></g><g class="cls-8"><rect class="cls-10" x="1153.84" y="632.8" width="121.88" height="121.88"/><path class="cls-3" d="M1155.36,634.28l118.88,0,0,118.88-118.88,0,0-118.88m-3-3,0,124.88,124.88,0,0-124.88-124.88,0Z"/></g><g class="cls-9"><rect class="cls-10" x="1153.79" y="755.46" width="121.88" height="121.88"/><path class="cls-3" d="M1155.32,756.93l118.88,0,0,118.88-118.88,0,0-118.88m-3-3,0,124.88,124.88,0,0-124.88-124.88,0Z"/></g><g class="cls-5"><rect class="cls-10" x="1153.74" y="878.11" width="121.88" height="121.88"/><path class="cls-3" d="M1155.27,879.59l118.88,0,0,118.88-118.88,0,0-118.88m-3-3,0,124.88,124.88,0,0-124.88-124.88,0Z"/></g><g class="cls-9"><rect class="cls-10" x="1153.7" y="1000.76" width="121.88" height="121.88"/><path class="cls-3" d="M1155.22,1002.24l118.88,0,0,118.88-118.88,0,0-118.88m-3-3,0,124.88,124.88,0,0-124.88-124.88,0Z"/></g><g class="cls-5"><rect class="cls-10" x="1153.65" y="1123.42" width="121.88" height="121.88"/><path class="cls-3" d="M1155.17,1124.89l118.88,0,0,118.88-118.88,0,0-118.88m-3-3,0,124.88,124.88,0,0-124.88-124.88,0Z"/></g><g class="cls-5"><rect class="cls-10" x="1153.6" y="1246.07" width="121.88" height="121.88"/><path class="cls-3" d="M1155.12,1247.55l118.88,0,0,118.88-118.88,0,0-118.88m-3-3,0,124.88,124.88,0,0-124.88-124.88,0Z"/></g><g class="cls-7"><rect class="cls-10" x="1153.55" y="1368.73" width="121.88" height="121.88"/><path class="cls-3" d="M1155.08,1370.2l118.88,0,0,118.88-118.88,0,0-118.88m-3-3,0,124.88,124.88,0,0-124.88-124.88,0Z"/></g><g class="cls-6"><rect class="cls-10" x="1153.5" y="1491.38" width="121.88" height="121.88"/><path class="cls-3" d="M1155,1492.86l118.88,0,0,118.88-118.88,0,0-118.88m-3-3,0,124.88,124.88,0,0-124.88-124.88,0Z"/></g><g class="cls-7"><rect class="cls-10" x="1650.59" y="387.54" width="121.88" height="121.88"/><path class="cls-3" d="M1652.11,389l118.88,0,0,118.88-118.88,0,0-118.88m-3-3,0,124.88,124.88,0,0-124.88-124.88,0Z"/></g><g class="cls-6"><rect class="cls-10" x="1650.54" y="510.2" width="121.88" height="121.88"/><path class="cls-3" d="M1652.07,511.67l118.88,0,0,118.88-118.88,0,0-118.88m-3-3,0,124.88,124.88,0,0-124.88-124.88,0Z"/></g><g class="cls-6"><rect class="cls-10" x="1650.49" y="632.85" width="121.88" height="121.88"/><path class="cls-3" d="M1652,634.33l118.88,0,0,118.88-118.88,0,0-118.88m-3-3,0,124.88,124.88,0,0-124.88-124.88,0Z"/></g><g class="cls-12"><rect class="cls-10" x="1650.45" y="755.5" width="121.88" height="121.88"/><path class="cls-3" d="M1652,757l118.88,0,0,118.88-118.88,0L1652,757m-3-3,0,124.88,124.88,0,0-124.88L1649,754Z"/></g><g class="cls-1"><rect class="cls-10" x="1650.4" y="878.16" width="121.88" height="121.88"/><path class="cls-3" d="M1651.92,879.63l118.88,0,0,118.88-118.88,0,0-118.88m-3-3,0,124.88,124.88,0,0-124.88-124.88,0Z"/></g><g class="cls-6"><rect class="cls-10" x="1650.35" y="1000.81" width="121.88" height="121.88"/><path class="cls-3" d="M1651.87,1002.29l118.88,0,0,118.88-118.88,0,0-118.88m-3-3,0,124.88,124.88,0,0-124.88-124.88,0Z"/></g><g class="cls-9"><rect class="cls-10" x="1650.3" y="1123.47" width="121.88" height="121.88"/><path class="cls-3" d="M1651.83,1124.94l118.88,0,0,118.88-118.88,0,0-118.88m-3-3,0,124.88,124.88,0,0-124.88-124.88,0Z"/></g><g class="cls-8"><rect class="cls-10" x="1650.25" y="1246.12" width="121.88" height="121.88"/><path class="cls-3" d="M1651.78,1247.6l118.88,0,0,118.88-118.88,0,0-118.88m-3-3,0,124.88,124.88,0,0-124.88-124.88,0Z"/></g><g class="cls-9"><rect class="cls-10" x="1650.21" y="1368.77" width="121.88" height="121.88"/><path class="cls-3" d="M1651.73,1370.25l118.88,0,0,118.88-118.88,0,0-118.88m-3-3,0,124.88,124.88,0,0-124.88-124.88,0Z"/></g><g class="cls-5"><rect class="cls-10" x="1650.16" y="1491.43" width="121.88" height="121.88"/><path class="cls-3" d="M1651.68,1492.91l118.88,0,0,118.88-118.88,0,0-118.88m-3-3,0,124.88,124.88,0,0-124.88-124.88,0Z"/></g><text class="cls-13" transform="translate(481.76 306.61) rotate(-58.33)"> <tspan x="-46.25" y="49.86">PSOE</tspan></text><text class="cls-13" transform="translate(706.42 336.74) rotate(-58.33)"> <tspan x="-19.11" y="49.86">CS</tspan></text><text class="cls-13" transform="translate(340 330.36) rotate(-58.33)"> <tspan x="-19.62" y="49.86">PP</tspan></text><text class="cls-13" transform="translate(839.44 328.37) rotate(-58.33)"> <tspan x="-30.4" y="49.86">Vox</tspan></text><text class="cls-13" transform="translate(614.13 272.74) rotate(-58.33)"> <tspan x="-85.83" y="49.86">Podemos</tspan></text><text class="cls-13" transform="translate(1324.76 300.61) rotate(-58.33)"> <tspan x="-46.25" y="49.86">PSOE</tspan></text><text class="cls-13" transform="translate(1552.42 330.74) rotate(-58.33)"> <tspan x="-19.11" y="49.86">CS</tspan></text><text class="cls-13" transform="translate(1184 324.36) rotate(-58.33)"> <tspan x="-19.62" y="49.86">PP</tspan></text><text class="cls-13" transform="translate(1688.44 322.37) rotate(-58.33)"> <tspan x="-30.4" y="49.86">Vox</tspan></text><text class="cls-13" transform="translate(1461.13 266.74) rotate(-58.33)"> <tspan x="-85.83" y="49.86">Podemos</tspan></text><text class="cls-14" transform="translate(254.23 394) rotate(0.02)"> <tspan x="-22.32" y="56.2">1.º</tspan></text><text class="cls-14" transform="translate(249.78 509.69) rotate(0.02)"> <tspan x="-22.32" y="56.2">2.º</tspan></text><text class="cls-14" transform="translate(249.73 639.2) rotate(0.02)"> <tspan x="-22.32" y="56.2">3.º</tspan></text><text class="cls-14" transform="translate(248.54 761.85) rotate(0.02)"> <tspan x="-22.32" y="56.2">4.º</tspan></text><text class="cls-14" transform="translate(248.49 881.08) rotate(0.02)"> <tspan x="-22.32" y="56.2">5.º</tspan></text><text class="cls-14" transform="translate(248.44 1000.31) rotate(0.02)"> <tspan x="-22.32" y="56.2">6.º</tspan></text><text class="cls-14" transform="translate(248.4 1127.74) rotate(0.02)"> <tspan x="-22.32" y="56.2">7.º</tspan></text><text class="cls-14" transform="translate(248.35 1248.11) rotate(0.02)"> <tspan x="-22.32" y="56.2">8.º</tspan></text><text class="cls-14" transform="translate(249.44 1377.19) rotate(0.02)"> <tspan x="-22.32" y="56.2">9.º</tspan></text><text class="cls-14" transform="translate(239.12 1493.15) rotate(0.02)"> <tspan x="-35.71" y="56.2">10.º</tspan></text><text class="cls-14" transform="translate(1091.23 389) rotate(0.02)"> <tspan x="-22.32" y="56.2">1.º</tspan></text><text class="cls-14" transform="translate(1086.78 504.69) rotate(0.02)"> <tspan x="-22.32" y="56.2">2.º</tspan></text><text class="cls-14" transform="translate(1086.73 634.2) rotate(0.02)"> <tspan x="-22.32" y="56.2">3.º</tspan></text><text class="cls-14" transform="translate(1085.54 756.85) rotate(0.02)"> <tspan x="-22.32" y="56.2">4.º</tspan></text><text class="cls-14" transform="translate(1085.49 876.08) rotate(0.02)"> <tspan x="-22.32" y="56.2">5.º</tspan></text><text class="cls-14" transform="translate(1085.44 995.31) rotate(0.02)"> <tspan x="-22.32" y="56.2">6.º</tspan></text><text class="cls-14" transform="translate(1085.4 1122.74) rotate(0.02)"> <tspan x="-22.32" y="56.2">7.º</tspan></text><text class="cls-14" transform="translate(1085.35 1243.11) rotate(0.02)"> <tspan x="-22.32" y="56.2">8.º</tspan></text><text class="cls-14" transform="translate(1086.44 1372.19) rotate(0.02)"> <tspan x="-22.32" y="56.2">9.º</tspan></text><text class="cls-14" transform="translate(1076.12 1488.15) rotate(0.02)"> <tspan x="-35.71" y="56.2">10.º</tspan></text><line class="cls-15" x1="4" y1="1772" x2="1838" y2="1772"/><text class="cls-16" transform="translate(8.63 1821.66) scale(0.99 1)">Fuente: Elaboración propia a partir de las listas de los candidatos</text><text class="cls-17" transform="translate(1434.63 1821.66) scale(0.99 1)">LA VANGUARDIA</text><text class="cls-18" transform="translate(9.31 73.79)">Posición de hombres y mujeres en las listas de cada partido</text><text class="cls-17" transform="translate(304.56 140.25)">En las siete provincias que tienen más de 10 escaños</text><text class="cls-19" transform="translate(105.28 290.65)">POSICIÓN <tspan class="cls-20"><tspan x="-32.21" y="48">EN LA LISTA</tspan></tspan></text><text class="cls-21" transform="translate(1244.18 1703.65)">NÚMERO DE <tspan class="cls-22" x="249.77" y="0">HOMBRES</tspan></text><text class="cls-21" transform="translate(391.9 1697.65)">NÚMERO DE <tspan class="cls-22" x="249.77" y="0">MUJERES</tspan></text><text class="cls-23" transform="translate(599.44 477.79)">1</text><text class="cls-23" transform="translate(1693.44 960.79)">1</text><text class="cls-23" transform="translate(1442.44 1078.79)">1</text><text class="cls-23" transform="translate(1440.44 592.79)">0</text><text class="cls-23" transform="translate(1562.44 962.79)">0</text><text class="cls-23" transform="translate(842.44 597.79)">1</text><text class="cls-23" transform="translate(716.44 843.79)">1</text><text class="cls-23" transform="translate(842.44 720.79)">1</text><text class="cls-23" transform="translate(350.44 1579.79)">1</text><text class="cls-23" transform="translate(715.44 1582.79)">1</text><text class="cls-23" transform="translate(844.44 1083.79)">1</text><text class="cls-24" transform="translate(599.44 601.79)">7</text><text class="cls-24" transform="translate(725.44 967.79)">7</text><text class="cls-24" transform="translate(1446.44 473.79)">7</text><text class="cls-24" transform="translate(596.44 721.79)">5</text><text class="cls-24" transform="translate(350.44 970.79)">4</text><text class="cls-24" transform="translate(475.44 600.79)">5</text><text class="cls-24" transform="translate(475.44 842.79)">5</text><text class="cls-24" transform="translate(478.44 1082.79)">5</text><text class="cls-24" transform="translate(724.44 1084.79)">5</text><text class="cls-24" transform="translate(845.44 1336.79)">5</text><text class="cls-24" transform="translate(473.44 1336.79)">5</text><text class="cls-24" transform="translate(719.44 1459.79)">5</text><text class="cls-24" transform="translate(472.44 1580.79)">5</text><text class="cls-24" transform="translate(599.44 1085.79)">6</text><text class="cls-24" transform="translate(1571.44 842.79)">6</text><text class="cls-24" transform="translate(1197.44 1580.79)">6</text><text class="cls-24" transform="translate(1574.44 1580.79)">6</text><text class="cls-24" transform="translate(1691.44 1079.79)">6</text><text class="cls-24" transform="translate(1314.44 471.79)">5</text><text class="cls-24" transform="translate(1694.44 594.79)">5</text><text class="cls-24" transform="translate(1694.44 717.79)">5</text><text class="cls-24" transform="translate(1565.44 591.79)">5</text><text class="cls-24" transform="translate(1199.44 840.79)">5</text><text class="cls-24" transform="translate(1196.44 1077.79)">5</text><text class="cls-24" transform="translate(1692.44 1206.79)">5</text><text class="cls-24" transform="translate(1696.44 1450.79)">5</text><text class="cls-24" transform="translate(1321.44 1206.79)">5</text><text class="cls-24" transform="translate(1566.44 1333.79)">5</text><text class="cls-24" transform="translate(839.44 965.79)">6</text><text class="cls-23" transform="translate(593.44 844.79)">3</text><text class="cls-23" transform="translate(344.44 475.79)">3</text><text class="cls-23" transform="translate(474.44 719.79)">3</text><text class="cls-23" transform="translate(1188.44 594.79)">3</text><text class="cls-23" transform="translate(1567.44 718.79)">3</text><text class="cls-23" transform="translate(1566.44 1080.79)">3</text><text class="cls-23" transform="translate(1197.44 1210.79)">3</text><text class="cls-23" transform="translate(1194.44 1334.79)">3</text><text class="cls-23" transform="translate(1689.44 1575.79)">3</text><text class="cls-23" transform="translate(1567.44 1207.79)">3</text><text class="cls-23" transform="translate(1439.44 1577.79)">3</text><text class="cls-23" transform="translate(468.44 967.79)">3</text><text class="cls-23" transform="translate(477.44 475.79)">2</text><text class="cls-23" transform="translate(1562.44 470.79)">2</text><text class="cls-23" transform="translate(719.44 598.79)">2</text><text class="cls-23" transform="translate(1319.44 595.79)">2</text><text class="cls-23" transform="translate(1316.44 842.79)">2</text><text class="cls-23" transform="translate(1318.44 1078.79)">2</text><text class="cls-23" transform="translate(1315.44 1335.79)">2</text><text class="cls-23" transform="translate(1565.44 1451.79)">2</text><text class="cls-23" transform="translate(1322.44 1578.79)">2</text><text class="cls-23" transform="translate(1698.44 1329.79)">2</text><text class="cls-23" transform="translate(1443.44 718.79)">2</text><text class="cls-23" transform="translate(1191.44 721.79)">2</text><text class="cls-23" transform="translate(350.44 721.79)">2</text><text class="cls-23" transform="translate(349.44 845.79)">2</text><text class="cls-23" transform="translate(349.44 1082.79)">2</text><text class="cls-23" transform="translate(475.44 1211.79)">2</text><text class="cls-23" transform="translate(720.44 1335.79)">2</text><text class="cls-23" transform="translate(834.44 1213.79)">2</text><text class="cls-23" transform="translate(843.44 1456.79)">2</text><text class="cls-23" transform="translate(593.44 967.79)">3</text><text class="cls-23" transform="translate(838.44 478.79)">3</text><text class="cls-23" transform="translate(599.44 1213.79)">3</text><text class="cls-23" transform="translate(593.44 1340.79)">3</text><text class="cls-23" transform="translate(593.44 1458.79)">3</text><text class="cls-23" transform="translate(475.44 1457.79)">3</text><text class="cls-23" transform="translate(346.44 1457.79)">3</text><text class="cls-24" transform="translate(593.44 1581.79)">4</text><text class="cls-24" transform="translate(842.44 1581.79)">4</text><text class="cls-24" transform="translate(347.44 597.79)">4</text><text class="cls-24" transform="translate(1190.44 473.79)">4</text><text class="cls-24" transform="translate(1687.44 478.79)">4</text><text class="cls-24" transform="translate(1313.44 719.79)">4</text><text class="cls-24" transform="translate(1687.44 837.79)">4</text><text class="cls-24" transform="translate(1438.44 958.79)">4</text><text class="cls-24" transform="translate(1310.44 959.79)">4</text><text class="cls-24" transform="translate(1439.44 1208.79)">4</text><text class="cls-24" transform="translate(1436.44 1332.79)">4</text><text class="cls-24" transform="translate(1436.44 1451.79)">4</text><text class="cls-24" transform="translate(1311.44 1451.79)">4</text><text class="cls-24" transform="translate(1191.44 1452.79)">4</text><text class="cls-23" transform="translate(1196.44 961.79)">3</text><text class="cls-24" transform="translate(1440.44 840.79)">4</text><text class="cls-24" transform="translate(716.44 477.79)">4</text><text class="cls-24" transform="translate(842.44 846.79)">4</text><text class="cls-24" transform="translate(713.44 1210.79)">4</text><text class="cls-24" transform="translate(341.44 1211.79)">4</text><text class="cls-24" transform="translate(344.44 1337.79)">4</text><text class="cls-24" transform="translate(719.44 719.79)">4</text></svg>