<svg id="Capa_1" data-name="Capa 1" xmlns="http://www.w3.org/2000/svg" viewBox="0 0 1399.4 809.65"><defs><style>.cls-1{fill:#029696;}.cls-1,.cls-15,.cls-19,.cls-39,.cls-40,.cls-41,.cls-42,.cls-43,.cls-7,.cls-9{stroke:#029696;}.cls-1,.cls-20,.cls-21,.cls-22,.cls-23,.cls-25,.cls-38{stroke-miterlimit:10;}.cls-10,.cls-11,.cls-12,.cls-13,.cls-14,.cls-15,.cls-16,.cls-17,.cls-18,.cls-19,.cls-2,.cls-25,.cls-38,.cls-39,.cls-40,.cls-41,.cls-42,.cls-43,.cls-44,.cls-45,.cls-46,.cls-47,.cls-48,.cls-49,.cls-5,.cls-50,.cls-51,.cls-52,.cls-53,.cls-54,.cls-55,.cls-56,.cls-57,.cls-6,.cls-7,.cls-8,.cls-9{fill:none;}.cls-26,.cls-3,.cls-31,.cls-32,.cls-33,.cls-34,.cls-35,.cls-4,.cls-58{isolation:isolate;}.cls-26,.cls-3{font-size:18px;}.cls-3,.cls-32,.cls-34,.cls-35{fill:#757575;}.cls-26,.cls-3,.cls-31,.cls-32,.cls-34,.cls-35,.cls-58{font-family:ArialMT, Arial MT;}.cls-4{font-size:36px;font-family:Arial-BoldMT, Arial;font-weight:700;}.cls-26,.cls-31,.cls-4,.cls-58{fill:#323232;}.cls-13,.cls-17,.cls-20,.cls-49,.cls-5,.cls-50,.cls-51,.cls-52{stroke:#f77401;}.cls-10,.cls-11,.cls-12,.cls-13,.cls-14,.cls-15,.cls-16,.cls-17,.cls-18,.cls-19,.cls-39,.cls-40,.cls-41,.cls-42,.cls-43,.cls-44,.cls-45,.cls-46,.cls-47,.cls-48,.cls-49,.cls-5,.cls-50,.cls-51,.cls-52,.cls-53,.cls-54,.cls-55,.cls-56,.cls-57,.cls-6,.cls-7,.cls-8,.cls-9{stroke-opacity:0.4;}.cls-5{stroke-width:124.06px;}.cls-10,.cls-14,.cls-16,.cls-6{stroke:#e04752;}.cls-6{stroke-width:99.61px;}.cls-7{stroke-width:97.21px;}.cls-11,.cls-12,.cls-18,.cls-21,.cls-53,.cls-54,.cls-55,.cls-56,.cls-57,.cls-8{stroke:#8e244f;}.cls-8{stroke-width:88.81px;}.cls-9{stroke-width:22.65px;}.cls-10{stroke-width:8.85px;}.cls-11{stroke-width:8.55px;}.cls-12{stroke-width:7.8px;}.cls-13{stroke-width:3.6px;}.cls-14{stroke-width:2.55px;}.cls-15{stroke-width:1.5px;}.cls-16{stroke-width:1.35px;}.cls-17{stroke-width:1.2px;}.cls-20{fill:#f77401;}.cls-21,.cls-24{fill:#8e244f;}.cls-22{fill:#af0c20;stroke:#af0c20;}.cls-23{fill:#d35d05;stroke:#d35d05;}.cls-25{stroke:#757575;}.cls-27{letter-spacing:-0.03em;}.cls-28{letter-spacing:0em;}.cls-29{letter-spacing:-0.02em;}.cls-30{letter-spacing:-0.03em;}.cls-31,.cls-32{font-size:14px;}.cls-34,.cls-58{font-size:17px;}.cls-35{font-size:16px;}.cls-36{letter-spacing:-0.06em;}.cls-37{letter-spacing:-0.02em;}.cls-38{stroke:#323232;stroke-width:0.75px;}.cls-39{stroke-width:96.38px;}.cls-40,.cls-48{stroke-width:3.38px;}.cls-41{stroke-width:46.34px;}.cls-42{stroke-width:13.84px;}.cls-43{stroke-width:0.64px;}.cls-44,.cls-45,.cls-46,.cls-47,.cls-48{stroke:#ed5959;}.cls-44{stroke-width:0.48px;}.cls-45{stroke-width:120.2px;}.cls-46{stroke-width:9.65px;}.cls-47{stroke-width:25.91px;}.cls-49{stroke-width:4.67px;}.cls-50{stroke-width:121.32px;}.cls-51{stroke-width:28.32px;}.cls-52{stroke-width:1.29px;}.cls-53{stroke-width:2.41px;}.cls-54{stroke-width:19.15px;}.cls-55{stroke-width:4.34px;}.cls-56{stroke-width:22.85px;}.cls-57{stroke-width:80.78px;}.cls-59{letter-spacing:-0.05em;}.cls-60{letter-spacing:-0.05em;}</style></defs><title>2018.12_BalancePolitica</title><line class="cls-1" x1="625.4" y1="138.5" x2="633.4" y2="138.5"/><rect class="cls-2" x="625.4" y="87" width="186.2" height="13.2"/><text class="cls-3" transform="translate(625.4 99.89)">ELECCIONES 2016</text><rect class="cls-2" x="1039.1" y="83" width="235.2" height="17"/><text class="cls-3" transform="translate(1068.27 95.89)">FUTURAS ELECCIONES</text><rect class="cls-2" x="734.4" width="662" height="31"/><text class="cls-4" transform="translate(647.29 61.78)">El trasvase de votos a Ciudadanos</text><path class="cls-5" d="M-567.3,163.48h433.7" transform="translate(577.4 32.52)"/><path class="cls-6" d="M-567.3,431.88c216.8,0,216.8-104.5,433.7-104.5" transform="translate(577.4 32.52)"/><path class="cls-7" d="M-567.3,314.28c216.8,0,216.8,133.6,433.7,133.6" transform="translate(577.4 32.52)"/><path class="cls-8" d="M-567.3,557.08h433.7" transform="translate(577.4 32.52)"/><path class="cls-9" d="M-567.3,252.88c216.8,0,216.8-16,433.7-16" transform="translate(577.4 32.52)"/><path class="cls-10" d="M-567.3,377.68c216.8,0,216.8-125,433.7-125" transform="translate(577.4 32.52)"/><path class="cls-11" d="M-567.3,507.68c216.8,0,216.8-126.2,433.7-126.2" transform="translate(577.4 32.52)"/><path class="cls-12" d="M-567.3,499.48c216.8,0,216.8-238.5,433.7-238.5" transform="translate(577.4 32.52)"/><path class="cls-13" d="M-567.3,228.58c216.8,0,216.8,169,433.7,169" transform="translate(577.4 32.52)"/><path class="cls-14" d="M-567.3,484.28c216.8,0,216.8,27.1,433.7,27.1" transform="translate(577.4 32.52)"/><path class="cls-15" d="M-567.3,265c216.8,0,216.8,11.9,433.7,11.9" transform="translate(577.4 32.52)"/><path class="cls-16" d="M-567.3,482.38c216.8,0,216.8,14.9,433.7,14.9" transform="translate(577.4 32.52)"/><path class="cls-17" d="M-567.3,231c216.8,0,216.8,278.3,433.7,278.3" transform="translate(577.4 32.52)"/><path class="cls-17" d="M-567.3,226.18c216.8,0,216.8,49.3,433.7,49.3" transform="translate(577.4 32.52)"/><path class="cls-18" d="M-567.3,512.28c216.8,0,216.8-14.1,433.7-14.1" transform="translate(577.4 32.52)"/><path class="cls-19" d="M-567.3,363.08c216.8,0,216.8,146.9,433.7,146.9" transform="translate(577.4 32.52)"/><rect class="cls-20" x="444.1" y="134" width="6.7" height="163.4"/><rect class="cls-21" x="444.1" y="541.14" width="6.7" height="92.9"/><rect class="cls-1" x="444.1" y="428.23" width="7.8" height="102.9"/><rect class="cls-22" x="444.6" y="307.37" width="6.8" height="110.9"/><rect class="cls-23" x="1.5" y="134" width="8.8" height="130.1"/><rect class="cls-24" x="0.6" y="528.09" width="8.3" height="105.9"/><rect class="cls-1" x="1" y="274.06" width="8.7" height="121.7"/><rect class="cls-22" x="0.5" y="405.73" width="8.9" height="112.4"/><line class="cls-25" x1="625.4" y1="123" x2="877.4" y2="123"/><line class="cls-25" x1="1030.4" y1="123" x2="1272.4" y2="123"/><rect class="cls-2" x="625.4" y="103.7" width="266" height="47.7"/><text class="cls-26" transform="translate(625.4 116.56)">Del 100% que recuerda <tspan class="cls-27" x="194.09" y="0">v</tspan><tspan class="cls-28" x="202.48" y="0">otar a:</tspan></text><rect class="cls-2" x="1010.4" y="102.7" width="268" height="16.3"/><text class="cls-26" transform="translate(1028.27 115.54)">En nu<tspan class="cls-29" x="47.03" y="0">e</tspan><tspan class="cls-27" x="56.72" y="0">v</tspan><tspan class="cls-28" x="65.11" y="0">os comicios </tspan><tspan class="cls-30" x="164.12" y="0">v</tspan><tspan class="cls-28" x="172.51" y="0">otarían a:</tspan></text><rect class="cls-2" x="360.4" y="139.6" width="101" height="10.4"/><rect class="cls-2" x="361.4" y="321.6" width="101" height="10.4"/><text class="cls-31" transform="translate(361.4 331.66)">66,4% repite</text><rect class="cls-2" x="360.4" y="440.6" width="101" height="10.4"/><text class="cls-31" transform="translate(360.4 450.66)">64,8% repite</text><rect class="cls-2" x="360.4" y="554.6" width="101" height="10.4"/><text class="cls-31" transform="translate(360.4 564.66)">59,7% repite</text><rect class="cls-2" x="297.4" y="263.6" width="146" height="10.4"/><text class="cls-32" transform="translate(297.4 273.66)">Un 15,1% del PP a CS</text><rect class="cls-2" x="462.4" y="220.6" width="78" height="40.4"/><g class="cls-33"><text class="cls-32" transform="translate(462.4 230.66)">Un 5,9% del </text><text class="cls-32" transform="translate(462.4 247.66)">PSOE a CS</text></g><rect class="cls-2" x="607.4" y="784.7" width="358" height="17.1"/><text class="cls-34" transform="translate(579.4 803.85)">Fuente: Pregunta 16R del Barómetro del CIS</text><rect class="cls-2" x="1266.4" y="784.8" width="133" height="17.1"/><text class="cls-35" transform="translate(1189.4 806.29)">LA <tspan class="cls-36" x="24.02" y="0">V</tspan><tspan x="33.65" y="0">ANG</tspan><tspan class="cls-37" x="68.32" y="0">U</tspan><tspan x="79.58" y="0">ARDIA</tspan></text><path class="cls-38" d="M-569.5,638.28" transform="translate(577.4 32.52)"/><line class="cls-25" x1="450.9" y1="285" x2="459.9" y2="285"/><line class="cls-25" x1="459.6" y1="220.8" x2="459.6" y2="285.3"/><path class="cls-39" d="M54,155.67c320,0,320-5,640-5" transform="translate(577.4 32.52)"/><path class="cls-40" d="M54,205.55c320,0,320,12.56,640,12.56" transform="translate(577.4 32.52)"/><path class="cls-41" d="M54,230.41C374,230.41,374,397,694,397" transform="translate(577.4 32.52)"/><path class="cls-42" d="M54,261.15c320,0,320,407.34,640,407.34" transform="translate(577.4 32.52)"/><path class="cls-43" d="M54,253.91c320,0,320,311.9,640,311.9" transform="translate(577.4 32.52)"/><path class="cls-44" d="M54,278.31c320,0,320-79.2,640-79.2" transform="translate(577.4 32.52)"/><path class="cls-45" d="M54,338.65c320,0,320-58.74,640-58.74" transform="translate(577.4 32.52)"/><path class="cls-46" d="M54,403.57c320,0,320,21.41,640,21.41" transform="translate(577.4 32.52)"/><path class="cls-47" d="M54,424.73c320,0,320,263.63,640,263.63" transform="translate(577.4 32.52)"/><path class="cls-48" d="M54,410.09c320,0,320,157.72,640,157.72" transform="translate(577.4 32.52)"/><path class="cls-49" d="M54,450c320,0,320-248.34,640-248.34" transform="translate(577.4 32.52)"/><path class="cls-49" d="M54,454.69c320,0,320-112.35,640-112.35" transform="translate(577.4 32.52)"/><path class="cls-50" d="M54,517.68c320,0,320-27.21,640-27.21" transform="translate(577.4 32.52)"/><path class="cls-51" d="M54,593.79c320,0,320,121.68,640,121.68" transform="translate(577.4 32.52)"/><path class="cls-52" d="M54,579c320,0,320-8.84,640-8.84" transform="translate(577.4 32.52)"/><path class="cls-53" d="M54,619.16c320,0,320-413.94,640-413.94" transform="translate(577.4 32.52)"/><path class="cls-54" d="M54,629.94c320,0,320-275.69,640-275.69" transform="translate(577.4 32.52)"/><path class="cls-55" d="M54,641.68c320,0,320-88.37,640-88.37" transform="translate(577.4 32.52)"/><path class="cls-56" d="M54,736.06c320,0,320,5,640,5" transform="translate(577.4 32.52)"/><path class="cls-57" d="M54,684.24c320,0,320-73.06,640-73.06" transform="translate(577.4 32.52)"/><rect class="cls-1" x="629.67" y="140" width="7.97" height="160.59"/><rect class="cls-22" x="629.67" y="310.59" width="7.97" height="159.62"/><rect class="cls-23" x="629.67" y="480.21" width="7.97" height="160.26"/><rect class="cls-24" x="629.67" y="650.47" width="7.97" height="129.53"/><rect class="cls-1" x="1264.51" y="135" width="8.28" height="103.95"/><rect class="cls-22" x="1264.51" y="248.95" width="8.28" height="147.39"/><rect class="cls-23" x="1264.51" y="406.34" width="8.28" height="181.66"/><rect class="cls-24" x="1264.51" y="598" width="8.28" height="86.09"/><rect x="1264.51" y="694.09" width="8.28" height="90.91"/><text class="cls-58" transform="translate(648.4 552.06)">CIU<tspan class="cls-59" x="29.27" y="0">D</tspan><tspan x="40.77" y="0">A</tspan><tspan class="cls-60" x="52.1" y="0">D</tspan><tspan x="63.6" y="0">ANOS</tspan></text><text class="cls-58" transform="translate(648.4 197.07)">PP </text><text class="cls-58" transform="translate(650.4 380.6)">PSOE</text><text class="cls-58" transform="translate(650.4 728.07)">PODEMOS</text><text class="cls-58" transform="translate(1157.4 156.66)">el 60% repite</text><text class="cls-58" transform="translate(1156.4 279.66)">el 75% repite</text><text class="cls-58" transform="translate(1154.4 487.66)">el 75% repite</text><text class="cls-58" transform="translate(1155.4 624.66)">el 58% repite</text></svg>