<svg id="Capa_1" data-name="Capa 1" xmlns="http://www.w3.org/2000/svg" viewBox="0 0 743 773.78"><defs><style>@import url('https://fonts.googleapis.com/css?family=Open+Sans:400,700');		.cls-1{fill:#029696;}.cls-1,.cls-11,.cls-12,.cls-13,.cls-14,.cls-15{stroke:#029696;}.cls-1,.cls-30,.cls-31,.cls-5{stroke-miterlimit:10;}.cls-11,.cls-12,.cls-13,.cls-14,.cls-15,.cls-16,.cls-17,.cls-18,.cls-19,.cls-2,.cls-20,.cls-21,.cls-22,.cls-23,.cls-24,.cls-25,.cls-26,.cls-27,.cls-28,.cls-29,.cls-5{fill:none;}.cls-3,.cls-33,.cls-4,.cls-6,.cls-7,.cls-8{isolation:isolate;}.cls-3,.cls-6{font-size:18px;}.cls-3,.cls-7,.cls-8{fill:#757575;}.cls-3,.cls-33,.cls-6,.cls-7{font-family:OpenSans, Open Sans;}.cls-4{font-size:36px;font-family:OpenSans-Bold, Open Sans;font-weight:700;}.cls-33,.cls-4,.cls-6{fill:#323232;}.cls-5{stroke:#757575;}.cls-33,.cls-7{font-size:17px;}.cls-8{font-size:16px;font-family:ArialMT, Arial MT;}.cls-9{letter-spacing:-0.06em;}.cls-10{letter-spacing:-0.02em;}.cls-11,.cls-12,.cls-13,.cls-14,.cls-15,.cls-16,.cls-17,.cls-18,.cls-19,.cls-20,.cls-21,.cls-22,.cls-23,.cls-24,.cls-25,.cls-26,.cls-27,.cls-28,.cls-29{stroke-opacity:0.4;}.cls-11{stroke-width:96.38px;}.cls-12,.cls-20{stroke-width:3.38px;}.cls-13{stroke-width:46.34px;}.cls-14{stroke-width:13.84px;}.cls-15{stroke-width:0.64px;}.cls-16,.cls-17,.cls-18,.cls-19,.cls-20{stroke:#ed5959;}.cls-16{stroke-width:0.48px;}.cls-17{stroke-width:120.2px;}.cls-18{stroke-width:9.65px;}.cls-19{stroke-width:25.91px;}.cls-21,.cls-22,.cls-23,.cls-24{stroke:#f77401;}.cls-21{stroke-width:4.67px;}.cls-22{stroke-width:121.32px;}.cls-23{stroke-width:28.32px;}.cls-24{stroke-width:1.29px;}.cls-25,.cls-26,.cls-27,.cls-28,.cls-29{stroke:#8e244f;}.cls-25{stroke-width:2.41px;}.cls-26{stroke-width:19.15px;}.cls-27{stroke-width:4.34px;}.cls-28{stroke-width:22.85px;}.cls-29{stroke-width:80.78px;}.cls-30{fill:#af0c20;stroke:#af0c20;}.cls-31{fill:#d35d05;stroke:#d35d05;}.cls-32{fill:#8e244f;}</style></defs><title>2018.12_BalancePolitica</title><line class="cls-1" x1="48" y1="105.98" x2="56" y2="105.98"/><rect class="cls-2" x="48" y="54.48" width="186.2" height="13.2"/><text class="cls-3" transform="translate(48 67.37)">ELECCIONES 2016</text><rect class="cls-2" x="461.7" y="50.48" width="235.2" height="17"/><text class="cls-3" transform="translate(490.87 63.37)">FUTURAS ELECCIONES</text><text class="cls-4" transform="translate(69.89 29.26)">El trasvase de votos a Ciudadanos</text><line class="cls-5" x1="48" y1="90.48" x2="300" y2="90.48"/><line class="cls-5" x1="440" y1="90.48" x2="695" y2="90.48"/><rect class="cls-2" x="48" y="71.18" width="266" height="47.7"/><text class="cls-6" transform="translate(48 84.04)">Del 100% que recuerda votar a:</text><rect class="cls-2" x="433" y="70.18" width="268" height="16.3"/><text class="cls-6" transform="translate(436.87 83.02)">En nuevos comicios votarían a:</text><rect class="cls-2" x="30" y="752.18" width="358" height="17.1"/><text class="cls-7" transform="translate(2 771.33)">Fuente: Pregunta 16R del Barómetro del CIS</text><rect class="cls-2" x="689" y="752.28" width="133" height="17.1"/><text class="cls-8" transform="translate(612 773.77)">LA <tspan class="cls-9" x="24.02" y="0">V</tspan><tspan x="33.65" y="0">ANG</tspan><tspan class="cls-10" x="68.32" y="0">U</tspan><tspan x="79.58" y="0">ARDIA</tspan></text><path class="cls-11" d="M54,155.67c320,0,320-5,640-5"/><path class="cls-12" d="M54,205.55c320,0,320,12.56,640,12.56"/><path class="cls-13" d="M54,230.41C374,230.41,374,397,694,397"/><path class="cls-14" d="M54,261.15c320,0,320,407.34,640,407.34"/><path class="cls-15" d="M54,253.91c320,0,320,311.9,640,311.9"/><path class="cls-16" d="M54,278.31c320,0,320-79.2,640-79.2"/><path class="cls-17" d="M54,338.65c320,0,320-58.74,640-58.74"/><path class="cls-18" d="M54,403.57c320,0,320,21.41,640,21.41"/><path class="cls-19" d="M54,424.73c320,0,320,263.63,640,263.63"/><path class="cls-20" d="M54,410.09c320,0,320,157.72,640,157.72"/><path class="cls-21" d="M54,450c320,0,320-248.34,640-248.34"/><path class="cls-21" d="M54,454.69c320,0,320-112.35,640-112.35"/><path class="cls-22" d="M54,517.68c320,0,320-27.21,640-27.21"/><path class="cls-23" d="M54,593.79c320,0,320,121.68,640,121.68"/><path class="cls-24" d="M54,579c320,0,320-8.84,640-8.84"/><path class="cls-25" d="M54,619.16c320,0,320-413.94,640-413.94"/><path class="cls-26" d="M54,629.94c320,0,320-275.69,640-275.69"/><path class="cls-27" d="M54,641.68c320,0,320-88.37,640-88.37"/><path class="cls-28" d="M54,736.06c320,0,320,5,640,5"/><path class="cls-29" d="M54,684.24c320,0,320-73.06,640-73.06"/><rect class="cls-1" x="52.27" y="107.48" width="7.97" height="160.59"/><rect class="cls-30" x="52.27" y="278.07" width="7.97" height="159.62"/><rect class="cls-31" x="52.27" y="447.69" width="7.97" height="160.26"/><rect class="cls-32" x="52.27" y="617.95" width="7.97" height="129.53"/><rect class="cls-1" x="687.11" y="102.48" width="8.28" height="103.95"/><rect class="cls-30" x="687.11" y="216.43" width="8.28" height="147.39"/><rect class="cls-31" x="687.11" y="373.82" width="8.28" height="181.66"/><rect class="cls-32" x="687.11" y="565.48" width="8.28" height="86.09"/><rect x="687.11" y="661.57" width="8.28" height="90.91"/><text class="cls-33" transform="translate(71 519.54)">CIUDADANOS</text><text class="cls-33" transform="translate(71 164.55)">PP </text><text class="cls-33" transform="translate(73 348.08)">PSOE</text><text class="cls-33" transform="translate(73 695.55)">PODEMOS</text><text class="cls-33" transform="translate(580 124.14)">el 60% repite</text><text class="cls-33" transform="translate(579 247.14)">el 75% repite</text><text class="cls-33" transform="translate(577 455.14)">el 75% repite</text><text class="cls-33" transform="translate(578 592.14)">el 58% repite</text></svg>