<svg id="Capa_1" data-name="Capa 1" xmlns="http://www.w3.org/2000/svg" viewBox="0 0 646.67 726.47"><defs><style>@import url('https://fonts.googleapis.com/css?family=Open+Sans:400,700');.cls-1,.cls-10,.cls-11,.cls-12,.cls-13,.cls-14,.cls-15,.cls-16,.cls-17,.cls-18,.cls-19,.cls-2,.cls-20,.cls-21,.cls-22,.cls-23,.cls-25,.cls-3,.cls-4,.cls-42,.cls-43,.cls-5,.cls-6,.cls-7,.cls-8,.cls-9{fill:none;}.cls-1,.cls-2,.cls-3,.cls-4{stroke:#a3bfb5;}.cls-1{stroke-width:53.49px;}.cls-1,.cls-10,.cls-11,.cls-12,.cls-13,.cls-14,.cls-15,.cls-16,.cls-17,.cls-18,.cls-19,.cls-2,.cls-20,.cls-21,.cls-22,.cls-23,.cls-24,.cls-25,.cls-3,.cls-4,.cls-43,.cls-5,.cls-6,.cls-7,.cls-8,.cls-9{opacity:0.75;}.cls-10,.cls-13,.cls-2,.cls-20,.cls-7{stroke-width:3.57px;}.cls-12,.cls-15,.cls-25,.cls-3{stroke-width:10.7px;}.cls-4{stroke-width:24.96px;}.cls-5,.cls-6{stroke:#9ac7d3;}.cls-5{stroke-width:42.79px;}.cls-14,.cls-21,.cls-6{stroke-width:17.83px;}.cls-7,.cls-8,.cls-9{stroke:#eccdb5;}.cls-17,.cls-22,.cls-8{stroke-width:7.13px;}.cls-11,.cls-18,.cls-9{stroke-width:14.26px;}.cls-10,.cls-11,.cls-12{stroke:#dda089;}.cls-13,.cls-14,.cls-15{stroke:#bf9fa0;}.cls-16,.cls-17,.cls-18{stroke:#bdd1ad;}.cls-16{stroke-width:49.92px;}.cls-19,.cls-20,.cls-21{stroke:#dedae4;}.cls-19,.cls-23{stroke-width:32.09px;}.cls-22,.cls-23,.cls-25,.cls-43{stroke:#efd37a;}.cls-24{fill:#e7cc79;}.cls-26{fill:#176a53;}.cls-27{fill:#71a054;}.cls-28{fill:#1285a2;}.cls-29{fill:#796e91;}.cls-30{fill:#e5b122;}.cls-31{fill:#daa976;}.cls-32{fill:#ca5d3e;}.cls-33{fill:#a72445;}.cls-34{fill:#515050;}.cls-35,.cls-36,.cls-38{font-size:16px;}.cls-35,.cls-36,.cls-37,.cls-40{fill:#313131;}.cls-35,.cls-37,.cls-38{font-family:OpenSans, Open Sans;}.cls-36,.cls-40,.cls-41{font-family:OpenSans-Semibold, Open Sans;font-weight:700;}.cls-37{font-size:15px;}.cls-38{fill:#757575;}.cls-39{isolation:isolate;}.cls-40{font-size:28px;}.cls-42{stroke:#757575;stroke-width:0.75px;}.cls-43{stroke-width:3.56px;}</style></defs><title>2019.01_MercadoInviernoNumJugadores</title><path class="cls-1" d="M33.67,169.08c288,0,288-10,576-10" transform="translate(0.67 -1.34)"/><path class="cls-2" d="M33.67,197.6c288,0,288,123.41,576,123.41" transform="translate(0.67 -1.34)"/><path class="cls-3" d="M33.67,204.74c288,0,288,330.31,576,330.31" transform="translate(0.67 -1.34)"/><path class="cls-4" d="M33.67,222.57c288,0,288,351,576,351" transform="translate(0.67 -1.34)"/><path class="cls-5" d="M33.67,354.89c288,0,288-137.67,576-137.67" transform="translate(0.67 -1.34)"/><path class="cls-6" d="M33.67,385.2c288,0,288,224,576,224" transform="translate(0.67 -1.34)"/><path class="cls-7" d="M33.67,536.44c288,0,288-296,576-296" transform="translate(0.67 -1.34)"/><path class="cls-8" d="M33.67,541.79c288,0,288-183.33,576-183.33" transform="translate(0.67 -1.34)"/><path class="cls-8" d="M33.67,548.92c288,0,288-155.5,576-155.5" transform="translate(0.67 -1.34)"/><path class="cls-7" d="M33.67,554.27c288,0,288-85.58,576-85.58" transform="translate(0.67 -1.34)"/><path class="cls-9" d="M33.67,563.19c288,0,288-54.19,576-54.19" transform="translate(0.67 -1.34)"/><path class="cls-9" d="M33.67,577.45c288,0,288,76.36,576,76.36" transform="translate(0.67 -1.34)"/><path class="cls-10" d="M33.67,596.36c288,0,288-352.4,576-352.4" transform="translate(0.67 -1.34)"/><path class="cls-11" d="M33.67,605.28c288,0,288-201.16,576-201.16" transform="translate(0.67 -1.34)"/><path class="cls-10" d="M33.67,614.19c288,0,288-159.07,576-159.07" transform="translate(0.67 -1.34)"/><path class="cls-10" d="M33.67,617.76c288,0,288-99.84,576-99.84" transform="translate(0.67 -1.34)"/><path class="cls-12" d="M33.67,624.89c288,0,288,41.4,576,41.4" transform="translate(0.67 -1.34)"/><path class="cls-13" d="M33.67,642c288,0,288-394.5,576-394.5" transform="translate(0.67 -1.34)"/><path class="cls-14" d="M33.67,652.72c288,0,288-173.33,576-173.33" transform="translate(0.67 -1.34)"/><path class="cls-15" d="M33.67,667c288,0,288,10,576,10" transform="translate(0.67 -1.34)"/><path class="cls-16" d="M33.67,270c288,0,288,14.26,576,14.26" transform="translate(0.67 -1.34)"/><path class="cls-17" d="M33.67,298.53c288,0,288,77.05,576,77.05" transform="translate(0.67 -1.34)"/><path class="cls-17" d="M33.67,305.67c288,0,288,238.29,576,238.29" transform="translate(0.67 -1.34)"/><path class="cls-18" d="M33.67,316.36c288,0,288,276.82,576,276.82" transform="translate(0.67 -1.34)"/><path class="cls-19" d="M33.67,420.16c288,0,288-81.32,576-81.32" transform="translate(0.67 -1.34)"/><path class="cls-20" d="M33.67,438c288,0,288-57.05,576-57.05" transform="translate(0.67 -1.34)"/><path class="cls-20" d="M33.67,441.56c288,0,288,107.75,576,107.75" transform="translate(0.67 -1.34)"/><path class="cls-21" d="M33.67,452.26c288,0,288,174.81,576,174.81" transform="translate(0.67 -1.34)"/><path class="cls-22" d="M33.67,474.74c288,0,288-88.45,576-88.45" transform="translate(0.67 -1.34)"/><path class="cls-23" d="M33.67,494.35c288,0,288-57.05,576-57.05" transform="translate(0.67 -1.34)"/><path class="cls-24" d="M612.22,500.46" transform="translate(0.67 -1.34)"/><path class="cls-24" d="M31.12,511.8" transform="translate(0.67 -1.34)"/><path class="cls-25" d="M33.67,519.31c288,0,288,122,576,122" transform="translate(0.67 -1.34)"/><rect class="cls-26" x="22.33" y="140.99" width="12" height="92.71"/><rect class="cls-27" x="22.33" y="243.7" width="12" height="78.45"/><rect class="cls-28" x="22.33" y="332.15" width="12" height="60.62"/><rect class="cls-29" x="22.33" y="402.77" width="12" height="57.05"/><rect class="cls-30" x="22.33" y="469.83" width="12" height="53.49"/><rect class="cls-31" x="22.33" y="533.31" width="12" height="49.92"/><rect class="cls-32" x="22.33" y="593.24" width="12" height="35.66"/><rect class="cls-33" x="22.33" y="638.9" width="12" height="32.09"/><rect class="cls-26" x="610.33" y="130.99" width="12" height="53.49"/><rect class="cls-28" x="610.33" y="194.48" width="12" height="53.49"/><rect class="cls-27" x="610.33" y="257.97" width="12" height="49.92"/><rect class="cls-29" x="610.33" y="317.89" width="12" height="42.79"/><rect class="cls-32" x="610.33" y="370.68" width="12" height="39.22"/><rect class="cls-30" x="610.33" y="419.9" width="12" height="35.66"/><rect class="cls-33" x="610.33" y="465.56" width="12" height="21.4"/><rect class="cls-31" x="610.33" y="496.96" width="12" height="21.4"/><rect class="cls-34" x="610.33" y="528.35" width="12" height="21.4"/><rect class="cls-34" x="610.33" y="559.75" width="12" height="121.24"/><text class="cls-35" transform="translate(41.33 487.41)">ESPAÑA</text><text class="cls-35" transform="translate(42.67 419.41)">RUSIA</text><text class="cls-35" transform="translate(43 348.08)">ALEMANIA</text><text class="cls-35" transform="translate(42.33 261.74)">ITALIA</text><text class="cls-35" transform="translate(41.67 158.74)">PORTUGAL</text><text class="cls-35" transform="translate(541.67 436.74)">ESPAÑA</text><text class="cls-35" transform="translate(508 385.41)">INGLATERRA</text><text class="cls-35" transform="translate(556 333.74)">RUSIA</text><text class="cls-35" transform="translate(554.67 275.74)">ITALIA</text><text class="cls-35" transform="translate(523.67 210.74)">ALEMANIA</text><text class="cls-35" transform="translate(519.67 147.74)">PORTUGAL</text><text class="cls-35" transform="translate(506.08 575.74)">OTRAS LIGAS</text><text class="cls-36" transform="translate(626.07 576.41)">34</text><text class="cls-36" transform="translate(9.87 654.41)">9</text><text class="cls-36" transform="translate(1.4 609.74)">10</text><text class="cls-36" transform="translate(1.73 550.74)">14</text><text class="cls-36" transform="translate(1.07 486.74)">15</text><text class="cls-36" transform="translate(1.73 418.74)">16</text><text class="cls-36" transform="translate(1.4 346.74)">17</text><text class="cls-36" transform="translate(2.07 261.41)">21</text><text class="cls-36" transform="translate(1.4 159.41)">26</text><text class="cls-36" transform="translate(625.2 542.41)">6</text><text class="cls-36" transform="translate(625.53 512.08)">6</text><text class="cls-36" transform="translate(624.73 480.74)">10</text><text class="cls-36" transform="translate(624.4 434.74)">11</text><text class="cls-36" transform="translate(625.4 386.08)">10</text><text class="cls-36" transform="translate(624.73 333.41)">12</text><text class="cls-36" transform="translate(625.4 274.74)">14</text><text class="cls-36" transform="translate(624.73 211.41)">15</text><text class="cls-36" transform="translate(625.4 147.41)">15</text><text class="cls-35" transform="translate(41.33 552.74)">FRANCIA </text><text class="cls-35" transform="translate(536.33 513.74)">FRANCIA</text><text class="cls-35" transform="translate(41.33 609.74)">INGLATERRA</text><text class="cls-37" transform="translate(4 722.08)">FUENTE: Elaboración propia a partir de Transfermarket</text><text class="cls-38" transform="translate(454.8 101.92)">LIGA DE PROCEDENCIA<tspan x="66.96" y="16">DEL JUGADOR</tspan></text><text class="cls-38" transform="translate(19.16 103.92)">NÚMERO DE JUGADORES <tspan x="0" y="16">ADQUIRIDOS POR PAÍS</tspan></text><text class="cls-37" transform="translate(527.33 722.41)">LA VANGUARDIA</text><text class="cls-35" transform="translate(549.07 543.74)">BRASIL</text><text class="cls-35" transform="translate(43.33 655.74)">HOLANDA</text><text class="cls-35" transform="translate(525.67 484.41)">HOLANDA</text><text class="cls-39" x="0.67" y="-1.34"></text><text class="cls-40" transform="translate(58.5 23.99)">¿Dónde compran las principales ligas?</text><text class="cls-38" transform="translate(95.81 48.5)">El grosor de cada línea representa el <tspan class="cls-41" x="275.44" y="0">número de jugadores</tspan><tspan x="440.88" y="0"> </tspan><tspan x="121.63" y="19.2">que ha comprado cada liga</tspan></text><line class="cls-42" y1="703.32" x2="646.67" y2="703.32"/><path class="cls-43" d="M33.67,512.18c288,0,288-12.09,576-12.09" transform="translate(0.67 -1.34)"/></svg>