<svg xmlns="http://www.w3.org/2000/svg" viewBox="0 0 2051.66 2051.66"><defs><style>@import url('https://fonts.googleapis.com/css?family=Open+Sans:400,500,600,700');.cls-1,.cls-16{fill:none;stroke:#323232;stroke-miterlimit:10;}.cls-1{stroke-width:0.75px;}.cls-2{font-size:37px;}.cls-2,.cls-3,.cls-4,.cls-9{fill:#323232;}.cls-2,.cls-3,.cls-5{font-family:OpenSans, Open Sans;}.cls-3{font-size:50px;}.cls-4{font-size:90px;font-family:OpenSans-Bold, Open Sans;}.cls-17,.cls-4,.cls-6,.cls-7,.cls-8,.cls-9{font-weight:700;}.cls-17,.cls-5,.cls-9{font-size:60px;}.cls-17,.cls-5{fill:#757575;}.cls-17,.cls-6,.cls-7,.cls-8,.cls-9{font-family:OpenSans-Semibold, Open Sans;}.cls-7{letter-spacing:0em;}.cls-8{letter-spacing:0em;}.cls-10{fill:#9cc628;}.cls-10,.cls-11,.cls-12,.cls-13,.cls-14,.cls-15{stroke:#fff;stroke-linejoin:round;stroke-width:7px;}.cls-11{fill:#39a8a9;}.cls-12{fill:#d57928;}.cls-13{fill:#dddcdf;}.cls-14{fill:#c1253c;}.cls-15{fill:#8e244f;}.cls-16{stroke-width:5px;stroke-dasharray:12 12;}</style></defs><title>2019.03_Metaencuesta</title><g id="pie"><line class="cls-1" x1="3" y1="1981" x2="2052.5" y2="1981"/><text class="cls-2" transform="translate(36.9 2033.66) scale(0.99 1)">Fuente: Elaboración propia a partir de los sondeos</text><text class="cls-3" transform="translate(1665.9 2033.66) scale(0.99 1)">LA VANGUARDIA</text><text class="cls-4" transform="translate(358.81 76.87)">Cómo quedaría el Congreso si <tspan x="-121.57" y="80">se repartieran los escaños según....</tspan></text><text class="cls-5" transform="translate(333.58 958) scale(0.99 1)">Vox<tspan class="cls-6" x="103.39" y="0" xml:space="preserve"> 24</tspan></text><text class="cls-5" transform="translate(341.58 1862) scale(0.99 1)">Vox<tspan class="cls-6" x="103.39" y="0" xml:space="preserve"> 29</tspan></text><text class="cls-5" transform="translate(409.04 670) scale(0.99 1)">PP <tspan class="cls-7" x="87.83" y="0">24</tspan></text><text class="cls-5" transform="translate(464.04 1506) scale(0.99 1)">PP <tspan class="cls-7" x="87.83" y="0">94</tspan></text><text class="cls-5" transform="translate(587.91 454) scale(0.99 1)">Cs <tspan class="cls-8" x="82.06" y="0">48</tspan></text><text class="cls-5" transform="translate(798.91 1282) scale(0.99 1)">Cs <tspan class="cls-8" x="82.06" y="0">58</tspan></text><text class="cls-5" transform="translate(850.83 338) scale(0.99 1)">Otros <tspan class="cls-6" x="172.85" y="0">27</tspan></text><text class="cls-5" transform="translate(1109.83 1274) scale(0.99 1)">Otros <tspan class="cls-6" x="172.85" y="0">26</tspan></text><text class="cls-5" transform="translate(1432.85 1482) scale(0.99 1)">PSOE <tspan class="cls-6" x="164.74" y="0">104</tspan></text><text class="cls-5" transform="translate(1333.85 454) scale(0.99 1)">PSOE <tspan class="cls-6" x="164.74" y="0">133</tspan></text><text class="cls-5" transform="translate(1565.29 906) scale(0.99 1)">UP <tspan class="cls-6" x="95.39" y="0">42</tspan></text><text class="cls-5" transform="translate(1528.29 1842) scale(0.99 1)">UP <tspan class="cls-6" x="95.39" y="0">39</tspan></text></g><g id="indicaciones"><text class="cls-9" transform="translate(373.47 249.84) scale(0.99 1)">...EL MEJOR ESCENARIO PARA LA IZQUIERDA</text><text class="cls-9" transform="translate(416.81 1177.84) scale(0.99 1)">...EL MEJOR ESCENARIO PARA LA DERECHA</text><path class="cls-10" d="M576,1007.92a487.35,487.35,0,0,1-23.1-123.49l340.62-19a146.21,146.21,0,0,0,6.93,37Z"/><path class="cls-11" d="M552.9,884.43a487.35,487.35,0,0,1,134.34-363.9L933.82,756.28a146.21,146.21,0,0,0-40.3,109.17Z"/><path class="cls-12" d="M687.24,520.53a487.35,487.35,0,0,1,212.51-130.1l97.82,326.82a146.21,146.21,0,0,0-63.75,39Z"/><path class="cls-13" d="M899.76,390.43A487.35,487.35,0,0,1,1039.5,370V711.12a146.21,146.21,0,0,0-41.92,6.14Z"/><path class="cls-14" d="M1039.5,370c243.21,0,449.19,179.31,482.7,420.2l-337.89,47A146.21,146.21,0,0,0,1039.5,711.12Z"/><path class="cls-15" d="M1522.2,790.17a487.35,487.35,0,0,1-19.2,217.75L1178.55,902.5a146.21,146.21,0,0,0,5.76-65.33Z"/><path class="cls-10" d="M587.3,1927.6a484.6,484.6,0,0,1-23.72-148.88l330.22-.61a145.38,145.38,0,0,0,7.12,44.66Z"/><path class="cls-11" d="M563.58,1778.71c-.3-167.14,76.55-322.63,218.15-411.43l180.22,287.39a145.38,145.38,0,0,0-68.14,123.43Z"/><path class="cls-12" d="M781.73,1367.29a484.6,484.6,0,0,1,288.75-73l-21.91,338.51a145.38,145.38,0,0,0-86.63,21.91Z"/><path class="cls-13" d="M1070.48,1294.25a484.6,484.6,0,0,1,132.45,27.49L1088.31,1641a145.38,145.38,0,0,0-39.73-8.25Z"/><path class="cls-14" d="M1202.93,1321.74a484.6,484.6,0,0,1,318.14,404.87l-337.32,35.86A145.38,145.38,0,0,0,1088.31,1641Z"/><path class="cls-15" d="M1521.07,1726.61a484.6,484.6,0,0,1-21,201l-322.62-104.83a145.38,145.38,0,0,0,6.3-60.29Z"/><line class="cls-16" x1="1038.5" y1="390" x2="1042.16" y2="919"/><text class="cls-17" transform="translate(735.64 1026) scale(0.99 1)">176 Mayoría Absoluta</text><line class="cls-16" x1="1042.16" y1="1289.5" x2="1042.16" y2="1823"/><text class="cls-17" transform="translate(735.64 1930) scale(0.99 1)">176 Mayoría Absoluta</text></g></svg>