<svg id="Capa_1" data-name="Capa 1" xmlns="http://www.w3.org/2000/svg" viewBox="0 0 1856.69 1856.69"><defs><style>@import url('https://fonts.googleapis.com/css?family=Open+Sans:400,700');.cls-1,.cls-9{fill:#8abf36;stroke:#ddd;stroke-opacity:0;}.cls-1{stroke-width:1.64px;}.cls-2{font-size:64px;font-family:OpenSans-Semibold, Open Sans;font-weight:700;}.cls-2,.cls-5,.cls-6,.cls-7{fill:#323232;}.cls-3{font-size:39px;}.cls-3,.cls-4{fill:#757575;}.cls-3,.cls-4,.cls-5,.cls-6,.cls-7{font-family:OpenSans, Open Sans;}.cls-4{font-size:37px;}.cls-5,.cls-8{font-size:35px;}.cls-6{font-size:34px;}.cls-7{font-size:33px;}.cls-9{stroke-width:1.64px;}</style></defs><title>2019.01_PresupuestosEstado</title><path class="cls-1" d="M1714,1228.35a21.77,21.77,0,1,1,0-43.55"/><path class="cls-1" d="M608.81,1553.16a21.77,21.77,0,1,1,0-43.55"/><path class="cls-1" d="M190.38,1547.41a21.77,21.77,0,1,1,0-43.55"/><text class="cls-2" transform="translate(17.22 53.98)">Si el presupuesto fuese de 100 euros... ¿Cómo se repartiría?</text><text class="cls-3" transform="translate(91.25 114.98)">Las partidas que representan menos del 0,4% de los presupuestos del 2019 no se muestran</text><text class="cls-4" transform="translate(9.22 1843.46)">Fuente: CIVIO - Presupuestos 2019</text><text class="cls-4" transform="translate(1557.05 1847.46)">LA VANGUARDIA</text><text class="cls-5" transform="translate(37.12 634.34)">PENSIONES | 44,5</text><text class="cls-6" transform="translate(1646.59 580.34)">OTRAS <tspan x="-62.34" y="52">PRESTACIONES</tspan><tspan x="-90.1" y="104">ECONÓMICAS| 4,5</tspan></text><text class="cls-5" transform="translate(1225.17 998.34)">SERVICIOS| 2,1</text><text class="cls-6" transform="translate(49.64 1332.34)">INFRAESTR. | 1,4</text><text class="cls-5" transform="translate(1576.9 1000.34)">FOMENTO DEL <tspan x="18.36" y="52">EMPLEO| 1,7</tspan></text><text class="cls-5" transform="translate(855.89 1330.34)">SANIDAD | 1,2</text><text class="cls-5" transform="translate(503.74 1332.34)">INDUSTRIA Y <tspan x="-2.14" y="52">ENERGÍA| 1,3</tspan></text><text class="cls-5" transform="translate(1506.29 1330.34)">INVESTIGACIÓN | 0,9</text><text class="cls-5" transform="translate(49.68 1644.84)">EDUCACIÓN | 0,7</text><text class="cls-5" transform="translate(1239.11 1332.34)">SERVICIOS <tspan x="-18.23" y="52">SOCIALES | 1</tspan></text><text class="cls-5" transform="translate(445.93 1648.84)">SUBVENCIONES AL <tspan x="11.1" y="52">TRANSPORTE| 0,7</tspan></text><path class="cls-1" d="M973.29,1548.66a21.77,21.77,0,1,1,0-43.55"/><text class="cls-5" transform="translate(800.26 1645.84)">ADMIN. SEGURIDAD<tspan x="61.67" y="52">SOCIAL | 0,6</tspan></text><path class="cls-1" d="M1349.78,1551.66a21.77,21.77,0,0,1,0-43.55"/><text class="cls-5" transform="translate(1229.15 1648.84)">JUSTICIA | 0,5</text><path class="cls-1" d="M1696.26,1550.16a21.77,21.77,0,1,1,0-43.55"/><text class="cls-5" transform="translate(1540.73 1647.34)">ADMINISTRACIÓN<tspan x="6.49" y="52">TRIBUTARIA | 0,4</tspan></text><text class="cls-5" transform="translate(54.13 998.34)">SEGURIDAD | 2,6</text><text class="cls-5" transform="translate(796.53 1003.34)">AGRICULTURA | 2,2</text><text class="cls-5" transform="translate(482.64 999.34)">DEFENSA| 2,5</text><text class="cls-5" transform="translate(803.48 632.34)">DEUDA PÚBLICA| 9,1</text><text class="cls-7" transform="translate(1205.12 630.34)">DESEMPLEO| 5,3</text><text class="cls-6" transform="translate(454.47 584.34)">TRANSFERENCIAS <tspan x="68.04" y="52">A ADMIN.</tspan><tspan x="17.3" y="104">PÚBLICAS</tspan><tspan class="cls-8" x="173.3" y="104">| 15,1</tspan></text><circle class="cls-9" cx="175.84" cy="392.66" r="21.8"/><circle class="cls-9" cx="225.94" cy="392.66" r="21.8"/><circle class="cls-9" cx="200.94" cy="436.06" r="21.8"/><circle class="cls-9" cx="200.94" cy="349.26" r="21.8"/><circle class="cls-9" cx="150.84" cy="349.26" r="21.8"/><circle class="cls-9" cx="251.04" cy="349.26" r="21.8"/><circle class="cls-9" cx="251.04" cy="436.06" r="21.8"/><circle class="cls-9" cx="150.84" cy="436.06" r="21.8"/><circle class="cls-9" cx="125.74" cy="392.66" r="21.8"/><circle class="cls-9" cx="276.04" cy="392.66" r="21.8"/><circle class="cls-9" cx="301.14" cy="436.06" r="21.8"/><circle class="cls-9" cx="100.74" cy="436.06" r="21.8"/><circle class="cls-9" cx="175.84" cy="305.86" r="21.8"/><circle class="cls-9" cx="225.94" cy="305.86" r="21.8"/><circle class="cls-9" cx="225.94" cy="479.46" r="21.8"/><circle class="cls-9" cx="175.84" cy="479.46" r="21.8"/><circle class="cls-9" cx="200.94" cy="522.86" r="21.8"/><circle class="cls-9" cx="200.94" cy="262.56" r="21.8"/><circle class="cls-9" cx="301.14" cy="349.26" r="21.8"/><circle class="cls-9" cx="100.74" cy="349.26" r="21.8"/><circle class="cls-9" cx="125.74" cy="305.86" r="21.8"/><circle class="cls-9" cx="276.04" cy="305.86" r="21.8"/><circle class="cls-9" cx="276.04" cy="479.46" r="21.8"/><circle class="cls-9" cx="298.04" cy="521.46" r="21.8"/><circle class="cls-9" cx="125.74" cy="479.46" r="21.8"/><circle class="cls-9" cx="75.74" cy="479.46" r="21.8"/><circle class="cls-9" cx="75.74" cy="305.86" r="21.8"/><circle class="cls-9" cx="103.74" cy="263.86" r="21.8"/><circle class="cls-9" cx="299.74" cy="263.86" r="21.8"/><circle class="cls-9" cx="273.74" cy="221.86" r="21.8"/><circle class="cls-9" cx="127.74" cy="223.86" r="21.8"/><circle class="cls-9" cx="326.14" cy="305.86" r="21.8"/><circle class="cls-9" cx="326.14" cy="479.46" r="21.8"/><circle class="cls-9" cx="75.74" cy="392.66" r="21.8"/><circle class="cls-9" cx="326.14" cy="392.66" r="21.8"/><circle class="cls-9" cx="351.24" cy="436.06" r="21.8"/><circle class="cls-9" cx="50.64" cy="349.26" r="21.8"/><circle class="cls-9" cx="150.84" cy="262.56" r="21.8"/><circle class="cls-9" cx="251.04" cy="262.56" r="21.8"/><circle class="cls-9" cx="251.04" cy="522.86" r="21.8"/><circle class="cls-9" cx="150.84" cy="522.86" r="21.8"/><circle class="cls-9" cx="175.84" cy="219.16" r="21.8"/><circle class="cls-9" cx="225.94" cy="219.16" r="21.8"/><path class="cls-9" d="M225.94,588a21.8,21.8,0,1,1,0-43.6"/><circle class="cls-9" cx="175.94" cy="566.16" r="21.8"/><circle class="cls-9" cx="553.7" cy="360.8" r="21.8"/><circle class="cls-9" cx="603.7" cy="360.8" r="21.8"/><circle class="cls-9" cx="578.7" cy="404.2" r="21.8"/><circle class="cls-9" cx="578.7" cy="317.5" r="21.8"/><circle class="cls-9" cx="628.8" cy="317.5" r="21.8"/><circle class="cls-9" cx="628.8" cy="404.2" r="21.8"/><circle class="cls-9" cx="528.6" cy="404.2" r="21.8"/><circle class="cls-9" cx="653.8" cy="360.8" r="21.8"/><circle class="cls-9" cx="678.9" cy="404.2" r="21.8"/><circle class="cls-9" cx="603.7" cy="274.1" r="21.8"/><circle class="cls-9" cx="603.7" cy="447.6" r="21.8"/><circle class="cls-9" cx="553.7" cy="447.6" r="21.8"/><circle class="cls-9" cx="578.7" cy="491" r="21.8"/><circle class="cls-9" cx="626.7" cy="489" r="21.8"/><circle class="cls-9" cx="650.9" cy="447.2" r="21.8"/><circle class="cls-9" cx="954.1" cy="420.59" r="21.8"/><circle class="cls-9" cx="1004.2" cy="420.59" r="21.8"/><circle class="cls-9" cx="979.2" cy="463.99" r="21.8"/><circle class="cls-9" cx="979.2" cy="377.19" r="21.8"/><circle class="cls-9" cx="929.1" cy="377.19" r="21.8"/><circle class="cls-9" cx="1029.2" cy="377.19" r="21.8"/><circle class="cls-9" cx="1029.2" cy="463.99" r="21.8"/><circle class="cls-9" cx="929.1" cy="463.99" r="21.8"/><circle class="cls-9" cx="904" cy="420.59" r="21.8"/><circle class="cls-9" cx="1705.56" cy="446.08" r="21.8"/><path class="cls-9" d="M1755.66,467.88a21.8,21.8,0,1,1,0-43.6"/><circle class="cls-9" cx="1730.66" cy="402.68" r="21.8"/><circle class="cls-9" cx="1680.56" cy="402.68" r="21.8"/><circle class="cls-9" cx="1655.46" cy="446.08" r="21.8"/><path class="cls-9" d="M1303.71,404c23.33-17.77,49.71,8.6,31.94,31.94C1312.31,453.75,1285.94,427.37,1303.71,404Z"/><path class="cls-9" d="M1353.81,404c23.33-17.77,49.71,8.6,31.94,31.94C1362.41,453.75,1336,427.37,1353.81,404Z"/><path class="cls-9" d="M1328.81,447.34c23.33-17.77,49.71,8.6,31.94,31.94C1337.41,497.05,1311,470.67,1328.81,447.34Z"/><path class="cls-9" d="M1376.81,448.34c23.33-17.77,49.71,8.6,31.94,31.94C1385.41,498.05,1359,471.67,1376.81,448.34Z"/><path class="cls-9" d="M1328.81,360.64c23.33-17.77,49.71,8.6,31.94,31.94C1337.41,410.35,1311,384,1328.81,360.64Z"/><path class="cls-9" d="M1393.38,395.11a21.8,21.8,0,1,1,0-43.6"/><path class="cls-9" d="M1278.91,447.34c23.33-17.77,49.71,8.6,31.94,31.94C1287.51,497.05,1261.14,470.67,1278.91,447.34Z"/><circle class="cls-9" cx="169.43" cy="829.7" r="21.8"/><circle class="cls-9" cx="219.53" cy="829.7" r="21.8"/><path class="cls-9" d="M194.43,894.9a21.8,21.8,0,1,1,0-43.6"/><circle class="cls-9" cx="584.91" cy="829.7" r="21.8"/><circle class="cls-9" cx="635.01" cy="829.7" r="21.8"/><path class="cls-9" d="M609.91,894.9a21.8,21.8,0,1,1,0-43.6"/><circle class="cls-9" cx="952.39" cy="871.7" r="21.8"/><circle class="cls-9" cx="1002.49" cy="871.7" r="21.8"/><circle class="cls-9" cx="608.01" cy="1206.18" r="21.8"/><circle class="cls-9" cx="975.49" cy="1206.18" r="21.8"/><circle class="cls-9" cx="1323.47" cy="1203.18" r="21.8"/><circle class="cls-9" cx="1325.87" cy="871.7" r="21.8"/><circle class="cls-9" cx="1375.97" cy="871.7" r="21.8"/><circle class="cls-9" cx="1687.35" cy="871.7" r="21.8"/><circle class="cls-9" cx="1737.45" cy="871.7" r="21.8"/><path class="cls-9" d="M163.59,1183.82a21.8,21.8,0,1,1-19.47,19.47A21.81,21.81,0,0,1,163.59,1183.82Z"/><path class="cls-9" d="M213.52,1228.41a21.8,21.8,0,0,1,.46-43.6"/></svg>