<svg id="graphic" xmlns="http://www.w3.org/2000/svg" viewBox="0 0 1851.19 1851.19"><defs><style>@import url('https://fonts.googleapis.com/css?family=Open+Sans:400,500,600,700');.cls-1{font-size:75px;}.cls-1,.cls-15{fill:#323232;}.cls-1,.cls-10,.cls-11,.cls-7{font-family:OpenSans-Semibold, Open Sans;font-weight:700;}.cls-10,.cls-2,.cls-6,.cls-7{fill:#fff;}.cls-14,.cls-16,.cls-3{fill:none;}.cls-3,.cls-4,.cls-5,.cls-6{stroke:#fff;}.cls-12,.cls-13,.cls-3,.cls-4,.cls-5,.cls-6{stroke-width:2.18px;}.cls-3,.cls-6{opacity:0.2;}.cls-3,.cls-6,.cls-7,.cls-8,.cls-9{isolation:isolate;}.cls-12,.cls-4{fill:#edad08;}.cls-13,.cls-5{fill:#1d6996;}.cls-10,.cls-11,.cls-15,.cls-7,.cls-8{font-size:50px;}.cls-11,.cls-8,.cls-9{fill:#757575;}.cls-15,.cls-8,.cls-9{font-family:OpenSans, Open Sans;}.cls-9{font-size:45px;}.cls-12{stroke:#edad08;}.cls-13{stroke:#1d6996;}.cls-14{stroke:#757575;stroke-width:2.58px;}.cls-16{stroke:#323232;stroke-miterlimit:10;stroke-width:2px;}</style></defs><title>2019.01_InvisibleBorder</title><text class="cls-1" transform="translate(33.67 72.97)">Presupuesto estimado para la Interoperabilida de <tspan x="238.42" y="71">los sistemas de información de la UE</tspan></text><rect class="cls-2" x="71.44" y="311.24" width="1574.99" height="1330.34"/><rect class="cls-3" x="37.01" y="272.03" width="1639.72" height="1404.12"/><rect class="cls-4" x="69.99" y="309.05" width="1014.05" height="1330.09"/><rect class="cls-5" x="1084.05" y="309.05" width="559.7" height="1330.09"/><rect class="cls-6" x="102.98" y="346.06" width="948.08" height="782.99"/><text class="cls-7" transform="translate(243.62 716.77)">Entrada y salida de viajeros</text><text class="cls-8" transform="translate(140.64 257.73) scale(0.89 1)">CREACIÓN DE NUEVAS BASES DE DATOS</text><text class="cls-9" transform="translate(1072.26 257.73) scale(0.89 1)">INTERCONECTAR LOS REGISTROS</text><text class="cls-10" transform="translate(185.17 1352.84)">Examen de solicitudes<tspan x="163.07" y="60">de viajes</tspan></text><rect class="cls-6" x="102.98" y="1129.06" width="693.08" height="473.06"/><rect class="cls-6" x="796.06" y="1129.06" width="255" height="473.06"/><text class="cls-7" transform="translate(792.02 1319.73)">Registro de <tspan x="38.44" y="60">anteced.</tspan><tspan x="48.38" y="120">penales</tspan></text><rect class="cls-6" x="1117.03" y="346.06" width="493.74" height="664.97"/><text class="cls-7" transform="translate(1195.84 732.77)">Agencia eu-LISA</text><rect class="cls-6" x="1117.03" y="1011.03" width="335.74" height="591.08"/><text class="cls-10" transform="translate(1186.89 1288.79)">Estados<tspan x="-29.5" y="60">miembros</tspan></text><rect class="cls-6" x="1452.77" y="1011.03" width="158" height="452.55"/><text class="cls-10" transform="translate(1444.25 1246.52)">Europol</text><rect class="cls-6" x="1452.77" y="1463.58" width="84.26" height="138.54"/><text class="cls-11" transform="translate(1238.11 1754.38)">Comisión</text><rect class="cls-6" x="1537.03" y="1463.58" width="73.73" height="98.95"/><text class="cls-11" transform="translate(1645.32 1556.58)">Frontex</text><rect class="cls-6" x="1537.03" y="1562.53" width="73.73" height="39.58"/><text class="cls-11" transform="translate(1660.51 1751.16)">CEPOL</text><line class="cls-12" x1="70.01" y1="278.03" x2="1048.11" y2="278.03"/><line class="cls-13" x1="1096.12" y1="275.03" x2="1639.17" y2="275.03"/><line class="cls-14" x1="1495.16" y1="1583.53" x2="1495.16" y2="1705.52"/><line class="cls-14" x1="1556.65" y1="1583.17" x2="1556.65" y2="1702.02"/><line class="cls-14" x1="1238.04" y1="1704.17" x2="1495.16" y2="1704.17"/><line class="cls-14" x1="1556.64" y1="1702.17" x2="1815.51" y2="1702.17"/><line class="cls-14" x1="1568.64" y1="1510.18" x2="1830.51" y2="1510.18"/><text class="cls-15" transform="translate(7.55 1837.15)"><tspan xml:space="preserve">Fuente:  Comisión Europea</tspan></text><text class="cls-15" transform="translate(1441.69 1842.15)">LA VANGUARDIA</text><line class="cls-16" x1="9.74" y1="1788.18" x2="1863.93" y2="1788.18"/></svg>