<svg id="Capa_1" data-name="Capa 1" xmlns="http://www.w3.org/2000/svg" viewBox="0 0 1842.52 1842.52"><defs><style>@import url('https://fonts.googleapis.com/css?family=Open+Sans:400,500,600,700');.cls-1{font-size:46px;}.cls-1,.cls-3{fill:#323232;}.cls-1,.cls-2,.cls-3{font-family:OpenSans-Semibold, Open Sans;font-weight:600;}.cls-2{font-size:64px;}.cls-11,.cls-2,.cls-4{fill:#757575;}.cls-3{font-size:48px;}.cls-4{font-size:44px;font-family:OpenSans, Open Sans;}.cls-5{fill:#937557;}.cls-6{fill:#1abbc3;}.cls-16,.cls-7{fill:#ccdb8a;}.cls-10,.cls-12,.cls-13,.cls-14,.cls-8{fill:#d8d9dd;}.cls-9{fill:none;stroke:#757575;}.cls-10,.cls-11,.cls-12,.cls-13,.cls-14,.cls-15,.cls-16,.cls-9{stroke-width:2px;}.cls-10,.cls-11{stroke:#937557;}.cls-12,.cls-15{stroke:#1abbc3;}.cls-13{stroke:#d8d9dd;}.cls-14,.cls-16{stroke:#ccdb8a;}.cls-15{fill:#87868a;}</style></defs><title>2019.01_Oscars</title><text class="cls-1" transform="translate(63.17 220.69)">COLOR DE LOS OJOS DE LOS GANADORES DEL OSCAR EN LAS CATEGORÍAS DE <tspan x="121.42" y="55.2">MEJOR ACTOR Y ACTRIZ —PRINCIPAL Y DE REPARTO— DESDE 1987</tspan></text><text class="cls-2" transform="translate(47.3 57.37)">El 42% de los premiados tienen los ojos azules a pesar de <tspan x="197.55" y="76.8">que solo representan el 10% de la población</tspan></text><text class="cls-3" transform="translate(442.4 1754.01)">GALARDONADOS</text><text class="cls-4" transform="translate(366.23 575.01)">42%<tspan x="-45.7" y="56">Azules</tspan></text><text class="cls-4" transform="translate(397.39 944.01)">6%<tspan x="-80.09" y="56">Verdes</tspan></text><text class="cls-4" transform="translate(1293.77 387.01)">10%<tspan x="0" y="56">Azules</tspan></text><text class="cls-4" transform="translate(1290.77 516.01)">10%<tspan x="0" y="56">Otros</tspan></text><text class="cls-4" transform="translate(1293.77 648.01)">2% Verdes</text><text class="cls-4" transform="translate(369.23 1316.01)">52%<tspan x="-112.84" y="56">Marrones</tspan></text><text class="cls-4" transform="translate(1293.77 1091.01)">78%<tspan x="0" y="56">Marrones</tspan></text><text class="cls-3" transform="translate(1006.52 1753.9)">MUNDO</text><circle class="cls-5" cx="527.2" cy="1047.74" r="26.86"/><circle class="cls-5" cx="587.28" cy="1047.74" r="26.86"/><circle class="cls-5" cx="647.65" cy="1047.74" r="26.86"/><circle class="cls-5" cx="708.03" cy="1047.74" r="26.86"/><circle class="cls-5" cx="768.4" cy="1047.74" r="26.86"/><circle class="cls-6" cx="528.77" cy="366.74" r="26.86"/><circle class="cls-6" cx="589.14" cy="366.74" r="26.86"/><circle class="cls-6" cx="649.52" cy="366.74" r="26.86"/><circle class="cls-6" cx="709.89" cy="366.74" r="26.86"/><circle class="cls-6" cx="770.26" cy="366.74" r="26.86"/><circle class="cls-5" cx="527.2" cy="1117.73" r="26.86"/><circle class="cls-5" cx="587.28" cy="1117.73" r="26.86"/><circle class="cls-5" cx="647.65" cy="1117.73" r="26.86"/><circle class="cls-5" cx="708.03" cy="1117.73" r="26.86"/><circle class="cls-5" cx="768.4" cy="1117.73" r="26.86"/><circle class="cls-6" cx="528.77" cy="436.73" r="26.86"/><circle class="cls-6" cx="589.14" cy="436.73" r="26.86"/><circle class="cls-6" cx="649.52" cy="436.73" r="26.86"/><circle class="cls-6" cx="709.89" cy="436.73" r="26.86"/><circle class="cls-6" cx="770.26" cy="436.73" r="26.86"/><circle class="cls-5" cx="527.2" cy="1185.74" r="26.86"/><circle class="cls-5" cx="587.28" cy="1185.74" r="26.86"/><circle class="cls-5" cx="647.65" cy="1185.74" r="26.86"/><circle class="cls-5" cx="708.03" cy="1185.74" r="26.86"/><circle class="cls-5" cx="768.4" cy="1185.74" r="26.86"/><circle class="cls-6" cx="528.77" cy="504.74" r="26.86"/><circle class="cls-6" cx="589.14" cy="504.74" r="26.86"/><circle class="cls-6" cx="649.52" cy="504.74" r="26.86"/><circle class="cls-6" cx="709.89" cy="504.74" r="26.86"/><circle class="cls-6" cx="770.26" cy="504.74" r="26.86"/><circle class="cls-5" cx="527.2" cy="1255.73" r="26.86"/><circle class="cls-5" cx="587.28" cy="1255.73" r="26.86"/><circle class="cls-5" cx="647.65" cy="1255.73" r="26.86"/><circle class="cls-5" cx="708.03" cy="1255.73" r="26.86"/><circle class="cls-5" cx="768.4" cy="1255.73" r="26.86"/><circle class="cls-6" cx="528.77" cy="574.73" r="26.86"/><circle class="cls-6" cx="589.14" cy="574.73" r="26.86"/><circle class="cls-6" cx="649.52" cy="574.73" r="26.86"/><circle class="cls-6" cx="709.89" cy="574.73" r="26.86"/><circle class="cls-6" cx="770.26" cy="574.73" r="26.86"/><circle class="cls-5" cx="527.2" cy="1323.74" r="26.86"/><circle class="cls-5" cx="587.28" cy="1323.74" r="26.86"/><circle class="cls-5" cx="647.65" cy="1323.74" r="26.86"/><circle class="cls-5" cx="708.03" cy="1323.74" r="26.86"/><circle class="cls-5" cx="768.4" cy="1323.74" r="26.86"/><circle class="cls-6" cx="528.77" cy="642.74" r="26.86"/><circle class="cls-6" cx="589.14" cy="642.74" r="26.86"/><circle class="cls-6" cx="649.52" cy="642.74" r="26.86"/><circle class="cls-6" cx="709.89" cy="642.74" r="26.86"/><circle class="cls-6" cx="770.26" cy="642.74" r="26.86"/><circle class="cls-5" cx="527.2" cy="1393.73" r="26.86"/><circle class="cls-5" cx="587.28" cy="1393.73" r="26.86"/><circle class="cls-5" cx="647.65" cy="1393.73" r="26.86"/><circle class="cls-5" cx="708.03" cy="1393.73" r="26.86"/><circle class="cls-5" cx="768.4" cy="1393.73" r="26.86"/><circle class="cls-6" cx="528.77" cy="712.73" r="26.86"/><circle class="cls-6" cx="589.14" cy="712.73" r="26.86"/><circle class="cls-6" cx="649.52" cy="712.73" r="26.86"/><circle class="cls-6" cx="709.89" cy="712.73" r="26.86"/><circle class="cls-6" cx="770.26" cy="712.73" r="26.86"/><circle class="cls-5" cx="527.2" cy="1461.74" r="26.86"/><circle class="cls-5" cx="587.28" cy="1461.74" r="26.86"/><circle class="cls-5" cx="647.65" cy="1461.74" r="26.86"/><circle class="cls-5" cx="708.03" cy="1461.74" r="26.86"/><circle class="cls-5" cx="768.4" cy="1461.74" r="26.86"/><circle class="cls-6" cx="528.77" cy="780.74" r="26.86"/><circle class="cls-6" cx="589.14" cy="780.74" r="26.86"/><circle class="cls-6" cx="649.52" cy="780.74" r="26.86"/><circle class="cls-6" cx="709.89" cy="780.74" r="26.86"/><circle class="cls-6" cx="770.26" cy="780.74" r="26.86"/><circle class="cls-5" cx="527.2" cy="1531.73" r="26.86"/><circle class="cls-5" cx="587.28" cy="1531.73" r="26.86"/><circle class="cls-5" cx="647.65" cy="1531.73" r="26.86"/><circle class="cls-5" cx="708.03" cy="1531.73" r="26.86"/><circle class="cls-5" cx="768.4" cy="1531.73" r="26.86"/><circle class="cls-6" cx="528.77" cy="850.73" r="26.86"/><circle class="cls-6" cx="589.14" cy="850.73" r="26.86"/><circle class="cls-6" cx="649.52" cy="850.73" r="26.86"/><circle class="cls-6" cx="709.89" cy="850.73" r="26.86"/><circle class="cls-6" cx="770.26" cy="850.73" r="26.86"/><circle class="cls-5" cx="527.2" cy="1596.74" r="26.86"/><circle class="cls-5" cx="587.28" cy="1596.74" r="26.86"/><circle class="cls-5" cx="647.65" cy="1596.74" r="26.86"/><circle class="cls-5" cx="708.03" cy="1596.74" r="26.86"/><circle class="cls-5" cx="768.4" cy="1596.74" r="26.86"/><circle class="cls-7" cx="528.77" cy="915.74" r="26.86"/><circle class="cls-7" cx="589.14" cy="915.74" r="26.86"/><circle class="cls-7" cx="649.52" cy="915.74" r="26.86"/><circle class="cls-6" cx="709.89" cy="915.74" r="26.86"/><circle class="cls-6" cx="770.26" cy="915.74" r="26.86"/><circle class="cls-5" cx="527.2" cy="1666.73" r="26.86"/><circle class="cls-5" cx="587.28" cy="1666.73" r="26.86"/><circle class="cls-5" cx="647.65" cy="1666.73" r="26.86"/><circle class="cls-5" cx="708.03" cy="1666.73" r="26.86"/><circle class="cls-5" cx="768.4" cy="1666.73" r="26.86"/><circle class="cls-7" cx="528.77" cy="985.73" r="26.86"/><circle class="cls-7" cx="589.14" cy="985.73" r="26.86"/><circle class="cls-7" cx="649.52" cy="985.73" r="26.86"/><circle class="cls-5" cx="709.89" cy="985.73" r="26.86"/><circle class="cls-5" cx="770.26" cy="985.73" r="26.86"/><circle class="cls-5" cx="974.2" cy="1046.74" r="26.86"/><circle class="cls-5" cx="1034.28" cy="1046.74" r="26.86"/><circle class="cls-5" cx="1094.65" cy="1046.74" r="26.86"/><circle class="cls-5" cx="1155.03" cy="1046.74" r="26.86"/><circle class="cls-5" cx="1215.4" cy="1046.74" r="26.86"/><circle class="cls-6" cx="974.77" cy="361.74" r="26.86"/><circle class="cls-6" cx="1035.14" cy="361.74" r="26.86"/><circle class="cls-6" cx="1095.52" cy="361.74" r="26.86"/><circle class="cls-6" cx="1155.89" cy="361.74" r="26.86"/><circle class="cls-6" cx="1216.26" cy="361.74" r="26.86"/><circle class="cls-5" cx="974.2" cy="1116.73" r="26.86"/><circle class="cls-5" cx="1034.28" cy="1116.73" r="26.86"/><circle class="cls-5" cx="1094.65" cy="1116.73" r="26.86"/><circle class="cls-5" cx="1155.03" cy="1116.73" r="26.86"/><circle class="cls-5" cx="1215.4" cy="1116.73" r="26.86"/><circle class="cls-6" cx="974.77" cy="431.73" r="26.86"/><circle class="cls-6" cx="1035.14" cy="431.73" r="26.86"/><circle class="cls-6" cx="1095.52" cy="431.73" r="26.86"/><circle class="cls-6" cx="1155.89" cy="431.73" r="26.86"/><circle class="cls-6" cx="1216.26" cy="431.73" r="26.86"/><circle class="cls-5" cx="974.2" cy="1184.74" r="26.86"/><circle class="cls-5" cx="1034.28" cy="1184.74" r="26.86"/><circle class="cls-5" cx="1094.65" cy="1184.74" r="26.86"/><circle class="cls-5" cx="1155.03" cy="1184.74" r="26.86"/><circle class="cls-5" cx="1215.4" cy="1184.74" r="26.86"/><circle class="cls-8" cx="974.77" cy="499.74" r="26.86"/><circle class="cls-8" cx="1035.14" cy="499.74" r="26.86"/><circle class="cls-8" cx="1095.52" cy="499.74" r="26.86"/><circle class="cls-8" cx="1155.89" cy="499.74" r="26.86"/><circle class="cls-8" cx="1216.26" cy="499.74" r="26.86"/><circle class="cls-5" cx="974.2" cy="1254.73" r="26.86"/><circle class="cls-5" cx="1034.28" cy="1254.73" r="26.86"/><circle class="cls-5" cx="1094.65" cy="1254.73" r="26.86"/><circle class="cls-5" cx="1155.03" cy="1254.73" r="26.86"/><circle class="cls-5" cx="1215.4" cy="1254.73" r="26.86"/><circle class="cls-8" cx="974.77" cy="569.73" r="26.86"/><circle class="cls-8" cx="1035.14" cy="569.73" r="26.86"/><circle class="cls-8" cx="1095.52" cy="569.73" r="26.86"/><circle class="cls-8" cx="1155.89" cy="569.73" r="26.86"/><circle class="cls-8" cx="1216.26" cy="569.73" r="26.86"/><circle class="cls-5" cx="974.2" cy="1322.74" r="26.86"/><circle class="cls-5" cx="1034.28" cy="1322.74" r="26.86"/><circle class="cls-5" cx="1094.65" cy="1322.74" r="26.86"/><circle class="cls-5" cx="1155.03" cy="1322.74" r="26.86"/><circle class="cls-5" cx="1215.4" cy="1322.74" r="26.86"/><circle class="cls-5" cx="974.77" cy="637.74" r="26.86"/><circle class="cls-5" cx="1035.14" cy="637.74" r="26.86"/><circle class="cls-5" cx="1095.52" cy="637.74" r="26.86"/><circle class="cls-7" cx="1155.89" cy="637.74" r="26.86"/><circle class="cls-7" cx="1216.26" cy="637.74" r="26.86"/><circle class="cls-5" cx="974.2" cy="1392.73" r="26.86"/><circle class="cls-5" cx="1034.28" cy="1392.73" r="26.86"/><circle class="cls-5" cx="1094.65" cy="1392.73" r="26.86"/><circle class="cls-5" cx="1155.03" cy="1392.73" r="26.86"/><circle class="cls-5" cx="1215.4" cy="1392.73" r="26.86"/><circle class="cls-5" cx="974.77" cy="707.73" r="26.86"/><circle class="cls-5" cx="1035.14" cy="707.73" r="26.86"/><circle class="cls-5" cx="1095.52" cy="707.73" r="26.86"/><circle class="cls-5" cx="1155.89" cy="707.73" r="26.86"/><circle class="cls-5" cx="1216.26" cy="707.73" r="26.86"/><circle class="cls-5" cx="974.2" cy="1460.74" r="26.86"/><circle class="cls-5" cx="1034.28" cy="1460.74" r="26.86"/><circle class="cls-5" cx="1094.65" cy="1460.74" r="26.86"/><circle class="cls-5" cx="1155.03" cy="1460.74" r="26.86"/><circle class="cls-5" cx="1215.4" cy="1460.74" r="26.86"/><circle class="cls-5" cx="974.77" cy="775.74" r="26.86"/><circle class="cls-5" cx="1035.14" cy="775.74" r="26.86"/><circle class="cls-5" cx="1095.52" cy="775.74" r="26.86"/><circle class="cls-5" cx="1155.89" cy="775.74" r="26.86"/><circle class="cls-5" cx="1216.26" cy="775.74" r="26.86"/><circle class="cls-5" cx="974.2" cy="1530.73" r="26.86"/><circle class="cls-5" cx="1034.28" cy="1530.73" r="26.86"/><circle class="cls-5" cx="1094.65" cy="1530.73" r="26.86"/><circle class="cls-5" cx="1155.03" cy="1530.73" r="26.86"/><circle class="cls-5" cx="1215.4" cy="1530.73" r="26.86"/><circle class="cls-5" cx="974.77" cy="845.73" r="26.86"/><circle class="cls-5" cx="1035.14" cy="845.73" r="26.86"/><circle class="cls-5" cx="1095.52" cy="845.73" r="26.86"/><circle class="cls-5" cx="1155.89" cy="845.73" r="26.86"/><circle class="cls-5" cx="1216.26" cy="845.73" r="26.86"/><circle class="cls-5" cx="974.2" cy="1595.74" r="26.86"/><circle class="cls-5" cx="1034.28" cy="1595.74" r="26.86"/><circle class="cls-5" cx="1094.65" cy="1595.74" r="26.86"/><circle class="cls-5" cx="1155.03" cy="1595.74" r="26.86"/><circle class="cls-5" cx="1215.4" cy="1595.74" r="26.86"/><circle class="cls-5" cx="974.77" cy="910.74" r="26.86"/><circle class="cls-5" cx="1035.14" cy="910.74" r="26.86"/><circle class="cls-5" cx="1095.52" cy="910.74" r="26.86"/><circle class="cls-5" cx="1155.89" cy="910.74" r="26.86"/><circle class="cls-5" cx="1216.26" cy="910.74" r="26.86"/><circle class="cls-5" cx="974.2" cy="1665.73" r="26.86"/><circle class="cls-5" cx="1034.28" cy="1665.73" r="26.86"/><circle class="cls-5" cx="1094.65" cy="1665.73" r="26.86"/><circle class="cls-5" cx="1155.03" cy="1665.73" r="26.86"/><circle class="cls-5" cx="1215.4" cy="1665.73" r="26.86"/><circle class="cls-5" cx="974.77" cy="980.73" r="26.86"/><circle class="cls-5" cx="1035.14" cy="980.73" r="26.86"/><circle class="cls-5" cx="1095.52" cy="980.73" r="26.86"/><circle class="cls-5" cx="1155.89" cy="980.73" r="26.86"/><circle class="cls-5" cx="1216.26" cy="980.73" r="26.86"/><line class="cls-9" x1="33" y1="1794" x2="1797" y2="1794"/><text class="cls-4" transform="translate(42.22 1839.9)">FUENTE: Academy Awards Database y World Atlas</text><text class="cls-4" transform="translate(1458.46 1839.9)">LA VANGUARDIA</text><line class="cls-10" x1="1274" y1="673" x2="1274" y2="1690"/><line class="cls-11" x1="477" y1="1033" x2="477" y2="1690"/><line class="cls-12" x1="476" y1="329" x2="476" y2="870"/><line class="cls-13" x1="1274" y1="488" x2="1274" y2="575"/><line class="cls-14" x1="1274" y1="598" x2="1274" y2="651"/><line class="cls-15" x1="1274" y1="355" x2="1274" y2="442"/><line class="cls-16" x1="475" y1="900" x2="475" y2="1003"/></svg>