<svg id="Capa_1" data-name="Capa 1" xmlns="http://www.w3.org/2000/svg" viewBox="0 0 1842.52 1842.52"><defs><style>@import url('https://fonts.googleapis.com/css?family=Open+Sans:400,700');.cls-1{fill:#f4d700;}.cls-2,.cls-4{fill:#be9e12;}.cls-3{font-size:47px;fill:#323232;}.cls-3,.cls-8{font-family:OpenSans-Semibold, Open Sans;}.cls-3,.cls-4,.cls-8{font-weight:700;}.cls-4{font-size:46px;font-family:OpenSans-Bold, Open Sans;}.cls-5,.cls-6{fill:none;stroke-width:2px;}.cls-5{stroke:#757575;}.cls-6{stroke:#cecece;}.cls-7{font-size:44px;font-family:OpenSans, Open Sans;}.cls-7,.cls-8{fill:#757575;}.cls-8{font-size:66px;}</style></defs><title>2019.01_Oscars</title><circle class="cls-1" cx="121.59" cy="1590.77" r="26.86"/><circle class="cls-2" cx="289.15" cy="1593.77" r="26.86"/><circle class="cls-2" cx="289.15" cy="1533.69" r="26.86"/><circle class="cls-2" cx="289.15" cy="1473.31" r="26.86"/><circle class="cls-1" cx="359.14" cy="1593.77" r="26.86"/><circle class="cls-1" cx="359.14" cy="1533.69" r="26.86"/><circle class="cls-1" cx="359.14" cy="1473.31" r="26.86"/><circle class="cls-1" cx="359.14" cy="1412.94" r="26.86"/><circle class="cls-1" cx="359.14" cy="1352.57" r="26.86"/><circle class="cls-1" cx="359.14" cy="1292.2" r="26.86"/><circle class="cls-1" cx="359.14" cy="1231.82" r="26.86"/><circle class="cls-1" cx="359.14" cy="1171.45" r="26.86"/><circle class="cls-1" cx="359.14" cy="1111.08" r="26.86"/><circle class="cls-1" cx="359.14" cy="1050.7" r="26.86"/><circle class="cls-1" cx="359.14" cy="988.75" r="26.86"/><circle class="cls-1" cx="359.14" cy="928.67" r="26.86"/><circle class="cls-1" cx="359.14" cy="868.29" r="26.86"/><circle class="cls-1" cx="359.14" cy="807.92" r="26.86"/><circle class="cls-1" cx="359.14" cy="747.55" r="26.86"/><circle class="cls-2" cx="560.2" cy="1590.77" r="26.86"/><circle class="cls-2" cx="560.2" cy="1530.69" r="26.86"/><circle class="cls-2" cx="560.2" cy="1470.31" r="26.86"/><circle class="cls-2" cx="560.2" cy="1409.94" r="26.86"/><circle class="cls-2" cx="560.2" cy="1349.57" r="26.86"/><circle class="cls-2" cx="560.2" cy="1289.2" r="26.86"/><circle class="cls-2" cx="560.2" cy="1228.82" r="26.86"/><circle class="cls-2" cx="560.2" cy="1168.45" r="26.86"/><circle class="cls-2" cx="560.2" cy="1108.08" r="26.86"/><circle class="cls-2" cx="560.2" cy="1047.7" r="26.86"/><circle class="cls-2" cx="560.2" cy="985.75" r="26.86"/><circle class="cls-2" cx="560.2" cy="925.67" r="26.86"/><circle class="cls-2" cx="560.2" cy="865.29" r="26.86"/><circle class="cls-2" cx="560.2" cy="804.92" r="26.86"/><circle class="cls-1" cx="630.18" cy="1590.77" r="26.86"/><circle class="cls-1" cx="630.18" cy="1530.69" r="26.86"/><circle class="cls-1" cx="630.18" cy="1470.31" r="26.86"/><circle class="cls-1" cx="630.18" cy="1409.94" r="26.86"/><circle class="cls-1" cx="630.18" cy="1349.57" r="26.86"/><circle class="cls-1" cx="630.18" cy="1289.2" r="26.86"/><circle class="cls-1" cx="630.18" cy="1228.82" r="26.86"/><circle class="cls-1" cx="630.18" cy="1168.45" r="26.86"/><circle class="cls-1" cx="630.18" cy="1108.08" r="26.86"/><circle class="cls-1" cx="630.18" cy="1047.7" r="26.86"/><circle class="cls-1" cx="630.18" cy="985.75" r="26.86"/><circle class="cls-1" cx="630.18" cy="925.67" r="26.86"/><circle class="cls-1" cx="630.18" cy="865.29" r="26.86"/><circle class="cls-1" cx="630.18" cy="804.92" r="26.86"/><circle class="cls-1" cx="630.18" cy="744.55" r="26.86"/><circle class="cls-1" cx="630.18" cy="684.18" r="26.86"/><circle class="cls-1" cx="630.18" cy="623.8" r="26.86"/><circle class="cls-1" cx="630.18" cy="563.43" r="26.86"/><circle class="cls-1" cx="630.18" cy="503.06" r="26.86"/><circle class="cls-1" cx="630.18" cy="442.68" r="26.86"/><circle class="cls-1" cx="630.18" cy="380.73" r="26.86"/><circle class="cls-1" cx="630.18" cy="320.65" r="26.86"/><circle class="cls-2" cx="834.24" cy="1590.77" r="26.86"/><circle class="cls-2" cx="834.24" cy="1530.69" r="26.86"/><circle class="cls-2" cx="834.24" cy="1470.31" r="26.86"/><circle class="cls-2" cx="834.24" cy="1409.94" r="26.86"/><circle class="cls-2" cx="834.24" cy="1349.57" r="26.86"/><circle class="cls-2" cx="834.24" cy="1289.2" r="26.86"/><circle class="cls-2" cx="834.24" cy="1228.82" r="26.86"/><circle class="cls-2" cx="834.24" cy="1168.45" r="26.86"/><circle class="cls-2" cx="834.24" cy="1108.08" r="26.86"/><circle class="cls-2" cx="834.24" cy="1047.7" r="26.86"/><circle class="cls-2" cx="834.24" cy="985.75" r="26.86"/><circle class="cls-2" cx="834.24" cy="925.67" r="26.86"/><circle class="cls-2" cx="834.24" cy="865.29" r="26.86"/><circle class="cls-2" cx="834.24" cy="804.92" r="26.86"/><circle class="cls-2" cx="834.24" cy="744.55" r="26.86"/><circle class="cls-2" cx="834.24" cy="684.18" r="26.86"/><circle class="cls-2" cx="834.24" cy="623.8" r="26.86"/><circle class="cls-2" cx="834.24" cy="563.43" r="26.86"/><circle class="cls-2" cx="834.24" cy="503.06" r="26.86"/><circle class="cls-2" cx="834.24" cy="442.68" r="26.86"/><circle class="cls-1" cx="904.22" cy="1590.77" r="26.86"/><circle class="cls-1" cx="904.22" cy="1530.69" r="26.86"/><circle class="cls-1" cx="904.22" cy="1470.31" r="26.86"/><circle class="cls-1" cx="904.22" cy="1409.94" r="26.86"/><circle class="cls-1" cx="904.22" cy="1349.57" r="26.86"/><circle class="cls-1" cx="904.22" cy="1289.2" r="26.86"/><circle class="cls-1" cx="904.22" cy="1228.82" r="26.86"/><circle class="cls-1" cx="904.22" cy="1168.45" r="26.86"/><circle class="cls-1" cx="904.22" cy="1108.08" r="26.86"/><circle class="cls-1" cx="904.22" cy="1047.7" r="26.86"/><circle class="cls-1" cx="904.22" cy="985.75" r="26.86"/><circle class="cls-1" cx="904.22" cy="925.67" r="26.86"/><circle class="cls-1" cx="904.22" cy="865.29" r="26.86"/><circle class="cls-1" cx="904.22" cy="804.92" r="26.86"/><path class="cls-2" d="M1112.28,1563.91a26.86,26.86,0,0,1,26.86,26.86c0,14.83-14,26.86-28.86,26.86s-24.86-12-24.86-26.86A26.86,26.86,0,0,1,1112.28,1563.91Z"/><circle class="cls-2" cx="1112.28" cy="1530.69" r="26.86"/><circle class="cls-2" cx="1112.28" cy="1470.31" r="26.86"/><circle class="cls-2" cx="1112.28" cy="1409.94" r="26.86"/><circle class="cls-2" cx="1112.28" cy="1349.57" r="26.86"/><circle class="cls-2" cx="1112.28" cy="1289.2" r="26.86"/><circle class="cls-2" cx="1112.28" cy="1228.82" r="26.86"/><circle class="cls-2" cx="1112.28" cy="1168.45" r="26.86"/><circle class="cls-2" cx="1112.28" cy="1108.08" r="26.86"/><circle class="cls-2" cx="1112.28" cy="1047.7" r="26.86"/><circle class="cls-2" cx="1112.28" cy="985.75" r="26.86"/><circle class="cls-2" cx="1112.28" cy="925.67" r="26.86"/><circle class="cls-2" cx="1112.28" cy="865.29" r="26.86"/><circle class="cls-2" cx="1112.28" cy="804.92" r="26.86"/><circle class="cls-2" cx="1112.28" cy="744.55" r="26.86"/><path class="cls-1" d="M1182.27,1563.91a26.86,26.86,0,0,1,26.86,26.86c0,14.83-14,26.86-28.86,26.86s-24.86-12-24.86-26.86A26.86,26.86,0,0,1,1182.27,1563.91Z"/><circle class="cls-1" cx="1182.27" cy="1530.69" r="26.86"/><circle class="cls-1" cx="1182.27" cy="1470.31" r="26.86"/><circle class="cls-1" cx="1182.27" cy="1409.94" r="26.86"/><circle class="cls-1" cx="1182.27" cy="1349.57" r="26.86"/><circle class="cls-2" cx="1414.32" cy="1590.77" r="26.86"/><circle class="cls-2" cx="1414.32" cy="1530.69" r="26.86"/><circle class="cls-2" cx="1414.32" cy="1470.31" r="26.86"/><circle class="cls-2" cx="1414.32" cy="1409.94" r="26.86"/><circle class="cls-2" cx="1414.32" cy="1349.57" r="26.86"/><circle class="cls-2" cx="1414.32" cy="1289.2" r="26.86"/><circle class="cls-1" cx="1484.31" cy="1590.77" r="26.86"/><circle class="cls-1" cx="1484.31" cy="1530.69" r="26.86"/><circle class="cls-1" cx="1484.31" cy="1470.31" r="26.86"/><circle class="cls-1" cx="1484.31" cy="1409.94" r="26.86"/><circle class="cls-1" cx="1484.31" cy="1349.57" r="26.86"/><circle class="cls-2" cx="1701.37" cy="1590.77" r="26.86"/><circle class="cls-2" cx="1701.37" cy="1530.69" r="26.86"/><circle class="cls-2" cx="1701.37" cy="1470.31" r="26.86"/><circle class="cls-2" cx="1701.37" cy="1409.94" r="26.86"/><circle class="cls-1" cx="1768.35" cy="1590.77" r="26.86"/><text class="cls-3" transform="translate(164.47 212.45)">GANADORES DEL ÓSCAR POR FRANJA DE EDAD EN LAS CATEGORIAS <tspan x="-21.18" y="56.4">DE MEJOR ACTOR Y ACTRIZ —PRINCIPAL Y DE REPARTO— DESDE 1987</tspan></text><text class="cls-4" transform="translate(1298.42 389.69)">ACTORES <tspan class="cls-1" x="217.71" y="0" xml:space="preserve">     ACTRICES</tspan></text><line class="cls-5" x1="33" y1="1637" x2="1797" y2="1637"/><line class="cls-5" x1="33" y1="1798" x2="1797" y2="1798"/><line class="cls-6" x1="41" y1="1322" x2="1805" y2="1322"/><line class="cls-6" x1="39" y1="1016" x2="1803" y2="1016"/><line class="cls-6" x1="38" y1="715" x2="1802" y2="715"/><line class="cls-6" x1="27" y1="411" x2="1791" y2="411"/><text class="cls-7" transform="translate(36.79 1686.9)">10 a 20<tspan x="14.27" y="73">AÑOS</tspan></text><text class="cls-7" transform="translate(32.19 1297.9)">5</text><text class="cls-7" transform="translate(19.61 987.9)">10</text><text class="cls-7" transform="translate(19.61 691.9)">15</text><text class="cls-7" transform="translate(19.61 391.9)">20</text><text class="cls-7" transform="translate(252.79 1686.9)">20 a 29<tspan x="14.27" y="73">AÑOS</tspan></text><text class="cls-7" transform="translate(34.4 1839.9)">FUENTE: Academy Awards Database </text><text class="cls-7" transform="translate(1458.46 1839.9)">LA VANGUARDIA</text><text class="cls-7" transform="translate(504.79 1686.9)">30 a 39<tspan x="14.27" y="73">AÑOS</tspan></text><text class="cls-7" transform="translate(780.79 1686.9)">40 a 49<tspan x="14.27" y="73">AÑOS</tspan></text><text class="cls-7" transform="translate(1059.8 1686.9)">50 a 59<tspan x="14.27" y="73">AÑOS</tspan></text><text class="cls-7" transform="translate(1380.8 1683.9)">60 a 69<tspan x="14.27" y="73">AÑOS</tspan></text><text class="cls-7" transform="translate(1657.11 1686.9)"><tspan xml:space="preserve">70  a 79</tspan><tspan x="19.98" y="73">AÑOS</tspan></text><text class="cls-8" transform="translate(82.57 54.2)">Las mujeres triunfan más de los 20 a los 39 años y los <tspan x="343.68" y="79.2">hombres de los 30 a los 59 años</tspan></text></svg>