<svg id="Capa_1" data-name="Capa 1" xmlns="http://www.w3.org/2000/svg" viewBox="0 0 1842.52 1842.52"><defs><style>@import url('https://fonts.googleapis.com/css?family=Open+Sans:400,500,600,700');.cls-1{font-size:78px;}.cls-1,.cls-2,.cls-27,.cls-28,.cls-5{fill:#323232;}.cls-1,.cls-28{font-family:OpenSans-Bold, Open Sans;font-weight:700;}.cls-2{font-size:47px;}.cls-10,.cls-2,.cls-4,.cls-5{font-family:OpenSans, Open Sans;}.cls-11,.cls-25,.cls-26,.cls-3{fill:none;}.cls-3{stroke:#757575;}.cls-11,.cls-13,.cls-14,.cls-16,.cls-18,.cls-19,.cls-25,.cls-26,.cls-3{stroke-miterlimit:10;}.cls-11,.cls-26,.cls-3{stroke-width:2px;}.cls-28,.cls-4{font-size:46px;}.cls-10,.cls-4,.cls-6{fill:#757575;}.cls-5{font-size:43.03px;}.cls-6{font-size:42px;font-family:ArialMT, Arial;}.cls-7{letter-spacing:-0.07em;}.cls-8{letter-spacing:-0.06em;}.cls-9{letter-spacing:0em;}.cls-10{font-size:44px;}.cls-11{stroke:#aeaeae;}.cls-12,.cls-13,.cls-14,.cls-16,.cls-18,.cls-19,.cls-20,.cls-21,.cls-22,.cls-23,.cls-24{opacity:0.76;}.cls-13,.cls-24{fill:#8e244f;}.cls-13,.cls-14,.cls-16,.cls-18,.cls-19{stroke:#fff;stroke-width:0.5px;}.cls-14,.cls-23{fill:#991d26;}.cls-15{opacity:0.86;}.cls-16,.cls-21{fill:#9cc628;}.cls-17{opacity:0.82;}.cls-18,.cls-20{fill:#d57928;}.cls-19,.cls-22{fill:#59a5a5;}.cls-25,.cls-26{stroke:#323232;}.cls-25{stroke-width:0.75px;}</style></defs><title>2019.03_GeneracionZeta</title><text class="cls-1" transform="translate(46.13 64.28)">A quién van a votar los jóvenes que votan <tspan x="500.93" y="80">por primera vez</tspan></text><text class="cls-2" transform="translate(289.37 204.28)"><tspan xml:space="preserve">Promedio de intención de voto + simpatía  a cada partido </tspan><tspan x="72.9" y="56.4">en los últimos siete barómetros del CIS de quienes </tspan><tspan x="55.79" y="112.8">no tenían la edad mínima para votar el 26-J del 2016</tspan></text><line class="cls-3" x1="27.97" y1="1657.64" x2="1821" y2="1657.64"/><text class="cls-4" transform="translate(22.81 1633.48) scale(0.99 1)">0</text><text class="cls-4" transform="translate(22.5 1377.88) scale(0.99 1)">5</text><text class="cls-4" transform="translate(15.21 1133.66) scale(0.99 1)">10</text><text class="cls-4" transform="translate(26.03 636.19) scale(0.99 1)">20</text><text class="cls-4" transform="translate(20.17 377.32) scale(0.99 1)">25</text><text class="cls-4" transform="translate(17.17 877.44) scale(0.99 1)">15</text><text class="cls-5" transform="translate(18.9 1826.66) scale(0.99 1)">Fuente: Barómetro del CIS</text><text class="cls-5" transform="translate(1494.9 1826.66) scale(0.99 1)">LA VANGUARDIA</text><text class="cls-6" transform="translate(1091.17 387.84) scale(0.99 1)">RESU<tspan class="cls-7" x="116.69" y="0">LT</tspan><tspan x="159.47" y="0">ADO DE CAD</tspan><tspan class="cls-8" x="420.84" y="0">A</tspan><tspan class="cls-9" x="446.54" y="0" xml:space="preserve"> BARÓMETRO</tspan></text><text class="cls-10" transform="translate(888.5 1713.22) scale(0.99 1)">Cs</text><text class="cls-10" transform="translate(165.52 1713.22) scale(0.99 1)">PSOE</text><text class="cls-10" transform="translate(495.58 1713.22) scale(0.99 1)">Unidos<tspan x="-24.26" y="46">Podemos</tspan></text><text class="cls-10" transform="translate(1218.98 1713.22) scale(0.99 1)">PP</text><text class="cls-10" transform="translate(1573.98 1713.22) scale(0.99 1)">VOX</text><line class="cls-11" x1="24" y1="1402.31" x2="1815.36" y2="1402.31"/><line class="cls-11" x1="24" y1="1150.71" x2="1815.36" y2="1150.71"/><line class="cls-11" x1="24" y1="899.1" x2="1815.36" y2="899.1"/><line class="cls-11" x1="24" y1="655.61" x2="1815.36" y2="655.61"/><line class="cls-11" x1="24" y1="404" x2="1809" y2="404"/><g class="cls-12"><rect class="cls-13" x="499.23" y="864" width="141.79" height="787.76"/></g><g class="cls-12"><rect class="cls-14" x="158.23" y="783" width="141.79" height="869.76"/></g><g class="cls-15"><rect class="cls-16" x="1543.21" y="1563" width="141.79" height="90.76"/></g><g class="cls-17"><polygon class="cls-18" points="843.78 876 986.11 876 986.11 1652.61 844.02 1652.61 843.78 876"/></g><g class="cls-12"><rect class="cls-19" x="1181.55" y="1062" width="141.79" height="591.76"/></g><circle class="cls-20" cx="897.37" cy="1031.56" r="16.55"/><circle class="cls-20" cx="882.56" cy="812.66" r="16.55"/><circle class="cls-20" cx="960.81" cy="813" r="16.55"/><circle class="cls-20" cx="862.92" cy="1123.55" r="16.55"/><circle class="cls-20" cx="935.94" cy="999.15" r="16.55"/><circle class="cls-20" cx="933.18" cy="354.05" r="16.55"/><circle class="cls-20" cx="914.9" cy="1232.98" r="16.55"/><circle class="cls-21" cx="1574.9" cy="1546.98" r="16.55"/><circle class="cls-21" cx="1603.9" cy="1532.98" r="16.55"/><circle class="cls-21" cx="1622.9" cy="1440.53" r="16.55"/><circle class="cls-21" cx="1643.9" cy="1492.98" r="16.55"/><circle class="cls-21" cx="1666.9" cy="1595.98" r="16.55"/><circle class="cls-22" cx="1192.7" cy="966.97" r="16.55"/><circle class="cls-22" cx="1300.25" cy="1043.85" r="16.55"/><circle class="cls-22" cx="1276.8" cy="1316.78" r="16.55"/><circle class="cls-22" cx="1240.63" cy="1367.84" r="16.55"/><circle class="cls-22" cx="1222.52" cy="995.4" r="16.55"/><circle class="cls-22" cx="1255.24" cy="1026.02" r="16.55"/><circle class="cls-22" cx="1273.76" cy="744.12" r="16.55"/><path class="cls-23" d="M185.44,693.27a16.55,16.55,0,0,1-33.1,0c0-9.14,8.41-16.55,17.55-16.55S185.44,684.13,185.44,693.27Z"/><circle class="cls-23" cx="208.89" cy="823.72" r="16.55"/><circle class="cls-23" cx="243.89" cy="1107.27" r="16.55"/><circle class="cls-23" cx="210.89" cy="600.27" r="16.55"/><circle class="cls-23" cx="234.89" cy="738.27" r="16.55"/><circle class="cls-23" cx="261.89" cy="921.27" r="16.55"/><circle class="cls-23" cx="297.89" cy="654.27" r="16.55"/><circle class="cls-24" cx="531.37" cy="507.11" r="16.55"/><circle class="cls-24" cx="599.92" cy="1179.2" r="16.55"/><circle class="cls-24" cx="620.92" cy="1033.75" r="16.55"/><circle class="cls-24" cx="533.85" cy="1235.4" r="16.55"/><circle class="cls-24" cx="522.3" cy="962.72" r="16.55"/><circle class="cls-24" cx="594.17" cy="611.92" r="16.55"/><circle class="cls-24" cx="557.82" cy="746.68" r="16.55"/><line class="cls-25" x1="3" y1="1780" x2="1842" y2="1780"/><path class="cls-26" d="M1065,369.48C948.41,357.09,897.37,654.78,1132,736"/><polygon class="cls-27" points="1120.57 743.92 1128.47 734.8 1127.39 722.78 1149.04 741.43 1120.57 743.92"/><text class="cls-28" transform="translate(520.94 920.32) scale(0.99 1)">15,3</text><text class="cls-28" transform="translate(871.94 932.32) scale(0.99 1)">15,2</text><text class="cls-28" transform="translate(1202.94 1109.32) scale(0.99 1)">11,7</text><text class="cls-28" transform="translate(1580.01 1622.32) scale(0.99 1)">2,3</text><text class="cls-28" transform="translate(180.94 836.32) scale(0.99 1)">16,8</text></svg>