<svg id="Capa_1" data-name="Capa 1" xmlns="http://www.w3.org/2000/svg" viewBox="0 0 1856.69 1856.69"><defs><style>@import url('https://fonts.googleapis.com/css?family=Open+Sans:400,700');.cls-1{fill:#8abf36;stroke:#ddd;stroke-opacity:0;stroke-width:1.64px;}.cls-2{font-size:64px;font-family:OpenSans-Semibold, Open Sans;font-weight:700;}.cls-2,.cls-5,.cls-6,.cls-7{fill:#323232;}.cls-3{font-size:39px;}.cls-3,.cls-4{fill:#757575;}.cls-3,.cls-4,.cls-5,.cls-6,.cls-7{font-family:OpenSans, Open Sans;}.cls-4{font-size:37px;}.cls-5,.cls-8{font-size:35px;}.cls-6{font-size:34px;}.cls-7{font-size:33px;}.cls-9{fill:none;}</style></defs><title>2019.01_PresupuestosEstado</title><circle class="cls-1" cx="162.54" cy="382.81" r="21.77"/><circle class="cls-1" cx="212.64" cy="382.81" r="21.77"/><circle class="cls-1" cx="187.59" cy="426.2" r="21.77"/><circle class="cls-1" cx="187.59" cy="339.43" r="21.77"/><circle class="cls-1" cx="137.49" cy="339.43" r="21.77"/><circle class="cls-1" cx="237.68" cy="339.43" r="21.77"/><circle class="cls-1" cx="237.68" cy="426.2" r="21.77"/><circle class="cls-1" cx="137.49" cy="426.2" r="21.77"/><circle class="cls-1" cx="112.45" cy="382.81" r="21.77"/><circle class="cls-1" cx="262.73" cy="382.81" r="21.77"/><circle class="cls-1" cx="287.78" cy="426.2" r="21.77"/><circle class="cls-1" cx="87.4" cy="426.2" r="21.77"/><circle class="cls-1" cx="162.54" cy="296.05" r="21.77"/><circle class="cls-1" cx="212.64" cy="296.05" r="21.77"/><circle class="cls-1" cx="212.64" cy="469.58" r="21.77"/><circle class="cls-1" cx="162.54" cy="469.58" r="21.77"/><circle class="cls-1" cx="187.59" cy="512.96" r="21.77"/><circle class="cls-1" cx="187.59" cy="252.66" r="21.77"/><circle class="cls-1" cx="287.78" cy="339.43" r="21.77"/><circle class="cls-1" cx="87.4" cy="339.43" r="21.77"/><circle class="cls-1" cx="112.45" cy="296.05" r="21.77"/><circle class="cls-1" cx="262.73" cy="296.05" r="21.77"/><circle class="cls-1" cx="262.73" cy="469.58" r="21.77"/><circle class="cls-1" cx="112.45" cy="469.58" r="21.77"/><circle class="cls-1" cx="62.35" cy="469.58" r="21.77"/><circle class="cls-1" cx="62.35" cy="296.05" r="21.77"/><circle class="cls-1" cx="312.82" cy="296.05" r="21.77"/><circle class="cls-1" cx="312.82" cy="469.58" r="21.77"/><circle class="cls-1" cx="62.35" cy="382.81" r="21.77"/><circle class="cls-1" cx="312.82" cy="382.81" r="21.77"/><circle class="cls-1" cx="337.87" cy="426.2" r="21.77"/><circle class="cls-1" cx="37.31" cy="339.43" r="21.77"/><circle class="cls-1" cx="137.49" cy="252.66" r="21.77"/><circle class="cls-1" cx="237.68" cy="252.66" r="21.77"/><circle class="cls-1" cx="237.68" cy="512.96" r="21.77"/><circle class="cls-1" cx="137.49" cy="512.96" r="21.77"/><circle class="cls-1" cx="162.54" cy="209.28" r="21.77"/><circle class="cls-1" cx="212.64" cy="209.28" r="21.77"/><path class="cls-1" d="M212.64,578.12a21.77,21.77,0,0,1,0-43.55"/><circle class="cls-1" cx="162.64" cy="556.35" r="21.77"/><circle class="cls-1" cx="585.65" cy="353.84" r="21.77"/><circle class="cls-1" cx="635.75" cy="353.84" r="21.77"/><circle class="cls-1" cx="610.7" cy="397.22" r="21.77"/><circle class="cls-1" cx="610.7" cy="310.45" r="21.77"/><circle class="cls-1" cx="560.61" cy="310.45" r="21.77"/><circle class="cls-1" cx="660.8" cy="310.45" r="21.77"/><circle class="cls-1" cx="660.8" cy="397.22" r="21.77"/><circle class="cls-1" cx="560.61" cy="397.22" r="21.77"/><circle class="cls-1" cx="535.56" cy="353.84" r="21.77"/><circle class="cls-1" cx="685.84" cy="353.84" r="21.77"/><circle class="cls-1" cx="710.89" cy="397.22" r="21.77"/><circle class="cls-1" cx="510.51" cy="397.22" r="21.77"/><circle class="cls-1" cx="585.65" cy="267.07" r="21.77"/><circle class="cls-1" cx="635.75" cy="267.07" r="21.77"/><circle class="cls-1" cx="635.75" cy="440.6" r="21.77"/><circle class="cls-1" cx="585.65" cy="440.6" r="21.77"/><circle class="cls-1" cx="610.7" cy="483.99" r="21.77"/><circle class="cls-1" cx="944.1" cy="368.61" r="21.77"/><circle class="cls-1" cx="994.2" cy="368.61" r="21.77"/><circle class="cls-1" cx="969.15" cy="412" r="21.77"/><circle class="cls-1" cx="969.15" cy="325.23" r="21.77"/><circle class="cls-1" cx="919.06" cy="325.23" r="21.77"/><circle class="cls-1" cx="1019.24" cy="325.23" r="21.77"/><circle class="cls-1" cx="1019.24" cy="412" r="21.77"/><circle class="cls-1" cx="919.06" cy="412" r="21.77"/><circle class="cls-1" cx="894.01" cy="368.61" r="21.77"/><circle class="cls-1" cx="1307.22" cy="383.95" r="21.77"/><circle class="cls-1" cx="1357.31" cy="383.95" r="21.77"/><circle class="cls-1" cx="1332.26" cy="427.34" r="21.77"/><circle class="cls-1" cx="1332.26" cy="340.57" r="21.77"/><circle class="cls-1" cx="1282.17" cy="340.57" r="21.77"/><circle class="cls-1" cx="1382.36" cy="340.57" r="21.77"/><path class="cls-1" d="M1382.36,449.11a21.77,21.77,0,0,1,0-43.55"/><circle class="cls-1" cx="1282.36" cy="427.34" r="21.77"/><circle class="cls-1" cx="1694.83" cy="374.43" r="21.77"/><circle class="cls-1" cx="1744.93" cy="374.43" r="21.77"/><circle class="cls-1" cx="1719.88" cy="417.81" r="21.77"/><circle class="cls-1" cx="1719.88" cy="331.05" r="21.77"/><circle class="cls-1" cx="163.37" cy="852.72" r="21.77"/><circle class="cls-1" cx="213.47" cy="852.72" r="21.77"/><path class="cls-1" d="M188.42,917.87a21.77,21.77,0,0,1,0-43.55"/><circle class="cls-1" cx="545.83" cy="854.75" r="21.77"/><circle class="cls-1" cx="595.92" cy="854.75" r="21.77"/><path class="cls-1" d="M570.87,919.91a21.77,21.77,0,0,1,0-43.55"/><circle class="cls-1" cx="165.32" cy="1208.54" r="21.77"/><circle class="cls-1" cx="215.41" cy="1208.54" r="21.77"/><circle class="cls-1" cx="1688.84" cy="872.85" r="21.77"/><circle class="cls-1" cx="1738.93" cy="872.85" r="21.77"/><circle class="cls-1" cx="1313.7" cy="870.82" r="21.77"/><circle class="cls-1" cx="1363.79" cy="870.82" r="21.77"/><circle class="cls-1" cx="936.91" cy="875.4" r="21.77"/><circle class="cls-1" cx="987.01" cy="875.4" r="21.77"/><circle class="cls-1" cx="550.34" cy="1207.97" r="21.77"/><path class="cls-1" d="M1342.25,1555.12a21.77,21.77,0,0,1,0-43.55"/><circle class="cls-1" cx="967.31" cy="1206.89" r="21.77"/><circle class="cls-1" cx="1337.04" cy="1205.07" r="21.77"/><circle class="cls-1" cx="682.88" cy="440.23" r="21.77"/><path class="cls-1" d="M1719.32,1234.63a21.77,21.77,0,1,1,0-43.55"/><path class="cls-1" d="M572.79,1548.66a21.77,21.77,0,1,1,0-43.55"/><path class="cls-1" d="M602.79,1227.66a21.77,21.77,0,1,1,0-43.55"/><path class="cls-1" d="M189.86,1548.91a21.77,21.77,0,1,1,0-43.55"/><path class="cls-1" d="M1719,1549.32a21.77,21.77,0,0,1,0-43.55"/><path class="cls-1" d="M951.56,1551.23a21.77,21.77,0,0,1,0-43.55"/><text class="cls-2" transform="translate(17.22 53.98)">Si el presupuesto fuese de 100 euros... ¿Cómo se repartiría?</text><text class="cls-3" transform="translate(86.18 114.98)">Las partidas que representan menos del 0,4 % de los presupuestos del 2019 no se muestran</text><text class="cls-4" transform="translate(9.22 1843.46)">Fuente: CIVIO - Presupuestos 2019</text><text class="cls-4" transform="translate(1557.05 1847.46)">LA VANGUARDIA</text><text class="cls-5" transform="translate(37.12 634.34)">PENSIONES | 39,3</text><text class="cls-6" transform="translate(1646.59 580.34)">OTRAS <tspan x="-62.34" y="52">PRESTACIONES</tspan><tspan x="-90.1" y="104">ECONÓMICAS| 4,1</tspan></text><text class="cls-5" transform="translate(1225.17 998.34)">SERVICIOS| 2,1</text><text class="cls-6" transform="translate(1555.64 996.34)">INFRAESTR. | 1,9</text><text class="cls-5" transform="translate(80.9 1330.34)">FOMENTO DEL <tspan x="18.36" y="52">EMPLEO| 1,9</tspan></text><text class="cls-5" transform="translate(439.89 1332.34)">SANIDAD | 1,3</text><text class="cls-5" transform="translate(849.74 1332.34)">INDUSTRIA Y <tspan x="12.16" y="52">ENERGÍA| 1</tspan></text><text class="cls-5" transform="translate(1178.29 1334.34)">INVESTIGACIÓN | 0,9</text><text class="cls-5" transform="translate(1571.16 1330.34)">EDUCACIÓN | 0,7</text><text class="cls-5" transform="translate(101.11 1648.34)">SERVICIOS <tspan x="-32.53" y="52">SOCIALES | 0,7</tspan></text><text class="cls-5" transform="translate(852.66 1650.34)">JUSTICIA | 0,5</text><text class="cls-5" transform="translate(1185.91 1652.34)">SUBVENCIONES AL <tspan x="11.1" y="52">TRANSPORTE| 0,5</tspan></text><text class="cls-5" transform="translate(1561.76 1646.34)">ADMINISTRACIÓN<tspan x="6.49" y="52">TRIBUTARIA | 0,4</tspan></text><text class="cls-6" transform="translate(443.95 1648.34)">ADMINISTRACIÓN<tspan x="47.99" y="52">SEGURIDAD</tspan><tspan x="47.31" y="104">SOCIAL| 0,6</tspan></text><text class="cls-5" transform="translate(54.13 998.34)">SEGURIDAD | 2,6</text><text class="cls-5" transform="translate(428.53 998.34)">AGRICULTURA | 2,6</text><text class="cls-5" transform="translate(862.64 999.34)">DEFENSA| 2,2</text><text class="cls-5" transform="translate(803.48 632.34)">DEUDA PÚBLICA| 9,1</text><text class="cls-7" transform="translate(1205.12 630.34)">DESEMPLEO| 7,3</text><text class="cls-6" transform="translate(454.47 584.34)">TRANSFERENCIAS <tspan x="68.04" y="52">A ADMIN.</tspan><tspan x="17.3" y="104">PÚBLICAS</tspan><tspan class="cls-8" x="173.3" y="104">| 17,8</tspan></text><line class="cls-9" x1="262.26" y1="211.34" x2="318.26" y2="183.34"/></svg>