<svg id="graphic" xmlns="http://www.w3.org/2000/svg" viewBox="0 0 1856.69 1856.69"><defs><style>@import url('https://fonts.googleapis.com/css?family=Open+Sans:400,500,600,700');.cls-1{fill:#b0b3b5;}.cls-14,.cls-2,.cls-7{fill:none;}.cls-3{fill:#888;}.cls-4{fill:#edad08;stroke:#cc8e05;}.cls-4,.cls-5{stroke-width:1.25px;}.cls-5{fill:#b5d0ea;stroke:#75a2c6;}.cls-6{fill:#438fb5;stroke:#1d6996;stroke-width:4.45px;}.cls-7{stroke:#b0b3b5;stroke-width:2.58px;}.cls-10,.cls-11,.cls-12,.cls-8,.cls-9{font-size:50px;}.cls-8{fill:#757575;}.cls-8,.cls-9{font-family:OpenSans, Open Sans;}.cls-13,.cls-9{fill:#323232;}.cls-10{fill:#fff;}.cls-10,.cls-13{font-family:OpenSans-Semibold, Open Sans;}.cls-10,.cls-11,.cls-12,.cls-13{font-weight:700;}.cls-11{fill:#cc8e05;}.cls-11,.cls-12{font-family:OpenSans-Bold, Open Sans;}.cls-12{fill:#75a2c6;}.cls-13{font-size:75px;}.cls-14{stroke:#323232;stroke-miterlimit:10;stroke-width:2px;}</style></defs><title>2019.01_InvisibleBorder</title><g id="main-links"><path class="cls-1" d="M1333.34,768l-24.86,3.18,12.37-21.8,1.59,12.43"/><path class="cls-1" d="M1280,1250l-13.22-21.29,25,2.2-10.65,6.61"/><path class="cls-2" d="M1308.34,783l-24.86,3.18,12.37-21.8,1.59,12.43"/><path class="cls-1" d="M549.37,743.47l11.18,22.43-24.65-4.51,11.22-5.59"/><path class="cls-1" d="M933.42,1440.13l11-22.53,11.43,22.31-11.26-5.49"/><path class="cls-2" d="M930,548.86l-12.54,21.7-9.84-23.05,10.85,6.27"/><path class="cls-1" d="M551.68,1242.05l24.88-3L564,1260.76l-1.5-12.44"/><path class="cls-3" d="M920.57,991.73l-11.3,22.37-11.12-22.46,11.19,5.65"/></g><g id="main-nodes"><circle id="node-19" class="cls-4" cx="1424.46" cy="1327.75" r="25.62" transform="translate(90.86 2746.73) rotate(-89.76)"/><circle id="node-20" class="cls-5" cx="1441.43" cy="686.2" r="25.62" transform="translate(749.31 2124.8) rotate(-89.76)"/><path id="node-21" class="cls-5" d="M421.86,641c9,22.27-12.11,43.24-34.3,34a23.4,23.4,0,0,1-12.66-12.77c-9-22.27,12.11-43.24,34.3-34A23.4,23.4,0,0,1,421.86,641Z"/><circle id="node-22" class="cls-4" cx="944.55" cy="1619.58" r="25.62" transform="translate(-678.9 2557.45) rotate(-89.76)"/><circle id="node-23" class="cls-5" cx="919.73" cy="385.56" r="25.62" transform="translate(530.4 1303.69) rotate(-89.76)"/><circle id="node-24" class="cls-4" cx="400.13" cy="1353.09" r="25.62" transform="translate(-954.6 1747.64) rotate(-89.76)"/><circle id="node-25" class="cls-6" cx="909.31" cy="1002.89" r="204.51" transform="translate(-97.31 1908.07) rotate(-89.76)"/></g><line class="cls-7" x1="1420.21" y1="699.48" x2="1094.35" y2="908.71"/><line class="cls-7" x1="1400.23" y1="1315.88" x2="1088.36" y2="1111.46"/><line class="cls-7" x1="944.9" y1="1207.6" x2="943.31" y2="1593.68"/><line class="cls-7" x1="746.28" y1="1131.01" x2="421.24" y2="1338.04"/><line class="cls-7" x1="420.26" y1="669.21" x2="742.25" y2="889.8"/><line class="cls-7" x1="919.63" y1="411.18" x2="918.04" y2="797.05"/><text class="cls-8" transform="translate(448.34 301.22)">SISTEMA DE INFORMACIÓN SCHENGEN</text><text class="cls-8" transform="translate(589.36 1699.37)">SISTEMA DE ENTRADA Y SALIDA</text><text class="cls-9" transform="translate(4.3 1853.38)"><tspan xml:space="preserve">Fuente:  Comisión Europea</tspan></text><text class="cls-9" transform="translate(1462.44 1850.38)">LA VANGUARDIA</text><text class="cls-8" transform="translate(1251.42 1412.32)">AUTORIZACIÓN DE VIAJES</text><text class="cls-10" transform="translate(765.73 932.2)">SISTEMA DE<tspan x="0.38" y="60">SEGURIDAD</tspan><tspan x="-44.53" y="120">CENTRALIZADO</tspan></text><text class="cls-8" transform="translate(9.3 1431.34)">REGISTRO DE ANTECEDENTES</text><text class="cls-8" transform="translate(20.33 555.44)">EURODAC</text><text class="cls-8" transform="translate(1705.33 589.22)">VISAS</text><text class="cls-8" transform="translate(575.01 351.22)">Personas en búsqueda y captura</text><text class="cls-8" transform="translate(16.34 612.22)">Demandantes de asilo</text><text class="cls-8" transform="translate(1330.38 1469.28)">Examen de solicitudes</text><text class="cls-8" transform="translate(613.25 1753.28)">Visitantes de corta estancia</text><text class="cls-11" transform="translate(949.54 210.29)">Nueva creación</text><text class="cls-12" transform="translate(532.77 210.29)">Ya existentes</text><text class="cls-8" transform="translate(1275.81 636.22)">Demandantes de visado</text><text class="cls-8" transform="translate(16.24 1488.31)">Antecedentes penales en Europa</text><text class="cls-13" transform="translate(94.72 70.2)">Estructura de la base de datos centralizada de <tspan x="406.7" y="71">ciudadanos extranjeros</tspan></text><line class="cls-14" x1="6.49" y1="1804.41" x2="1860.68" y2="1804.41"/></svg>