<svg id="svg2" xmlns="http://www.w3.org/2000/svg" viewBox="0 0 1856.69 1856.69"><defs><style>@import url('https://fonts.googleapis.com/css?family=Open+Sans:400,700');.cls-1,.cls-5{opacity:0.5;}.cls-2,.cls-5{fill:#9fd8e2;}.cls-3{opacity:0.6;}.cls-4{fill:#68b9c1;}.cls-6{font-size:67px;}.cls-13,.cls-6,.cls-7{fill:#323232;}.cls-14,.cls-15,.cls-6{font-family:OpenSans-Bold, Open Sans;}.cls-14,.cls-15,.cls-6,.cls-9{font-weight:700;}.cls-16,.cls-7,.cls-8{font-size:45px;}.cls-10,.cls-11,.cls-13,.cls-16,.cls-17,.cls-7{font-family:OpenSans, Open Sans;}.cls-14,.cls-8{fill:#257b7f;}.cls-8{font-family:OpenSans-Semibold, Open Sans;}.cls-10,.cls-13{font-size:49px;}.cls-11{font-size:40px;}.cls-12,.cls-15{fill:#82c1d1;}.cls-16,.cls-17{fill:#757575;}.cls-17{font-size:39px;}</style></defs><title>2019.01_ComparacionCiudades</title><g id="layer2" class="cls-1"><path id="path3061" class="cls-2" d="M808.23,1180l14.46,7,6.68,15.45-7,14.46,2.32,23.95,28.25-5.7,7.66,2.64,24.84-6.59,1.85-13.65,21.45-9.18,6.1-11.9-3.31-10.29,17.11-2.39,31-22.76,18.81-1.52-2.93-48.73-40.75-26-35.74-14-54.91,22.52-12.19,22.95-23.38,31.38Z"/><path id="path3059" class="cls-2" d="M971.4,1096.2l-7.54-15.45-6-.06,1-12.81-9.3-9.49,14.52.15,0-3.42-7.6-8.62-16.21-2.73,6-4.21-5.06-6.89,4.33-5.94,10.18,6.94,8.59-4.19.93-7.68-7.6-8.62.94-8.53-10.17-7.79,6-6.77,3.51-9.36,5,13.72,9.27,12.91,13.87-19.51,2.65-8.52,8.63-8.46-6.8-3.49-12,5-9.36-3.51-.76-9.41,11.91,5.25,10.3-5L989,956.25l-.68-17.95,9.51-11,4.19,8.59L997.73,941l-1,12.81,7.65,3.49,7.86-17,12.93-11.83-22.95-12.19,21.32,3.63.13-12.81,9.38,1.8-2.44-12-13.49-18.08L996.7,872.6l-11.88-8.66-10.14-11.21L948.3,842.21l-6.48-35.09L920.7,783l-1.62-8.56-7.54-14.6L899.68,748.6,892,745.1l-4.91-21.41-19,18.61,5,14.57-15.47,9.24-1.32,46.12-14.69,16.94-6.18,20.44-.26,25.63,3.22,19.68L853.49,925l4.17,10.29-7.06,23-1,11.1-16.26,2.4-10.2-5.23L810.45,957l-6.78-5.19-6.81-2.63L778.92,949l-17.58,134.82-6,6.77,5.76,22.27,21.25,11.32,17.94.18-6.16,17.88,1.44,26.5,11.29-18.68,25.76-12.56,16.45-22,9.61-21.26,16.21,1.87,21.45-9.18,21.4-4.06,11,12.93,46,12.42L973,1103.9Z"/><path id="path3057" class="cls-2" d="M698.48,1132.77l4.43-16.19,6.94-10.18-4.19-8.59,5.43-30.7-3.29-12.85,15.35,2.72,6.93-9.33-8.52-2.65-.73-12,9.43-3.32-5.89-8.6-10.82-28.3-5.72-26.54-10.07-18-6.72-12-4.13-14.57,1.75-4.25,15.26,12.11,4.31-4.23-7.58-11.18,13-17,14.25,27.48-5.74-24-.78-7.7,12.87-5,7.46,23.14,7.81-11.88,13.41,25.77,25.51,12.22-.37,36.74-13.75,7.55,1.43,28.21,1.56,14.54-5.22,9.35,6.7,13.74-2.73,17.06-15,45.13-15.4,2.41-19.66.66-6.1,11.9-6.91,7.62Z"/><path id="path3055" class="cls-2" d="M729.47,1110l43.66-8.11,32.28,18.26,10.08,17.19,5,7.74-2.95,38.42-15.54,16.08-19.75,10.06-77.49-25.55,15.49-11,6.11-12.75,4.42-14.48,6.21-23,.09-9.4Z"/><path id="path3053" class="cls-2" d="M666.47,1258l14.89-36.59,8.88-33.23,1.9-19.63,6-.79,11,12.07,31.52,8.86,22.19,2.78,19.5,15.57-3.6,17.91-10.3,5,1.58,12.83,4.89,24-13.69,2.43.75,10.26-14.6,7.54-2.61,5.1-21.66,29.69-52.54-43.24Z"/><path id="path3051" class="cls-2" d="M636.56,1344l7.77-8.47,3.5-8.51,24.08-16,25.29,34.43-19.08,28.86,15.28,9.55-18,3.24-.08,7.69L662.62,1387l-16.5,26.32,4,24,7.57,12,30.17-26.19,43.31-59.38,16.74-51.1-7.54-14.6-17.86-8.72-16.21-2.73-4.13-14.57-11-8.65-24.74-3.66L642,1309.07l-10.32,6.73Z"/><path id="path3063" class="cls-2" d="M653,680.58l30.22-.91,11.91,17,18.59,13.48L733,718.83l25.53-16.06,2.07-26,15.75-4.07,29-1.52,15.6,11,7.73,12.16L844.36,700l10.81,6.15L875,715.42l8.82,24.25,3.88,95.49,2.57,105.75-29.35,95.16L782,1012.33l-53.76-61,22.8-44.48-2.9-12.11-8.9-16.4,5-15.05-6.42-22.42-3.07,5.41.48,12.09-10.27-.1-6.68,3.56-3.08,6-7.91,5.36-1.88,7.23-5.5,6.59-10.32,4.73-4.29,6.6L681.64,902l-10.13-14-1.29,8.45,8.25,21.23-5.5,6.59-8.48,2.33L668,939.9,663.59,955l-8.4-5.52-6.68,3,6.4-35.58L652,908.93l-6-6.71-1.75-6.06-10.32,4.73,7.39-13.82.08-7.85,5.45-1.76,13.42-12.55,6.05-1.15,6.76-11.41-.5-10.28-1.55-26,23.24-28.77,12.84-15-1.75-6.66,15.73-2.26,11.51-2.91-11.41-6.76,16.52-20.38,3.17-15.07,10.28-.5,17-9.5,2.5-8.43-6-6.1-25.59,22.1-12.69-.13-8,11.4-3.14,11.45-15.2,10.12-9.81,14.4-3.08,6L675.6,780.49l-7.94,8.38L661,795.44l4.73,10.32,1.74,7.27-3.65,3-1.27,6.63-6-.66-7.85-.08-5.42-1.26.09-9.06,9.14-7.76-7.16-9.13-2.2-21.77-4.16-6.69-4.81-2.46-1.71-10.29,8.57-10.79.1-10.27,2.5-8.43,1.27-6.63.09-9.06,4.92-8.41-.51-9.67Z"/></g><g id="layer6" class="cls-3"><path id="path6518" class="cls-2" d="M1804.92,1110.68c16-1.46,22.79,27,40.5,8.94,22.54-17.75,14.95-47.34-6.22-62.05-20.22-10.51-33.12-42.11-9.39-56,19-4,46.19-20.27,21.18-39-21.26-6.88-18.84-37-8.1-50.94,5.33-13.81-2.38-30.23,3.1-41.7-17.35-12.07-40.82,28.13-39-5.24.93-22.24-38.65-9.41-26.93-35.84-4.41-13.56-27.25-3.94-20.62-23.69-3-18.93-30.79-21.83-31.13-43.58,17.28.79,32.92-14.44,15.38-28.62-19.56,3.49-18.68-48-38.6-22.76-6.56,15.87-34.45,29.26-29.22,1,2.24-24.6-16.48,3.95-26.07-11.46-15.51-19.58-40.51-2.22-56.77,2,1.67,19.71-16,38.12-32.27,19.24-14.7-.4-26.49,3.44-26.31,19.71-20.52-7.32-30.29,12.14-39.87,25.79,4,20.34,11.88,35.46,5.65,55.86,13.94,18.23-10.59,45.72,14.86,55.88-5.38,16.1-7.7,41.64-31.18,35.14-27.39,15.7,23,41,1.68,51.15-11.69,0-18.09-29.42-28.13-7.49-11.87-4.34-20.87-8.25-20.44,10-14.64,13.91-12.56,37.88-36.43,34.5-13.12,21.15.55,38.5,18.26,49,14.38,12.38,22.2,25.22,18.87,44.07,14.27,5.62,17.18-24,31-5.59,17.07-5.54,29.23,12.62,40.6-5,12.48-15.82,39.26,5.77,48.79-9.23-.77-8.76-21.12-24.84-.68-20.81,13.91,14.61,35.56,44.71,56.89,24.7,12,4.13,23,8.86,19.67,20.56,31.54-.45,10,33.06,13.69,49.44,7.37,12.42,8.62,31.32,27.44,24.48,22.86.85,5.74,40.78,33.36,35.4,20.62-2.55,40.66-3.64,58.36-14.55,19-18.69-4.87-33.72-11.64-48.77,5.95-18.1,26.27-21.83,40-33.81C1798.8,1110,1801.62,1114.12,1804.92,1110.68Z"/></g><g id="layer6-2" data-name="layer6"><path id="path6518-2" data-name="path6518" class="cls-4" d="M1738.66,1032.23c8.66-.79,12.33,14.6,21.92,4.84,12.2-9.61,8.09-25.62-3.36-33.58-10.94-5.69-17.92-22.79-5.08-30.33,10.28-2.15,25-11,11.46-21.13-11.5-3.72-10.19-20-4.38-27.57,2.88-7.47-1.29-16.36,1.68-22.57-9.39-6.53-22.09,15.22-21.1-2.83.5-12-20.92-5.09-14.57-19.39-2.39-7.34-14.75-2.13-11.16-12.82-1.63-10.25-16.66-11.81-16.85-23.58,9.35.43,17.81-7.82,8.33-15.49-10.59,1.89-10.11-26-20.89-12.32-3.55,8.59-18.64,15.83-15.81.55,1.21-13.32-8.92,2.14-14.11-6.2-8.4-10.6-21.92-1.2-30.72,1.1.9,10.67-8.66,20.63-17.46,10.41-8-.22-14.34,1.86-14.24,10.67-11.11-4-16.39,6.57-21.58,14,2.18,11,6.43,19.19,3.06,30.23,7.54,9.86-5.73,24.74,8,30.24-2.91,8.71-4.17,22.54-16.88,19-14.82,8.5,12.43,22.19.91,27.68-6.32,0-9.79-15.92-15.22-4.06-6.43-2.35-11.29-4.47-11.06,5.39-7.92,7.53-6.8,20.5-19.71,18.67-7.1,11.45.3,20.84,9.88,26.54,7.78,6.7,12,13.65,10.21,23.85,7.72,3,9.3-13,16.75-3,9.24-3,15.82,6.83,22-2.7,6.76-8.56,21.25,3.12,26.4-5-.42-4.74-11.43-13.44-.37-11.26,7.53,7.91,19.24,24.2,30.79,13.37,6.48,2.24,12.44,4.79,10.65,11.13,17.07-.24,5.44,17.89,7.41,26.76,4,6.72,4.67,16.95,14.85,13.25,12.37.46,3.11,22.07,18.05,19.16,11.16-1.38,22-2,31.58-7.88,10.27-10.11-2.64-18.25-6.3-26.39,3.22-9.8,14.22-11.81,21.67-18.3C1735.35,1031.84,1736.88,1034.09,1738.66,1032.23Z"/></g><g id="layer2-2" data-name="layer2"><path id="path3061-2" data-name="path3061" class="cls-4" d="M838.35,1000.19l3.09,1.49,1.43,3.31-1.49,3.09.5,5.12,6-1.22,1.64.56,5.32-1.41.39-2.92,4.59-2,1.31-2.55-.71-2.2,3.66-.51,6.63-4.87,4-.33-.63-10.43-8.72-5.57-7.65-3L846,981.61l-2.61,4.91-5,6.72Z"/><path id="path3059-2" data-name="path3059" class="cls-4" d="M873.27,982.25l-1.61-3.31h-1.28l.21-2.74-2-2,3.11,0v-.73l-1.63-1.84-3.47-.58,1.29-.9-1.08-1.47.93-1.27,2.18,1.48,1.84-.9.2-1.64-1.63-1.84.2-1.83L868.36,961l1.29-1.45.75-2,1.07,2.94,2,2.76,3-4.18.57-1.82,1.85-1.81-1.46-.75-2.57,1.07-2-.75-.16-2,2.55,1.12,2.2-1.08-.36-.73-.14-3.84,2-2.36.9,1.84-.93,1.09-.21,2.74,1.64.75,1.68-3.64,2.77-2.53-4.91-2.61,4.56.78,0-2.74,2,.39-.52-2.57-2.89-3.87-4.38-1.32-2.54-1.85-2.17-2.4-5.65-2.25-1.39-7.51-4.52-5.16-.35-1.83-1.61-3.12-2.54-2.4-1.64-.75-1.05-4.58-4.06,4,1.07,3.12-3.31,2-.28,9.87-3.14,3.63-1.32,4.38-.05,5.48.69,4.21,3.23,6.43.89,2.2-1.51,4.92-.21,2.37-3.48.51-2.18-1.12-2.72-2-1.45-1.11-1.46-.56-3.84,0-3.76,28.85L827,981.06l1.23,4.77,4.55,2.42,3.84,0-1.32,3.83.31,5.67,2.42-4,5.51-2.69,3.52-4.72,2.06-4.55,3.47.4,4.59-2,4.58-.87,2.35,2.77,9.85,2.66-.36-.92Z"/><path id="path3057-2" data-name="path3057" class="cls-4" d="M814.87,990.08l.95-3.46,1.48-2.18-.9-1.84,1.16-6.57-.7-2.75,3.29.58,1.48-2-1.82-.57-.16-2.56,2-.71-1.26-1.84-2.32-6.06-1.22-5.68-2.16-3.86L813.28,948l-.88-3.12.37-.91,3.27,2.59.92-.9-1.62-2.39,2.78-3.63,3,5.88-1.23-5.13-.17-1.65,2.75-1.07,1.6,5,1.67-2.54,2.87,5.51,5.46,2.61-.08,7.86-2.94,1.62.31,6,.33,3.11-1.12,2,1.43,2.94-.58,3.65-3.2,9.66-3.3.52-4.21.14-1.31,2.55L818,989.93Z"/><path id="path3055-2" data-name="path3055" class="cls-4" d="M821.5,985.21l9.34-1.74,6.91,3.91,2.16,3.68,1.08,1.66-.63,8.22-3.33,3.44-4.23,2.15-16.58-5.47,3.31-2.34,1.31-2.73.95-3.1,1.33-4.92,0-2Z"/><path id="path3053-2" data-name="path3053" class="cls-4" d="M808,1016.89l3.19-7.83,1.9-7.11.41-4.2,1.28-.17,2.35,2.58,6.75,1.9,4.75.6,4.17,3.33-.77,3.83-2.2,1.08.34,2.75,1,5.13-2.93.52.16,2.2-3.12,1.61-.56,1.09-4.63,6.35-11.24-9.25Z"/><path id="path3051-2" data-name="path3051" class="cls-4" d="M801.62,1035.29l1.66-1.81.75-1.82,5.15-3.42,5.41,7.37-4.08,6.18,3.27,2-3.85.69,0,1.65-2.73-1.67-3.53,5.63.86,5.13,1.62,2.58,6.46-5.6,9.27-12.71,3.58-10.93-1.61-3.12-3.82-1.87-3.47-.58-.88-3.12-2.36-1.85-5.29-.78-5.23,10.55-2.21,1.44Z"/><path id="path3063-2" data-name="path3063" class="cls-4" d="M805.14,893.31l6.47-.19,2.55,3.65,4,2.88,4.12,1.85,5.46-3.44.44-5.56,3.37-.87,6.21-.33,3.34,2.36,1.65,2.6,3.35,1.2,2.31,1.32,4.25,2,1.89,5.19.83,20.44.55,22.63-6.28,20.37-16.89-5.08-11.51-13,4.88-9.52-.62-2.59-1.9-3.51,1.07-3.22-1.37-4.8-.66,1.16.1,2.59-2.2,0-1.43.76-.66,1.29-1.69,1.15-.4,1.55-1.18,1.41-2.21,1-.92,1.41-.78.77-2.17-3-.28,1.81,1.76,4.54-1.18,1.41-1.82.5.75,2.85L807.4,952l-1.8-1.18-1.43.63,1.37-7.61-.63-1.69-1.28-1.43-.37-1.3-2.21,1,1.58-3,0-1.68,1.17-.38,2.87-2.69,1.3-.25,1.45-2.44-.11-2.2-.33-5.56,5-6.16,2.75-3.2-.37-1.43,3.37-.48,2.46-.62L819.72,909l3.53-4.36.68-3.23,2.2-.11,3.64-2,.54-1.8L829,896.13l-5.48,4.73-2.71,0-1.71,2.44-.67,2.45-3.25,2.17-2.1,3.08-.66,1.29L810,914.69l-1.7,1.79-1.44,1.41,1,2.21.37,1.56-.78.64-.27,1.42-1.29-.14-1.68,0-1.16-.27,0-1.94,2-1.66-1.53-2-.47-4.66-.89-1.43-1-.53-.37-2.2,1.83-2.31,0-2.2.54-1.8.27-1.42,0-1.94,1.05-1.8-.11-2.07Z"/></g><path id="_10m_admin_1_states_provinces_shp.3108" data-name="10m_admin_1_states_provinces_shp.3108" class="cls-5" d="M1183.35,787.14l-1.73,4.39-.86,3.51,1.78,5.25-8.59,35.95,14.19,36.72L1207.56,907l10.66,31.48.05,11.39.91,7,12.36,21.84,2.66,7.87,1.78,7,0,8.76-1.74,1.76-2.59,7.89,0,7.88-2.61,4.39-2.62,1.76-7.87,2.66-7.88.91-14-4.31-8.76-.83,6.18,11.36,7,7.85,15,13.94,2.65,5.24,0,6.13,1.78,6.12,5.27,2.6,4.37-.9,9.61-4.42,5.25,0,7,2.59,14.05,8.69,7.89,2.59,4.39,1.73,3.53,5.24,4.39,2.61,5.24-3.53,3.49-3.52,3.5-1.77,3.5-.89,3.49-3.52,14,3.44,4.56,37.64L1321,1195.5l10,84.91-4.79,99L1344,1496.84l-39.41.19-28.93-5.12-3,22.62,1.65-21-1.85-21.89,5.18-16.67-.95-15.76-11.47-17.46-14.07-12.2-8.76,0-3.54-7,5.47-140.16-5.43-37.64-10.56-9.58-31.56-6-13.18-9.57L1173,1189.19l-33.32-8.6-9.65-4.33-7.1-20.11,4.31-14.91,14.75-29,19.19-15.86.77-22.78-2.69-12.25-10.55-7.83-9.64-1.71-5.28-6.11-4.39-374.83,10.33-38.59,16.67,6.93L1168.71,655l15.79,5.18,15.73-7.08,7.88,0,14.8-18.46-9.72-19.22L1200,595.26l-4.48-21,6-18.42,14-6.2,13.17,6.07,21.19,36.68,15.76-1,8.69-14.93,5.17-18.42,7.84-8.8,7-11.42L1290.71,523l.71-35.91,6-18.42,17.51-1h0l17.53,2.54h1.75l-24.74,139.37-13.24,163.84,15.31,274.94-2.56,14-6.09,7.91-7,6.16-6.09,9.66-3.53-6.11-.9-4.37.86-3.51,3.48-4.4-9.68-9.59,3.48-4.4,9.63-.92,9.62-2.67-21.13-22.67.86-3.51,5.25-1.78,0-5.25-2.67-8.75-.93-12.26-1.8-10.5-5.3-9.61-9.68-9.59-7-.84-7.87,1.79-5.26-.85-2.66-6.12-.12-26.27-2.69-13.12L1232.89,892l2.59-8.77-6.2-14-7.07-13.1-10.55-8.71-14-3.44-2.66-7.87"/><path id="_10m_admin_1_states_provinces_shp.3108-2" data-name="10m_admin_1_states_provinces_shp.3108" class="cls-4" d="M1218.22,938.49l-.63,1.6-.31,1.28.65,1.91-3.13,13.12,5.18,13.4,7.09,12.43,3.89,11.49,0,4.15.33,2.56,4.51,8,1,2.87.65,2.55,0,3.2-.64.64-.95,2.88v2.88l-1,1.6-1,.64-2.87,1-2.87.33-5.12-1.57-3.2-.3,2.26,4.14,2.57,2.86,5.46,5.09,1,1.91v2.24l.65,2.23,1.92.95,1.6-.33,3.51-1.61h1.92l2.56.95,5.13,3.17,2.88.95,1.6.63,1.29,1.91,1.6,1,1.91-1.29,1.27-1.28,1.28-.65,1.28-.33,1.27-1.28,5.12,1.25,1.66,13.73-1.15,26.21,3.66,31-1.75,36.12,5.36,52.71-14.38.07-10.55-1.87v-1.6l.6-7.67-.68-8,1.89-6.08-.35-5.75-4.18-6.37-5.13-4.45-3.2,0-1.29-2.55,2-51.14-2-13.73-3.85-3.5-11.52-2.18-4.81-3.49-3.85-3.82-12.16-3.14-3.52-1.58-2.59-7.34,1.57-5.44,5.38-10.57,7-5.79.28-8.31-1-4.47-3.85-2.86-3.52-.62-1.93-2.23-1.6-136.77,3.77-14.08,6.08,2.53,4.5,5.73,5.76,1.89,5.74-2.58h2.88l5.4-6.74-3.55-7-4.83-7.33-1.63-7.66,2.21-6.72,5.1-2.26,4.8,2.21,7.73,13.39,5.75-.35,3.17-5.45,1.89-6.72,2.86-3.21,2.54-4.17-1.3-5.43.26-13.1,2.21-6.72,6.39-.35h0l6.4.93h.64l-9,50.86-4.83,59.78,5.59,100.32-.93,5.12-2.22,2.89-2.55,2.25-2.22,3.53-1.29-2.23-.33-1.6.31-1.28,1.27-1.6-3.53-3.5,1.27-1.6,3.51-.34,3.51-1-7.71-8.27.31-1.28,1.91-.65v-1.92l-1-3.19-.34-4.47-.66-3.83-1.93-3.51-3.53-3.5-2.56-.31-2.87.65-1.92-.31-1-2.23,0-9.59-1-4.79-3.25-10.53.94-3.2-2.26-5.1-2.58-4.78-3.85-3.18-5.12-1.25-1-2.87"/><path id="path568" class="cls-4" d="M1113.25,1651l-.15.48,1.51,1.32.27.5.13.94.55-.06,1,.69.74-.1v.87l-.41,1.13.34.13.25.68.83.82.18.44-.88.62.05.5-.68,1.52,0,.42-.5.74-.09.46.17.26H1116l0,.43.74.33-.15.2.12.58-.31-.05-.9.62.2.39-.13.24h-.21l.23.35-.34.31.1.66-.53.82v.41l-.36,0-.12.38-.25.1,1.66.22.58.59.24.56,0,.67-.23.55.08.14.26-.24.26.45-.8,1-.27.49,0,.25-.22.14.43.09.54.63.54.11,0-.48.43.53.35.09.19-1.06.25,0,.75.7v.45l.35.7-.08.35.76.31.06.21.71-.3.26-.52.09.25-.3.41-.06.53-.41.27.51.63-.32.21v.48l.74.87,1,.4-.18.64.24.29-.57.74.27.28.23-.24.43.08.83-.42.57.55.16,0-.06-.33.33.63.83.55-.06.94.25.83-.18.64.05,1.12,1,.3.62-.15.33,1,.62.67-.18.71-.33.15.2.56-.43.13-.12.3.45.79-.56.46.17.16-.07.33-1,1v1l-.22.61.11.46-.47.57v.48l.47.21.37.46.74-1.47,1.64-1,.42.49.09.3-.12.41.39.6,0,.46.36.57-.14.58.15.3-.34.42.15.1,0,.59.31.65-.05.39.4.37-.41,0-.36-.3-.37.45.15.18-.11.35.82.56.07.3.6.55.13.71-.21.34-.94.89a1.26,1.26,0,0,1-.4.26l-.58.23a1.26,1.26,0,0,1-.59.08l-1.33-.14-.06-.91-.19-.1.07-.26h-.32l-.15.29-.39.12,0,.28-.59.67.17.15-.28-.11-1.32.43-.09-.21h-.33l-.1.35-.27-.32-.07.19-.26-.08,0,.26-.16.1-.32-.26-.65-.05-.33-.73-.9-.64-1.55.31-.1.41.19.41-.05.39-.35-.07-.28.24-.05.56-.37,0-.78-.59-.18.4-.6.07,0-.53-.2-.1-.62.44h-.13v-.24h-.41l-.18.24-.09-.31-.94.22-.26.85.08.25-2.64.35-.17.56-1.64.63.26,1-.15.13h-1l-.59.25-.77.68-.51-.4-1.27.69,0,.35-.39.57-.86.49-1,1.14.08.16-.41-.07-.73-.69-1.33-.25-.25-.31.27-.28-.25-.58,1.4-.66.07.59.16,0,.3-.83h.25l.42-.39.19.11,0,.3h.53l-.06-.38.71-.22.19-.37.22.42-.41.17v.26l.55,0,.15-.32-.37-.7.76.47.56-.24.07-.18-.16-.14-.11.16-.35,0-.21-.5.21-.1.22.28v-.39l.29-.22.17.1,0-.44.3-.32.73-.85.35,0,.27.29.73-.84.47-.05.1-.28.34-.2v-.38l.62-.22-.16-.33.28-.26-.41-.38.71-.34.21-.51-.27,0-.12-.25.3-.46-1.85-.8-.36-.52,0-.39-.63.54-.78-.26-.6-.51-.92.74-1-.35-.46-1.13-.81-.73-.16.41-.26-.11-.67.49-.64-.38,0-.53-.85-.56-.06.14-1.24-.1-.76-.69-.26,0-.43.69,0-.37-.2-.1.13-.67-1.48.11-1.24-1.31.09-.63-1-.11-.73-.68-.34-.09-.28.64-.63.55-1.07-.33-.46.14-.21-.21.26-.72-.73-.29-.51-1.1-.47-.24-.51.48v.89l-.52-.19-.33.14-.19-.34-.53.14-.45.68-.45,1.2-.62.3-.39.46-.39-.13-.05-.58-.52.4-.51-.68-.48.1.13-.82-.49-1.05.07-1.71-.88-.44-.27.83.16.08,0,.51-.54.23-1.19,1.23-.23,0-.08,1.06-.38.22-1.22.13-1.13.51-.27.21-.09.57-.36.13-1.75-.35.1-.29-.24-.22.5,0,.19-.23.07-.58-.25-.25-.11-.86.49-.35,0-.61,1-.75-.61-2.42.75-.12,0,.33.82,1.14.71-.28,1.12.08.08-.64-.25-.37.79-.47-.08-1.73.79-1,.73-.23,1,.21.93-.28.67.23.5-.08-.2-.14.1-.51-.38-.07-.25-.62.32-.15v-.37l.44-.13-.22-.37h.29l.08-.27-.24-.75,0-1.08-.16-.28.27-1.16-.27-.15.22-.8,1.25-.63.44-1.9-.42-.24,0-1,.65,0,.37,1.16.67.17,1.08-.11,2-.87-.43-.34.23-1.19-.23-.63.09-.62.43-.47.6-.3.23-.88.46-.5.42-.87.65-.27.14-.4-.08-.44.59-.56.07-.59.33-.24.85.18.54.43.48,0,.63-.34.84.22v-.77l.66-1.08-.09-.8.69-1.28.15-1.12-.36-.29.58-1.09v-.55l.57-.13.2-.65.19-.07.18-.56.31-.14.15-.38.61-.41.34.2.35-.36,1.67-.35,1.23-.67,1.2-1.69.4-.92,1.4-1.28,1-.33.94-1,.22-.61.34-.21.15-.48.68-.74.5-.3.32,0,.31-.33.53.08.43-.24.66,0,.12.23"/><text class="cls-6" transform="translate(53.64 77.09)">Las cuatro ciudades que más habrán crecido en 2050</text><text class="cls-7" transform="translate(1463.71 334.63)">NUEVA DELHI</text><text class="cls-8" transform="translate(1463.47 396.71)"><tspan class="cls-9">26,4</tspan><tspan class="cls-10" x="89.08" y="0"> </tspan><tspan class="cls-11" x="101.81" y="0">MILLONES</tspan><tspan class="cls-12"><tspan class="cls-9" x="19.37" y="54">49 </tspan><tspan class="cls-11" x="82.43" y="54">MILLONES</tspan></tspan></text><text class="cls-7" transform="translate(152.55 337.63)">KINSHASA</text><text class="cls-8" transform="translate(135.19 399.71)"><tspan class="cls-9">12</tspan><tspan class="cls-10" x="51.37" y="0"> </tspan><tspan class="cls-11" x="64.1" y="0">MILLONES</tspan><tspan class="cls-12"><tspan class="cls-9" x="-18.33" y="54">58,4 </tspan><tspan class="cls-11" x="82.43" y="54">MILLONES</tspan></tspan></text><text class="cls-7" transform="translate(603.57 328.66)">BOMBAY</text><text class="cls-8" transform="translate(554.36 390.74)"><tspan class="cls-9">12,4</tspan><tspan class="cls-10" x="89.08" y="0"> </tspan><tspan class="cls-11" x="101.81" y="0">MILLONES</tspan><tspan class="cls-12"><tspan class="cls-9" x="0.52" y="54">57,8 </tspan><tspan class="cls-11" x="101.29" y="54">MILLONES</tspan></tspan></text><text class="cls-7" transform="translate(1207.64 1636.79)">COMUNIDAD DE MADRID</text><text class="cls-8" transform="translate(1344.28 1698.87)"><tspan class="cls-9">5,7</tspan><tspan class="cls-10" x="63.39" y="0"> </tspan><tspan class="cls-11" x="76.12" y="0">MILLONES</tspan></text><text class="cls-7" transform="translate(107.79 1642.79)">PROVINCIA DE BARCELONA</text><text class="cls-8" transform="translate(234.17 1704.87)"><tspan class="cls-9">5,5</tspan><tspan class="cls-10" x="63.39" y="0"> </tspan><tspan class="cls-11" x="76.12" y="0">MILLONES</tspan></text><text class="cls-7" transform="translate(1112.84 333.11)">LAGOS</text><text class="cls-8" transform="translate(1041.97 395.19)"><tspan class="cls-9">21,3</tspan><tspan class="cls-10" x="89.08" y="0"> </tspan><tspan class="cls-11" x="101.81" y="0">MILLONES</tspan><tspan class="cls-12"><tspan class="cls-9" x="0.52" y="54">57,8 </tspan><tspan class="cls-11" x="101.29" y="54">MILLONES</tspan></tspan></text><text class="cls-13" transform="translate(585.45 204.56)">Evolución de <tspan class="cls-14" x="302.23" y="0">2017 </tspan><tspan x="426.84" y="0">hasta </tspan><tspan class="cls-15" x="564.82" y="0">2050 </tspan></text><text class="cls-13" transform="translate(248.61 132.56)">Las dimensiones representan una proyección de la población</text><text class="cls-16" transform="translate(1500.22 1846.26)">LA VANGUARDIA</text><text class="cls-17" transform="translate(9.24 1841.81)">Fuente: Predicciones de población para el mundo (Universidad de Ontario)</text><path id="path74" class="cls-4" d="M760.85,1652.62l-.47.08-.16.23-.24.08-.31.07h-.08l-.31.08-.16-.08-.31.16-.47.24h-.24l-.31.24-.4.07-.47-.16-.31.24v.16h-.32l-.39.23-.31-.07h-1.19l-.23.4h-.71l-.16-.24-.47.24-.08-.08H752l-.31.08-.08.16.71.16.16.71-.39.23v.16l-.56.08-.31.08h-.16l-.8.31-.16.16-.31.31-.08.31-.56,1,.08.64.16-.08.31.24h.16l.56.07-.07.24.39.79.16.31-.16.08.32.24h.16l.07.07h.16v-.4l.16-.07.16.24.17-.32.07.4.08-.16-.08-.24h.16l.4.24.24.16.16.31.31-.23.47-.16-.08-.32.24-.47.08.08.16.23-.08.31.08.4-.16.24-.48.47-.31-.16-.63,1.11v.23l.4.31.16.16-.08.17-.07.39-.16.16.23.24.47.08v.47l-.23.23-.31.17-.71-.24-.08.31v.4l-.56.79-.07.4-.08.31v.24l.24.16.07-.24.17-.31.23.16.16.16.08.31-.08.16.16.24-.07.16h-.31l-.32.24-.23.16-.24.31.08.31-.24.24-.16-.16.16-.24-.07-.16.07-.47h-.24l-.16.16-.16.4v.39l-.16.24.16.16v.24l.24-.31-.08-.08.08-.16.24.16v.47l.23-.07.4-.08.31.08.16.16.08.23.07.08.08-.4.16-.07-.4-.64.16-.47h.16l.32.4v.16l.39.16-.07.24v.23l.16.31-.56.4-.47.24v.07l-.48.24-.39-.08-.16-.16.31-.56-.4-.16-.24.16-.07.17-.16-.08-.08.08-.23.7.07.4v.08l.4-.24.4.16.23.56.16.08-.07.23.4.24.63-.08.56-.16v.08l.16.56.39.16.17.16-.17.31.4.07h.47l.08-.23.24.31.16-.08.07.24.8-.31h.56l.39-.31.56.39.24.17.16.23.31.24-.08.31.24.07v-.63l.08-.23.54-.08.71.56h.16l-.07-.31.16-.48-.16-.31.16-.56.47-.07-.07-.16.31-.16.71-.4.56-.63h.79l.56,2.44h.56l.07-.23-.56-.64.16-.16.17-.79.63-.31-.4-.48.47-.39-.07-.4.07-.31h.08l.31-.24-.07-.23.07-.4.31-.56.24-.47v-.16l-.4-.08h-.47l.07-.16-.07-.16.24-.24.16-.71.07-1-.07-.54.31-.56.4-.08v.16l.31.8.39-.16-.16-.4.08-.16.47-.16.16.4.16-.64-.63-.23.31-.24-.16-.71h.56l.24-.24.07-.23-.16-.24h-.24l-.07-.07-.24-.24-.16-.16-.31.07-.24-.31-.31-.23-.87.16v-.24l-.07-.16-.4-.79-.08-.24.08-.24h-.47l-.56.08v-1l.31.07.56.16h.79l-.4.16.17.32.07.16-.31.56.31.31.08.16.63-.08.24-.23.07-.32.24-.23.31.23h.56l.16-.31-.08-.47.16-.16-.23-.08-.24-.07-.07-.8.07-.23.08-.24-.4-.07-.4.16-.16.16-.23-.56-.24-.31.31-.24.08-.23.07-.56v-.08l.31-.4.24-.47.31-.31.08-.16.56-.31.16-.31-.24-.08-.31-.16-.4-.24-.31-.23-.56-.24H765l-.4.08-.4.31h-.39l-1-.64-.16-.16-.4.31-.08-.39-.71-.08Zm4.35,10.19.24.08.23.16v.07l-.47.24v.4l-.08.23-.07.08-.24.07-.07-.07v-.16l-.16-.47v-.24l.54-.08.08-.07.07-.16Zm-13.52.71-1.27.08.08.07.56.31,1.18.08-.08-.08.16-.31Z"/><path id="path84" class="cls-4" d="M779.12,1660.6l-.4.24h-.08l-.54.16-.32.07-.31.16-.16.08H777l-.4.23-.23-.23-.32-.16-.23.07-.31-.07h-.56l.23.07.4.24.08.16h.23l-.16.16-.07.16.23.08.16-.16.08.07-.31.47h-.24l-.31-.07-.16-.16-.24.16-.23.16-.56.08-.16-.32-1,.16-.08.08-.07.24.07.31-.16.07-.16-.16-.08.24h-.54v-.31l-.08-.16-.94-.08-.64.24-.31.47-.47.47-.31-.16-.56-.4-.08-.16V1663l-.07-.07v-.48l-.24-.23-.31.16-.56-.08v.16l-.31.17-.08.07h.24l.16.24-.07.23-.24.24h-.56l.16.71-.31.24.63.23-.16.64-.16-.4-.47.16-.08.16.16.4-.39.16-.31-.8v-.16l-.4.08-.31.56.07.54-.07,1-.16.71-.24.24.07.16-.07.16h.47l.4.08v.16l-.24.47-.31.56-.07.4.07.23-.31.24h-.08l-.07.31.07.4-.47.39h.47l.24.17h.4l.63.23.08.08v.07l-.08.08v.07l-.24.87.08.16.16.4.08.31.16.64.39.31-.07.23-.16-.07.23.24.64-.08h.47l.31-.4.31-.07.17.23h.63l.79-.31.24-.16.07.24.24.47h-.16l-.08.63-.23.08-.4.07.08.24h.16l.16.16-.16.4.23.47.24.08.24.31h.31l.07.79-.16.56-.07.08.16.16V1679l.47.79-.07.4.07.07H771v.08l.16.24.31.23.08.31v.24l.16.4-.07.94v.4l-.17.4.32.71h.54l.4.07.31-.16.24.08.24-.17.16.17.23-.08h.31l.08.08.31-.17-.16-.16-.16-.07.16-.31-.07-.24-.32-.16-.07-.31.07-.24.08-.16v-.16l-.16-.24v-.47l.31-.47.31-.4.16-.4v.32l.16.16.71.31.08-.24.47-.23.63.39.32.24.31,1.18H778l.71-.31v-.47l.08-.32-.17-.31.32-.23.47-.71.16.07.16.16.79.16.32-.16-.24-.07.08-.16-.17-.24-.07-.31.07-.4.24-.31.24-.16.07-.08-.16-.31v-.16l-.07-.16.31-.24h.4l.23-.39.24-.08.16-.47v-.47l-.31-.24v-.08l.07-.31.31-.16.24-.23.31-.24.08-.16.4-.4v-.56l-.24-.63h-.4l-.07-.16-.16-.08-.24-.07H782l-.07.16-.24-.31.16-.4v-.24l-.23-.31h-.24v-.23l.4-.24.16.16.23.08.08.07h.16l.08.08.23-.16h.47l-.07-.32.24-.16v-.23l.31-.16-.71-.48.31-.16.08-.23.07.16.08.16.23-.16.48-.16-.08-.24.24-.16-.4-.16v-.47h.16l.16-.17.16-.31-.07-.07-.71-.71-.16-.31.39-.24.16-.16v-.16l-.23-.31h-.47l-.24.16-.08-.31-.16-.17-.39-.16-.24-.07-.08.23-.71.48-.23.07-.24-.07-.4-.4V1666l-.16-.24-.31-.47v-.07l-.07-.08.23-.56-.07-.07h-.71l-.16-.32-.08-.39.08-.08.23-.31-.31-.16-.31-.24-.56-.39-.07-.48.16-.23.16-.32.63-.23.08-.16.39.07v-.16l-.31-.16-.23-.07ZM765,1672.78l-.16.07-.16.24.31.07.16-.07-.08-.08v-.23Z"/><path id="path116" class="cls-4" d="M779.43,1680l-.47.71-.32.23.17.31-.08.32v.47l-.71.31h-.47l-.31-1.18-.32-.24-.63-.39-.47.23-.08.24-.71-.31-.16-.16v-.32l-.16.4-.31.4-.31.47v.47l.16.24v.16l-.08.16-.07.24.07.31.32.16.07.24-.16.31.16.07.16.16-.31.17-.08-.08H774l-.23.08-.16-.17-.24.17-.24-.08-.31.16-.4-.07h-.54l-.32-.71.17-.4v-.4l.07-.94-.16-.4v-.24l-.08-.31-.31-.23-.16-.24-.4.31-.07.08-.16-.08h-.16v-.16l-.24.24-.31.16-.4.56-.16-.17-.87.32-.16-.08-.07.16h-.17l-.07-.07-.24-.32-.07-.39-.16-.08-.08.16-.24-.07-.31-.08-.47.08-.4.31.16.71-.07.23.47.32-.4.16.08.47H766l-.23.24-.16.39-.32.24v.24l-.47.16.08.31.16.63h.07l.32-.4.16-.07.39.16.4.08h.71l.31.07.24.16.4-.07.07-.24.47-.24.56.32.31-.17v.32l.24.79-.08.24-.16.23-.07.24.07.63h-.56l-.23.08-.4.16-.23.24.31.23.23.4.16.16h.16l.17.16.31.16h.16l.16.16.16.16.56.64.23,1.1.8-.16.16-.16.08.47.07.17.16.39.24.31v.32h-.24l-.07.23-.08.16-.16.08.08.47.16.56.23.31.31.63-.07.08-.31.63h-.4l.08.31.39.48.08-.16.31.23.56.24v.16h.07l.64.08.16.07.23-.16.08-.16.31-.31v-.16h.16l.16-.32.48-.23.94.07h.08l.31-.23.31.07.24-.39v-.24l-.32-.08-.16-.16.4-.31.31-.23-.07-.08.07-.24h.08v-.71l.16.08.63-.71.71-1.1.31-.08v-.16h.16l.32-.4H780l.07-.07.24-.24.4-.63h.07l.16-.16.08-.08h.23l.16.08.32-.08H782l.08.16.23-.16.08.08.24-.08h.47l.24.08.23-.17-.07.08.31.4H784l.17-.08h.23l.31-.07h.16l.32-.16.16-.17.07-.23-.07-.16.16-.08.16-.4.16-.31.24-.23.39.07.8-.16.47.08h.08l.16-.56.39-.31-.07-.08-.24-.31-.16-.08-.16-.31-.16-.47.24-.4.23-.47-.16-.24.08-.39-.87.16-.16-.08-.32.08-.63.31-.56-.24-.16-.39.08-.24-.24-.31-.4-.31.08-.08-.16-.24.16-.16-.08-.31-.79-.16h-.08l-.47-.31-.56-.4.16-.56-.63.24-.47-.24-.08-.47-.47-.4h-.47l-.32.16-.79-.16-.16-.16Z"/><path id="path122" class="cls-4" d="M763.78,1671.43l.4.48-.63.31-.17.79-.16.16.56.64-.07.23h-.56l-.56-2.44h-.79l-.56.63-.71.4-.31.16.07.16-.47.07-.16.56.16.31-.16.48.07.31h-.16l-.71-.56-.54.08-.08.23v.63L758,1675l.08-.31-.31-.24-.16-.23-.24-.17-.56-.39-.39.31h-.56l-.8.31L755,1674l-.16.08-.24-.31-.08.23h-.47l-.4-.07.17-.31-.17-.16-.39-.16-.16-.56v-.08l-.56.16-.63.08-.4-.24.07-.23-.16-.08-.23-.56-.4-.16-.4.24-.16.23.16.16v.24l-.23.16.39.71-.16.08-.23-.08H750l-.31.4-.39.4-.24.39-.47.16-.16-.07-.56.79h-.08v-.23l-.31.16-.31.47.56.4.23-.16.48-.4.23.07.47.16.32.64v.07l.16.48-.16.47.16.16-.24.31-.56.16.16.31-.16.64-.71.39-.16.4.16.24v.16h.16l-.07.07.16.32-.31.47.07.16-.47.08v.07l.4.24.07.23v.24l-.07.47-.08.16-.16.24-.07.4.07.23.24.08h.23l.32.63v.16l-.48-.16-.16-.16-.47-.07-.47.16-.31.31-.32.16.17.16h.31l.23.31.64.24.47-.08.16.4h.08l.47-.24.31.32-.16.31v.23l.31.08-.16.31.31.24-.16.31.08.31.31.63h.16v-.47l.31-.07h.31l.31.39-.16.4.71,1.11h.08l.4-.08.31.16.16-.23.23-.24v-.16l.17-.16.23-.24.24-.16.07-.24,1.11.08.4-.16.23-.24.31-.07-.07.31.07.31.4.16-.07.47-.08.32v.63l.56.31.4.08.07.07.24.24.56.4h1.18l.07-.32-.07-.79.07-.24.31.31.56-.16.31-.23-.07-.56-.08-.87-.07-.08.31-.39.08-.08.31-.31.56-.16.39.4.16-.24.16.07.17.17v.39l.16.08.16.16h.31l.16.07.4-.16h.47l.31-.31h.47l.32-.23v-.24l-.17-.47v-.24l.24-.24-.07-.54.31-.16.16-.64-.16-.63-.08-.31.47-.16V1684l.32-.24.16-.39.23-.24h.08l-.08-.47.4-.16-.47-.32.07-.23-.16-.71.4-.31.47-.08.31.08.24.07.08-.16.16.08.07.39.24.32.07.07h.17l.07-.16.16.08.87-.32.16.17.4-.56.31-.16.24-.24v.16h.16l.16.08.07-.08.4-.31v-.08h-.16l-.07-.07.07-.4-.47-.79v.16l-.16-.16.07-.08.16-.56-.07-.79h-.31l-.24-.31-.24-.08-.23-.47.16-.4-.16-.16h-.16l-.08-.24.4-.07.23-.08.08-.63H770l-.24-.47-.07-.24-.24.16-.79.31h-.63l-.17-.23-.31.07-.31.4h-.47l-.64.08-.23-.24.16.07.07-.23-.39-.31-.16-.64-.08-.31-.16-.4-.08-.16.24-.87v-.07l.08-.08v-.07l-.08-.08-.63-.23h-.4l-.24-.17Zm1.27,1.35h.07v.23l.08.08-.16.07-.31-.07.16-.24Zm-12.33,2.37h.16l.16.24.16-.24.24.16-.31.56-.08-.24-.31-.16h.16Z"/><path id="path138" class="cls-4" d="M768.6,1684.79l-.47.24-.07.24-.4.07-.24-.16-.31-.07h-.71l-.4-.08-.39-.16-.16.07-.32.4H765l-.16.64-.31.16.07.54-.24.24v.24l.17.47v.24l-.32.23h-.47l-.31.31H763l-.4.16-.16-.07h-.31l-.16-.16-.16-.08v-.39l-.17-.17-.16-.07-.16.24-.39-.4-.56.16-.31.31-.08.08-.31.39.07.08.08.87.07.56-.31.23-.56.16-.31-.31-.07.24.07.79-.07.32.23.16.24-.08.31.24.31.23-.23.16.94.4h.4l.08.4.07.07-.07.32.16.16.07.16.16.39.08.32.16.31.16.16.08.07.31.08v.71l-.56.16-.24.4-.23.31-.08-.08-.07.16.16.32.31.23.07.47.4.4.24-.23v.23l.07.16.4.24.24-.16.31.31.16.47.16.16.24.24.07.24v-.48l.16-.39.08-.32h.56l.39.17.08.39.23.16.08.24.4-.16.79.07-.07.24-.08.16v.08l.16.23.16.08.08.16.07.31.08.16H767l.17.08-.08-.16v-.24l.08-.08-.24-.16.07-.16-.16-.31.4.24h.08l.31.16.23-.24.24.16.56.24.4-.31.16-.64.16-.16h.71l.16-.16.31-.16.16-.4.31-.16.16-.23h.31l.48-.31.16.16h.31l.24-.24-.08-.08-.07-.23.07-.31.4-.24v-.16l-.56-.24-.31-.23-.08.16-.39-.48-.08-.31h.4l.31-.63.07-.08-.31-.63-.23-.31-.16-.56-.08-.47.16-.08.08-.16.07-.23h.24v-.32l-.24-.31-.16-.39-.07-.17-.08-.47-.16.16-.8.16-.23-1.1-.56-.64-.16-.16-.16-.16h-.16l-.31-.16-.17-.16h-.16l-.16-.16-.23-.4-.31-.23.23-.24.4-.16.23-.08h.56l-.07-.63.07-.24.16-.23.08-.24-.24-.79v-.32l-.31.17Z"/><path id="path140" class="cls-4" d="M741.41,1680l-.23.4.07.16-.24.79-.16.17v.39l-.31,1.11.24.23.4.17.23.23-.31.08-1.42,1.34.71.08-.24.47.32.07v.4l.71.08-.08.47-.16.07.4.24v.47l.23.31.4.48h.31l-.07.56-.24.07h-.24l-.16.08-.07.23-.31-.31H740l-.16.16-.07.31-.71.24v.16l-.4.16.08.16.31.08.16-.08.07.24.4.24.31.16h.56l-.07.63-.56.4v.23h.63l.16-.23.4-.08,1.27.71-1,.71.16.24.48-.08.07.24v.63l-.47-.16-.4.4-.87-.16-.24.47-.07.31v.31l.16.08.08.23.31.16.23.16.08-.07.07.16.71.16.48.4v.07h.31l.23.16h.32l.07.4.31.16.08.31v.48l-.71.87.24.31v.16h.79l.31.4.4-.31.94-.32-.07-.16.31.16v-.23l.4-.08.07-.23.48.07.23.4,1-.4-.16-.56-.4-.07-.4-.56.08-.56.4-.4.7-.16V1696l.24-.17h.16l-.16-.47h.31l.71.31,1.11.08h.79l.8,1.74h.16l.31.31h.07l.17.16.47.08.31.16.4.16h.16l-.08.31.8.4.23-.4v-.56l.87-.16-.16-.31v-.08l.08-.16.47.16v-.16l.24-.23.47-.24.56-.63v-.08l.16-.4H758l.24-.07v-.56l-.4-.31-.31-.24-.4-.54-.07-.08.07-.08-.16-.07-.16-.56-.23-.07h-.24l-.16-.08-.24-.24.08-.23.31-.24.31-1.74-.07-.07-.4-.08-.56-.31v-.63l.08-.32.07-.47-.4-.16-.07-.31.07-.31-.31.07-.23.24-.4.16-1.11-.08-.07.24-.24.16-.23.24-.17.16v.16l-.23.24-.16.23-.31-.16-.4.08h-.08l-.71-1.11.16-.4-.31-.39h-.31l-.31.07v.47h-.16l-.31-.63-.08-.31.16-.31-.31-.24.16-.31-.31-.08v-.23l.16-.31-.31-.32-.47.24h-.08l-.16-.4-.47.08-.64-.24-.23-.31h-.31l-.17-.16.32-.16.31-.31.47-.16.47.07.16.16.48.16v-.16l-.32-.63H748l-.24-.08-.07-.23.07-.4.16-.24.08-.16.07-.47V1682l-.07-.23-.4-.24v-.07l-.31-.32-.08.08-.31.16-.16-.08v.32l-.4.07-.23.71h-.47l.07.24h-.16l-.08-.24.17-.31-.24-.08-.16-.16-.16-.23h-.31v-.16l-.24-.71-.8-.16.08.07-.08.16.08.47-.16.17v.16l-.24-.16-.16.07-.07.08h-.16l-.24-.24.31-.16.08-.24v-.31l.07-.63-.56.07-.54-.07Z"/><path id="path144" class="cls-4" d="M748.36,1695.38l.16.47h-.16l-.24.17v.39l-.7.16-.4.4-.08.56.4.56.4.07.16.56-1,.4-.23-.4-.48-.07-.07.23-.4.08v.23l-.31-.16.07.16-.94.32-.4.31-.31-.4v.08l-.4.16-.23-.08-.08.4.31.16-.07.16-.08.16.16.16.16.63-.23.17-.16.39-.16.31-.08.24,1.42-.71.4.31.7.16.4.48.16.39.24.08.24-.08.31.17v.23l.07-.07.16.07.08.4-.31.07-.48.56.24.24.08.47.23.4v.31h.16l.64.31v.08l-.24.56v.23h.08l.47.31.4.16.16-.39.39-.24.08.08.16-.16.16.07-.16.16h-.16v.24h.07l-.07.4-.24.31.24.31-.24.31v.08l-.07.39h-.16l-.32.24-.31-.16h-.16v-.08l-.07-.07-.08-.08-.94-.16.23.31v.31l.31.71.4.08.31-.08.31.24.24.24.24.23.31-.07.07-.24.08-.16.31-.16.16-.16,1-.4.07-.31.08-.24.16-.23.56-.64v-.07l.16-.31.24-.32.16-.39-.08-.24.31-.24.8.17.39.23.16-.07.08-.08.31-.16.24-.08v-.23l.23-.16-.07-.48.24-.23.23-.16h.24l.4.16.16.07H756l.56.08.31.16.16-.08.47.24.31-.16h.08l.24-.31.16-.4.47-.31v-.24h.4l.39-.31.31-.31-.31-.4-.07-.47-.48-.24-.23-.23-.08-.31.4-.24-.08-.4.08-.31.31-.16-.16-.24.31-.47-.07-.08.16-.31.16-.07.07-.08-.79-1.26-.08-.17-.07-.16v-.47l-.08-.4-.39-.31-.56-.4-.31-.47v.08l-.56.63-.47.24-.24.23v.16l-.47-.16-.08.16v.08l.16.31-.87.16v.56l-.23.4-.8-.4.08-.31H754l-.4-.16-.31-.16-.47-.08-.17-.16h-.07l-.31-.31h-.16l-.8-1.74h-.79l-1.11-.08-.71-.31Zm1,10.59h.31v.08l-.24.16-.24-.08Z"/><path id="path1014" class="cls-4" d="M792.95,1683.53l-.87.87-1.27.71-.16-.17-.47-.23-.24.23-.23.24-.48,1.27-.54-.08-.64.4.24.31.07.08-.39.31-.16.56h-.08l-.47-.08-.8.16-.39-.07-.24.23-.16.31-.16.4-.16.08.07.16-.07.23-.16.17-.32.16h-.16l-.31.07h-.23l-.17.08h-.23l-.31-.4.07-.08-.23.17-.24-.08h-.47l-.24.08-.08-.08-.23.16-.08-.16h-.23l-.32.08-.16-.08H781l-.08.08-.16.16h-.07l-.4.63-.24.24-.07.07h-.16l-.32.4h-.16v.16l-.31.08-.71,1.1-.63.71-.16-.08v.71h-.08l-.07.24.07.08-.31.23-.4.31.16.16.32.08v.24l-.24.39-.31-.07-.31.23h-.08l-.94-.07-.48.23-.16.32h-.16v.16l-.31.31-.08.16-.23.16.56,1,.39.54.24-.16h.16l.08-.07.39-.24.16-.07.08-.08H776l.32-.16h.23l-.07.08-.08.07h.08l.07-.07.24-.17.16-.07.16-.08h.24l.16-.07.23-.08h.17l.16-.07.16-.08h.07l.16-.07.08-.08.07-.07h.08l.08.07h.07l.08-.07v-.08H779l.08-.08.16-.07.16-.08.07-.07.24-.16h.08l.07-.08H780l.16-.16h.07l.08-.07.07-.08.16-.24.17-.07.07-.08.16-.07.08-.08h.07l.4-.31.08-.07.16-.08h.07l.08-.16v.07H782v-.07l.08-.16.07-.08.16-.07.08-.08v-.07l.16-.08.16-.16h.16l.31-.16.4-.08.08-.07h.16l.07-.08h.08v-.07H784l.08-.16h.08l.07-.08h.08v.08l-.08.07.16-.07v-.08l.16-.07h.08l.23-.24.4-.16.63-.4.32-.07v-.08h.23l-.07.24h-.08v.07l.16-.07.08-.16.23-.17.08-.07,1-.4.47-.23.71-.32.23-.16.31-.07,1.35-.56,1.26-.47.4-.24.24-.07.23-.24h.08l.71-.4.31-.16.79-.07.08-.08.08-.08-.48-.79v-.08l-.31-.7.47-.48.08-.47-.24-1.5.48-.31V1684l-1.35.07ZM778.8,1697h-.17v.08Zm-.24.08v.07h.07Z"/><path id="path1202" class="cls-4" d="M756.66,1690.72l-.31,1.74-.31.24-.08.23.24.24.16.08h.24l.23.07.16.56.16.07-.07.08.07.08.4.54.31.24.4.31v.56l-.24.07h-.23l-.16.4.31.47.56.4.39.31.08.4v.47l.07.16.08.17.79,1.26-.07.08-.16.07-.16.31.07.08-.31.47.16.24-.31.16-.08.31.08.4-.4.24.08.31.23.23.48.24.07.47.31.4-.31.31-.39.31h-.4v.24l-.47.31-.16.4-.24.31h-.08l.08.08-.08.39.16.56.87.31-.16.71.08.08h.56v-.16h.07l.56.16.16-.24.16.08.31-.4.32-.08.07.16.63.48-.16.16v.23l.24.48H764l.87-.16.87-.16,1.1-.32,1.19-.47.63-.31.16-.24.24-.07h.23l.08.07-.08-.16-.07-.07h.16l.16-.16-.16-.08.23-.47.08-.16.16.16h.08l-.17-.16v-.16l-.7-.08-.71-.31-.4-.47-.31-.24.07-.08-.23-.23.47-.31-.16-.32-.24-.23-.16-.24.08-.07.23.07.24-.07.16-.56-.07-.16v-.24l-.17-.4.24-.31-.07-.23-.08-.24h-.63l-.24.31-.24-.16v-.24l.32-.16v-.07l-.17-.08-.23.24v-.16l.16-.08-.08-.16-.23.16-.24.16-.07.16-.08-.16v-.07l.08-.08-.17-.4.17-.07v-.47h.07v-.08l.08-.16.07-.24-.79-.07-.4.16-.08-.24L765,1699l-.08-.39-.39-.17H764l-.08.32-.16.39v.48l-.07-.24-.24-.24-.16-.16-.16-.47-.31-.31-.24.16-.4-.24-.07-.16v-.23l-.24.23-.4-.4-.07-.47-.31-.23-.16-.32.07-.16.08.08.23-.31.24-.4.56-.16v-.71l-.31-.08-.08-.07-.16-.16-.16-.31-.08-.32-.16-.39-.07-.16-.16-.16.07-.32-.07-.07-.08-.4h-.4l-.94-.4.23-.16-.31-.23-.31-.24-.24.08-.23-.16h-1.18l-.56-.4Z"/><path id="path1414" class="cls-4" d="M773,1696.8l-.4.24-.07.31.07.23.08.08-.24.24h-.31l-.16-.16-.48.31h-.31l-.16.23-.31.16-.16.4-.31.16-.16.16h-.71l-.16.16-.16.64-.4.31-.56-.24-.24-.16-.23.24-.31-.16h-.08l-.4-.24.16.31-.07.16.24.16-.08.08v.24l.08.16v.07l-.32.16v.24l.24.16.24-.31H768l.08.24.07.23-.24.31.17.4v.24l.07.16-.16.56-.24.07-.23-.07-.08.07.16.24.24.23.16.32-.47.31.23.23-.07.08.31.24.4.47.71.31.7.08h.08l.08-.08H770v-.08l.08-.23h.23v-.08l.08-.23.16-.4-.08-.08h-.23l-.08.08-.16.31-.07.24h-.17l.08-.16-.16-.08.07-.07h.17l.07-.56.08.16v.07l.31-.23-.08-.08.08-.16h.07l.16.16v.08l.24-.47-.16-.17.08-.07.16.07.07-.07-.07-.08h-.08l.08-.16.16.08.07-.16-.16-.08v-.23h.08l.07.07h.08l-.16-.16.16-.24v.08l-.08.07.08.08.07-.16-.07-.16h.16v.23h-.08v.17l.08-.08v.08l-.08.07v.16h.08v.08h.07l-.07.16-.08.31.08-.24.07-.07.08-.31h-.08v-.08l.17-.4.07-.07.08-.16.07-.08v-.16h.16v-.07l.24-.32.16-.16.08-.07.07-.08v-.07l.31-.24v-.08l.08.08.07-.24.08.08v-.08l-.08-.07H773l.07-.16.08.07v.08l.07-.08-.07-.07h.07v-.16l.08-.16.08-.08.07-.08v-.07l.08-.16V1700l.16-.31v.24l.07-.24v-.16h.08v-.07l.07-.17.08-.07.07-.08.08-.16.16-.16.08-.07.23-.16.16-.17-.39-.54-.56-1-.16-.07-.64-.08Zm.23,4.11-.07.31.16-.31Zm-1.18,1.42v.08l.08-.08Zm0,.08-.07.07v.08Zm-.63,1-.08.07h.08Zm-5.13-3.64v.47l-.17.07.17.4-.08.08v.07l.08.16.07-.16.24-.16.23-.16-.07-.31-.08-.16-.16-.08-.16-.23Zm.63.94-.16.08v.16l.23-.24Zm4.35,2.77-.16.31-.16.32-.16.23v.71l.07-.4.08-.39.16-.31.16-.4Z"/><path id="path1588" class="cls-4" d="M754.92,1705.34l-.23.16-.24.23.07.48-.23.16v.23l-.24.08-.31.16-.08.08-.16.07-.39-.23-.8-.17-.31.24.08.24-.16.39-.24.32-.16.31v.07l-.56.64-.16.23-.08.24-.07.31-1,.4-.16.16.16.31-.07.47.16.16.23.48-.07.07-.16-.23h-.24v.47l.16.4.08-.08H750l-.07.08-.24.07h.4v-.16l.71-.07.24-.17.16-.07.16-.08.23-.16.4-.07.4-.08.23-.07H753l.07.07-.07-.23.31-.08.07.31h.08l-.08-.16.08-.07.16-.17h.4l.16-.07.23.07.08-.07h.07l.08-.08h.16l.24-.16.16.08.16-.08v.08l.07-.08v-.07l.17-.08.07-.07.16-.08.4-.16h.16l.16-.08.16-.07.08.07v.08h.07l.08-.08.07.08v-.08l.08-.07.4.16.07-.08.16.08.08-.08h.16l.24.08.16-.08.07-.16h.16v.08l.08-.08-.08-.07h.08v-.08l.56-.23.31-.08.23-.07.16-.17H760l.16-.07.16-.08.71-.23-.07.07-.08.08h.08l.23-.16.24-.08.31-.07-.24-.48v-.23l.16-.16-.63-.48-.07-.16-.32.08-.31.4-.16-.08-.16.24-.56-.16h-.07v.16h-.56l-.08-.08.16-.71-.87-.31-.16-.56.08-.39-.08-.08-.31.16-.47-.24-.16.08-.31-.16-.56-.08h-.31l-.16-.07-.4-.16Zm5.06,4-.08.17-.07.07h.07Zm-3,1-.07.08H757Zm-3.71,1.18-.08.08-.16.16.16-.08Z"/><path id="path5639" class="cls-4" d="M779.09,1660.68c-.16.08-.27.22-.46.23s-.43.16-.71.21-.49.21-.69.26a.73.73,0,0,0-.49.14c-.17.14-.36-.2-.53-.23s-.22-.06-.39,0a1.56,1.56,0,0,0-.56-.1c-.1,0-.45-.06-.21,0a2.27,2.27,0,0,1,.54.23c0,.18.16.2.26.22-.13.1-.26.25-.06.32s.25-.22.3,0c-.13.14-.17.52-.39.53a.76.76,0,0,1-.44-.12l.59.59-.35.87c.48,0,1,0,1.45-.08s.86-.2,1.3-.26a1.68,1.68,0,0,1,.68.07c.17.06.33.18.41-.06.07-.09.18-.09,0-.12a6.76,6.76,0,0,1-.79-.53c-.13-.12-.35-.25-.33-.45a.56.56,0,0,1,.13-.57c.11-.18.2-.41.43-.42s.35-.05.42-.27c.15,0,.48.21.34-.07-.16-.1-.3-.12-.45-.21S779.09,1660.75,779.09,1660.68Z"/><path id="path11035" class="cls-4" d="M778.9,1680.73l.5-.75.23.09.15.16.74.15.12-.06-.1-.09.08-.16-.16-.22-.08-.34.08-.44.26-.34.16-.09.12-.09-.14-.3v-.17l-.08-.18.37-.31h.39l.2-.36.25-.09.13-.43v-.42l-.38-.1-1.8.2-1.71-.19-.13,4.14Z"/><path id="path11922" class="cls-4" d="M752.47,1656.16l-.36-.08-.56.09-.32.08h-.16l-.76.31-.17.17-.28.28-.08.32-.55,1,.08.51.12,0,.32.24h.15l.6.1-.07.27.37.74.18.37-.1.09.22.16h.18l.06.06h.06v-.37l.25-.1.13.17.11-.22,0,0,.08.16,0-.16h.21l.42.25.25.17.13.25.26-.19.42-.14-.07-.29.24-.47-1.37-.18-.14-1-.14-1.58Z"/><path class="cls-5" d="M96.64,910.9,86.59,941,74.87,959.47,71.52,993a150.81,150.81,0,0,1,26.79,46.89c10,28.47,25.12,80.38,26.79,92.11s-7.54,22.61,0,30.14-1.67,25.12,13.4,30.14c13.4,6.7,33.49,1.67,56.94,11.72,21.77,13.4,33.49,16.75,33.49,16.75l33.49,5,33.49-30.14,43.54-21.77s26.79,1.67,38.52-3.35c15.07,3.35,48.57,8.37,56.94-15.07,21.77-5,31.82,1.67,53.59-5,16.75-21.77,55.26-35.17,72-38.52,6.7-31.82,15.07-48.57,15.07-48.57v-21.77l21.77-40.19,10-3.35-1.67-26.79-18.42-1.67-58.61,36.84-45.22-15.07-30.14-26.79V936l-11.72-30.14-21.77-16.75V877.41l-30.14-10-13.4-5-41.87-33.49-15.07,1.67-25.12-1.67-13.4,6.7-26.79-3.35L249,854s-26.79,16.75-26.79,26.79-15.07,1.67-15.07,1.67-6.7-5-18.42,1.67c-11.72,1.67-38.52,5-46.89,6.7C126.78,882.43,111.71,880.76,96.64,910.9Z"/><path class="cls-4" d="M242.55,1011.79l-2.08,6.25-2.43,3.82-.69,6.94a31.25,31.25,0,0,1,5.55,9.72c2.08,5.9,5.2,16.66,5.55,19.08s-1.56,4.68,0,6.25-.35,5.2,2.78,6.25c2.78,1.39,6.94.35,11.8,2.43A32,32,0,0,0,270,1076l6.94,1,6.94-6.25,9-4.51s5.55.35,8-.69c3.12.69,10.06,1.73,11.8-3.12,4.51-1,6.59.35,11.1-1,3.47-4.51,11.45-7.29,14.92-8a45.64,45.64,0,0,1,3.12-10.06v-4.51l4.51-8.33,2.08-.69-.35-5.55-3.82-.35-12.14,7.63-9.37-3.12-6.25-5.55V1017l-2.43-6.25-4.51-3.47v-2.43l-6.25-2.08-2.78-1-8.67-6.94-3.12.35-5.2-.35-2.78,1.39-5.55-.69-1,4.51s-5.55,3.47-5.55,5.55-3.12.35-3.12.35-1.39-1-3.82.35c-2.43.35-8,1-9.72,1.39C248.79,1005.89,245.67,1005.55,242.55,1011.79Z"/></svg>