<svg id="Capa_1" data-name="Capa 1" xmlns="http://www.w3.org/2000/svg" viewBox="0 0 1842.52 1842.52"><defs><style>@import url('https://fonts.googleapis.com/css?family=Open+Sans:400,500,600,700');.cls-1{font-size:47px;}.cls-1,.cls-2{fill:#323232;}.cls-1,.cls-2,.cls-8{font-family:OpenSans-Semibold, Open Sans;font-weight:700;}.cls-2{font-size:48px;}.cls-3{font-size:44px;font-family:OpenSans, Open Sans;}.cls-3,.cls-8{fill:#757575;}.cls-4{fill:#f4d700;}.cls-5{fill:#7f6a0e;}.cls-10,.cls-11,.cls-12,.cls-13,.cls-14,.cls-6{fill:#d8d9dd;}.cls-15,.cls-7{fill:#87868a;}.cls-8{font-size:65px;}.cls-9{fill:none;stroke:#757575;}.cls-10,.cls-11,.cls-12,.cls-13,.cls-14,.cls-15,.cls-9{stroke-width:2px;}.cls-10{stroke:#d8d9dd;}.cls-11{stroke:#f4d700;}.cls-12{stroke:#000;}.cls-13{stroke:#7f6a0e;}.cls-14{stroke:#be9e12;}.cls-15{stroke:#87868a;}</style></defs><title>2019.01_Oscars</title><text class="cls-1" transform="translate(38.01 228.45)">COMPOSICIÓN RACIAL DE LOS GANADORES DEL OSCAR EN LAS CATEGORÍAS DE <tspan x="148.75" y="56.4">MEJOR ACTOR Y ACTRIZ —PRINCIPAL Y DE REPARTO— DESDE 1987</tspan></text><text class="cls-2" transform="translate(442.4 1752.01)">GALARDONADOS</text><text class="cls-3" transform="translate(370.23 364.01)">12%<tspan x="-239.92" y="56">Afroamericanos</tspan></text><text class="cls-3" transform="translate(1293.77 388.01)">13%<tspan x="0" y="56">Afroamericanos</tspan></text><text class="cls-3" transform="translate(1290.77 550.01)">11%<tspan x="0" y="56">Otros</tspan></text><text class="cls-3" transform="translate(363.23 1093.01)">88%<tspan x="-73.09" y="56">Blancos</tspan></text><text class="cls-3" transform="translate(348.45 498.01)">0,8%<tspan x="-18" y="56">Otros</tspan></text><text class="cls-3" transform="translate(1293.77 1087.01)">76%<tspan x="0" y="56">Blancos</tspan></text><text class="cls-2" transform="translate(896.18 1751.9)">ESTADOS UNIDOS</text><circle class="cls-4" cx="527.2" cy="1043.74" r="26.86"/><circle class="cls-4" cx="587.28" cy="1043.74" r="26.86"/><circle class="cls-4" cx="647.65" cy="1043.74" r="26.86"/><circle class="cls-4" cx="708.03" cy="1043.74" r="26.86"/><circle class="cls-4" cx="768.4" cy="1043.74" r="26.86"/><circle class="cls-5" cx="528.77" cy="362.74" r="26.86"/><circle class="cls-5" cx="589.14" cy="362.74" r="26.86"/><circle class="cls-5" cx="649.52" cy="362.74" r="26.86"/><circle class="cls-5" cx="709.89" cy="362.74" r="26.86"/><circle class="cls-5" cx="770.26" cy="362.74" r="26.86"/><circle class="cls-4" cx="527.2" cy="1113.73" r="26.86"/><circle class="cls-4" cx="587.28" cy="1113.73" r="26.86"/><circle class="cls-4" cx="647.65" cy="1113.73" r="26.86"/><circle class="cls-4" cx="708.03" cy="1113.73" r="26.86"/><circle class="cls-4" cx="768.4" cy="1113.73" r="26.86"/><circle class="cls-5" cx="528.77" cy="432.73" r="26.86"/><circle class="cls-5" cx="589.14" cy="432.73" r="26.86"/><circle class="cls-5" cx="649.52" cy="432.73" r="26.86"/><circle class="cls-5" cx="709.89" cy="432.73" r="26.86"/><circle class="cls-5" cx="770.26" cy="432.73" r="26.86"/><circle class="cls-4" cx="527.2" cy="1181.74" r="26.86"/><circle class="cls-4" cx="587.28" cy="1181.74" r="26.86"/><circle class="cls-4" cx="647.65" cy="1181.74" r="26.86"/><circle class="cls-4" cx="708.03" cy="1181.74" r="26.86"/><circle class="cls-4" cx="768.4" cy="1181.74" r="26.86"/><circle class="cls-4" cx="528.77" cy="500.74" r="26.86"/><circle class="cls-4" cx="589.14" cy="500.74" r="26.86"/><path class="cls-5" d="M548.11,481.72a26.86,26.86,0,1,1-37.32-.59"/><circle class="cls-4" cx="649.52" cy="500.74" r="26.86"/><circle class="cls-5" cx="709.89" cy="500.74" r="26.86"/><circle class="cls-5" cx="770.26" cy="500.74" r="26.86"/><circle class="cls-4" cx="527.2" cy="1251.73" r="26.86"/><circle class="cls-4" cx="587.28" cy="1251.73" r="26.86"/><circle class="cls-4" cx="647.65" cy="1251.73" r="26.86"/><circle class="cls-4" cx="708.03" cy="1251.73" r="26.86"/><circle class="cls-4" cx="768.4" cy="1251.73" r="26.86"/><circle class="cls-4" cx="528.77" cy="570.73" r="26.86"/><circle class="cls-4" cx="589.14" cy="570.73" r="26.86"/><circle class="cls-4" cx="649.52" cy="570.73" r="26.86"/><circle class="cls-4" cx="709.89" cy="570.73" r="26.86"/><circle class="cls-4" cx="770.26" cy="570.73" r="26.86"/><circle class="cls-4" cx="527.2" cy="1319.74" r="26.86"/><circle class="cls-4" cx="587.28" cy="1319.74" r="26.86"/><circle class="cls-4" cx="647.65" cy="1319.74" r="26.86"/><circle class="cls-4" cx="708.03" cy="1319.74" r="26.86"/><circle class="cls-4" cx="768.4" cy="1319.74" r="26.86"/><circle class="cls-4" cx="528.77" cy="638.74" r="26.86"/><circle class="cls-4" cx="589.14" cy="638.74" r="26.86"/><circle class="cls-4" cx="649.52" cy="638.74" r="26.86"/><circle class="cls-4" cx="709.89" cy="638.74" r="26.86"/><circle class="cls-4" cx="770.26" cy="638.74" r="26.86"/><circle class="cls-4" cx="527.2" cy="1389.73" r="26.86"/><circle class="cls-4" cx="587.28" cy="1389.73" r="26.86"/><circle class="cls-4" cx="647.65" cy="1389.73" r="26.86"/><circle class="cls-4" cx="708.03" cy="1389.73" r="26.86"/><circle class="cls-4" cx="768.4" cy="1389.73" r="26.86"/><circle class="cls-4" cx="528.77" cy="708.73" r="26.86"/><circle class="cls-4" cx="589.14" cy="708.73" r="26.86"/><circle class="cls-4" cx="649.52" cy="708.73" r="26.86"/><circle class="cls-4" cx="709.89" cy="708.73" r="26.86"/><circle class="cls-4" cx="770.26" cy="708.73" r="26.86"/><circle class="cls-4" cx="527.2" cy="1457.74" r="26.86"/><circle class="cls-4" cx="587.28" cy="1457.74" r="26.86"/><circle class="cls-4" cx="647.65" cy="1457.74" r="26.86"/><circle class="cls-4" cx="708.03" cy="1457.74" r="26.86"/><circle class="cls-4" cx="768.4" cy="1457.74" r="26.86"/><circle class="cls-4" cx="528.77" cy="776.74" r="26.86"/><circle class="cls-4" cx="589.14" cy="776.74" r="26.86"/><circle class="cls-4" cx="649.52" cy="776.74" r="26.86"/><circle class="cls-4" cx="709.89" cy="776.74" r="26.86"/><circle class="cls-4" cx="770.26" cy="776.74" r="26.86"/><circle class="cls-4" cx="527.2" cy="1527.73" r="26.86"/><circle class="cls-4" cx="587.28" cy="1527.73" r="26.86"/><circle class="cls-4" cx="647.65" cy="1527.73" r="26.86"/><circle class="cls-4" cx="708.03" cy="1527.73" r="26.86"/><circle class="cls-4" cx="768.4" cy="1527.73" r="26.86"/><circle class="cls-4" cx="528.77" cy="846.73" r="26.86"/><circle class="cls-4" cx="589.14" cy="846.73" r="26.86"/><circle class="cls-4" cx="649.52" cy="846.73" r="26.86"/><circle class="cls-4" cx="709.89" cy="846.73" r="26.86"/><circle class="cls-4" cx="770.26" cy="846.73" r="26.86"/><circle class="cls-4" cx="527.2" cy="1592.74" r="26.86"/><circle class="cls-4" cx="587.28" cy="1592.74" r="26.86"/><circle class="cls-4" cx="647.65" cy="1592.74" r="26.86"/><circle class="cls-4" cx="708.03" cy="1592.74" r="26.86"/><circle class="cls-4" cx="768.4" cy="1592.74" r="26.86"/><circle class="cls-4" cx="528.77" cy="911.74" r="26.86"/><circle class="cls-4" cx="589.14" cy="911.74" r="26.86"/><circle class="cls-4" cx="649.52" cy="911.74" r="26.86"/><circle class="cls-4" cx="709.89" cy="911.74" r="26.86"/><circle class="cls-4" cx="770.26" cy="911.74" r="26.86"/><circle class="cls-4" cx="527.2" cy="1662.73" r="26.86"/><circle class="cls-4" cx="587.28" cy="1662.73" r="26.86"/><circle class="cls-4" cx="647.65" cy="1662.73" r="26.86"/><circle class="cls-4" cx="708.03" cy="1662.73" r="26.86"/><circle class="cls-4" cx="768.4" cy="1662.73" r="26.86"/><circle class="cls-4" cx="528.77" cy="981.73" r="26.86"/><circle class="cls-4" cx="589.14" cy="981.73" r="26.86"/><circle class="cls-4" cx="649.52" cy="981.73" r="26.86"/><circle class="cls-4" cx="709.89" cy="981.73" r="26.86"/><circle class="cls-4" cx="770.26" cy="981.73" r="26.86"/><circle class="cls-6" cx="974.2" cy="1042.74" r="26.86"/><circle class="cls-6" cx="1034.28" cy="1042.74" r="26.86"/><circle class="cls-6" cx="1094.65" cy="1042.74" r="26.86"/><circle class="cls-6" cx="1155.03" cy="1042.74" r="26.86"/><circle class="cls-6" cx="1215.4" cy="1042.74" r="26.86"/><circle cx="974.77" cy="357.74" r="26.86"/><circle cx="1035.14" cy="357.74" r="26.86"/><circle cx="1095.52" cy="357.74" r="26.86"/><circle cx="1155.89" cy="357.74" r="26.86"/><circle cx="1216.26" cy="357.74" r="26.86"/><circle class="cls-6" cx="974.2" cy="1112.73" r="26.86"/><circle class="cls-6" cx="1034.28" cy="1112.73" r="26.86"/><circle class="cls-6" cx="1094.65" cy="1112.73" r="26.86"/><circle class="cls-6" cx="1155.03" cy="1112.73" r="26.86"/><circle class="cls-6" cx="1215.4" cy="1112.73" r="26.86"/><circle cx="974.77" cy="427.73" r="26.86"/><circle cx="1035.14" cy="427.73" r="26.86"/><circle cx="1095.52" cy="427.73" r="26.86"/><circle cx="1155.89" cy="427.73" r="26.86"/><circle cx="1216.26" cy="427.73" r="26.86"/><circle class="cls-6" cx="974.2" cy="1180.74" r="26.86"/><circle class="cls-6" cx="1034.28" cy="1180.74" r="26.86"/><circle class="cls-6" cx="1094.65" cy="1180.74" r="26.86"/><circle class="cls-6" cx="1155.03" cy="1180.74" r="26.86"/><circle class="cls-6" cx="1215.4" cy="1180.74" r="26.86"/><circle cx="974.77" cy="495.74" r="26.86"/><circle cx="1035.14" cy="495.74" r="26.86"/><circle cx="1095.52" cy="495.74" r="26.86"/><circle class="cls-7" cx="1155.89" cy="495.74" r="26.86"/><circle class="cls-7" cx="1216.26" cy="495.74" r="26.86"/><circle class="cls-6" cx="974.2" cy="1250.73" r="26.86"/><circle class="cls-6" cx="1034.28" cy="1250.73" r="26.86"/><circle class="cls-6" cx="1094.65" cy="1250.73" r="26.86"/><circle class="cls-6" cx="1155.03" cy="1250.73" r="26.86"/><circle class="cls-6" cx="1215.4" cy="1250.73" r="26.86"/><circle class="cls-7" cx="974.77" cy="565.73" r="26.86"/><circle class="cls-7" cx="1035.14" cy="565.73" r="26.86"/><circle class="cls-7" cx="1095.52" cy="565.73" r="26.86"/><circle class="cls-7" cx="1155.89" cy="565.73" r="26.86"/><circle class="cls-7" cx="1216.26" cy="565.73" r="26.86"/><circle class="cls-6" cx="974.2" cy="1318.74" r="26.86"/><circle class="cls-6" cx="1034.28" cy="1318.74" r="26.86"/><circle class="cls-6" cx="1094.65" cy="1318.74" r="26.86"/><circle class="cls-6" cx="1155.03" cy="1318.74" r="26.86"/><circle class="cls-6" cx="1215.4" cy="1318.74" r="26.86"/><circle class="cls-7" cx="974.77" cy="633.74" r="26.86"/><circle class="cls-7" cx="1035.14" cy="633.74" r="26.86"/><circle class="cls-7" cx="1095.52" cy="633.74" r="26.86"/><circle class="cls-7" cx="1155.89" cy="633.74" r="26.86"/><circle class="cls-6" cx="1216.26" cy="633.74" r="26.86"/><circle class="cls-6" cx="974.2" cy="1388.73" r="26.86"/><circle class="cls-6" cx="1034.28" cy="1388.73" r="26.86"/><circle class="cls-6" cx="1094.65" cy="1388.73" r="26.86"/><circle class="cls-6" cx="1155.03" cy="1388.73" r="26.86"/><circle class="cls-6" cx="1215.4" cy="1388.73" r="26.86"/><circle class="cls-6" cx="974.77" cy="703.73" r="26.86"/><circle class="cls-6" cx="1035.14" cy="703.73" r="26.86"/><circle class="cls-6" cx="1095.52" cy="703.73" r="26.86"/><circle class="cls-6" cx="1155.89" cy="703.73" r="26.86"/><circle class="cls-6" cx="1216.26" cy="703.73" r="26.86"/><circle class="cls-6" cx="974.2" cy="1456.74" r="26.86"/><circle class="cls-6" cx="1034.28" cy="1456.74" r="26.86"/><circle class="cls-6" cx="1094.65" cy="1456.74" r="26.86"/><circle class="cls-6" cx="1155.03" cy="1456.74" r="26.86"/><circle class="cls-6" cx="1215.4" cy="1456.74" r="26.86"/><circle class="cls-6" cx="974.77" cy="771.74" r="26.86"/><circle class="cls-6" cx="1035.14" cy="771.74" r="26.86"/><circle class="cls-6" cx="1095.52" cy="771.74" r="26.86"/><circle class="cls-6" cx="1155.89" cy="771.74" r="26.86"/><circle class="cls-6" cx="1216.26" cy="771.74" r="26.86"/><circle class="cls-6" cx="974.2" cy="1526.73" r="26.86"/><circle class="cls-6" cx="1034.28" cy="1526.73" r="26.86"/><circle class="cls-6" cx="1094.65" cy="1526.73" r="26.86"/><circle class="cls-6" cx="1155.03" cy="1526.73" r="26.86"/><circle class="cls-6" cx="1215.4" cy="1526.73" r="26.86"/><circle class="cls-6" cx="974.77" cy="841.73" r="26.86"/><circle class="cls-6" cx="1035.14" cy="841.73" r="26.86"/><circle class="cls-6" cx="1095.52" cy="841.73" r="26.86"/><circle class="cls-6" cx="1155.89" cy="841.73" r="26.86"/><circle class="cls-6" cx="1216.26" cy="841.73" r="26.86"/><circle class="cls-6" cx="974.2" cy="1591.74" r="26.86"/><circle class="cls-6" cx="1034.28" cy="1591.74" r="26.86"/><circle class="cls-6" cx="1094.65" cy="1591.74" r="26.86"/><circle class="cls-6" cx="1155.03" cy="1591.74" r="26.86"/><circle class="cls-6" cx="1215.4" cy="1591.74" r="26.86"/><circle class="cls-6" cx="974.77" cy="906.74" r="26.86"/><circle class="cls-6" cx="1035.14" cy="906.74" r="26.86"/><circle class="cls-6" cx="1095.52" cy="906.74" r="26.86"/><circle class="cls-6" cx="1155.89" cy="906.74" r="26.86"/><circle class="cls-6" cx="1216.26" cy="906.74" r="26.86"/><circle class="cls-6" cx="974.2" cy="1661.73" r="26.86"/><circle class="cls-6" cx="1034.28" cy="1661.73" r="26.86"/><circle class="cls-6" cx="1094.65" cy="1661.73" r="26.86"/><circle class="cls-6" cx="1155.03" cy="1661.73" r="26.86"/><circle class="cls-6" cx="1215.4" cy="1661.73" r="26.86"/><circle class="cls-6" cx="974.77" cy="976.73" r="26.86"/><circle class="cls-6" cx="1035.14" cy="976.73" r="26.86"/><circle class="cls-6" cx="1095.52" cy="976.73" r="26.86"/><circle class="cls-6" cx="1155.89" cy="976.73" r="26.86"/><circle class="cls-6" cx="1216.26" cy="976.73" r="26.86"/><text class="cls-8" transform="translate(20.43 56.13)">Solo un 0,8% son latinos, asiáticos y nativos, mientras que <tspan x="60.95" y="78">en Estados Unidos representan el 11% de la población</tspan></text><line class="cls-9" x1="33" y1="1789" x2="1797" y2="1789"/><text class="cls-3" transform="translate(26.27 1839.9)">FUENTE: Academy Awards Database y US Census Bureau (2017) </text><text class="cls-3" transform="translate(1458.46 1840.9)">LA VANGUARDIA</text><line class="cls-10" x1="1274" y1="669" x2="1274" y2="1686"/><line class="cls-11" x1="477" y1="560" x2="477" y2="1686"/><line class="cls-12" x1="1274" y1="324" x2="1274" y2="490"/><line class="cls-13" x1="476" y1="325" x2="476" y2="446"/><line class="cls-14" x1="476" y1="461" x2="476" y2="549"/><line class="cls-15" x1="1274" y1="516" x2="1274" y2="651"/></svg>
