<svg id="Capa_1" data-name="Capa 1" xmlns="http://www.w3.org/2000/svg" viewBox="0 0 1901.1 1901.1"><defs><style>@import url('https://fonts.googleapis.com/css?family=Open+Sans:400,500,600,700');.cls-1{font-size:42px;}.cls-1,.cls-2{fill:#757575;}.cls-1,.cls-2,.cls-4,.cls-6{font-family:OpenSans, Open Sans;}.cls-2{font-size:46px;}.cls-3{font-size:79px;font-family:OpenSans-Bold, Open Sans;}.cls-10,.cls-3,.cls-4,.cls-6{fill:#323232;}.cls-10,.cls-3{font-weight:700;}.cls-10,.cls-4{font-size:50px;}.cls-5,.cls-7,.cls-9{fill:none;}.cls-5{stroke:#323232;}.cls-5,.cls-7,.cls-8{stroke-miterlimit:10;}.cls-5,.cls-7{stroke-width:2px;}.cls-6{font-size:40px;}.cls-7{stroke:#aeaeae;}.cls-8{fill:#efc71b;stroke:#fefefe;stroke-width:3px;opacity:0.76;}.cls-9{stroke:#333;}.cls-10{font-family:OpenSans-Semibold, Open Sans;}</style></defs><title>2019.03_AndaluciaRepetir</title><text class="cls-1" transform="translate(1414.48 1703.98) scale(1.06 1)">Muy<tspan x="-33.38" y="55">positiva</tspan></text><text class="cls-1" transform="translate(119.84 1703.98) scale(1.06 1)">Más bien<tspan x="13.16" y="55">positiva</tspan></text><text class="cls-1" transform="translate(852.61 1703.98) scale(1.06 1)">Ni positiva<tspan x="-4.03" y="55">ni negativa</tspan></text><text class="cls-1" transform="translate(1131.14 1728.99) scale(1.06 1)">No sabe</text><text class="cls-1" transform="translate(1580.25 1728.99) scale(1.06 1)">No contesta</text><text class="cls-1" transform="translate(365.86 1703.98) scale(1.06 1)">Más bien<tspan x="6.18" y="55">negativa</tspan></text><text class="cls-1" transform="translate(664.41 1703.98) scale(1.06 1)">Muy<tspan x="-40.35" y="55">negativa</tspan></text><text class="cls-2" transform="translate(15.21 1313.12) scale(0.99 1)">5</text><text class="cls-2" transform="translate(9.09 1011.12) scale(0.99 1)">10</text><text class="cls-2" transform="translate(7.09 717.12) scale(0.99 1)">15</text><text class="cls-2" transform="translate(5.09 413.12) scale(0.99 1)">20</text><text class="cls-2" transform="translate(31.21 1603.12) scale(0.99 1)">0</text><text class="cls-3" transform="translate(295.72 66.37)">¿Cómo valora los resultados de las <tspan x="30.65" y="80">elecciones autonómicas del 2-D ?</tspan></text><text class="cls-4" transform="translate(10.38 226.92)">Opinión sobre el desenlace electoral por porcentaje de población mayor de edad</text><line class="cls-5" x1="13.49" y1="1834.6" x2="1893.26" y2="1834.6"/><text class="cls-6" transform="translate(15.89 1884.26) scale(0.99 1)">Fuente: Barómetro postelectoral del CIS</text><text class="cls-4" transform="translate(1495.89 1884.26) scale(0.99 1)">LA VANGUARDIA</text><path class="cls-7" d="M6,429.74H1818.16"/><path class="cls-7" d="M6,730.33H1818.16"/><path class="cls-7" d="M6,1028H1818.16"/><path class="cls-7" d="M6,1328.54H1818.16"/><rect class="cls-8" x="105.28" y="269.03" width="199.11" height="1357.13"/><rect class="cls-8" x="353.48" y="316.65" width="199.11" height="1309.51"/><rect class="cls-8" x="601.69" y="501.17" width="199.11" height="1124.99"/><rect class="cls-8" x="852.62" y="572.6" width="199.11" height="1053.56"/><rect class="cls-8" x="1100.82" y="897" width="199.11" height="729.16"/><rect class="cls-8" x="1349.03" y="1304.73" width="199.11" height="321.43"/><rect class="cls-8" x="1599.96" y="1536.87" width="199.11" height="89.28"/><path class="cls-9" d="M6,1626.16H1818.16"/><text class="cls-10" transform="translate(158.06 335.74) scale(0.99 1)">23%</text><text class="cls-10" transform="translate(398.08 383.75) scale(0.99 1)">22%</text><text class="cls-10" transform="translate(656.11 575.77) scale(0.99 1)">19%</text><text class="cls-10" transform="translate(896.13 650.77) scale(0.99 1)">18%</text><text class="cls-10" transform="translate(1151.16 971.8) scale(0.99 1)">12%</text><text class="cls-10" transform="translate(1403.18 1370.84) scale(0.99 1)">5%</text><text class="cls-10" transform="translate(1664.21 1595.87) scale(0.99 1)">2%</text></svg>