<svg xmlns="http://www.w3.org/2000/svg" viewBox="0 0 2040 2040"><defs><style>@import url('https://fonts.googleapis.com/css?family=Open+Sans:400,500,600,700');.cls-1,.cls-20{fill:none;stroke:#323232;stroke-miterlimit:10;}.cls-1{stroke-width:0.75px;}.cls-2{font-size:37px;}.cls-2,.cls-3,.cls-4{fill:#323232;}.cls-17,.cls-2,.cls-3{font-family:OpenSans, Open Sans;}.cls-3{font-size:50px;}.cls-4{font-size:93px;font-family:OpenSans-Bold, Open Sans;}.cls-18,.cls-19,.cls-4,.cls-5{font-weight:700;}.cls-5{font-size:60px;fill:#757575;}.cls-18,.cls-19,.cls-5{font-family:OpenSans-Semibold, Open Sans;}.cls-12,.cls-6{fill:#9cc628;}.cls-10,.cls-11,.cls-12,.cls-13,.cls-14,.cls-15,.cls-16,.cls-6,.cls-7,.cls-8,.cls-9{stroke:#fff;stroke-linejoin:round;}.cls-10,.cls-11,.cls-13,.cls-14,.cls-15,.cls-16,.cls-6,.cls-7,.cls-8,.cls-9{stroke-width:7px;}.cls-7{fill:#39a8a9;}.cls-8{fill:#d57928;}.cls-9{fill:#c6c6c6;}.cls-10{fill:#c1253c;}.cls-11{fill:#8e244f;}.cls-12{stroke-width:0.5px;}.cls-13{fill:#9bcecc;}.cls-14{fill:#e2ad86;}.cls-15{fill:#d67288;}.cls-16{fill:#b77d97;}.cls-17,.cls-19{font-size:75px;fill:#fff;}.cls-20{stroke-width:5px;stroke-dasharray:12 12;}</style></defs><title>2019.03_Metaencuesta</title><g id="pie"><line class="cls-1" x1="-16" y1="1959" x2="2033.5" y2="1959"/><text class="cls-2" transform="translate(17.9 2011.66) scale(0.99 1)">Fuente: Elaboración propia a partir de los sondeos</text><text class="cls-3" transform="translate(1646.9 2011.66) scale(0.99 1)">LA VANGUARDIA</text><text class="cls-4" transform="translate(183.32 82.68)">Cómo quedaría el Congreso según el <tspan x="32.74" y="80">promedio de las últimas encuestas</tspan></text></g><g id="indicaciones"><text class="cls-5" transform="translate(147.77 267.84) scale(0.99 1)">COMPARACIÓN ENTRE EL PROMEDIO DE LOS SONDEOS Y <tspan x="198.16" y="72">EL RESULTADO DE LAS ELECCIONES DE 2016</tspan></text><text class="cls-5" transform="translate(703.64 1769) scale(0.99 1)">176 Mayoría Absoluta</text></g><g id="Capa_8" data-name="Capa 8"><path class="cls-6" d="M128.51,1710.22A940,940,0,0,1,84,1472l657-36.6a282,282,0,0,0,13.37,71.46Z"/><path class="cls-7" d="M84,1472A940,940,0,0,1,343.07,770.15l475.6,454.72a282,282,0,0,0-77.74,210.56Z"/><path class="cls-8" d="M343.07,770.15A940,940,0,0,1,753,519.22l188.67,630.37a282,282,0,0,0-123,75.28Z"/><path class="cls-9" d="M753,519.22a940,940,0,0,1,269.53-39.47v658a282,282,0,0,0-80.86,11.84Z"/><path class="cls-10" d="M1022.5,479.75c469.1,0,866.4,345.85,931,810.48l-651.72,90.67a282,282,0,0,0-279.31-243.14Z"/><path class="cls-11" d="M1953.53,1290.22a940,940,0,0,1-37,420L1290.7,1506.89a282,282,0,0,0,11.11-126Z"/><path class="cls-12" d="M479.72,1578.23h0l376-122.16h0Z"/><path class="cls-13" d="M479.72,1590.23c-90-276.86,45.28-576.73,312.34-692.59L949.38,1260.3a169.42,169.42,0,0,0-93.7,207.78Z"/><path class="cls-14" d="M792.06,897.65a564.72,564.72,0,0,1,188.27-45.47l25.53,394.48a169.42,169.42,0,0,0-56.48,13.64Z"/><path class="cls-9" d="M980.33,852.18a564.72,564.72,0,0,1,151.24,10.61l-80.34,387.06a169.42,169.42,0,0,0-45.37-3.18Z"/><path class="cls-15" d="M1131.57,862.78a564.72,564.72,0,0,1,393.59,307l-355.85,172.16a169.42,169.42,0,0,0-118.08-92.1Z"/><path class="cls-16" d="M1525.16,1169.79a564.72,564.72,0,0,1,28.73,420.45l-376-122.16a169.42,169.42,0,0,0-8.62-126.13Z"/><text class="cls-17" transform="translate(200.98 1210) scale(0.99 1)">PP <tspan class="cls-18" x="109.79" y="0">84</tspan></text><text class="cls-17" transform="translate(504.56 802) scale(0.99 1)">Cs <tspan class="cls-18" x="102.58" y="0">55</tspan></text><text class="cls-19" transform="translate(805.12 646) scale(0.99 1)">Otros<tspan x="58.78" y="90">27</tspan></text><text class="cls-17" transform="translate(1664.29 1514) scale(0.99 1)">UP <tspan class="cls-18" x="119.24" y="0">38</tspan></text><text class="cls-17" transform="translate(1296 854) scale(0.99 1)">PSOE <tspan class="cls-18" x="205.92" y="0">121</tspan></text><text class="cls-17" transform="translate(137.65 1594) scale(0.99 1)">Vox <tspan class="cls-18" x="148.72" y="0">25</tspan></text><text class="cls-19" transform="translate(586.23 1303) scale(0.99 1)">137</text><text class="cls-19" transform="translate(868.49 994) scale(0.99 1)">32</text><text class="cls-19" transform="translate(1024.49 949) scale(0.99 1)">25</text><text class="cls-19" transform="translate(1228.49 1096) scale(0.99 1)">85</text><text class="cls-19" transform="translate(1375.49 1402) scale(0.99 1)">71</text><line class="cls-20" x1="1023" y1="481" x2="1023" y2="1669"/></g></svg>
