<svg id="Capa_1" data-name="Capa 1" xmlns="http://www.w3.org/2000/svg" viewBox="0 0 1901.1 1901.1"><defs><style>@import url('https://fonts.googleapis.com/css?family=Open+Sans:400,500,600,700');.cls-1,.cls-13,.cls-4{font-size:50px;}.cls-1,.cls-2{fill:#757575;}.cls-1,.cls-2,.cls-4,.cls-6{font-family:OpenSans, Open Sans;}.cls-2{font-size:44px;}.cls-3{font-size:79px;font-family:OpenSans-Bold, Open Sans;}.cls-13,.cls-3,.cls-4,.cls-6{fill:#323232;}.cls-13,.cls-3{font-weight:700;}.cls-5,.cls-7{fill:none;stroke-width:2px;}.cls-5{stroke:#323232;}.cls-10,.cls-11,.cls-12,.cls-5,.cls-7,.cls-8,.cls-9{stroke-miterlimit:10;}.cls-6{font-size:40px;}.cls-7{stroke:#aeaeae;}.cls-8{fill:#9cc628;}.cls-11,.cls-12,.cls-8,.cls-9{stroke:#fefefe;}.cls-10,.cls-11,.cls-12,.cls-8,.cls-9{stroke-width:3px;opacity:0.76;}.cls-9{fill:#8e244f;}.cls-10{fill:#d57928;stroke:#fff;}.cls-11{fill:#59a5a5;}.cls-12{fill:#991d26;}.cls-13{font-family:OpenSans-Semibold, Open Sans;}</style></defs><title>2019.03_AndaluciaRepetir</title><text class="cls-1" transform="translate(941.64 1793.8) scale(0.99 1)">Cs</text><text class="cls-1" transform="translate(1619.25 1795.8) scale(0.99 1)">PSOE</text><text class="cls-1" transform="translate(530.98 1788.79) scale(0.99 1)">Adelante</text><text class="cls-2" transform="translate(1291.66 1785.8) scale(0.99 1)">PP</text><text class="cls-1" transform="translate(220.51 1784.79) scale(0.99 1)">VOX</text><text class="cls-3" transform="translate(129.08 66.37)">¿Los votantes de qué partido siguieron con <tspan x="169.73" y="80">más interés la campaña electoral?</tspan></text><text class="cls-4" transform="translate(312.59 226.92)">Porcentaje de población mayor de edad que siguió con <tspan x="6.96" y="60">‘mucho interés’ o ‘bastante interés’ la campaña del 2-D</tspan></text><line class="cls-5" x1="13.49" y1="1834.6" x2="1893.26" y2="1834.6"/><text class="cls-6" transform="translate(14.89 1884.26) scale(0.99 1)">Fuente: Barómetro postelectoral del CIS</text><text class="cls-4" transform="translate(1495.89 1884.26) scale(0.99 1)">LA VANGUARDIA</text><path class="cls-7" d="M20.27,439.34H1865.46"/><path class="cls-7" d="M20.27,695.19H1865.46"/><path class="cls-7" d="M20.27,948.4H1865.46"/><path class="cls-7" d="M20.27,1201.6H1865.46"/><path class="cls-7" d="M20.27,1454.81H1865.46"/><rect class="cls-8" x="179.03" y="341.75" width="209.83" height="1366.26"/><rect class="cls-9" x="544.8" y="354.94" width="209.83" height="1353.08"/><rect class="cls-10" x="889.56" y="544.85" width="209.83" height="1163.17"/><rect class="cls-11" x="1234.32" y="576.5" width="209.83" height="1131.52"/><rect class="cls-12" x="1579.09" y="927.3" width="209.83" height="780.72"/><path class="cls-7" d="M20.27,1708H1865.46"/><text class="cls-13" transform="translate(238.36 413.73) scale(0.99 1)">54%</text><text class="cls-13" transform="translate(595.39 420.73) scale(0.99 1)">53%</text><text class="cls-13" transform="translate(943.43 609.75) scale(0.99 1)">46%</text><text class="cls-13" transform="translate(1279.46 642.75) scale(0.99 1)">45%</text><text class="cls-13" transform="translate(1636.5 999.79) scale(0.99 1)">31%</text></svg>