<svg id="Capa_1" data-name="Capa 1" xmlns="http://www.w3.org/2000/svg" viewBox="0 0 1901.1 1901.1"><defs><style>@import url('https://fonts.googleapis.com/css?family=Open+Sans:400,500,600,700');.cls-1{font-size:79px;font-family:OpenSans-Bold, Open Sans;}.cls-1,.cls-17,.cls-2,.cls-4,.cls-6{fill:#323232;}.cls-1,.cls-17{font-weight:700;}.cls-14,.cls-17,.cls-2{font-size:50px;}.cls-14,.cls-15,.cls-16,.cls-18,.cls-19,.cls-2,.cls-4{font-family:OpenSans, Open Sans;}.cls-13,.cls-3,.cls-5{fill:none;}.cls-3{stroke:#323232;}.cls-10,.cls-11,.cls-12,.cls-3,.cls-5,.cls-6,.cls-7,.cls-8,.cls-9{stroke-miterlimit:10;}.cls-3,.cls-5{stroke-width:2px;}.cls-19,.cls-4{font-size:40px;}.cls-5{stroke:#aeaeae;}.cls-10,.cls-11,.cls-12,.cls-6,.cls-7,.cls-9{stroke:#fefefe;}.cls-10,.cls-11,.cls-12,.cls-6,.cls-7,.cls-8,.cls-9{stroke-width:3px;}.cls-6{opacity:0.5;}.cls-7{fill:#991d26;}.cls-10,.cls-12,.cls-7,.cls-8,.cls-9{opacity:0.76;}.cls-8{fill:#d57928;stroke:#fff;}.cls-9{fill:#8e244f;}.cls-10{fill:#59a5a5;}.cls-11{fill:#d6d6d6;}.cls-12{fill:#9cc628;}.cls-13{stroke:#333;}.cls-14,.cls-15,.cls-16,.cls-18,.cls-19{fill:#757575;}.cls-15{font-size:44px;}.cls-16{font-size:46.66px;}.cls-17{font-family:OpenSans-Semibold, Open Sans;}.cls-18{font-size:46px;}</style></defs><title>2019.03_AndaluciaRepetir</title><text class="cls-1" transform="translate(199.71 92.37)">El voto potencial de los abstencionistas</text><text class="cls-2" transform="translate(204 169.91)">Qué votarían los abstencionistas del 2-D si acudieran a las urnas</text><line class="cls-3" x1="13.26" y1="1834.6" x2="1893.26" y2="1834.6"/><text class="cls-4" transform="translate(17.89 1884.26) scale(0.99 1)">Fuente: Elaboración propia a partir del CIS y los resultados del 2D</text><text class="cls-2" transform="translate(1495.89 1884.26) scale(0.99 1)">LA VANGUARDIA</text><path class="cls-5" d="M9,487.92H1916.26"/><path class="cls-5" d="M9,651H1916.26"/><path class="cls-5" d="M9,816.86H1916.26"/><path class="cls-5" d="M9,982.77H1916.26"/><path class="cls-5" d="M9,1148.67H1916.26"/><path class="cls-5" d="M9,1314.57H1916.26"/><path class="cls-5" d="M9,1480.48H1916.26"/><rect class="cls-6" x="185.59" y="342.04" width="199.47" height="1304.34"/><rect class="cls-7" x="437.86" y="1111.48" width="199.47" height="534.89"/><rect class="cls-8" x="690.12" y="1517.66" width="199.47" height="128.72"/><rect class="cls-9" x="939.46" y="1517.66" width="199.47" height="128.72"/><rect class="cls-10" x="1191.72" y="1520.52" width="199.47" height="125.86"/><rect class="cls-11" x="1443.99" y="1577.73" width="199.47" height="68.65"/><rect class="cls-12" x="1696.26" y="1586.31" width="199.47" height="60.07"/><path class="cls-13" d="M9,1646.38H1916.26"/><text class="cls-14" transform="translate(754.99 1733.82) scale(0.99 1)">Cs</text><text class="cls-14" transform="translate(466.79 1735.82) scale(0.99 1)">PSOE</text><text class="cls-14" transform="translate(944.21 1734.8) scale(0.99 1)">Adelante</text><text class="cls-15" transform="translate(1266.97 1731.82) scale(0.99 1)">PP</text><text class="cls-14" transform="translate(1749.52 1730.8) scale(0.99 1)">VOX</text><text class="cls-14" transform="translate(1487.52 1730.8) scale(0.99 1)">Otros</text><text class="cls-16" transform="translate(205.3 1703.99) scale(1.06 1)">Blanco<tspan x="-1.33" y="45.72">nulo o </tspan><tspan x="-16.54" y="91.45">ninguno</tspan></text><text class="cls-17" transform="translate(167.06 317.74) scale(0.99 1)">1.574.531</text><text class="cls-17" transform="translate(447.06 1088.74) scale(0.99 1)">645.160</text><text class="cls-17" transform="translate(699.06 1465.74) scale(0.99 1)">156.316</text><text class="cls-17" transform="translate(945.06 1463.74) scale(0.99 1)">156.315</text><text class="cls-17" transform="translate(1195.06 1463.74) scale(0.99 1)">150.632</text><text class="cls-17" transform="translate(1467.06 1554.74) scale(0.99 1)">82.421</text><text class="cls-17" transform="translate(1711.06 1570.74) scale(0.99 1)">73.895</text><text class="cls-18" transform="translate(15.98 1627.13) scale(0.99 1)">0</text><text class="cls-18" transform="translate(2.24 1468.11) scale(0.99 1)">200.000</text><text class="cls-18" transform="translate(8.25 1300.09) scale(0.99 1)">400.000</text><text class="cls-18" transform="translate(5.25 1135.08) scale(0.99 1)">600.000</text><text class="cls-18" transform="translate(8.25 970.06) scale(0.99 1)">800.000</text><text class="cls-19" transform="translate(2.99 808.04) scale(0.99 1)">1.000.000</text><text class="cls-19" transform="translate(5.99 640.03) scale(0.99 1)">1.200.000</text><text class="cls-19" transform="translate(2.99 475.01) scale(0.99 1)">1.400.000</text></svg>