<svg id="Capa_1" data-name="Capa 1" xmlns="http://www.w3.org/2000/svg" viewBox="0 0 1856.69 1856.69"><defs><style>@import url('https://fonts.googleapis.com/css?family=Open+Sans:400,700');.cls-1{fill:#8abf36;stroke:#ddd;stroke-opacity:0;stroke-width:1.64px;}.cls-2{font-size:64px;font-family:OpenSans-Semibold, Open Sans;font-weight:700;}.cls-2,.cls-5,.cls-6,.cls-7{fill:#323232;}.cls-3{font-size:39px;}.cls-3,.cls-4{fill:#757575;}.cls-3,.cls-4,.cls-5,.cls-6,.cls-7{font-family:OpenSans, Open Sans;}.cls-4{font-size:37px;}.cls-5,.cls-8{font-size:35px;}.cls-6{font-size:34px;}.cls-7{font-size:33px;}.cls-9{fill:none;}</style></defs><title>2019.01_PresupuestosEstado</title><circle class="cls-1" cx="178.54" cy="344.81" r="21.77"/><circle class="cls-1" cx="228.64" cy="344.81" r="21.77"/><circle class="cls-1" cx="203.59" cy="388.2" r="21.77"/><circle class="cls-1" cx="203.59" cy="301.43" r="21.77"/><circle class="cls-1" cx="153.49" cy="301.43" r="21.77"/><circle class="cls-1" cx="253.68" cy="301.43" r="21.77"/><circle class="cls-1" cx="253.68" cy="388.2" r="21.77"/><circle class="cls-1" cx="153.49" cy="388.2" r="21.77"/><circle class="cls-1" cx="128.45" cy="344.81" r="21.77"/><circle class="cls-1" cx="278.73" cy="344.81" r="21.77"/><circle class="cls-1" cx="303.78" cy="388.2" r="21.77"/><circle class="cls-1" cx="178.64" cy="263.05" r="21.77"/><circle class="cls-1" cx="228.64" cy="431.58" r="21.77"/><circle class="cls-1" cx="178.54" cy="431.58" r="21.77"/><circle class="cls-1" cx="203.59" cy="474.96" r="21.77"/><circle class="cls-1" cx="303.78" cy="301.43" r="21.77"/><circle class="cls-1" cx="280.73" cy="260.05" r="21.77"/><circle class="cls-1" cx="278.73" cy="431.58" r="21.77"/><circle class="cls-1" cx="128.45" cy="431.58" r="21.77"/><circle class="cls-1" cx="228.82" cy="261.58" r="21.77"/><circle class="cls-1" cx="328.82" cy="344.81" r="21.77"/><circle class="cls-1" cx="253.68" cy="474.96" r="21.77"/><circle class="cls-1" cx="567.65" cy="369.84" r="21.77"/><circle class="cls-1" cx="617.75" cy="369.84" r="21.77"/><path class="cls-1" d="M617.75,305.61a21.77,21.77,0,0,1,0-43.55"/><circle class="cls-1" cx="592.7" cy="413.22" r="21.77"/><circle class="cls-1" cx="592.7" cy="326.45" r="21.77"/><circle class="cls-1" cx="642.8" cy="326.45" r="21.77"/><circle class="cls-1" cx="642.8" cy="413.22" r="21.77"/><circle class="cls-1" cx="667.84" cy="369.84" r="21.77"/><circle class="cls-1" cx="980.26" cy="371.88" r="21.77"/><path class="cls-1" d="M1030.36,393.65a21.77,21.77,0,0,1,0-43.55"/><circle class="cls-1" cx="1005.31" cy="415.26" r="21.77"/><circle class="cls-1" cx="1005.31" cy="328.5" r="21.77"/><circle class="cls-1" cx="955.22" cy="328.5" r="21.77"/><circle class="cls-1" cx="955.22" cy="415.26" r="21.77"/><circle class="cls-1" cx="930.17" cy="371.88" r="21.77"/><circle class="cls-1" cx="1305.22" cy="367.95" r="21.77"/><circle class="cls-1" cx="1355.31" cy="367.95" r="21.77"/><path class="cls-1" d="M1330.26,433.11a21.77,21.77,0,0,1,0-43.55"/><circle class="cls-1" cx="1691.22" cy="367.95" r="21.77"/><circle class="cls-1" cx="1741.31" cy="367.95" r="21.77"/><path class="cls-1" d="M1716.26,433.11a21.77,21.77,0,0,1,0-43.55"/><circle class="cls-1" cx="161.37" cy="874.72" r="21.77"/><circle class="cls-1" cx="611.83" cy="874.74" r="21.77"/><path class="cls-1" d="M161.41,1230.31a21.77,21.77,0,0,1,0-43.55"/><path class="cls-1" d="M610.79,1231.5a21.77,21.77,0,1,1,0-43.55"/><circle class="cls-1" cx="1718.84" cy="874.85" r="21.77"/><circle class="cls-1" cx="1328.9" cy="876.29" r="21.77"/><circle class="cls-1" cx="978.91" cy="879.4" r="21.77"/><path class="cls-1" d="M975.31,1226.66a21.77,21.77,0,1,1,0-43.55"/><path class="cls-1" d="M1337,1226.85a21.77,21.77,0,0,1,0-43.55"/><path class="cls-1" d="M1681,1226.85a21.77,21.77,0,0,1,0-43.55"/><path class="cls-1" d="M1100.79,1550.66a21.77,21.77,0,1,1,0-43.55"/><path class="cls-1" d="M515.86,1548.91a21.77,21.77,0,1,1,0-43.55"/><text class="cls-2" transform="translate(17.22 53.98)">Si el presupuesto fuese de 100 euros... ¿Cómo se repartiría?</text><text class="cls-3" transform="translate(86.18 114.98)">Las partidas que representan menos del 0,3 % de los presupuestos del 2019 no se muestran</text><text class="cls-4" transform="translate(9.22 1843.46)">Fuente: CIVIO - Presupuestos 2019</text><text class="cls-4" transform="translate(1557.05 1847.46)">LA VANGUARDIA</text><text class="cls-5" transform="translate(37.12 634.34)">PENSIONES | 44,5</text><text class="cls-6" transform="translate(1646.59 580.34)">OTRAS <tspan x="-62.34" y="52">PRESTACIONES</tspan><tspan x="-90.1" y="104">ECONÓMICAS| 2,6</tspan></text><text class="cls-5" transform="translate(1239.47 998.34)">SERVICIOS| 1</text><text class="cls-6" transform="translate(49.64 1332.34)">INFRAESTR. | 0,6</text><text class="cls-5" transform="translate(1576.9 1000.34)">FOMENTO DEL <tspan x="18.36" y="52">EMPLEO| 0,8</tspan></text><text class="cls-5" transform="translate(855.89 1330.34)">SANIDAD | 0,6</text><text class="cls-5" transform="translate(503.74 1332.34)">INDUSTRIA Y <tspan x="-2.14" y="52">ENERGÍA| 0,6</tspan></text><text class="cls-5" transform="translate(1506.29 1330.34)">INVESTIGACIÓN | 0,4</text><text class="cls-5" transform="translate(375.16 1646.34)">EDUCACIÓN | 0,3</text><text class="cls-5" transform="translate(1239.11 1332.34)">SERVICIOS <tspan x="-32.53" y="52">SOCIALES | 0,3</tspan></text><text class="cls-5" transform="translate(937.91 1646.34)">SUBVENCIONES AL <tspan x="11.1" y="52">TRANSPORTE| 0,3</tspan></text><text class="cls-6" transform="translate(1187.95 1846.34)">ADMINISTRACIÓN<tspan x="47.99" y="52">SEGURIDAD</tspan><tspan x="47.31" y="104">SOCIAL| 0,6</tspan></text><text class="cls-5" transform="translate(54.13 998.34)">SEGURIDAD | 1,2</text><text class="cls-5" transform="translate(796.53 1003.34)">AGRICULTURA | 1,1</text><text class="cls-5" transform="translate(482.64 999.34)">DEFENSA| 1,2</text><text class="cls-5" transform="translate(817.77 632.34)">DEUDA PÚBLICA| 4</text><text class="cls-7" transform="translate(1205.12 630.34)">DESEMPLEO| 2,6</text><text class="cls-6" transform="translate(454.47 584.34)">TRANSFERENCIAS <tspan x="68.04" y="52">A ADMIN.</tspan><tspan x="27.31" y="104">PÚBLICAS</tspan><tspan class="cls-8" x="183.31" y="104">| 7,5</tspan></text><line class="cls-9" x1="262.26" y1="211.34" x2="318.26" y2="183.34"/></svg>