<svg id="Capa_1" data-name="Capa 1" xmlns="http://www.w3.org/2000/svg" viewBox="0 0 1842.52 1842.52"><defs><style>@import url('https://fonts.googleapis.com/css?family=Open+Sans:400,500,600,700');.cls-1,.cls-2{font-size:46px;}.cls-1{fill:#757575;}.cls-1,.cls-5,.cls-6{font-family:OpenSans, Open Sans;}.cls-2,.cls-5,.cls-6,.cls-7{fill:#323232;}.cls-2{font-family:OpenSans-Semibold, Open Sans;}.cls-2,.cls-3,.cls-4,.cls-7{font-weight:700;}.cls-3,.cls-4{font-size:42px;font-family:Arial-BoldMT, Arial;}.cls-11,.cls-3{fill:#3f4d78;}.cls-10,.cls-4{fill:#efb21b;}.cls-5{font-size:47px;}.cls-6{font-size:43.03px;}.cls-7{font-size:72px;font-family:OpenSans-Bold, Open Sans;}.cls-12,.cls-8,.cls-9{fill:none;}.cls-8{stroke:#323232;stroke-width:0.75px;}.cls-10,.cls-11,.cls-8,.cls-9{stroke-miterlimit:10;}.cls-9{stroke:#aeaeae;}.cls-10,.cls-11{stroke:#fff;stroke-width:0.5px;opacity:0.76;}.cls-12{stroke:#333;}</style></defs><title>2019.03_GeneracionZeta</title><text class="cls-1" transform="translate(63.81 1354.48) scale(0.99 1)">5</text><text class="cls-1" transform="translate(35.69 1078.48) scale(0.99 1)">10</text><text class="cls-1" transform="translate(35.69 810.48) scale(0.99 1)">15</text><text class="cls-1" transform="translate(35.69 516.48) scale(0.99 1)">20</text><text class="cls-2" transform="translate(63.99 1724.48) scale(0.99 1)">Izquierda</text><text class="cls-2" transform="translate(848.85 1728.48) scale(0.99 1)">5</text><text class="cls-2" transform="translate(680.85 1728.48) scale(0.99 1)">4</text><text class="cls-2" transform="translate(508.85 1728.48) scale(0.99 1)">3</text><text class="cls-2" transform="translate(344.85 1728.48) scale(0.99 1)">2</text><text class="cls-2" transform="translate(1006.85 1728.48) scale(0.99 1)">6</text><text class="cls-2" transform="translate(1174.85 1728.48) scale(0.99 1)">7</text><text class="cls-2" transform="translate(1338.85 1728.48) scale(0.99 1)">8</text><text class="cls-2" transform="translate(1502.85 1728.48) scale(0.99 1)">9</text><text class="cls-2" transform="translate(1608.97 1728.48) scale(0.99 1)">Derecha</text><text class="cls-3" transform="translate(1455.44 320.84) scale(0.99 1)">Media población</text><text class="cls-4" transform="translate(1092.51 256.84) scale(0.99 1)">Jóvenes que votan por primera vez</text><text class="cls-5" transform="translate(173.86 192.28)">Identificación política de izquierda a derecha en una escala del 1 al 10</text><text class="cls-6" transform="translate(18.9 1826.66) scale(0.99 1)">Fuente: Barómetro del CIS de Enero de 2018</text><text class="cls-6" transform="translate(1494.9 1826.66) scale(0.99 1)">LA VANGUARDIA</text><text class="cls-7" transform="translate(167.73 54.72)">La mayoría de jóvenes no se identifican ni <tspan x="153.44" y="80">con la derecha ni con la izquierda</tspan></text><line class="cls-8" x1="3" y1="1780" x2="1842" y2="1780"/><path class="cls-9" d="M13,541.56H1798"/><path class="cls-9" d="M13,822.11H1798"/><path class="cls-9" d="M13,1099.89H1798"/><path class="cls-9" d="M13,1380.44H1798"/><rect class="cls-10" x="136.89" y="1380.44" width="61.11" height="280.56"/><rect class="cls-11" x="198" y="1397.11" width="61.11" height="263.89"/><rect class="cls-10" x="300.78" y="1447.11" width="61.11" height="213.89"/><rect class="cls-11" x="361.89" y="1302.67" width="61.11" height="358.33"/><rect class="cls-10" x="464.67" y="961" width="61.11" height="700"/><rect class="cls-11" x="525.78" y="794.33" width="61.11" height="866.67"/><rect class="cls-10" x="628.56" y="1169.33" width="61.11" height="491.67"/><rect class="cls-11" x="689.67" y="955.44" width="61.11" height="705.56"/><rect class="cls-10" x="792.44" y="261" width="61.11" height="1400"/><rect class="cls-11" x="853.56" y="524.89" width="61.11" height="1136.11"/><rect class="cls-10" x="956.33" y="1169.33" width="61.11" height="491.67"/><rect class="cls-11" x="1017.44" y="1163.78" width="61.11" height="497.22"/><rect class="cls-10" x="1120.22" y="1241.56" width="61.11" height="419.44"/><rect class="cls-11" x="1181.33" y="1280.44" width="61.11" height="380.56"/><rect class="cls-10" x="1284.11" y="1594.33" width="61.11" height="66.67"/><rect class="cls-11" x="1345.22" y="1441.56" width="61.11" height="219.44"/><rect class="cls-11" x="1509.11" y="1572.11" width="61.11" height="88.89"/><rect class="cls-11" x="1673" y="1599.89" width="61.11" height="61.11"/><path class="cls-12" d="M73,1661H1798"/></svg>