<svg xmlns="http://www.w3.org/2000/svg" viewBox="0 0 2051.05 2051.05"><defs><style>@import url('https://fonts.googleapis.com/css?family=Open+Sans:400,500,600,700');.cls-1,.cls-21,.cls-5,.cls-6{fill:none;}.cls-1,.cls-21{stroke:#323232;}.cls-1,.cls-11,.cls-13,.cls-14,.cls-21,.cls-5,.cls-6,.cls-8,.cls-9{stroke-miterlimit:10;}.cls-1{stroke-width:0.75px;}.cls-2{font-size:37px;}.cls-2,.cls-20,.cls-22,.cls-3,.cls-4{fill:#323232;}.cls-2,.cls-28,.cls-29,.cls-3,.cls-30{font-family:OpenSans, Open Sans;}.cls-29,.cls-3{font-size:50px;}.cls-4{font-size:80px;}.cls-20,.cls-4{font-family:OpenSans-Bold, Open Sans;font-weight:700;}.cls-5{stroke:#e8e8e8;}.cls-21,.cls-5,.cls-6{stroke-width:2px;}.cls-6{stroke:#aeaeae;}.cls-11,.cls-13,.cls-14,.cls-15,.cls-16,.cls-17,.cls-18,.cls-19,.cls-7,.cls-8,.cls-9{opacity:0.76;}.cls-16,.cls-8{fill:#59a5a5;}.cls-11,.cls-13,.cls-14,.cls-8,.cls-9{stroke:#fff;stroke-width:0.5px;}.cls-15,.cls-9{fill:#991d26;}.cls-10{opacity:0.86;}.cls-11,.cls-19{fill:#9cc628;}.cls-12{opacity:0.82;}.cls-13,.cls-18{fill:#d57928;}.cls-14,.cls-17{fill:#8e244f;}.cls-20{font-size:52px;}.cls-23{font-size:42px;font-family:ArialMT, Arial;}.cls-23,.cls-28,.cls-29,.cls-30{fill:#757575;}.cls-24{letter-spacing:-0.07em;}.cls-25{letter-spacing:-0.06em;}.cls-26{letter-spacing:0em;}.cls-27{letter-spacing:-0.07em;}.cls-28{font-size:46px;}.cls-30{font-size:44px;}</style></defs><title>2019.03_Metaencuesta</title><g id="pie"><line class="cls-1" x1="3" y1="1988.53" x2="2052.5" y2="1988.53"/><text class="cls-2" transform="translate(18.9 2035.19) scale(0.99 1)">Fuente: GAD3, Gesop, Socimétrica, NC Report, Sigma Dos, Invymark, Sondaxe, Celeste-TEl</text><text class="cls-3" transform="translate(1647.9 2035.19) scale(0.99 1)">LA VANGUARDIA</text><text class="cls-4" transform="translate(168.68 80.8)">Evolución de los sondeos publicados desde <tspan x="207.58" y="80">que Sánchez convocó elecciones</tspan></text></g><g id="reticula"><line class="cls-5" x1="24" y1="561.14" x2="2049" y2="561.14"/><line class="cls-5" x1="24" y1="511.14" x2="2049" y2="511.14"/><line class="cls-5" x1="24" y1="461.14" x2="2049" y2="461.14"/><line class="cls-5" x1="24" y1="411.14" x2="2049" y2="411.14"/><line class="cls-6" x1="24" y1="360.53" x2="2041.81" y2="360.53"/><line class="cls-6" x1="24" y1="1619.14" x2="2049" y2="1619.14"/><line class="cls-5" x1="24" y1="1568.14" x2="2049" y2="1568.14"/><line class="cls-5" x1="24" y1="1518.14" x2="2049" y2="1518.14"/><line class="cls-5" x1="24" y1="1468.14" x2="2049" y2="1468.14"/><line class="cls-5" x1="24" y1="1418.14" x2="2049" y2="1418.14"/><line class="cls-6" x1="24" y1="1619.14" x2="2049" y2="1619.14"/><line class="cls-6" x1="24" y1="1869.14" x2="2049" y2="1869.14"/><line class="cls-5" x1="24" y1="1818.14" x2="2049" y2="1818.14"/><line class="cls-5" x1="24" y1="1768.14" x2="2049" y2="1768.14"/><line class="cls-5" x1="24" y1="1718.14" x2="2049" y2="1718.14"/><line class="cls-5" x1="24" y1="1668.14" x2="2049" y2="1668.14"/><line class="cls-5" x1="24" y1="1318.14" x2="2049" y2="1318.14"/><line class="cls-5" x1="24" y1="1268.14" x2="2049" y2="1268.14"/><line class="cls-5" x1="24" y1="1218.14" x2="2049" y2="1218.14"/><line class="cls-5" x1="24" y1="1168.14" x2="2049" y2="1168.14"/><line class="cls-6" x1="24" y1="1369.14" x2="2049" y2="1369.14"/><line class="cls-6" x1="24" y1="1118.14" x2="2049" y2="1118.14"/><line class="cls-5" x1="24" y1="914.14" x2="2049" y2="914.14"/><line class="cls-5" x1="24" y1="964.14" x2="2049" y2="964.14"/><line class="cls-6" x1="24" y1="612.14" x2="2049" y2="612.14"/><line class="cls-5" x1="24" y1="1064.14" x2="2049" y2="1064.14"/><line class="cls-5" x1="24" y1="1014.14" x2="2049" y2="1014.14"/><line class="cls-5" x1="24" y1="663.14" x2="2049" y2="663.14"/><line class="cls-5" x1="24" y1="713.14" x2="2049" y2="713.14"/><line class="cls-5" x1="24" y1="763.14" x2="2049" y2="763.14"/><line class="cls-5" x1="24" y1="813.14" x2="2049" y2="813.14"/><line class="cls-6" x1="24" y1="864.14" x2="2049" y2="864.14"/></g><g id="barras"><g class="cls-7"><rect class="cls-8" x="557" y="812.53" width="196" height="1058"/></g><g class="cls-7"><rect class="cls-9" x="160" y="472.53" width="196" height="1397"/></g><g class="cls-10"><rect class="cls-11" x="1748" y="1284.53" width="199" height="583.76"/></g><g class="cls-12"><polygon class="cls-13" points="949 1045.53 1146 1045.53 1146 1867.53 949.33 1867.53 949 1045.53"/></g><g class="cls-7"><rect class="cls-14" x="1341.55" y="1239.53" width="195.45" height="628"/></g></g><g id="bolas"><path class="cls-15" d="M373.53,297.22a16.55,16.55,0,0,1-17,17.34,16.79,16.79,0,0,1-15.18-11.31c-3.76-10.64,4.59-20.44,14.56-21.65C365.18,280.46,373.1,287.91,373.53,297.22Z"/><path class="cls-15" d="M341.53,561.73a16.55,16.55,0,0,1-17,17.34,16.79,16.79,0,0,1-15.18-11.31c-3.76-10.64,4.59-20.44,14.56-21.65C333.18,545,341.1,552.43,341.53,561.73Z"/><circle class="cls-15" cx="292.89" cy="330.8" r="16.55"/><circle class="cls-15" cx="257.89" cy="486.8" r="16.55"/><circle class="cls-15" cx="223.89" cy="416.8" r="16.55"/><circle class="cls-15" cx="191.89" cy="449.8" r="16.55"/><circle class="cls-15" cx="159.89" cy="496.8" r="16.55"/><circle class="cls-16" cx="688.37" cy="755.64" r="16.55"/><circle class="cls-16" cx="721.8" cy="727.25" r="16.55"/><circle class="cls-16" cx="654.8" cy="988.25" r="16.55"/><circle class="cls-16" cx="752.8" cy="705.25" r="16.55"/><circle class="cls-16" cx="619.17" cy="703.45" r="16.55"/><circle class="cls-16" cx="556.17" cy="908.45" r="16.55"/><circle class="cls-16" cx="590.17" cy="898.45" r="16.55"/><circle class="cls-17" cx="1340.25" cy="1151.38" r="16.55"/><circle class="cls-17" cx="1372.25" cy="1156.38" r="16.55"/><circle class="cls-17" cx="1439.25" cy="1159.38" r="16.55"/><circle class="cls-17" cx="1475.25" cy="1280.38" r="16.55"/><circle class="cls-17" cx="1506.25" cy="1150.38" r="16.55"/><circle class="cls-17" cx="1538.25" cy="1123.38" r="16.55"/><circle class="cls-17" cx="1405.25" cy="1292.38" r="16.55"/><circle class="cls-18" cx="949.81" cy="1065.52" r="16.55"/><circle class="cls-18" cx="982.81" cy="1192.52" r="16.55"/><circle class="cls-18" cx="1012.81" cy="1080.52" r="16.55"/><circle class="cls-18" cx="1047.81" cy="980.52" r="16.55"/><circle class="cls-18" cx="1081.81" cy="1254.52" r="16.55"/><circle class="cls-18" cx="1113.81" cy="954.52" r="16.55"/><circle class="cls-18" cx="1145.81" cy="973.52" r="16.55"/><circle class="cls-19" cx="1847.9" cy="1259.83" r="16.55"/><circle class="cls-19" cx="1880.9" cy="1261.83" r="16.55"/><circle class="cls-19" cx="1915.9" cy="1390.83" r="16.55"/><circle class="cls-19" cx="1949.9" cy="1352.83" r="16.55"/><circle class="cls-19" cx="1813.9" cy="1326.83" r="16.55"/><circle class="cls-19" cx="1750.9" cy="1201.83" r="16.55"/><circle class="cls-19" cx="1783.4" cy="1156.83" r="16.55"/></g><g id="indicaciones"><text class="cls-20" transform="translate(194.53 455.85) scale(0.99 1)">27,71</text><text class="cls-20" transform="translate(591.53 805.85) scale(0.99 1)">21,02</text><text class="cls-20" transform="translate(983.53 1033.85) scale(0.99 1)">16,01</text><text class="cls-20" transform="translate(1371.53 1225.85) scale(0.99 1)">13,58</text><text class="cls-20" transform="translate(1785.53 1263.85) scale(0.99 1)">11,77</text><path class="cls-21" d="M1263,581.53C1096.47,415,773.44,433.41,759.45,650.62"/><polygon class="cls-22" points="748.74 641.85 759.69 646.93 770.94 642.56 759 668.53 748.74 641.85"/><text class="cls-23" transform="translate(1304.17 602.37) scale(0.99 1)">RESU<tspan class="cls-24" x="116.69" y="0">LT</tspan><tspan x="159.47" y="0">ADO DE CAD</tspan><tspan class="cls-25" x="420.84" y="0">A</tspan><tspan class="cls-26" x="446.54" y="0" xml:space="preserve"> ENCUES</tspan><tspan class="cls-27" x="633.24" y="0">T</tspan><tspan class="cls-25" x="655.78" y="0">A</tspan></text><text class="cls-3" transform="translate(642.82 229.55)">Promedio de voto a cada partido</text></g><g id="letras_reticula"><text class="cls-28" transform="translate(22.81 1855.01) scale(0.99 1)">0</text><text class="cls-28" transform="translate(22.5 1608.41) scale(0.99 1)">5</text><text class="cls-28" transform="translate(17.21 1354.19) scale(0.99 1)">10</text><text class="cls-28" transform="translate(26.03 852.72) scale(0.99 1)">20</text><text class="cls-28" transform="translate(20.17 585.85) scale(0.99 1)">25</text><text class="cls-28" transform="translate(20.17 350.85) scale(0.99 1)">30</text><text class="cls-28" transform="translate(17.17 1102.97) scale(0.99 1)">15</text><text class="cls-29" transform="translate(1009 1936.75) scale(0.99 1)">Cs</text><text class="cls-29" transform="translate(188.81 1938.75) scale(0.99 1)">PSOE</text><text class="cls-29" transform="translate(1351.45 1924.74) scale(0.99 1)">Unidos<tspan x="-27.56" y="48">Podemos</tspan></text><text class="cls-30" transform="translate(612.98 1936.75) scale(0.99 1)">PP</text><text class="cls-29" transform="translate(1795.53 1933.74) scale(0.99 1)">VOX</text></g></svg>