<svg id="Capa_1" data-name="Capa 1" xmlns="http://www.w3.org/2000/svg" viewBox="0 0 1856.69 1856.69"><defs><style>@import url('https://fonts.googleapis.com/css?family=Open+Sans:400,500,600,700');.cls-1,.cls-12{fill:none;}.cls-1{stroke:#757575;stroke-width:2px;}.cls-2,.cls-3,.cls-8{fill:#911453;}.cls-2,.cls-4{fill-opacity:0.85;}.cls-2,.cls-4,.cls-6{opacity:0.8;}.cls-4,.cls-5,.cls-6,.cls-9{fill:#f4b413;}.cls-10,.cls-7,.cls-8,.cls-9{font-size:47.54px;}.cls-7{fill:#757575;}.cls-11,.cls-7{font-family:OpenSans, Open Sans;}.cls-10,.cls-8,.cls-9{font-family:OpenSans-Semibold, Open Sans;}.cls-10,.cls-13,.cls-8,.cls-9{font-weight:700;}.cls-10,.cls-11,.cls-13{fill:#323232;}.cls-11{font-size:43.03px;}.cls-12{stroke:#323232;stroke-miterlimit:10;stroke-width:0.75px;}.cls-13{font-size:78px;font-family:OpenSans-Bold, Open Sans;}</style></defs><title>2019.03_TrabajoHogar</title><path class="cls-1" d="M935,261V1758.91"/><path class="cls-1" d="M752.73,261V1758.91"/><path class="cls-1" d="M571.73,261V1758.91"/><path class="cls-1" d="M388.73,261V1758.91"/><path class="cls-1" d="M204.15,261V1758.91"/><polygon class="cls-2" points="937.58 316.99 935.58 365.91 204.69 365.91 206.69 316.99 937.58 316.99"/><rect class="cls-2" x="234.53" y="379.89" width="701.05" height="48.92"/><rect class="cls-2" x="153.32" y="442.78" width="782.26" height="48.92"/><rect class="cls-2" x="131.77" y="505.68" width="803.8" height="48.92"/><rect class="cls-2" x="222.93" y="568.58" width="712.65" height="48.92"/><rect class="cls-2" x="116.86" y="631.48" width="818.72" height="48.92"/><rect class="cls-2" x="65.48" y="694.38" width="870.1" height="48.92"/><rect class="cls-2" x="229.56" y="757.27" width="706.02" height="48.92"/><rect class="cls-2" x="161.6" y="820.17" width="773.97" height="48.92"/><rect class="cls-2" x="19.07" y="885.4" width="916.5" height="48.92"/><rect class="cls-2" x="52.22" y="948.3" width="883.36" height="48.92"/><rect class="cls-3" x="135.09" y="1011.19" width="800.49" height="48.92"/><rect class="cls-2" x="120.17" y="1074.09" width="815.41" height="48.92"/><rect class="cls-2" x="214.64" y="1136.99" width="720.94" height="48.92"/><rect class="cls-2" x="92" y="1199.89" width="843.58" height="48.92"/><rect class="cls-2" x="153.32" y="1262.79" width="782.26" height="48.92"/><rect class="cls-2" x="7.47" y="1325.68" width="928.1" height="48.92"/><rect class="cls-2" x="161.6" y="1388.58" width="773.97" height="48.92"/><rect class="cls-2" x="15.76" y="1451.48" width="919.82" height="48.92"/><rect class="cls-2" x="0.84" y="1514.38" width="934.73" height="48.92"/><rect class="cls-2" x="241.16" y="1577.27" width="694.42" height="48.92"/><rect class="cls-2" x="62.16" y="1640.17" width="873.41" height="48.92"/><rect class="cls-2" x="201.38" y="1703.07" width="734.2" height="48.92"/><path class="cls-1" d="M1756.14,263.09V1761"/><path class="cls-1" d="M1572.17,263.09V1761"/><path class="cls-1" d="M1389.87,263.09V1761"/><rect class="cls-4" x="1207.56" y="319.01" width="590.01" height="48.92"/><rect class="cls-4" x="1207.56" y="381.91" width="548.58" height="48.92"/><rect class="cls-4" x="1207.56" y="444.8" width="517.09" height="48.92"/><rect class="cls-4" x="1207.56" y="507.7" width="512.11" height="48.92"/><rect class="cls-4" x="1207.56" y="570.6" width="450.79" height="48.92"/><rect class="cls-4" x="1207.56" y="633.5" width="498.86" height="48.92"/><rect class="cls-4" x="1207.56" y="696.4" width="505.49" height="48.92"/><rect class="cls-4" x="1207.56" y="759.29" width="399.42" height="48.92"/><rect class="cls-4" x="1207.56" y="822.19" width="404.39" height="48.92"/><rect class="cls-4" x="1207.56" y="887.42" width="450.79" height="48.92"/><rect class="cls-4" x="1207.56" y="950.32" width="422.62" height="48.92"/><rect class="cls-5" x="1207.56" y="1013.21" width="382.84" height="48.92"/><rect class="cls-4" x="1207.56" y="1076.11" width="386.16" height="48.92"/><rect class="cls-4" x="1207.56" y="1139.01" width="286.72" height="48.92"/><rect class="cls-4" x="1207.56" y="1201.91" width="326.49" height="48.92"/><rect class="cls-4" x="1207.56" y="1264.81" width="283.4" height="48.92"/><rect class="cls-4" x="1207.56" y="1327.7" width="328.15" height="48.92"/><rect class="cls-4" x="1207.56" y="1390.6" width="233.68" height="48.92"/><rect class="cls-4" x="1207.56" y="1453.5" width="233.68" height="48.92"/><rect class="cls-4" x="1207.56" y="1516.4" width="233.68" height="48.92"/><rect class="cls-4" x="1207.56" y="1579.3" width="130.93" height="48.92"/><rect class="cls-6" x="1206.56" y="1642.19" width="84.52" height="48.92"/><rect class="cls-5" x="1207.56" y="1705.09" width="64.64" height="48.92"/><text class="cls-7" transform="translate(1003.59 353.49)">Suecia</text><text class="cls-8" transform="translate(457.24 218.49)">Mujeres</text><text class="cls-9" transform="translate(1398.68 218.49)">Hombres</text><text class="cls-10" transform="translate(761.45 296.49)">1h</text><text class="cls-10" transform="translate(1313.45 296.49)">1h</text><text class="cls-10" transform="translate(584.45 296.49)">2h</text><text class="cls-10" transform="translate(1496.45 296.49)">2h</text><text class="cls-10" transform="translate(401.45 296.49)">3h</text><text class="cls-10" transform="translate(1688.45 296.49)">3h</text><text class="cls-10" transform="translate(218.45 296.49)">4h</text><text class="cls-7" transform="translate(979.35 417.15)">Noruega</text><text class="cls-7" transform="translate(979.69 477.15)">Canadá</text><text class="cls-7" transform="translate(1004.12 539.15)">EE.UU</text><text class="cls-7" transform="translate(984.17 603.15)">Francia</text><text class="cls-7" transform="translate(970.96 664.15)">Alemania</text><text class="cls-7" transform="translate(970.5 733.15)">Eslovenia</text><text class="cls-7" transform="translate(980.47 791.15)">R. Unido</text><text class="cls-7" transform="translate(987.36 857.15)">P. Bajos</text><text class="cls-7" transform="translate(1000.62 920.15)">Serbia</text><text class="cls-7" transform="translate(970.47 984.15)">Mongolia</text><text class="cls-7" transform="translate(984.82 1108.15)">Hungría</text><text class="cls-7" transform="translate(1003.09 1170.15)">China</text><text class="cls-7" transform="translate(1001.61 1231.15)">Grecia</text><text class="cls-7" transform="translate(967.59 1296.15)">Argentina</text><text class="cls-7" transform="translate(1018.02 1358.15)">Italia</text><text class="cls-7" transform="translate(1007.42 1421.15)">Japón</text><text class="cls-7" transform="translate(979.89 1487.15)">Portugal</text><text class="cls-7" transform="translate(1026.36 1547.15)">Irán</text><text class="cls-7" transform="translate(952.06 1613.15)">El Salvador</text><text class="cls-7" transform="translate(979.94 1674.15)">Pakistán</text><text class="cls-7" transform="translate(1026.8 1738.15)">Malí</text><text class="cls-10" transform="translate(995.19 1045.15)">España</text><text class="cls-11" transform="translate(28.9 1844.16) scale(0.99 1)">Fuente: Organización Internacional del Trabajo</text><text class="cls-11" transform="translate(1504.9 1844.16) scale(0.99 1)">LA VANGUARDIA</text><line class="cls-12" x1="13" y1="1797.5" x2="1852" y2="1797.5"/><text class="cls-13" transform="translate(27.98 66.28)">Tiempo destinado al trabajo de cuidados y del <tspan x="527.51" y="80">hogar en cada país</tspan></text></svg>