<svg id="Capa_1" data-name="Capa 1" xmlns="http://www.w3.org/2000/svg" viewBox="0 0 800 800"><defs><style>@import url('https://fonts.googleapis.com/css?family=Open+Sans:400,700');.cls-1{fill:#e5e5e5;}.cls-1,.cls-3{stroke:#fff;stroke-width:1.01px;}.cls-2{fill:#fff;opacity:0.53;}.cls-3{fill:#c6c6c6;}.cls-10,.cls-11,.cls-4,.cls-6,.cls-7,.cls-8{fill:#dd6868;}.cls-4,.cls-6,.cls-7,.cls-8{stroke:#d31616;}.cls-4{stroke-width:4.92px;}.cls-10,.cls-11,.cls-12,.cls-13,.cls-14,.cls-4,.cls-5,.cls-6,.cls-7,.cls-8,.cls-9{opacity:0.6;}.cls-12,.cls-13,.cls-14,.cls-5,.cls-9{fill:#e09563;stroke:#d16718;}.cls-5{stroke-width:3.75px;}.cls-6{stroke-width:2.53px;}.cls-14,.cls-7{stroke-width:2.5px;}.cls-8,.cls-9{stroke-width:1.56px;}.cls-10,.cls-11{stroke:#f90000;}.cls-10{stroke-width:1.1px;}.cls-11{stroke-width:1.12px;}.cls-12{stroke-width:1.25px;}.cls-13{stroke-width:1.08px;}.cls-15{font-size:38px;}.cls-15,.cls-16{fill:#323232;}.cls-15,.cls-17,.cls-18,.cls-24{font-family:OpenSans-Semibold, Open Sans;font-weight:700;}.cls-16{font-size:21px;}.cls-16,.cls-21,.cls-22,.cls-23{font-family:OpenSans, Open Sans;}.cls-17{fill:#d31616;}.cls-18{fill:#d16718;}.cls-19,.cls-20{fill:none;stroke:#323232;}.cls-20{stroke-width:0.85px;}.cls-21{font-size:17px;}.cls-21,.cls-22,.cls-23{fill:#757575;}.cls-22{font-size:16px;}.cls-23{font-size:20px;}</style></defs><title>2019.01_GuerraPaises</title><path class="cls-1" d="M18.69,588.63l1.07-.82-1.55-12.16,2.73,3.6,2,2.05,1.21-.65L28,582.18l2.49.23,5.35,4.46-1.26,3.44.08,2.48-1,3.16,3.55,9,4.47,5.21L43,613.56l2.68,3.59,1.53,3.06,2.68,2.29,2.28,3.67-.2,3.14.66,2.22-.2,2.27-1.28-1,1,7.42,8.44,7-.9,2.46.33,2.4,2.35,3.32.87,4-1,3.46L61,664.21l.35,3.28-1.44,0,0-1.66L55.73,660l-4.13-3.29-3.08-1.8-19-38.33Z"/><path class="cls-1" d="M78,700.12l0-.42-1.73-2h-.08l-4.23-5.83-.36-3.2-.9-2.13L67.53,683l-1.86-.29-.19-.17-4.54-6.92.21-4.19-1.29-3.88,1.44,0L61,664.21l1.32-1.34,1-3.46-.87-4-2.35-3.32-.33-2.4.9-2.46-8.44-7-1-7.42,1.28,1,.2-2.27L52,629.31l.2-3.14-2.28-3.67-2.68-2.29-1.53-3.06L43,613.56l-1.33-3.44-4.47-5.21-3.55-9,1-3.16-.08-2.48,1.26-3.44-5.35-4.46L28,582.18l-3.85-1.53-1.21.65-2-2.05-2.73-3.6-2.33-1.51-1.57-2.57,2.18-7.7-3.79-.5-2.85-3.63-.56-2.13-.38-2.79-.53-.76-.84-3.4.46-.44-1-5.72v-6.61l1.2.26.69-2.2,2.54,1.28L12,534l1.47-.62,1.06-2.05,5.1,1.73,3.17,2.7.73-.16,3.08,4.22,6.58-11.67.92-2,.59-3.49-.77-3.74,1.52-3.51,2.23,1.68.46,1.38.91-1.7-1.75-3.07,1.3-3.07,6.51,8.59,1.86-.24.3,2.71-.53,3.67.91.21.89,4.87,2.91,2.93,1.29-.67,3.14,1.94,1.82.89,1.25-1.56,3.17,1.53.21-1.22-2.91-3.84.78-3.57,1.53-3-1-3.06.86.33,2.36,3.62,2.34,4.39,1.53,0,2.94,2.12,4.88,2.61,2.13-.39.08-1.84,2,1.79.41,2L78.86,537l1,2,0,3.08-1.73.62-2.21,3.45.05,3.39L75.38,552,77,556.59l1.85,2.08.77-.53,1.33,1,2.1.83,1.75-.08,2.07,2.43,1,.71,2.06,2.35.71-.65-.35-1.55.9-1L92.68,564l2.09,1.19,2,3,1.47,2.51,1.72-.22.86,1,.12,1.81,2.12,1.3,2.21-.51,2.47-2.47,4-2.37,1.5.91.14,3.45L113,583.76l2.07,2.53-.88,3.39-4.43,1.5.94,2.46,7.59,6.41L117.2,605l4.23-.77,5.24,5.58,6.91,7.86,1.62,4.22L133.85,624l5.77,1.86,8.7,7.92,7.22,3.81,6.45,7.75,5.38,8.5L171,657.1l4.25,2.23,1.6,2.34.87,6.78.47,3.22-3,6.84-2.93,1.89-7.84,3.22-3.72,3.79-4.09,2.29-1.27-.52L153.69,692l-.16,9-1.69,6.58-.62,2.85-1.64,1.1-.95,5.87-5.1,3.73-.74,4.47-4,.1L137.71,728l-5.47-2.67-7.77-2.1-3.39.35L115.63,722l-5.53.79-3.75,2.63-.37,3.3,1.09,3.16-.19,2.55-27.6-32.66Z"/><path class="cls-1" d="M105.26,574.07l-2.21.51-2.12-1.3-.12-1.81-.86-1-1.72.22-1.47-2.51,1.75-1.15,1.12-1.87,1.43-1.44-.56-4.16.89-3.52,3.65-2.25,1.17,1.69,2.57,3.64,2.91,7.57v2.5l-4,2.37Zm309.49-94.36-1.13,3.93-1.74-1-.94-3.37.71-1.89,2.33-2Zm-20.61-41.53,2.16,2.46,1.68-.34,2.8,2.36.73.45.95-.1,1.54,1.33,4.76.9-1.64,3.47-.4,3.6-.93.87-1.55-.46.11,1.28-2.53,2.82-.08,2.28,1.67-.78,1.19,2.21-.15,1.42,1,1.89-1.23,1.54.92,3.9,2,.63-.4,2.19L403.44,475l-7.22-1.49-5.41,1.43-.56,3-4.35.41-4-2.57-1.43,1-6.57-2.92-1.25-2.11,2.19-2.81,1.7-9.93-3-5.66-2.19-2.84-4.86-2.63.21-3.69,4.41-.49,5.37,2-.39-5.79,2.83,2.48,7.9-3.26,1.26-4.05,2.83-.84.36,1.8,1.48.16Z"/><path class="cls-1" d="M88.08,520.54l1.6,4.19.92,5.35-1,2.51L91,534.1l1.06,4.27.83,3.08-2.35,3.66-2.85-1-.24,1.32-1.69,1.76.39,5.09,1.26,1.18-.49,3.17.95,6.38-1-.71-2.07-2.43-1.75.08-2.1-.83-1.33-1-.77.53L77,556.59,75.38,552l.55-2.49-.05-3.39,2.21-3.45,1.73-.62,0-3.08-1-2,1.36-1.58-.41-2-2-1.79-.91-6.2,1.57-.24.91-2.24,2.58,1.63,1.31.08-.45-3,1.11-1.36Z"/><path class="cls-1" d="M92.89,541.45l4.28,5.28.76-.46,3.32,2.53,3.79,5-3.65,2.25-.89,3.52.58,4.18-1.44,1.44-1.13,1.87-1.74,1.12-2-3L92.68,564l-1.48-1.87-.9,1,.35,1.55-.71.65L87.88,563l-.95-6.38.49-3.17-1.26-1.18-.39-5.09,1.69-1.76.24-1.32,2.85,1Z"/><path class="cls-1" d="M59.39,457.6l-.76.91-2-2.09-.39,3.45-1.51,2.26-2.87.62L50.79,468l1.42,1.63,2.62-2.25.08-2.94,2-3.59,4.69,3.66.93-2.69,1.9.13-.93,4.66,2,3.08.43,5.26-.77,1.65,2.74,3.83,3.62,4,.68,4.39,2.17,3.69,2.62.85.67-1.1,4.26,4.67L86,501.58l-3.6-2,0,3.5L85,506.56l1.51,5.19-1.25,4.31L87.18,518l.9,2.58-4.16-.3-1.11,1.36.45,3-1.31-.08-2.58-1.63-.91,2.24-1.57.24.91,6.2-.08,1.84-2.13.39-4.88-2.61-2.94-2.12-1.53,0-2.34-4.39-2.36-3.62-.86-.33,1,3.06-1.53,3-.78,3.57,2.91,3.84-.21,1.22-3.17-1.53-1.25,1.56-1.82-.89-3.14-1.94-1.29.67-2.91-2.93-.89-4.87,1-6.08-.17-2.8L47.7,514l2.8-.2.37-1.21-.3-2.62.82-4,1.9-3,1.51-.62,1.85-1.75-.75-2.3-2.12-1.91L51.61,493l-1.54-1.26L50,484.72l-1.45-3.15-4.09-5.31.22-2.67-.5-1.49.45-1.11L46,469.85l.86-2.18,0-2,.91-2.65-1.25-2.64L48.88,459l2.36-2.61,1.86-.33,1.89.47,2.14-1.07Z"/><rect class="cls-2" x="31.33" y="540.52" width="225.33" height="217.67"/><path class="cls-1" d="M608.65,439.56l4.18-1.1,1.84-2.62-.75-2.49,1.82-2.8.67-2.83-1.95-3.89,1.71-3.14-.72-1.9,2.14-.22.91-.72,1.51-1.55,2.7-1.3,1.21-.39.81-3.4,1.52-.21-.73-2.78,1.58-1.68-.12-1-1.13-1.9L625.7,401l2.11-.72.81,1.52.9-.72,2.71,3.57,2.12.08.12-1.89.73-1.75-.11-3.66,1.88-1.86,2.37-3.24,1.46.52-.92,2.28-.52,2.31-2.31,4-1.89,4.14,0,3.51,2.05,1,2,1.62.14,3.23,1.4,1.41.48,2.31-2.64,2.82,3.23,1.47-.91,3,.76,3.8L643.8,432l-.22,2.39-1.35.76-1.8,2.9.54,1.51-2.2,2.26,0,4.08,2.42,3.73-2.83,5.7L635.93,457l0,1.55-2.27,1.2-2.83,3.55-6.9,2.49.5-6.51-2-2.58-2.9,1.35-2-2.56-3.26-2.6-.19-3.53-1.78.52L611,446Z"/><path class="cls-1" d="M457.6,710.2l1.48,3.24,1.68,2.55,1.33,1.33,2.21,2.13,3.69-.76,1.83-.84,3.11.28.8-1.22L475,714.1l3.45-.61.27-.82,2.84-.39-.42,1.69,6.75-1,.22,2.82,1.2,1.57-.72,2.83.51,2.69,1.92,1.38-.13,5.34,1.37-.61,2.43-.26,3.44-1.21,2.55-.15.63,1.28-.57,2.26,1,1.92-.79,1.79.51,1.45-11.66,1.73-.06,13.95,3.81,3,3.67,2.16L487,760.14l-13.66,1-3.92-1.64-23,2.14-.86.36-3.39-1.72-3.68.08-3.4.9-2.73.94-.54-2.67.78-3.81,1.95-4,.29-1.87,1.82-4L438,744l3.23-3.05,1.8-2.07.56-3.3-.33-2.48-1.71-1.47L440,729l-1.42-2.59.29-.94,1.7-1.87-1.78-4.22-1.2-2.94-2.86-2.69.52-.9,2.3-.74h1.62l2-.66Zm-21.75.74-1.41.55-1.55-3.33,2.22-2.08,1.67-.86,2.12,1.43-2,1.07L436,709Z"/><path class="cls-1" d="M456,477l-.19,1.78.88,2,1.75.94.14,1.32-1.11.94,0,1.66-1.39,2.72-.7-.24-.25-1.08-2.36-1.34-.68-2.33-.19-3.46.27-1.63-.74-.69L451,476l1.21-2.71.38.9.91-.61,1,1.21,1,.36Z"/><path class="cls-1" d="M603.28,515.34l.6-.65.7,1.19,2.75-2.64,3.27-1.93,2.4-1.39,1.16-4.86,1.39-4.87.94-4.46,1.49,1.06,2.31,3.25-1.9,1.36,1.15,3.2,1,.17-1.28,2.09.88,1.89-.22,2.67.76,1.92-.33,1.5-12.87,5.27-3.55-3.78Z"/><path class="cls-1" d="M538.5,453.5l4.24-3.15,1.27.85,1.64.12-.1,1.52,2.53.62-.22,2,2,.47,1.87-.08L553.4,459l-1.16.82-2.67-1.92-.33-.72-1.48.82-1.59-.71-.64.5-2-.65-3,.15-.72-2.43Z"/><path class="cls-1" d="M438.61,447.58v2.08l-1.89.25.79,1-.73,3.37-.55.92-3,.46L431.62,457l-2.89-.12-5-.91-.89-1.7-3.34,1.08-.35,1L417,455.7l-1.76-.06-1.59-.86.48-1.25-.16-.89,1-.32,1.78,1.33.42-1.35,3,.06,2.37-1.06,1.63,0,1.14.95.25-.88-.73-3.24,1.15-.73,1-2.42,2.61,1.39,1.65-2.24,1.12-.5,2.73,1.24,1.52-.45,1.64.75-.18.67Z"/><path class="cls-3" d="M546.19,457.29l1.59.71,1.48-.82.33.72,2.67,1.92-2.62.66-2.72-1.22-1.36-1.47Zm4.4-11.19,1.58-.52-.06-1.49.9-3,3,1.37,3.37,2.21,1.59-.72,1.65.59-2.42,2,1.34,3.87.29,1.94-.64,1.8,1.27,2.21-.71.73-3.3-1.16,0-2.94-1.66-.76-1.06,1.07L553.4,459l-1.64-3.16-1.87.08-2-.47.22-2-2.53-.62.1-1.52L544,451.2l-1.27-.85.43-1.19h3.08l1.89-.71.17-.79-2.85-1.58L546,445l1-.36Z"/><path class="cls-3" d="M529,692.43l-.81-5.47-1.54-1.78,3.31-.4,1.41-3,2.88-.39.48,1.74,1.26.76.19,1.49-1.24,1.29L533,689.56l-1.82,2.13Z"/><path class="cls-1" d="M393.49,433.28l2.29.49,3-1,2,2.25,1.73,1.2-.4,3.4-.85.18-.4,2.82L398,440.3l-1.68.34-2.16-2.46-1.39-2.09-1.48-.16-.36-1.8Z"/><path class="cls-1" d="M382.34,656.05l-4.43.34-1.21-3.33.59-10.9-1-1-.12-2.35L374.39,637l-1.54-1.52.76-2.48,1.81-.43,1.14-2,2.55-.31,1.18-1.38,1.78-1.32,1.85.07,3.87,2.92-.24,1.59,1.11,2.88-1.07,1.89.52,1.31L385.51,641l-1.65,1.4-1.07,3,.06,3Z"/><path class="cls-1" d="M353.88,637.81l-3.48-1.62-2.45-.1-1.91,1-2.26-1.3-.78-1.7-2.25-1.35-.11-2.82,1.57-1.84,0-1.64,4.39-3.46,1-3.21,1.49-1,2.41.94,2.2-.74.78-1.16,4.09-1.75,1.07-1.41,4.85-1.57,2.82-.45,1.21,1,3.24.22-.52,2.32.58,2.25,2.73,3.35.06,2.34,5.88,1.44-.23,3.29-1.18,1.38-2.55.31-1.14,2-1.81.43-4.54-.42L366.7,632l-1.71.64-2.27-.55-9-.65-.3,2.7Z"/><path class="cls-1" d="M733.32,381.73,736,384.5l-1.2,1,3.09,2.75-2.45-.68-2-1.66-2.14-1-2.95-.32-1.89,3.91,1.7,1.15,1.43,3.5L728,394.29l.37,1.33-1,.82-1.12,1.34L723,395.3l-3.45-1.38-1.87-3-2.22,1.6-.9-2.3-.16-4L711,387.26l-1.87-4,3.14-1.73,1.07-1.84,2.81,2.16,2.26-3.58,1.57-4.07,1.65-1.9,2.47,5.08-.57,2.17,1.59,3.45,3-.49-2.12-3.08.48-1.23Z"/><path class="cls-1" d="M461.29,463.71l1.42,1.83,1.3-.65,2.88.18,5.25-.95,1.45-1.69,3.82-2.21,3,1.1,2.19-.06-1.27,2.54-.38,3.87,1.88,2.49-3.26.17-3.31,2.49.53,2.47-3.23,1.27-3-1.13-2.66,2-2.76.43-.9-3.23-2.14-1.23.47-.82-.51-.51.31-1.7,1.07-1.83-2.16-1.79-.67-1.75Z"/><path class="cls-1" d="M85.08,381.54l-.63-.89,1.74-3.22.46-2.69,2.83-1.33.36,1.45-2.57,4.54Zm10.37-11.42L93,366l1.36-1.59,1.07,1.75,1,2.93Zm1.44,3.46-3.06,1.81.17-1.25,2.06-1.8.79-3.31.45-.41Z"/><path class="cls-1" d="M447.87,462.91l1.27-.22L448.6,465l2,1.65-.16,2.43-.81.36L449,470l-1,1.34-.14,2.83-3.5-1.43-1.64-1.91-1.52-.93-1.88-1.67-1-1.46-2-2.14.51-2.17,1.4,1,.64-1.13,1.63-.32,3.13.42,2.42-.42Z"/><path class="cls-1" d="M453.65,415.23l2.79-.61,2.63-2.61-.08-2.93,1.85-2.17L460,404.8l1.42-1.27,2.33-2.7,3.21.36.77,1.08,1.22-1,3,.29L473,403.7l-.13,1.49,2.82,2.57,1.44.49.14.92,2.18.18,1.27,1-.71,1.44-2.34.62-.39.63,1.22,1.37,1.78,2.84-2.4,1.13-.55,1.36.61,2.5-1.33-.09L474,423.21l-1.13-.9-.86,1.18-1.33-.38-2.38.57-3.67-.27-3.13.39-2.3.67-1.34,1.72-1.41.52-.56-2.19-1.45-2.08L456,421l-.45-2-1.25-1.69Z"/><path class="cls-1" d="M44.92,347.93l.58-.56.31.46-.27,1.35,2.8-.32.27.92-.58.54.2,1-1.09.89-1.89.73-.5,1-1.52.76-.3.67-2.1,1.26-1.27,0-.34-.82-1.58.25-.35-1.55,4.5-3.71Z"/><path class="cls-1" d="M709.47,365.4l1.93-.62,2.32,2.44-1.24,3.59-1.72,3.34-.52,3.21-3.13,2.42-.81-.64-1.68-5.4,0-3.13,2.13-2.16,1-2.13Z"/><path class="cls-1" d="M510.93,759.1l1.12.58,1.74,2.19,6.26,3.58,2.38,0V767l1.58,2.4,4.28-.17,3.49,1.23-8,4.66-5.1,4.07-2,3.13L515,784.16l-3,.84-1.07,2.16-.62,1.39-3.6,1.53-4.52.48-2.61-.77-2.33-.17L494.46,791,493,793.11l-2.7,1.58-2.87,2.18-4,.9-1.19-1.29.61-2.56-3.19-3.53-1.5-.45.28-12.15L484,777l.32-15.14,4.19-.69,8.67-2.73,2.14,1.45,3.58-2.25,1.7-.28,3.16-1.49,1,.15Z"/><path class="cls-3" d="M449.32,649l4.35-.77.9-1.32h.88l1.38.94,6.52-2.56,2.1-2.13,2.61-2-.65-1.61,1.44-.63,5.06-.4,4.7-2.94,3.23-5.8,2.41-2.37,3.15-1.38.8,1.95,3.29,2.45.23,1.94-.62,2.14.49,1.42,1.94,1,4.17,1.33,3.06,1.36.22,1.53,3.78,1.76,2.41,1.6,1.64,2.56,4.12,1,1,1.31-1.67.88-3.38.61-4,.32-1.91.8-.67,1.3-1.69.47-2.18-.6-5.66,3.42-2.46-.06-.7.49-1.35,3.1-4.05-.28-3.94.13-3.53-1.24-4.5-1-2.75,1.89-1.93,2.65-.28,3.33-3.47.15-3.69-.38-3.08,2.82-2.63,4.63-.63-1.3-.34-2.11-2.54-1.28-2.1-2.24-.53-1.65-2.65-2.24.37-1.44-.62-1.94.25-3.69,1.24-1Z"/><path class="cls-1" d="M200.78,352.27l.72,2.51,1.77,2.51-2.54,0-.93-.83-.48-5.06,1-1.83,1.92,0Zm13.7-3.48-.89-1.24-.81-4.51.54-4,.89.66,1,4.32,0,4.1Zm6.33-194.38.51-1.7,6-4.41,2.35-.42,3.78-2.12,1.73-.1,3.38-2.63,3.38-.2.8.61L239.16,146,237,147.47,234.26,150l-2.37.5-3.34.82-4.23,2.47ZM231,357.65l-4.66,1.52,2.55.39.46,2.41-2,.41.7,3.17,1.84.22.87,3.54-3.36,2,2.1,1-1.67,2.32-1.59,3.13-4.1,2.34-1.13-1-.74-2.37,3.47-2.56-.12-1.17-5.66.33-1.11-1.66,3.23.06-1-3.34-2.38-2.54-3.63-5.2.88-1.45,2.56.39.27-2.09,3.94,0,8.2-3,3.38-.51,2.94.84.69,1.25-1.42.52Zm36.74-219h0l-2.11,2.4-3.94-3-5.62.54,1.05-1,3.49-.57,2.87.06,2.6-.53,2.27.52,1.14.83ZM257.35,271.83l-2.84,0,.26-1.13,1.43-1.07h.37l1.68.35,0,.93Zm1.9-6.62-3.17-1.77,0-1.6,1.36-.85,2.56,1,.31,3ZM274,254.68l-2.29.85.88.85-1.28,1.47-1.58,2.64-1.34,2.75-2.44.86.62,1.41-1.48,2-1.92-1.38.81-3.63,2.21-1.78-3-1.39-2.93-2.42,3-1.42-.61-2.79,2.66,1.32,4.15-.57,4.86-.26Zm10.31,15.39-.72-1.93L286,266.9l3-.15,1.07,1.34L289,269.9l-2.18.76-.75,0Zm9.07-36.69-1.68-1.06,2.07-2.3-.27-1.41,2.94-2.2,1.28,1.54,2,1.24-1.88,1.68-1.15,1-1.11.49Zm1.06,8.53-5.46.48,4.06,1.89-3.49,2.46H285.6L282,249l3.87,1.29,4.62.52,5.84-.85-.3,2.39-.59,2.57-2.38,2.79-2.6.71-3-.64-2.66,1.92-2.57.4-4.06-2.79-1-2.48,1.49-2.29-2.68-.08-4.51-1.08-2.32-.17-3.59-1.78-.3-3-2.17-1.36-3.43.35-.52-2.48-4.07-2.21-5.7-1.82-4.05-.44-6.09.63L238,243l-5,2-4,2,.89,3.52-2.27,5.45-1.89,3.18-2.35,2.59-1.18,3.83-1.88,3.57.25,4.63,0,3.15L216.13,278l-4.88,2.8-5.17,4.34-3.74,6.41,2.11,1.55,5.38-.73,7.38-4.89,2.17-3,3.3,3.35,4.2,1.49,3.8-.08,3.23-1.65,3.77-3.46,3.06-4.46,5.9.77,4.31-2.74,7.73-3.6,1.5,1.08-.47,4.18.12,2.39,1.82,1.21-1.06,2.68-2,3.9L257,291.07l1.09,4-4,2-5.7,3.91.15,2.47-2,3.2,4.1,1.75,6.1-1,2.84.11-3.19,4.17-4.14,6.55-3.82,6.09-3.27,1-.55,4.79-1.09,3.89,1.4,4.46-.27,2.52-2.78,3.8.8,2.23-.8,2.24-4.3,4.15-2.8-.37-2.68-.47-4.34-2.78-5.51-.34-3.53-3.81-2.54-6.31-2.23-4-1.8-2.59-4.32-.11L204,330.44l-7.8-.23-5.62-.72,1.86,2.08,8,.78,6.63,3.41,2.67,3.83-.69,4-4.34-.44-4,4.41L198.11,351l.21,5.42,3.59,4.19,6.35-1.16-2.75,2.74-.19,3.06-5-1.12-6.52-4.28-3.43-1.53-4.93-.91-1-2.57,3.44-2.94,6.39,2.41-2.86-4.62-2.32-2.94,1.37-3.79,5.85-4.3.6-2.2-1.7-1.46.68-1.78h-4.37l-3.83,1.43-2.49.28-1.27-.86-.66-.85-1.22.43-2.42-5.86-1.88-4.88-1.36-1-4.46-1.49-.49-.2h-2.12l-1-3.11-1-3.34-1.17-1.13-.75,1.08-1.32,1.12-.49.2-3.54-3.27-1.64-3.26L155,305.73l-.2-.91.48-1.63.59-.76.51-.18,1.81-.07,2.94.33,3-.42,4-2.8,4.18-2.87,1.59-4.61.93,0,.5-.77-.16-.93.66-1,1.12-.68-.61-.43v-1h.51l.36-1,1.24-.88,1.22-3.25,1.32-3.36,1.6-4,1.57-3.76-1.59-2.47-.1-1.07,1.18-4.53-.68-2.5,1.6-3.71.91-3.63.42-2.41.92-1.25,2.85-1.27.05-1.11-2,.46.65-6.88L190.1,229l2.52-11.33,2.91-10,3.56-9.91,4.13-9.66,4.94-9.85,1.74-3.14,5.67-9.36,6-8.76.31-.41,9-4.58,3.64-1.47,6.21-4.46L246,146l2.36,1.4,5-2.56,3.91,1,6-1.53,2.23,1,.72,2.26,2.74,1.21,6.61-2.41,7,.44,4.31.45,3.88-.66,3.14-.23,3.2.37,1.11-2.65.27-3.23,4.54.27,3.25.07,3.32-.77,2.51-1.46,18.81,17.73,12,12.22L339,170.06l-4.24.19-2,.91.1,2.29-.72,2.34-2.69,1.41-.47,3.05L327.7,183l-2.62-.24,0,1.56,1.66,1.49-1.33.6-6,0,1.29,3.38-3.5-1.54-.77,2.08.86,1.16L315.59,193l-3.65,1.37-4.26,2.84-2.24,1.85-.66,1.64L301,202.15l-1-3-2.85,2.72-1.88,4.75.16,1.65-3.91,1.25,1.74,2.37,2.94-1.36,1.26,1.42-.64,2.08,0,1.43L295,216.63,291.54,218l-.25,2L288,223l.08,2.84-.76,2.63,3.34-.13.59,1.58-2.33,2.72-5,.07,4,1.07-.37,1.44,5.25.61,3.57-1.87,2.5-1.91,5.86.23,3.55,1.84-1.17,2-2.57,1.57L298.26,240l-2.48-1.3ZM324.34,209l-1.88-1.42-.23,3.35L318.72,212l1.78,2.19-2.25.79h-5.52l1.79,1.17,5.65.21.22,1.32L319,218.83l-2.7,1.11-5.39,0-3.83-.11-3.48,2.24-3.37,2.62-2.27-.36.4-2.74-2.35.86-1.75-.75,1.85-3,2.47-2.67.47-2-.36-3.42,1.31-4.35,1.12-3,2.83-.21,2.62-1.73.33-1.55,5-.52-.15,1.16-.64,2.55-1.48,2-.25,2.2,2.8-2.5,1.57-3.21,1.47-2,2.26-.05-.3,3.91,1.36-2.13,2.92-1.82,2.69,2.56,1.24,1.65.66,4.43Zm-4.63,12.83-3-1.78,4.46-1.35.53.59-.51,1.77Zm-4.8,38.25-1.42.51-.13-1.49-.15-1.5-.94-1.35.26-.47,2.62-2.07,1.92-.31.43.56-.14,3.12Zm-1.11-14-3.33,1.49,4.34.73,2.38,3.06-5.26,3.34-3.49.5,1.92,2.49,2.31.82-2,3.79-2,2.69-2.2.9,1.9,2.3-2.76,2.67-.74,4.33-1.5,2.14-4,3.5L295.91,279l-1.63,5.26.12,3.09L291.21,292l1.07,2.76-3.53,1.38-7,.06.92-3.3,3.32-5.14-1.57-2-2.87,1.1-2,3.29-1.06,3.63-.89,1.44-4,3.81-3.68,1.25.08-3.18,1.68-6.87-3,4.87-1.91,3.61L265.3,300l-.54-6.51,1.12-5.73,1.54-3.53,1.63.09,1.6-4,1.61-3.82-1.45.59-2.22-5.49,1.41-2.28,4,.09.91,3.6,1.69,3.69,1.62-1.31,2.7-.3,5.59.45,2.08-1.33,1.54-1.3,1.77-3.45,1-3.94,1.54.66,2.85-2.67,0-1.5,1.56-1.72-1.68-.46L296.1,257l.71-6.16,1.49-3.65.85-2.7,1.94-1.5,2.37,1.4.13-2.18,5.46-.85,4.73.78,2.12,1.25,1.37,3.31Zm6.32-18.54L318.57,229l.1,2.41-1.62.25-2.26-1.43-2.76,2-4.74-.43-1.52-2.56.8-1.43,2.29-.88,5.14-3.13,1.67.25-1.53,2.75L318,225.7ZM312.36,237l-3.78-1.52.48-1.67,4.85-.77,2.65.12,2.14.78,1.23,1.34-.58,2.7-1.57,2.54-4.58-1.86Zm9.39-39.3.65-4.48,2.53.31,4.91-1.57,1.33,1.55,2.4,2.59,2,2.56,3.61.48-2.46,3.92-2.19,1.09-2.4,2.74-2.15.56-2.86.51-.18-2-1.13-4.38-2-3Zm2.53,38.79-2-.72L323,234l1.7-1.42,2.26.8,1.11,1.77-2.06,1Zm10.44-5L332,232l-2.74-.21-3.82-.89v-2.06l1.23-1.19,3.06.44.21-1.94,4.06.6-.56,1.15,1.29,1.89-.73,1.48Zm1.13-10.89-2,0,.41,1.18-.72,1.09-2.6-.35-2.14-1.23,1.06-4.15-.57-3.59.93-1.81,1.68.41.79,3.07,2.51-5.19,1.89-1.14,3.61,3.36.7,1.48L338,215.86l-4,.94-1.38,1.82,5.58-.14,1.33,1.48-1.11.88Zm0,15.11-1.93,1.11-.28,2.13-1.87,1-2-.23L328.41,241l-1.33.79-.32,1.6-.49,1.76,1.18,1.76.56,2.31-.22,1.94-1.87,1.61-2.16.69-1.5-.5-1.33-1.66.53-1.71-.94-3.52,0-2.61.78-2.09,2.06-3.37,3-.41,2.68-.11,2.52-1.08,1.08-2.26,1.93-1.13,2.09.59Zm11.61-20.47-3.54-1.68-1.12-1.44.42-1-.6-2.72.57-1.9,2.06-.76h0l2,3.35,1.47,3.31-1.08,1.32Zm-9.5,21.45-.07-.47.71-1.88,1.55-.14-.48,2-1.12.65Zm6.41-15.88-.45-2.22,2.39-.8,1.11,1.3-.25,1.47-1.47,1Zm4.26,1.89-.4-1.37.83-1.44.69.27,1,1.39-.48.37Zm-7.43,12.19-.77-1.54,1.43-.66,2.1-.16,2.21.21-.51,1.14-.48.49-2.1.94Zm2.45-3.86-2.31.05,1.07-1.48,2.23-1.24,1-2,1.18,1.22,1.67-.77,2,.42-1.37,1.49-2.73,2ZM348.8,243,347,244.16,345.45,243l-4-1.59-.23-1.7.95-2,2.35-.9,1.94.13,1.31.77.24-1.58,2-.77,2.53-.26,2.24.8,1.51.69.22.79,1.29-.21,0,1.68-3,.81L353.51,241l-1.12,1.29Zm20,9.89.11,1.56-.17,1.38-.89,1.53-1.33.52-2.82-.59-1.63-1.15-1.36-.21.57,1.41-3.69-.54-1.85-.71-4.63-.08-1.31-1.45-1.2-.27-1.08-2.45-.45,1.33-1.06-.4-2.46,1.31-2-.48-1.75-1.18-2.15-.07-1.78-1.14-1.19.36.46,1.75-1.29.29-3.57-2.32,1.24-3.12-.91-3.18.69-1.71.4-2.11,2.59-.21,1.1,1.91,3.91-.67.35.59-2.37,2.83,3.46-1.62,1.09-1.61,2.05.67,1.25,1.54,1.88.12,2.12-1.33L352,243l-.26,2.2-.57.68,2,1,.55-1.8-.3-2.69,1.93-1.36,2.24-.57,1.68-.76,1.86-.06.91,1,.1.76.79,1.25,2,.86-.29.76-1.5.76,2.93.24.91.69.68.95.45,1.66-.52.39,1.23,1.41,0,1.25Z"/><path class="cls-1" d="M414,452.64l.16.89-.48,1.25,1.59.86,1.76.06-.18,2.08-1.5.91-2.59-.54-.7,2.05-1.66.2-.62-.79-1.94,1.74-1.69.25-1.51-1.08-1.19-2.21-1.67.78.08-2.28,2.53-2.82-.11-1.28,1.55.46.93-.87h2.89l.67-1.11Z"/><path class="cls-3" d="M766.16,305.89l1.74,6.17-1.69,3.38-3.67-2.61-1.73-4-.84-6.64.24-3,1.71,0,1.81,3.7ZM601,185.4l-1.23-5.66,1.44-4.15,3.88-1.81-2.9-5-3.64-2.52-4.84-5,5.42.9,2.58,1,6,.37,6.13,1.72,1.63,4.3,3.42,2.87,3.69-1.21,6.09.22,1.15,1.89,2.49-.1-1.66,2.49,3.53,1.44,4.95,5.89,2.35-.54,1.32,3.35-.77,1.77,4.67,2.88,4.41,4.58,4.42,3.61,3.39,5.87,3.3,3.38,2.67,4.69-3-2.6-1.71.53-4.35-3.73-2,1.74,2.8,3.76,4.72,5.18,3.87,3.17,1.15,4.1,2.78,2.66,2.93-1.39.07-3.26,2.21.38.67-3-4.79-5.54.91-3.39-.67-2.73,2.41-.21,3.13,6.39,3.23,2.63,3.54,4.87,4,3.19,1.63-4.1,4.45-.49,3.84-1.58,3-2.14,3.68,1.11,2.08,3.41,2.34-.35.82-2.39,4.17,2,4.17,2.54,1.07,2.94,6,5.6,7.08,6.67,6.46,7.32,5.29,9.31,4.62,9.39.93,6.25,2.19,4.39-1.41,1,2.34,4.32,2.29,8.76.56,6L759,300.2l.1,3.1-3.24-.82-1.63-2.39-1.84,6,.51,2.93-1.61,4.36-2,1.16-2.4-2.56-1.31,4-1.92,1.24,1.69,5.88-.28,5.17-.72,3.9.51,3.42.09,3,4.86,3.1-.69,2.53-1.06-.36-1.72-1.26.36,4.56-1.25,1.47L743,350.93l-3-4.23L738.43,349l-4-2-.66,5.48L729,348l-2.32-7.1L723.31,338l-3.27-2.3-1.49,1.21-2.87-.37-.35,2.83-1.93,4.26-1.35-2.83-3.19.06.88,4.43-2.13,2.8,1,7,1.64,6.4-.78,3.86-1.79.91-1,2.13-2.13,2.16,0,3.13,1.68,5.4-3.19-2.49-.32,3.25-2.61,4.38L697.06,388l-3.3,1.58-2.35,2.3-2.49-.49L687.19,393l-4.58,1.38-2.89,1.83,0,2.44L674,401l-4.55,1.09-4.63-3.23,2.12-2-1.8-2-2.77-.54-2.79-3.41-6.72-.72-5.17,3.93-3.49-1.94-3.38.61-1.46-.52-2.43-1.68L635.55,389l-2.2,1-.37,1.4-4-2.72L628.8,387l-1.17-.46.31-4.65.72-2.83,2.71-2.77-1.71-3.47,2-4.41-.9-2.5.7-6.8-.68-1.21-2.48-1.67.1-3-8.74-3,1.48-7.28L621,340.7,614.3,333l4.12-5-1.32-3-4.46-3,.55-2.74-2.2-4.09,0-1.38,3.5,1.09,3.34-1.14,3.19-3.43,4.42-.09,5,4.31,2.37,0,2-3.48,1.88-4.15,3.94-2.55,1-1.86,4.7.68,3.24-.62.68-4,2.32-7,0-5.18,1.12-3.32,3.43-4.26.28-4.57,1.6-1.07-2.51-5.45-1.73-6.75-.38-5.76-2-5-2.92-3.48-2-3.08-1.6.17-1.82.68-3.48-2.74.21-1.94.52-3.52-3.28-4.2-3-5.88L631.09,223l-2-2.7-2-5.19-.2-2.71-1.93-.56-2.69,2.79-.9,2.57,2.55,2.85,0,3.28,1.07,2-1.92.57-5.65-3.08-4.26-2.05,1-3.74-4.53-4.85-2.25-.11L601,209.09l-2.21-1.76h-2.82l-.67,1.64-3.39-2.49-2.26-3.65L588,199l-.36-4.46.69-2.71,4.21-2.24,1.62-1.31,2.56-1.31Z"/><path class="cls-1" d="M352.43,659.83l-2.44-.21-3.67-1.34-3.42-.35h-6.37l-3.8.85-5.41.95-1-.28.72-3.81.56-.51v-1.88l-2.07-2.33-1.65-.59-1.42-1.55,1.34-1.91-.31-2.38.37-1.34.83.13.5-2-.32-1,.56-.58,2-.26-.92-4-1-2.17.58-1.55,1.06-.2.71-.32,1.36.95,4,.66,1.08-1.25.88.22,1.54-.32.62,2.16,1.26-.43,2.19-.42,2.25,1.35.78,1.7,2.26,1.3,1.91-1,2.45.1,3.48,1.62,1,6.92-2.46,3.76-1.7,5.2,2.08,4.31Z"/><path class="cls-1" d="M438.48,674.2l-.68-.21-3.2.79-3.32-.45-2.58.43-8.87.22.74-3.71-2.16-3-2.48-.74-1.12-2.08-1.39-.65.05-1.3,1.35-3.36,2.49-4.61,1.55-.08,3.13-2.87,2-.15,3,1.82,3.62-1.77.44-2,1.13-2L433,646l2.75-2.13.93-3.4,1.07-1.14.63-2.53,1.24-3.15,4.19-4L444,628l.52-.91-2.14-1.75.09-1.55,1.43-.4,2.21,2.91.52,3.16v3.2l3.07,4.09-2.92.22-1.45.47-2.4-.29-1,2.34,3.23,2.54,2.33.61.84,1.91,1.83,3.13-.76,1.36-2.44,5-1.24,1-.25,3.69.62,1.94-.37,1.44,2.65,2.24.53,1.65,2.1,2.24,2.54,1.28.34,2.11.63,1.3-.28,2.55-4.37-.71-4.44-.87Z"/><path class="cls-3" d="M533,653.27l.37,5.57,2.18.09-1.49,2.1-1.88,1.76-1.74,2.94-.88,2.44.1,3.81-1.05,2.07.3,3.51-1.42,1.65.06,2.8-.71.53-.27,2.64,1.54,1.78.81,5.47,1.31,4-.37,2.5,1.28,2.4,3.34,1.82,3.33,5-2.18,0-7.31,2.44-1.44.86-1.41,3.22,1.33,1.72-.73,5.53-.5,4.63,1.52.48,3.93.91,1.49-1.14.63,4.7-4.23.88-2.35-2-2.1-1.47-4.27.23-1.33-2.09-3.34,2.06-4.47.21-1.93-1.69-3.55.21-2.61.55-.37-1.33-1.93.21-2.55.15-3.44,1.21-2.43.26-1.37.61.13-5.34-1.92-1.38-.51-2.69.72-2.83-1.2-1.57-.22-2.82-6.75,1,.42-1.69-2.84.39-.27.82-3.45.61-1.31,2.79-.8,1.22-3.11-.28-1.83.84-3.69.76-2.21-2.13L460.76,716l-1.68-2.55-1.48-3.24-16.48,1.24-2,.66h-1.62l-2.3.74-.81-1.36,1.41-.55.14-2,.89-1.22,2-1.07,1.48.37,1.87-1.86,3-.17.39,1.26,2.1.65,3.2-3.11,3.17-2.5,1.35-1.59-.32-3.75,2.23-4.68,2.42-2.62,3.51-2.6.56-1.54.05-1.71.81-1.71-.42-2.6.46-4.2.9-3,1.47-2.69.15-2.87.28-3.33,1.93-2.65,2.75-1.89,4.5,1,3.53,1.24,3.94-.13,4.05.28,1.35-3.1.7-.49,2.46.06,5.66-3.42,2.18.6,1.69-.47.67-1.3,1.91-.8,4-.32,3.38-.61,1.67-.88,3.63,3.18,2.42,0,1.31-1.12,2.46-.27,2.78-1.71,1.5,1.7Z"/><path class="cls-1" d="M438.89,706.66l-2.12-1.43-1.67.86-2.22,2.08-4.66-4.6,4.19-2.71-2.15-2.92,1.88-1.24,3.73-.76.39-2.06,3,2,4.89-.14,1.63-2.29.6-3.11-.72-3.55L443,684.27l2.19-5.54-1.39-.82-4,.66-1.6-2.3.33-2.06,6.87-.3,4.44.87,4.37.71.28-2.55,2.63-4.63,3.08-2.82,3.69.38,3.47-.15-.15,2.87-1.47,2.69-.9,3-.46,4.2.42,2.6-.81,1.71-.05,1.71-.56,1.54-3.51,2.6-2.42,2.62L455.16,696l.32,3.75-1.35,1.59-3.17,2.5-3.2,3.11-2.1-.65-.39-1.26-3,.17L440.37,707Z"/><path class="cls-1" d="M16.89,494.19,16.14,491l-.68-4-1.2-.6-2.12-4.79.35-3.27-.56-.84-1.33-7.68.42-2.16,1.19,1.49,1.16-2.6,1.56-.56,1.51,2.12,2.77-.91,2.41-.6-.37-2.9L23.3,462l1.89-5.31,1.28-.17,2-4.61.49-4.36L30.65,446l.6,1.88,1.33-.42,1.14-3.74.73-.07,1.2,2.61,3.95.46L41,448.14l1-1.41,3-2.85,2.85.63,1.69,2.81.83-.55,1.82,3.92L55.7,452l1.71.76,2.73,0,.79,1.83,0,2.3-1.51.62-2.26-2.11L55,456.56l-1.89-.47-1.86.33L48.88,459l-2.41,1.35L47.72,463l-.91,2.65,0,2L46,469.85,44.65,471l-.45,1.11.5,1.49-.22,2.67,4.09,5.31L50,484.72l.06,7.06L51.61,493l2.18,3.36,2.12,1.91.75,2.3-1.85,1.75-1.51.62-1.9,3-.82,4,.3,2.62-.37,1.21-2.8.2.76,2.6.17,2.8-1,6.08-.91-.21.53-3.67-.3-2.71-1.86.24-6.51-8.59-1.3,3.07L39,516.74l-.91,1.7-.46-1.38-2.23-1.68-1.52,3.51.77,3.74-.59,3.49-.92,2-6.58,11.67-.82-4.87-1-1.44,4.1-2.22-1.74-5.72-2.2-2.26-.87-2.49-2.35-1.19-2.2-4,.26-7.91-.91-3.42,0-3.81-1-5.45Z"/><path class="cls-1" d="M20.31,417.77l-.4-3.75.27-2,.79-.16.64-1.14.24-2.45-.1-2.86-.22-2.32.86-1.58.12-2.11L21.65,401l-1.16,0,.52-2.36-.23-2.09.45-1.56,1.05-1.24,1.31-.62v-2.05l1.06.4.7.25.23,4.5.85.64.29,2-.39,1.71.32,1.79,1.16.33-1.33,3.57-.57,3.67-.45,4.2-1.07-1.58-1.29,1.76L23,416l-.68-.25-.5,1-.82.45Z"/><path class="cls-1" d="M75.07,362.33l1,4.22,1.19,3.62.24,5.49-.71,3.14,2.09,3.77L78.67,385l-.68,6.1-.41,4.49.71,1.4.5,3.41-1.15.78L79,404.59l.22,4.91-1.07.41-1.9-2.41-1.62-2.77-1.17-3.37-3.24-6.06,3.34.86.13-2.83-1-3.16.41-2.66,1.67-3.22-1.16-2.41L73,376.64l.3-2.14-1.5-6.56.23-2.32,1.55.84-1.26-4.72-3.08-1.52-.63-1.9-1.16.18-1.11-2-.19-2.37,1.93,1.43,1.73-.23,1.5,1.35,1.48,1.7,1.46,3.18Z"/><path class="cls-1" d="M509.81,498.33l.27-.12.22-1.36,2.81-.89,3.06-2.68-2,3,.56.81-.47,0-.63.62-.61.1-.14.25-.22-.46-.37-.2-.76.2-.94.77Z"/><path class="cls-1" d="M514.76,497.08l.24.35-3.42,3.34h-2.1L508,499.12l1.8-.79h.81l.94-.77.76-.2.37.2.22.46.14-.25.61-.1.63-.62Z"/><path class="cls-1" d="M438.23,445.21l-1.64-.75-1.52.45-2.73-1.24-1.12.5-1.65,2.24L427,445l-2-2-1.76-1.08-.5-2.1-.67-1.46,2.25-1.27,1.08-1.35,2.19-1.18.7-1,.89.49,1.35-.67,1.68,1.45,2.42.16,0,1.4,1.87.82.3-1.35,2.26.26.53,1.52,2.42,0,1.86,2.23-1,.15-.36,1-.71.33,0,1.17-.59.33,0,.48-1,.68-1.47.11Z"/><path class="cls-1" d="M413.54,415l.13,1.94,3,1,.07,1.79,2.95-1.12,1.55-1.49,3.49,1.71,1.55,1.47,1,2.48-.7,1.42,1.28,1.68,1,2.61-.06,1.75,1.62,3.07-1.35.67-.89-.49-.7,1-2.19,1.18-1.08,1.35L422,438.38l.67,1.46.5,2.1,1.76,1.08,2,2-1,2.42-1.15.73.73,3.24-.25.88-1.14-.95-1.63,0-2.37,1.06-3-.06-.42,1.35L415,452.32l-1,.32-3.68-1.44-.67,1.11h-2.89l.4-3.6,1.64-3.47-4.76-.9L402.45,443l.2-2.21-.64-1.14.4-3.4-.47-5.29h1.87l.79-1.89.76-4.61-.57-1.7.58-1.07,2.5-.29.57,1.1,2-2.52-.72-1.87-.2-2.85,2.21.6Z"/><path class="cls-1" d="M585.47,588.84l1.5,1,.37,2-2.39,2.3,2.36.43-1.1,3.29-1.27-.4-1.06.82-2.68,1-.43-1.42-.69-1.16,1-2.9,1.12-2.8,2.12-.45Z"/><path class="cls-1" d="M421.3,411.43l-1.41,4.19L416.68,413l-.52-2.06,4-1.93ZM416,407.5l-.58,1.93-.87-.5-1.88,3.7.88,2.42-1.83.83-2.21-.6-1.23-2.77-.18-5.14.44-1.36.76-1.52,2.41-.38.9-1.42,2.11-1.51,0,2.58-.73,1.67.4,1.39Z"/><path class="cls-1" d="M83,422.38l.87-.16,1.89,3.31.63,3.53.75,1-.68,2.22L88,434.45l-1,1.1,1.05,2,.16,3.55-2.27.18-.59-2.88L84,436.66l-.71-1.57h-1L81,433.73l.39-1.65-1.3-.81-3.21,1.13-.14-1.76.8-1.41.93-1,.35-2.34,1.15.35L81.45,425Z"/><path class="cls-1" d="M428.91,572.53l-16,10-14,9.68-6.94,2-5.46.28,0-3.12-2.23-.9-3-1.56-1.06-2.36-15.51-12L350,562.05l-15.49-14.7.23-.94,0-.33.86-5.85,7.61-2.39,4.46,0,3.74-.79,2-2.25,5.29-1.28.59-3.66,2.53-.13,2.12-1.61,5.67-.24.95-1.86-1-1.17-1-5.42,0-3.06-1.25-3.37,4.2-2.32,4.49-.46,2.73-1.86,4-1.24,6.91-.51,6.71-.17,2,.79,3.84-1.93,4.31,0,1.65,1.16L411,506l-.78,2.59.73,4.77-.91,4.15-2.55,2.83.4,3.77,3.52,2.93.06,1.21,2.69,2,2.08,8.91,1.55,4.35.31,2.31-.67,4.09.39,2.26-.5,2.74.48,3.11L416,560.11l2.82,3.52.23,2.11,1.74,2.69,2.16-1,3.78,2.11Z"/><path class="cls-1" d="M-2.7,485.48l1.12-.38.39-3.27-1.75.33-.32-5.37.54-.17L-1,471.27l1.3,1,2-2.12L4.92,469l.84-2.32,2,1.72,2.85,1.51,1.33,7.68.56.84-.35,3.27,2.12,4.79,1.2.6.68,4,.74,3.19-1.27,4.38-2.37,1.73-5.57,0-4.45-3.87-3.66,1.38-1,1.29Z"/><path class="cls-3" d="M526.55,522.65l-.61,2.36.12,4-.46,2.92-.76,1.18L523,532l-2.49-1.53-4.84-6-.31.58,3.09,4.57,3.89,4,5.24,6.47,2.3,2.09,2.12,2.25,5.36,4-.65,1.15,1,3.09,6.33,2.47,1,.7-17.84,6.09L509.45,567l-18.65,4.44-3-18L484.71,536l-2-3.68.54-3.28-1.05-2,1.08-2.71,5.58-1.39,4.31.3,4.48.36,2.11.24,2.85-2.45,1.37-1.89,3.54-1.48,3.09-.28,1.76,2.06.54-1.89,3.61.08,3.28-.8,1.66-1.91Z"/><path class="cls-1" d="M582.25,591.07l-2-.86-2.65-2-2.47-.67-1.64-1.15-4.56-.27-3.23,1.21-1.38-.56L561.82,589l-3.39-1.1-.64,4.11-5.77,1-.94-1.74.41-7.76-.3-3.35,1.11-2,3.22-2,1.63-3.62,4.12,4.51,2.41,3.89,3.15,1.32,7.53,1.93,3.3,1.64,3.25,1.68,1.89,1,2.68.43-1.11,1.77Z"/><path class="cls-1" d="M345.39,475.31l.87-3.5-1.05-2.46,5.76-2.57,4.22,1.7,4.83.77,3.72,1.43,3,.15,5.85.88,1.25,2.11,6.57,2.92,1.43-1,4,2.57,4.35-.41.06,2.93L386.56,484l-4.93.73-.46,1.66L378.6,489l-1.82,4,1.29,3-2.46,2-1.13,3.18-3.1.7-3.22,3.54-5.12-.53-3.82-.6-2.75,1.4-1.8,1.65-1.92-.72-1.25-1.92-.71-3.05-3.59-1.41-.06-1.71,1.76-1.61.75-1.26-1.11-1.72,1.6-3.08-1-3.26,1.72-.12.54-2.33.73-.62.68-3.88,1.94-1.05-.63-2.68-2.12-.55-.74.51-2.18-.4-.48-2.61-1.63.43Z"/><path class="cls-1" d="M451.25,395.64l-.45-3-.79.84L448,392.16l-.91-2.77,2.82-2.11,2.92-1.5,2.91.08,2.49-.87.64.73-.89,3.3,2.15,4.3-.64,1.85-2.15.58-2.75-1.22-1.3-.31Z"/><path class="cls-1" d="M558.43,587.86l3.39,1.1,2.49-2.18,1.38.56,3.23-1.21,4.56.27,1.64,1.15,2.47.67,2.65,2,2,.86-1.12,2.8-1,2.9.69,1.16.43,1.42,2.68-1,1.06-.82,1.27.4L585.6,600l2.4,1.87,2.32,1.53,2.24.9,17-1.5,4-2-10.1,20.54-6.33,3-3.71,5.17-3.17,1.38-1.07,2-3.42,1.34-2.32-.82-4.22,3.7L578,639.69l-3.44.85-1.22-.14-1.17.55-1.61.51-7.12-1.81-3.55,1.17-2-1-.44-2.65-2.77.05L550.84,633l-2.5-.38-1.2-1.62-3-1.54-3.17.58,1.27-3.21,2.65-.92.5-1.68-.82-4.26.56-5.44,2.09-2.08.12-2.11,1.38-4.33,2.45-3.34,1-5.38-.15-4.37,5.77-1Z"/><path class="cls-1" d="M443.8,338.87l.94,3.38,3.93,2.24-.37,4.11,4.24,4.63.17,4.5,3.16,2.91.3,3.37,4.4,2.15.11,2.7-1,3.44L456.79,380l-4.21,1.61-3.76,2.88-3.74,2L443,384.06l-2.72-1.13-.54-4.94-2.11-4.2.44-3.07,1.28-3.49,3.49-6.41,1.09-1.36-.82-2-3.46-1.57-1.18-1.72-2.07-7.42-3.73-2.64-3-1.88.77-1.49,2.61,2.14,2.28-.78,2.26.68,1-2.56-.27-3.72,2.05-2.36,2.82,1.2Z"/><path class="cls-1" d="M428.23,703.56l-5.78-4.39-3.71-3.67-3.4-4.67.16-1.53,1.19-1.5,1.3-3.4,1.07-3.46,1.84-.32,8-.25-.17-5.6,2.58-.43,3.32.45,3.2-.79.68.21-.33,2.06,1.6,2.3,4-.66,1.39.82L443,684.27l2.69,2.54.72,3.55-.6,3.11-1.63,2.29-4.89.14-3-2-.39,2.06-3.73.76-1.88,1.24,2.15,2.92Z"/><path class="cls-1" d="M368.18,414.35,366,417.5l-2-1.42-1.81-.27,1.13-2.54,0-2.77,2.41.24Zm10.57-19.2-3.65,5,2.83-.3,2.93.4-1.23,4-3.1,4.15,2.86.69.16.55,1.85,6.19,1.91,1,1.27,5.88.68,2.06,3.61,1.24-.6,3.19-1.69,1.36,1.05,2.69-3.05,2.42-4.24-.43-5.56.78-1.35-1.17L371,436.87l-2.86-1-2.54,1.56L364,436.17l5.46-4.52,2.95-.69h0l-4.72-1.54-.55-2.12,3.44-1.06-1.24-2.94,1.09-3.18,4.35,1.08h0l.83-2.84L374.12,415l0-.08-3.36-1.4-.46-1.45,1.4-2.06-.7-1.52-1.92,2.1.69-4.81-.92-2.77,1.93-5,2.76-3.68,2,.72Z"/><path class="cls-1" d="M530.8,454.8l-.38-2.25-2.24-2.8-2.66-.82-2.05.31-1.82-.89.16-.74,3.11-.49,5.12-1.57,5.44,0,1,.57,1.6-1.76,3.46-.66,1.92,1.34L546,445l-.51,1.1,2.85,1.58-.17.79-1.89.71h-3.08l-.43,1.19-4.24,3.15-4.25-.67Z"/><path class="cls-1" d="M373.57,657.15l-8.49,2.18-3,1.37-4.9.94-4.71-1.8.34-1.83-2.08-4.31,1.7-5.2,2.46-3.76-1-6.92-.48-3.67.3-2.7,9,.65,2.27.55,1.71-.64,2.38.57-.45,1.46,2.06,2.63-.16,3.47.34,3.79,1.25,1.82-1.34,4.2.33,2.39,1.31,3.09Z"/><path class="cls-1" d="M323.83,643.15l-1.47-.37-1.25,1.73-1.48-.28-.92-1.19.54-1.85-1.87-3.3-1.41.29-1.12-.1h-1.46l.25-1.73L313,635l.32-1.35-.88-2.22-1.23-2-4.09-.84-1.3.65-1.42-.19-1,.84-.76,1.2-3,1.49-1.87-3.32L296,626.9l-1.21-.92-1.13-1.25-.27-2.25-.58-1.23-1.35-1.14,2.59-1.78,1.51.46,1.43-.49,1.11.25.88-.45-.2-1.69.62-.37.33-1.6,2.41.6,3.44,2,1.12.13.45-.45,2.69,1,.76-.12.06,1.82.8.16,1.4-.37.82.33,1.25,1.49,2.12.8,1.51-.78,1.71-.34,1.3-.45,1,.31,1,1.25.46,1.43,1.88,2.37-1.18,1.06-.36,1.52,1.14-.29.58.67-.42,1.38,1.43,1.64-1.06.2-.58,1.55,1,2.17.92,4-2,.26-.56.58.32,1-.5,2Z"/><path class="cls-1" d="M284.53,607.78l1-2,5.39,1.28,1.3-.85,1.58.32,1.76,1.67,1.53.4,1.76-.42.79,1.63-2.31.57-2.14-.61-2-1.54-2,.65-.89-.19-1.3.36Z"/><path class="cls-1" d="M291.42,620.1l-2.37-2.67-2.06-.86-.93-1.65.15-.72-1.35-1.42-.14-1.11,2.76-.08,1.62.58,1.42-.2,9.19,2.44-.33,1.6-.62.37.2,1.69-.88.45-1.11-.25-1.43.49-1.51-.46Z"/><path class="cls-1" d="M419.05,680.94l-1-.67,1.81-5.27,8.87-.22.17,5.6-8,.25Z"/><path class="cls-1" d="M473.37,505.21l2.51,1.2,3.07-1,3.05-.34.08.88,2.06-1.12-.19,1.58-5.72,1.77-.12-.82-5.11.09Zm5-31.53-.4,3.37-.75.77-2.28.41h-2l-4.23,2.29,3.16,2.22L470.05,484l-2.1.45-2.48-2.15-.5,1.23,1.4,2.8,2.35,1.94-1.24,1.38,2.58,1.84,2.19,1,.61,2.79-3.86-.56,1.63,2.29-2.4,1,2.3,4.08-2.63.59-3.63-1.54-2.14-3.71-1.23-3.19-1.89-2-2.43-2.5-.48-1.38,1.39-2.72,0-1.66,1.11-.94-.14-1.32,2.37-.89,1.23-1.36,2-.3.45-1,.67-.31,2.76-.43,2.66-2,3,1.13,3.23-1.27-.53-2.47Z"/><path class="cls-1" d="M373.05,265.15l3.86-.4,1.32,1.56,1.95-.8,1.89.89,3.39,3,1.33,5-2.08,1.14-2.45-1L378.81,273l-.28.89,2.45.86.91,2.46,2.06-.67-.36,1.79-2.23,2.13,2.71-.78,4.21-.39,1.76,1.56-.31,2.08-4.48,2.21-.92.87-3-.25,1.79,1-2.57,2.86-2.17,2.58-2.46,5-.17,3.42-1.76-.49-2.49.64.82,3.23-1.6,3.92-1.49-.12-.3,4.53-3-.86.56,2.46-1.22,1.4-2.23-.12-1.85-.83.05,3.78-1,2L358.52,317l-1.37.83,1.25,2,.43,3.58-1.28,3.87-3.17-.37-.22-2.26-.35-3.42-1.23,3.23-3.08,1.42,3.91,2.17,2,1.22-6.32,1.9-6.39,1.21-5.63-1.19-1.75-1-2.77.58-5.43,2.93-5.68.45-1.25-.65-2.94-.63-3.07-.88-3.48,1.31L308.27,336l-3.09,1.88-5.51.78-2,3.64-3.66,2.55-4.32,3-2.74-2.05.4-5.54L284,336.91l.55-3.64,2.78-4.61,2.48-7.18,2-3,3.51-3.22,2.15-5.17,3.53-1.82.74-2.12,6.06-2.28,3.21.87,2.18-.84,3.48-2.27-2.68-.33-1.2-.25-1.54-.76.18-2.66,2.9-2.14,2.69-1.1.93,1.13.86,3.39,1-4.12.67-2.14-1.5-.81.38-1.76,5.08-1.36,1.16-1.79,2.5-2.86,4-4.22,1-2.37,2-1.06,1.25-4.18-.72-2.33-1.43-2.68-1.37-2.44,1.19-1.8,2.66-2.84,2.45,2.09,1,1.86-.1-4.58,1.53-2.76,2.06-.41,3.46,2.64,3.56,2.21,2-.39,1-2.73,2.27,0,4.5,1.12,1,.74,2.1-1.18,2,.87,1.74,1.41,1.12,1.67-1,1.42,3.51-.11-.64,2.31.29,1-.36,2.09,1.12-2.9Z"/><path class="cls-1" d="M28,357.93l.08-3.4-.6-3.41.3-3.2,1.1-4.42,1.17-.93,1-.23.61-1.44,3.68-.36,1.26,6.77,1.37-1.1.08-1.07.75-1.36L39.4,341l1-3.13.42,2.36,2.27-2,.9,4.83.92,4.79-3.14,2.8-4.5,3.71.35,1.55-.3,2.36.68-.11-.13,2-2-.94-1.65-1.43-.82.35-.65,1.16-1.22-.13-.52-1-.39.73L30,358.4l-1.36-.86Z"/><path class="cls-1" d="M28.86,375.48l.89-2.13-.11-1.93,1.58-1.19.21-1.13v-1.35l-1-1.84.46-.71.21-2.2.48-1.89,0-1.87,1.22.13.65-1.16.82-.35,1.65,1.43,2,.94,0,.68,1,.47.43,1.42-.19.78.39.61.29,2.71.75,2.25.88,1.21.59.17.27,1.8.1,1.46.48,1.22.63.66.2,2.81.17.88-.19,2.24-.34,2.31.06,2.4-.53,2.39L42.29,387l-.73-.15-1.06-1.22-.42-1.26-.82-.61-.16-1.18.28-1.46-.27-.41L38,381l-.12-.52-.77.72-1.55-.69-.72-.47-.61,0,.28-2.3-1.3-.06-.29-1.1-.44-1.12-1.76,2-.25-.73-1,.25Z"/><path class="cls-1" d="M446.46,457.76l1.14,1.8,1.33,1.25-1.06,2.09-1.76-.86-2.42.42-3.13-.42-1.63.32-.64,1.13-1.4-1-.51,2.17,2,2.14,1,1.46,1.88,1.67,1.52.93,1.64,1.91,3.5,1.43-.28.91-3.7-1.37-2.35-1.53-3.5-1.08-3.43-3.36.68-.45-1.85-1.94-.24-1.69-2.35-.57-.89,2.27-1.19-1.59-.07-1.75.12-.09,2.47-.05.56-.91,1.28.7,1.39,0-.16-1.4,1.16-.65.11-2.07,2.59-1.66,1.17.48,2.87,1.8,3,.55Z"/><path class="cls-1" d="M80.23,415.25,81.5,418,83,422.38,81.45,425,80,426.22l-1.15-.35-.35,2.34-.93,1-1.08-3.56-1.37-1.76-1.21-3-1.72-1.29L72,416l1.29-.91,1.66,4.6,1.52,3.61,1.6.64.35-3.73,1.3-1.51-.94-3.35Z"/><path class="cls-1" d="M436.78,454.28l.73-3.37-.79-1,1.89-.25v-2.08l1.87,1.05,1.31.37,2.71-1,.11-1,1.3-.36,1.48-1,.41.26,1.44-.89.56-1.31,1-.5,3.79.85.6-.65,2.09,1,.5,1.28L456,447l-.93,3.68-1.42,3.76-2.58,1.43-2.18.14-2.44,1.73-1.18.94-3-.55-2.87-1.8-1.17-.48-.87-1.61Z"/><path class="cls-1" d="M812.9,437.27l-.56-.32-3.78,1.81-3.61-1.26-3.31,1.32-5.58.29-1.68-1.87,1.58-3.1,4-7.12,4.8-.19,3.63-1,2.37-1,1.43,0Z"/><path class="cls-3" d="M652.84,390.19l6.72.72,2.79,3.41,2.77.54,1.8,2-2.12,2,4.63,3.23L674,401l5.69-2.42.2,4.08,2.43,5,3.61-2.15,3.92-1.68,5-2.88,3.47-4.89,3.09-.38,2-2.75,3.32-4,1.58-3.49L707,383.56l-2.67-1.78-1.5-1.88.32-3.25,3.19,2.49.81.64,3.13-2.42.52-3.21,1.72-3.34,1.24-3.59-2.32-2.44-1.93.62.78-3.86-1.64-6.4-1-7,2.13-2.8-.88-4.43,3.19-.06,1.35,2.83,1.93-4.26,1.69.88.35,2.15L720,344l-1.65,2.59,1.1,8,2.36,1.81,2.56,5.35,1.86,1.93,2.54,4.92-2.16,2.68,3.92,3.92.91,2.26,1.8,1.09,0,3.11-6.94-3.5-.48,1.23,2.12,3.08-3,.49-1.59-3.45.57-2.17-2.47-5.08-1.65,1.9-1.57,4.07-2.26,3.58-2.81-2.16-1.07,1.84-3.14,1.73,1.87,4,3.39-1.07.16,4,.9,2.3,2.22-1.6,1.87,3L723,395.3l3.3,2.48,1,2-1.48,2.9-2,6.1,2.74,2.73.8,4.65L726.18,425l1,9.57,0,5.79-.68,6.92,1.39,2-.65,3.12-1.51,5.25-1.2,2.14,1.31,4.53,4.28,4.85,2.45,3.44,1.26,6,4.43,7.65-1.53,2.35.44,5.33,1.81.26-2.32,5,.49,4.49-.69,2.95-5.43-.52-4.91-4.59-3.76-3.09-2.35-.79-4.18-2.3-4-4.68-2.18-2.14-6.59-2.72-6.51-7.05-4.45-4.53-3.36-5.3-3.26-3.37-3,7.73-2.62,1.92-7.59-.86.58-3.2-2-.72-6.16.19.29-5.09,6.92-7.37-3.13-3-3.21-.28-2.63-2.9-3.32.24.14-8.05,3.62-3.54-.35-7.86-1.58-6.26-.77-7.32-2.45-2.8.17-5.16-3.73.75-3.21-1.52-3.93-2.29-.31-3.27,4.5-4,2.06-4.28Z"/><path class="cls-1" d="M366,417.5l-.16,3.64-3.08,4-6,1.89-4.14-1.67,3.6-4.62-.39-5.35,4.77-3,2.63-1.88,0,2.77-1.13,2.54,1.81.27Z"/><path class="cls-3" d="M581.66,450.69l2.3-2.87.7-4.18,2.15-1.44.84-1.85,2.43-1.29,4.79-.49,2.72-1.51,6,.91,2.33-1.78,2.73,3.38L611,446l1.21,3.89,1.78-.52.19,3.53,3.26,2.6,2,2.56,2.9-1.35,2,2.58-.5,6.51,3.05.94,3,1.52,4.36-.81,2.46,3.8,2-.69,1.51,1.78-3.54,6.52,1.65,6.28-7.42,4-4.48,2-4.41,2.48-4.45-4.43-2.15.45-2.38,2.81-2.61,4.79-5.3,1.53-5.48-1.08-4.24,1-4.56-2.83-5.63-4.49-1.65,1.95-3.08-.14L580,495.8l-3.18-1.26-1.15-2.46-1.19.68-.9-3.72-3.5-2.47-5.65-.08-4.5-3.08-.77-4.1,1.08-2.59-1.51-2.57-3-.14-4.81-4.35-3.6-2.74,0-1.8-3.52-4.79,1.7-2.55,1.36,1.47,2.72,1.22,2.62-.66,1.16-.82,2.23-5.65,1.06-1.07,1.66.76,0,2.94,3.3,1.16.71-.73,2.8,2.73,3.67-1,3.53.81,5.14-2.31,4.42-4.69Z"/><path class="cls-3" d="M555.74,474l3,.14,1.51,2.57-1.08,2.59.77,4.1,4.5,3.08,5.65.08,3.5,2.47.9,3.72,1.19-.68,1.15,2.46L580,495.8l-2.34,1-2.72,1-.9,6-7.4,3.39-14.71-4.18-7-.7-5.17.74L536.08,498l6.6-8.65-.84-6.38-1.73-3.3,1.51-2.1.62-3.83,1.22-1.48,4.38-1.46,1.77.55,1.33-1.67Z"/><path class="cls-1" d="M361.82,351.39l-1.53,2.93,1.16,3.94-3.92,2.83-7.24,1.23-2.15.2-2.46-1.74-5-3.83,2.94-1.18-3.16-4.12,3.86.65.57-1.38-3.43-2.85,2.78-2.36,3.12.57,1.46,4.34,4-1.38,1.85,2.21,4.11-1.42Z"/><path class="cls-3" d="M525.12,506l-.22,1.78-1.65-.14.14,3.52,1.18.18-.83,1,.21,1.34,1.71-1.34.66,1.85.24,8.47-5.11-7.37.72-2-.36-.18.4-2.64-.29-3.94.19-1.43.09-.09,1.33-.48.1-1,1-.46.69,2L525,506Z"/><path class="cls-1" d="M439,497.79l-1,4.09.75,1.49-.6,2.66-3.25-1.59-2.09-.36L427,502l.39-2.62,4.68.1,4-.91Zm-25.4-13.29L416,488l-.32,6.67-1.79-.26-1.56,1.72-1.51-1.3-.26-6.07-.92-2.86,2.1.21ZM423.69,456l5,.91-.16,2.51,1,2.07-2.85-.49-2.73,2,.37,2.48-.34,1.46,1.35,2.48,3.59,2.27,2.19,4,4.5,3.65,2.92-.35,1,1-.94,1.12,3.57,1.41,3,1.16,3.59,2.16.52.88-.47,1.89-2.43-2-3.41-.39-1.24,3.44,3,1.51-.15,2.67-1.6.5-1.63,4.54-1.61.57-.14-1.53.53-2.77.74-1.17-1.82-2.73-1.43-2.4-1.65-.46-1.33-2.05-2.53-.68-1.81-1.88-2.82-.1-3.1-2.06-3.61-3.07-2.66-2.77-1.35-4.93-1.83-.52-3-1.57-1.65.72-2.06,2.37-1.51.38.4-2.19-2-.63-.92-3.9,1.23-1.54-1-1.89.15-1.42,1.51,1.08,1.69-.25,1.94-1.74.62.79,1.66-.2.7-2.05,2.59.54,1.5-.91.18-2.08,2.12.61.35-1,3.34-1.08Z"/><path class="cls-1" d="M65.77,401.48l1.08,3.42.3,3.36-.58,1.85L65,407l-1.22-.72-.61-3.2.12-4.07,1-.35,1.09,1.65Z"/><path class="cls-1" d="M524.9,507.75l.22-1.78,5,.23,5.93-8.21,3.62,5.17-.5,1-7.14,5.62,5.57,3.23-1.07,1.35-.15,1.87-2.9,1.87-.45,2.11-1.33,2.15-4.84.9-.34-.65-.24-8.47-.66-1.85.16-1.64Z"/><path class="cls-1" d="M663.55,156.74l1.33-.53,4.37,2.61-.53,1.77,2.39,2.36,3.5,1.39.16,2.86-2.34-.21-4.22-2.66-.8-2.5-3.05-1.89Zm-32.2-25.56,4.86,1,1.78-1,4.91,1.76,6.12,5.15,5.41,7.47,9.41,6.14-.07,2.95-3.5.14,5.42,7.63,5.09,5.38,2.71,5.25,1.35-4.26,9.84,3.94,3.49,3.32-.87,2-5-1.74-.1,2.75-2.55,1.43L676.21,176,672,173.38l-4.76-4.64-5-3.36L656,156.8l-1.76-4.56-11.3-4,.46-2.87L634.5,140,631,138l-7.52-1.56-4.71,1.53-4.12-1-3.93-3.62,4.66-3.32,3.77-.65,7.46,2.66Zm-40.68-3.08-1.22-2.55-4-1.6,4.12-2.39,5.86,4.44,7.09,1.68,1.64,6.17,6.55.74,3.26,3.94-4.2,1.4-4.9-.94-3.26-3.56-7.06.68-4.32.05,1.26-5.13Z"/><path class="cls-1" d="M612.52,385.93l-.62,2.32-.57,6.37,1.46,4-.89,1.06-2.31-1.11-3.25,3.33-3.3-2.72-1.23,1.26-3.25-4.19-5.42.16-4,4.6-2.51,3.46-5.37-1.42-3.32.35-6.27.54-.76.05-5,8.1,10.84,15.82-1.36,1.36-4.26-1.88-2.76.23L565.56,431l-.43,2.4-.82-1-.39-2.36-1.51-1.15-4.35.84-3.72-3.1-2.29-.05-1-1.39,3.09-1.47-1.87-3.31,2-2.38,2.87-1.09-2.27-4.61L552.63,410,550,412.19l-3,.55-2,4.1-2.09,2.64-1.88.19L540,417.2l-3.54-1.86-2,1.41-4.12-1.62-.32-4.37-1.33-.43-.7-6.22,4.29.86-1.65-3.44,2.25-8.27,3.79-2.84,7.46-1.09,4.12-.56,1.19-3.82L553,381.7l4.65-.51-.34-1.8,3.28-2.78-1.09-2.4-5.9.63L554,371l-1.35-.69,1.1-3-3.91-1.21-.27-2.24,6-9,0-1.93,3-6.64-.12-3.39,3.82-3.18,4.74,2.82.7-3.21,3.44-1.84,2.15,2,1.26-2.47-.35-9,.84,1.86,5.15-.73,14.22,2-1.56-3,4.39-2,.67-4.7,1.49-1,3.2.28,1.71-1.44,2.43,0,.85-4.11,3.4.09,2.2,4.09-.55,2.74,4.46,3,1.32,3-4.12,5L621,340.7l.18,2.26-1.48,7.28,8.74,3-.1,3,2.48,1.67-1.69,1.43-2.36.33-3.14,4.17-3.28,4.87-.28,1.47-4.49,2.65-.37,2.39,1.92,2.62-4.81,3.43-.92,2.38Z"/><path class="cls-1" d="M588.64,657.1l3.63,2.72L588.94,663l-1,2.42-1.9,1-.3,3.55-1.43,2.47-.64,3.45-1.93,2.26-8.09-2.11-.68-2.58L552.72,670l-1-.25-.66-4.93,1.26-2.33,2.16-3.86,1.42-4-3.06-4.7-1-2.18L549,645.2l2.73-3.77,3-4.19,2.77-.05.44,2.65,2,1,3.55-1.17,7.12,1.81,1.61-.51,1.17-.55,1.22.14,3.44-.85,1.14-2.51,4.22-3.7,2.32.82,3.42-1.34L585.72,640Z"/><path class="cls-1" d="M612.52,385.93l-1.11-2.29.92-2.38,4.81-3.43-1.92-2.62.37-2.39,4.49-2.65.28-1.47,3.28-4.87,3.14-4.17,2.36-.33,1.69-1.43.68,1.21-.7,6.8.9,2.5-2,4.41,1.71,3.47-2.71,2.77-.72,2.83-.31,4.65,1.17.46.21,1.73L625.22,395l-4.08,2.37-2.35,3.43L617,398.25l3.2-2.48-.24-2.25,2.12-1.84.25-6.5-4.58,1.48-.7,3-3.05.66-.45-4.85Z"/><path class="cls-1" d="M792.51,371.93l-2.44.1-4.45-1.4-4.78-3.47-2.31-6.56.77-7.56,1.54-4.48,2.34-3-2.3-5,2.2-3.49,2.83,1.16,4.6,5.13,1.32,12.23,2.75-.06-.89,6.08.43,6.34Z"/><path class="cls-1" d="M655.4,182.6l4.22-3.21,2.72-.82L668,179l3.46,1.92,2.68,4.12,3.52,3.84,2,4.11-2.51.08-4-1.36-4.44,1.23-2.09-3.29-3.11,2.42-.56-.31-.57-1.86L659.45,188l-1.48-3-1.1-1.79Z"/><path class="cls-1" d="M456.44,475.87v1l-.48,0-.55-1.76-1-.36-1-1.21.5-1.23.81-.51.22-1.74.6-.39.63.61.73.19.61.71.64.12.87.79.51-.13-.19,1.29-.33.67.19.35-.79.34Z"/><path class="cls-1" d="M577.64,496.85l1.7,1.61.13,1.26,2.77,2.82-2.67,1.65-1.91-1.7L574,503.91l.9-6Z"/><path class="cls-1" d="M780.84,348.56l-1.44-3.41-3.3-3.31L771.87,343l-4-3.17-4,1.1-1,3.64,1.18,2.26-.53,3.09-1,.89,1.06,7.49L760,355.19l-3.87-5-1,3.2-2.46-1.84-1.76,1-1.21-2.33-1.65-6.4,1.06.36.69-2.53-4.86-3.1-.09-3,3.84-.26,4.18.8L754,330l3.94.92.53,4.14,1.21,2.68,3.51-4.11,5.52-.29,4.09-.28,3.4-1.63,3,1.12,3.87,4.57-2.2,3.49,2.3,5Z"/><path class="cls-3" d="M524.66,503.08l-1,.46-.1,1-1.33.48.17-4.45.84-4.12,0-.2,1.82-.42,1.26,1.64-1.53,2.63Z"/><path class="cls-1" d="M326.29,659.46l-1.4-.18-5.29-3.14-4.47-4.43-4.22-3.41-3.2-3.74,1.41-1.27.43-1.32,2.63-2.12,2.66-1.76,1.12.1,1.41-.29,1.87,3.3-.54,1.85.92,1.19,1.48.28,1.25-1.73,1.47.37-.37,1.34.31,2.38-1.34,1.91,1.42,1.55,1.65.59,2.07,2.33v1.88l-.56.51Z"/><path class="cls-3" d="M442.56,574.51l-3.23,2.12-2.83-2.49-7.58-1.61-2.2-3-3.78-2.11-2.16,1L419,565.75l-.23-2.11L416,560.11l1.77-2.13-.48-3.11.5-2.74-.39-2.26.67-4.09-.31-2.31-1.55-4.35,2.11-1.23.31-2.12-.53-2.05,2.91-2,1.26-1.66,2-1.54.06-3.85,5.09,1.41,1.76-.56,3.61.55,5.84,1.7L443,532l4,.53,6.32,1.31,4.92,1.82,2-1.6,1.77-2.6-1.51-3.64,1-2.63,2.71-2.83,2.79-1.18,5.83-.05,1.81,1.93,1.57-.3,1.49.57,4.28-.32,1.34,1.4L482.18,527l1.05,2-.54,3.28,2,3.68,3.1,17.48,3,18,1.53,9.74-5.47,1.13.23,2.06-20.22-6.05-19.76-7Z"/><path class="cls-1" d="M751.57,491l2.06,5.45-.69,3.11-2.34,4.74-3.44-1.71-4-5.9-2.57-9.29,3.61-.36,3.26,1.24Z"/><path class="cls-1" d="M527.68,799.74l1.8.89-1.85,2.31-1.05,1.51-3.11,1.18-1.13,1.48-2,.74-3.84-2.44,3.14-3.08,3.11-2.12,2.63-1.3Z"/><path class="cls-1" d="M451,413.66l-.51-1.21V411l-1.42-.52-3.14-.27-1.44-4,2.83-2.14,4.65-.69,2.54-1.12.65.92,1.53,0L460,404.8l.88,2.12L459,409.08l.08,2.93-2.63,2.61-2.79.61-1-1.37Z"/><path class="cls-1" d="M402,439.66l.64,1.14-.2,2.21-.95.1-.73-.45.4-2.82Z"/><path class="cls-1" d="M444.49,406.19l-.67-3.74.67-3.36,2.12-2.2,3,3.21,2.12-.59-.45-3.88,2-1.41,1.3.31,2.75,1.22,2.15-.58,1.59.76.95,2.28,1.74,2.61-2.33,2.7L460,404.8l-3.28-1.68-1.53,0-.65-.92L452,403.36l-4.65.69Z"/><path class="cls-1" d="M355.29,508.41l2.18,2.47,3.93.18,4.13,1.62,1.78.26,1.25,3.37,0,3.06,1,5.42,1,1.17-.95,1.86-5.67.24-2.12,1.61-2.53.13-.59,3.66-5.29,1.28-2,2.25-3.74.79-4.46,0-7.61,2.39-.86,5.85-.68-.13h0l-.3,2.66-2.78-.37-1.62.84-2-.41-1.51-1-3.83-.28-2.13,3.5-1.46,0-3.23,5.69-7.29,3.76-2.79,6.36-2.31,1.71-.89,1.61-10.49-2.43-.08,0,.69-2.19,2-.82,2-2.11.05-1.73,2.28-3,3.16-2.41,1.68-.38,1.77-2.53.64-2.57,2.22-2.6,3.31-1,3.78-4.32.09,0,2.57-1.36,4.17.4,4.05-2.6,2.41-.85,4.32-3.38,0-6.36,2.34-3.93,1-2.49,3.25-2.82,4.53-1.49,3.38-1.52,3.5-4.69,1.72-2.85Z"/><path class="cls-1" d="M470.18,440.9l.58-.93,2-1.06,2.79.86,1.37-.2,1.83.89.25,1.72,1.42.45,1.08,1.9,1.51.89v.8l.76.31-.76.63-2,.44-.52-.58-.58.59.48.81-.47,1.82-.12,1.85-.7.77-1.21-2.07-.22-2.19-.7-2.12-2.69-2.39-1.59-1.79-1.39-1.19Z"/><path class="cls-1" d="M633.24,702.43l1.51,1.38,1.49,2.52,1.16,5.25,1.44,1.59-.41,2.47-.85,1.78-1.87-2-.91,1.8,1.11,3-.4,2.17-1.4,1.69-.25,4.07-2,6.25-2.62,7.4-3.48,10-2.32,7.1-2.71,6.14-4.35,2.63-4.75,3.53-3-.09L604.6,771l-1.31-1.86-.12-3.84-1.7-2.93-.36-3.05,1.06-3.56,2.47-1.63.05-1.5,2.6-4.32.51-3.06-1.22-1.7-1-2.5-.46-4,1.81-3.22.64-3.16,2.63-1.15,2.91-2.06,1.92-1.58,2.3-1,2.88-3.82,4.16-4.61,1.44-3-.82-1.69,2.24-.37,2.64-4.46-.11-2.85,1.54-2.84Z"/><path class="cls-3" d="M75.15,282.44l-4,.34-3.28,1-6.06,3.26-2.2.86-2.43,2.44-2.14,3-3.39,3.33-3.1,5.76-2.4,3-2,3.63-.66,6.51-1.54,3.57,1.69,3.72.93,3.67,1.3,3.31,1.21,2.68,2.22,1.89,2.61-.75,3.55-2.39,1.36-.1,1.69,2.52,2,4.47.78,4.47,1,2.68-.59,1.9-2,1.5-3-.58-2.71.95-.48,1.53-1.89.78L48.19,353l.72-2.2-.31-1-.27-.92-2.8.32.27-1.35-.31-.46-.58.56L44,343.13l-.9-4.83-2.27,2-.42-2.36-1,3.13-.57,2.76-.75,1.36L38,346.22l-1.37,1.1-1.26-6.77-3.68.36-.61,1.44-1,.23-1.17.93,3.34-10,.94-3.92.54-5.32-.62-2.79-2-3.12-.64-2.44.83-4.79.58-4.79,1.78-6.68.54-4.63,2.06-7.77,2.24-6.12,1.25-2.2.42-3.31L42,269l2.27-3.59,3.22-7.52,3.25-4.41L53.13,251l.2,1.6,1.4-1.27,1,.63,1.61-.81,2.36-2.9,1.94-1.41,2.66-3L69.86,237l4.79-6.91,3.55-3.75,3-5.22,1.42-1.38,2.8-.27,1.81-3,3.19-3.79,3.77-2.32,1.2-2.83,3.49-3.64,3.15-3,1.61-.6,4.62-3.52,4.39-2.53,1.87-.32,3.25-3.81.4-1.54,2.44-2.93-1.69-.42-2.69,1.2-3.88,1.16-2.68,2.07-4.76,4.38-1.45,1.09-.62.84-1.92,1.07-.24.87-3.51,1.83-1.76,1.87-2.09,1.57-3.5,4-5,3.15-2.57,2.26-2.68,2.25L76.92,216l-.84,2.62-2.73,3-2.61,2.8-.83.22-1.22-1.56.26-1,3.28-2.58L75.91,215l3.43-4.67,2-3.13,3.5-1,2.89-1.61,2.31-2.92,3.38-4.16-.39-.51,1.73-1.64,2.34-3.45,4-3.67.23.28-1.08,2.14,1.13,1.43,2.14-.33,5-4.57,2.53-3.14,3.82-2.35,4-2.31,4.91-2.76,5.3-2.44-2,5.2-2,5.79-.79-.29-5.19,7.45-7.23,11.52-2.78,9.46-1,3.77,2-.56-2,8.18L106,227,104,229.93l-2.7,3.56L98.42,236l-2.88,2.19-1.87,3.07-2,4.63,3.41,1.52-.37,3.9-2.25,4.21L89,259.39l-2.9,3-2.86,4.19-3.33,2.73-2.25,2.52-1.54,4.66L75,280.57Z"/><path class="cls-1" d="M456,477l.48,0v-1l2-1.16.79-.34,1.19-.53,1.68-.41,2.14,1.23.9,3.23-.67.31-.45,1-2,.3-1.23,1.36-2.37.89-1.75-.94-.88-2Z"/><path class="cls-3" d="M308.74,606.36l1.79-.52,1.23-2.67,1.58.22,3.27,2,2.92-.41,1.87.68.88-.94,20,3.17,1.43-3.24-.8-.72-.19-21.36.21-21.53,7.05,1,14.76,12.6,15.51,12,1.06,2.36,3,1.56,2.23.9,0,3.12,5.46-.28-.22,11.24-2.81,3.16-.5,3-4.5.59-6.9,0-1.94,1.6-3.25,0-3.24-.22-1.21-1-2.82.45-4.85,1.57L358.59,616l-4.09,1.75-.78,1.16-2.2.74-2.41-.94-1.49,1-1,3.21-4.39,3.46,0,1.64-1.57,1.84.11,2.82-2.19.42-1.26.43-.62-2.16-1.54.32-.88-.22-1.08,1.25-4-.66-1.36-.95-.71.32-1.43-1.64.42-1.38-.58-.67-1.14.29.36-1.52,1.18-1.06L324,623.15l-.46-1.43-1-1.25-1-.31-1.3.45-1.71.34-1.51.78-2.12-.8-1.25-1.49-.82-.33-1.4.37-.8-.16-.06-1.82.43-1.45-.18-1.95-1.69-1.74-.6-3Z"/><path class="cls-3" d="M751.09,356.22l.93,4.4-.81,3.59,3.48,6.18,0,2.73,4.05.94,3.71-.37,3.09.47,2.64,5.18.12,2.45,2.21.77,3.95-.25,2.19,1.63,1.63,1.94,3.86,1.67,2.31,6.66,2.63,6.79-2.68-2.61-2.08-4.75-2.63-.7L776,388.11l-2.52,0L768.68,385l-4.89-4L760,379.89l.73,5.16.54,8.33L760,395.73l-2,2-3.75-6.53-3.76-2.64-5.63-.76-1.1-1.94-1.54,2.21-4.31.14-3.09-2.75,1.2-1-2.64-2.77,0-3.11-1.8-1.09-.91-2.26-3.92-3.92,2.16-2.68-2.54-4.92-1.86-1.93-2.56-5.35-2.36-1.81-1.1-8L720,344l-2.67-1.63-.35-2.15-1.69-.88.35-2.83,2.87.37,1.49-1.21,3.27,2.3,3.41,2.85L729,348l4.68,4.56.66-5.48,4,2L740,346.7l3,4.23,2.42-2.28,1.25-1.47-.36-4.56,1.72,1.26,1.65,6.4,1.21,2.33Z"/><path class="cls-1" d="M452.55,474.23l-.38-.9L451,476l.49,1.55-.83-.27-1.27-1.47-1.73-.75.28-.91.14-2.83,1-1.34.61-.56,1.09.7.64.61,1.28.34,1.55.8-.23.48-.5,1.23Z"/><path class="cls-1" d="M611,313.81l.28-3.6L609,302.36l-1-5.64,2.13-1.89.79-3.11,2.71-1,.78-3,2-4-3-4.41-3.1.11-4.78-5.06,2.44-2.64.83-2.56,1.54-3.19,3.83.62,2.32-3.83-.89-3.29-.69-4.22.58-3,2.31-2.54,2.5-1.35-.28-3.07.43-4-1.64-3.3-1.47-4.49-4.47-5.34.17-1.87,1.37-1.48-1.31-3.95,4.26,2.05,5.65,3.08,1.92-.57-1.07-2,0-3.28-2.55-2.85.9-2.57,2.69-2.79,1.93.56.2,2.71,2,5.19,2,2.7,3.94,3.16,3,5.88,3.28,4.2-.52,3.52-.21,1.94,3.48,2.74,1.82-.68,1.6-.17,2,3.08,2.92,3.48,2,5,.38,5.76,1.73,6.75,2.51,5.45-1.6,1.07-.28,4.57-3.43,4.26-1.12,3.32,0,5.18-2.32,7-.68,4-3.24.62-4.7-.68-1,1.86-3.94,2.55L634.86,311l-2,3.48-2.37,0-5-4.31-4.42.09-3.19,3.43-3.34,1.14Z"/><path class="cls-1" d="M559.51,717.23l4.07-1.5,6.58-.6,1.38-1,3.75-1.25,1.84-2,3.23-.94,5.74-3.67,4.05-4.08,1,1.76.09,4.63.9,3.78.55,7,1,1.91-1.49,3.77-2,3.82-3.37,3.88-4.91,3.23-6.09,4-6.14,6.5-2.1,1.38-3.84,4.15-2.27,1.6-.51,3.24,2.52,2.64,1,2.28,0,1.28,1-.47-.32,4.3-1,2.24,1.25.41-.9,2-2.36,2.11-4.59,2.55-6.72,3.85-2.5,2.11.35,1.68,1.38,0-.63,2.33-4.15.88-.34-1.76-.69-1.72L544,782.2l1.24-4.95-1.29-2.71-2.42-5.45,5.95-6.19,1.52-3.46.84-.59.66-2.71-.87-1.08.26-3.32,1.08-3.3,0-5.57-2.88-.72-2.63.3-1.2-.81-2.57-.34L537,742.41l-.38-1.57-.59-3,16.61-7.64,3.22,1.33,1.49-.8,2.19.56.37,1.7-1.1,2.38.46,3,3.61,1.8,1.62-3.53,2.34-1.59-.61-5.62-2.39-2.61-2-.91-1.89.58-1.77-5.43Z"/><path class="cls-1" d="M308.74,606.36l-2.77-4-2.42-4.23-3-2-2.08-2-2.71-.63-2.54.44-2.32-1-1.93,1.1.06-2.71,1.78-2,1.44-4.39.39-4.92-.1-2.56.94-2.29-.74-2.64-2-2.78L292,568.3,310.23,573l.36-7.25,1.57-2.24,4.38.55,2-12.56,14.74,3.3,1.13-7.46L350,562.05l-7.05-1-.21,21.53.19,21.36.8.72-1.43,3.24-20-3.17-.88.94-1.87-.68-2.92.41-3.27-2-1.58-.22-1.23,2.67Z"/><path class="cls-1" d="M559.51,717.23l-1.36,3.84,1.77,5.43,1.89-.58,2,.91,2.39,2.61.61,5.62-2.34,1.59-1.62,3.53-3.61-1.8-.46-3,1.1-2.38-.37-1.7-2.19-.56-1.49.8-3.22-1.33-2.92-.43,1.51-4.58,1.66-2-1.22-3.46.91-3.94.86-1.47-1.61-3.48-2.69-1.35,5.38-.56,1.17,1,2,1.61Z"/><path class="cls-1" d="M457.75,807.33l-4.06-2.72-2.11-2.79L450.45,798l-1.32-2.86-1.78-6.19-.06-4.94-.7-2.22-2.19-1.58-2.9-3.28-3-4.88-1.23-2.59-4.62-3.92-.34-3.25,2.73-.94,3.4-.9,3.68-.08,3.39,1.72.86-.36,23-2.14,3.92,1.64,13.66-1,10.34-3.21,4.59-1.69,3.64-.34,2.21.61,0,.35-3.16,1.49-1.7.28-3.58,2.25-2.14-1.45-8.67,2.73-4.19.69L484,777l-5.55.81L478.17,790,477.58,805l-5.07,2.57-3,.58-3.47-.43-2.49-.07-.87-1.64-2.17-.92Z"/><path class="cls-1" d="M380.29,628.84l.23-3.29-5.88-1.44-.06-2.34-2.73-3.35-.58-2.25.52-2.32,3.25,0,1.94-1.6,6.9,0,4.5-.59.5-3,2.81-3.16.22-11.24,6.94-2,14-9.68,16-10,7.58,1.61,2.83,2.49,3.23-2.12,1.71,7.53,1.89,1.1.19,1.55,2.13,1.48-.89,2.21-1.18,10.1.16,6.35L440.46,610l-1.85,6.55,2.21,1.63.15,3.11,3.28-.16-.39,2.31-1.43.4-.09,1.55-1,.18-3.72-5-1.21-.11-3.89,3-4-1.19-2.76-.15-1.46.74-3,0-3,2.15-2.62.19-6.24-2.39-2.43,1.2-2.62-.08L402.51,622l-5.12-1.85-5.5.45-1.35,1-.78,2.75-1.52,1.89-.46,4.28-3.87-2.92-1.85-.07Z"/><path class="cls-3" d="M413.47,663.48l-5.59,1.76-2-.24-2.08,1.05-4.32-.13-2.87-3-1.74-3.44-3.75-3.2-4-.07-4.72-.19.5-7.62-.06-3,1.07-3,1.65-1.4,2.61-2.86-.52-1.31,1.07-1.89-1.11-2.88.24-1.59.46-4.28,1.52-1.89.78-2.75,1.35-1,5.5-.45,5.12,1.85,1.92,1.83,2.62.08,2.43-1.2,6.24,2.39,2.62-.19,3-2.15,3,0,1.46-.74,2.76.15,4,1.19,3.89-3,1.21.11,3.72,5,1-.18,2.14,1.75L444,628l-.19,1.62-4.19,4-1.24,3.15-.63,2.53-1.07,1.14-.93,3.4L433,646l-.74,2.45-1.13,2-.44,2L427,654.23l-3-1.82-2,.15-3.13,2.87-1.55.08-2.49,4.61Z"/><path class="cls-1" d="M24.65,391.48l.52-3.09.66-4.07.85-2.51.49-3.46.91-4.41.72,0-.31,1.46.37.12.61,1.46,1-.25.25.73,1.76-2,.44,1.12.29,1.1,1.3.06-.28,2.3.61,0,.72.47,1.55.69.77-.72L38,381l1.07-.29.27.41-.28,1.46.16,1.18.82.61.42,1.26,1.06,1.22.73.15.52,1.78-.49,0-.88.63-1.12,2-1.61.21-1.61,1.08-1.6,1.62-.8,1.32-1.51,2-.62-.37-1.64,1.28-.78,1.44-1.25,0-.83,1.36-.27,1.47-1.16-.33-.32-1.79.39-1.71-.29-2-.85-.64-.23-4.5Z"/><path class="cls-1" d="M402.3,422.62l2.5.15.57,1.7-.76,4.61-.79,1.89h-1.87l.47,5.29-1.73-1.2-2-2.25-3,1-2.29-.49,1.68-1.31,3-7.32Z"/><path class="cls-1" d="M439.44,329.12l6.29,1.74-1.57,2,3,2.29L445,338l-1.23.88-.5-3.53-2.82-1.2-2.05,2.36.27,3.72-1,2.56-2.26-.68-2.28.78-2.61-2.14-.77,1.49-1.07.41.42,3.25-3.64-.19v2.8l-1.82.25-.73,3.67-1.24,5.71-2.45,7.3,1,1.62-.56,2-2.21.1L416.33,374l.66,6.61,1.75,2.41-.33,5.93-1.87,3.57-1,3-1.91-3-5,6-3.55,1.22-3.66-2.58-.82-5.41-.48-11.57,2.25-3.17,6.07-4.22,4.2-5.31,3.42-7.17,3.79-10,2.64-4.09,3.84-6.89,3.29-2.84,2.85-.35,1.38-4.58,3-.58ZM424.07,299.2l-1.82,2.52L420,301l.43-1.38-1-1.38,1.87-1.42.93,1.67Zm-8.74-7.33,4,2.93-2.05,2.36.17,3.62-.78,1.06.2,4.06-1.39.39-2.91-2.66.79-1.83-1.81-1.23-2.43-3.93-1-3.74,2.37-1.91.71,1.64,1.32-.21.1-1.68,1.29-.35Zm5.41-4.72,2.25,1.12-.39,2.87-2.49,1.25-3-.19-.48-1.27-1.32.15-1.42-2,2.35-1.79,1.53.87.44-1.6Z"/><path class="cls-1" d="M702.79,379.9l1.5,1.88,2.67,1.78,1.28,1.93L706.66,389l-3.32,4-2,2.75-3.09.38L694.8,401l-5,2.88-3.92,1.68-3.61,2.15-2.43-5-.2-4.08,0-2.44,2.89-1.83,4.58-1.38,1.72-1.62,2.49.49,2.35-2.3,3.3-1.58,3.12-3.68Z"/><path class="cls-1" d="M638.16,510.69l.08,4.2-1.86,1-.29,1.68.46,2.78,1.89,2.74-.11.83-1.82,1.27-1.72,3.46.59,2.53-.5,1.61-2.54,1.66-1.11,2.23.8,1.87-1.47,2.59-2.46,1-2.17,3.33L624.07,547l-2.63-2.44-6.28-5.75,10.3-12.37-1.51-11-3.29-2.06-.76-1.92.22-2.67-.88-1.89,1.28-2.09-1-.17-1.15-3.2,1.9-1.36,3.23,1.93,2.91.15,3-1.41,2.62-.81,3,1.34,1.77.75,1.62-.45.51,1v3.76l0,1.74ZM618,495.61l-.06,1.17-1.49-1.06.28-2.31.66.07Z"/><path class="cls-3" d="M640.8,392.79l3.38-.61,3.49,1.94,5.17-3.93.92,6.41-2.06,4.28-4.5,4,.31,3.27,3.93,2.29,3.21,1.52,3.73-.75-.17,5.16,2.45,2.8.77,7.32,1.58,6.26.35,7.86-3.62,3.54-.14,8.05,3.32-.24,2.63,2.9,3.21.28,3.13,3L665,465.53l-.29,5.09-3.1,1.28-3-2.18-4.63-.87-5.61,6.55-5.48,5-4.54,4.77-1.65-6.28,3.54-6.52-1.51-1.78-2,.69-2.46-3.8-4.36.81-3-1.52-3.05-.94,6.9-2.49,2.83-3.55,2.27-1.2,0-1.55,2.45-1.69,2.83-5.7-2.42-3.73,0-4.08,2.2-2.26-.54-1.51,1.8-2.9,1.35-.76.22-2.39-2.07-2.31-.76-3.8.91-3-3.23-1.47,2.64-2.82-.48-2.31-1.4-1.41-.14-3.23-2-1.62-2.05-1,0-3.51,1.89-4.14,2.31-4,.52-2.31Z"/><path class="cls-1" d="M28.92,447.52v-2.91L30,441.16h1.39L31,439.64l.54-2.37-.34-3.65L30,431.76l-1.53.53-1.69-.89-.6-.93-.86.43-.54,4.77-1-.79-.78-.06-1.22-2.1,1.42-3.52-.81.1-.55-1.92.8-2.79-.67-2.37-.18-1.83-.9-2.18-.75.79.24-1.25.74-.59.82-.45.5-1L23,416l.05-1.7,1.29-1.76,1.07,1.58L25,417.47l-.72.81.7,2.21.46.12-.18,2.45,1.3,2.15,1.73,1,2,2.12,1.7.38,1.09,3-.39.25,1.2,2.86.54,2.91-.11,2.9.11,3-.73.07-1.14,3.74-1.33.42-.6-1.88Z"/><path class="cls-1" d="M-1.45,499.08l1-1.29,3.66-1.38,4.45,3.87,5.57,0,2.37-1.73,1.27-4.38,1,.8,1,5.45,0,3.81.91,3.42-.26,7.91,2.2,4,2.35,1.19.87,2.49,2.2,2.26,1.74,5.72-4.1,2.22,1,1.44.82,4.87-3.08-4.22-.73.16-3.17-2.7-5.1-1.73-1.06,2.05L12,534l-.57,3.24-2.54-1.28-.69,2.2L7,537.88v6.61l1,5.72-.46.44.84,3.4.53.76.38,2.79.56,2.13,2.85,3.63,3.79.5-2.18,7.7,1.57,2.57,2.33,1.51,1.55,12.16-1.07.82L6.81,547.54-.7,505.44Z"/><path class="cls-1" d="M430.45,433.38l-1.62-3.07.06-1.75-1-2.61-1.28-1.68.7-1.42-1-2.48,1.87-1.67,4.28-2.84,3.4-2.18,3,.41.42,1.18,2.8-.4,3.66-.07,5.27-1.14,1.59.21,1,1.37.63,2.15,1.25,1.69.45,2-1.55,1.4,1.45,2.08.56,2.19,2.54,4v1.46l-1.42.92-2,4.73,1.29,2.06-.76-.14-3.44-1.3-2.18,1.14-1.61-.24-1.72,1.4-1.93-1.5-1.22.89-.23-.27-1.86-2.23-2.42,0-.53-1.52-2.26-.26-.3,1.35-1.87-.82,0-1.4-2.42-.16Z"/><path class="cls-1" d="M93.48,449.76l1.19,2.41-.08,1.56-1.49.06-2.13-3-1.75-2.21,1.14-2,.84,0Z"/><path class="cls-3" d="M632.3,173.23l.58-.55.45,1.44,2.51,1.62,2.25,1.13,3.48-.13,2.08,2,1.21.72L647,181l2,2.69,2.1,1.82,2.21.27.75.51.11-1.57,1.16-2.18,1.47.68,1.1,1.79,1.48,3,2.91,1.85.57,1.86.56.31-.16,1.93,1.13.62.87,1.29-.89,0-.06,1-.39,1-2.62-1.43-.95-1.05-.78.26-3.09-1.34-.72.18.34,2.32-.65,1.76-4.42-3.61-4.41-4.58L642,187.63l.77-1.77-1.32-3.35-2.35.54-4.95-5.89-3.53-1.44Z"/><path class="cls-1" d="M345.39,475.31l1.57-1,1.63-.43.48,2.61,2.18.4.74-.51,2.12.55.63,2.68-1.94,1.05-.68,3.88-.73.62-.54,2.33-1.72.12,1,3.26-1.6,3.08,1.11,1.72-.75,1.26-1.76,1.61.06,1.71-1.81,1-2-1.09-2.14.15,1.29-3.77.18-3.13-1.65-.81-.57-2.07.92-3.18,1.86-1.49.64-2,1.34-2.83.31-2.12-.4-1.93Z"/><path class="cls-1" d="M48.53,654.94l3.08,1.8L55.73,660l4.09,5.83,0,1.66,1.29,3.88-.21,4.19,4.54,6.92.19.17,1.86.29,3.14,3.54.9,2.13.36,3.2,4.23,5.83h.08l1.73,2,0,.42L54.14,664.62Z"/><path class="cls-1" d="M599.23,514.81l-1.73-3.23,0-3.07.83-1.14,1.82.74,1.28,2.67.36,3.25-.95,1Z"/><path class="cls-1" d="M457.82,445.57l1.2-1.36,2.15.11,2.1-.46,1.8.85.94-1,2.29-1.07.52-1.36,1.36-.35,1.11.22,1.39,1.19,1.59,1.79,2.69,2.39.7,2.12.22,2.19,1.21,2.07,1.76.47,1.36-1.25,1.77.38.44,1.24-1.34,1.54-1.16-.16.67,6.18-2.19.06-3-1.1-3.82,2.21-1.45,1.69-5.25.95-2.88-.18-1.3.65-1.42-1.83-.81-.74.65-1-1-.44-.89,1.33-2.32-1-.65-2L454,459l-.67-1.52-2.21-1.63,2.58-1.43,1.42-3.76L456,447Z"/><path class="cls-1" d="M562.84,139.25l4.89-5.83,2.61,4.69,8-.5,1.8-4.45,3.14-1-.51,3.19,5.26.93L584.78,138l-4.64,1L575.65,141l-3.94.5-6,2-2.89,3.19-6.23,2.09-4.18-1.49-1.08,1.82-1.64-.82,2.24-1.86,3.32-2.64,4.31-1.71ZM451,413.66l-5.27,1.14-3.66.07.26-2.3,3.6-2.33,3.14.27,1.42.52v1.42ZM409.23,138.94l-1.58-1.09.45,3.08-6.37-.64-4.94-3.77,2.33-1.94,4.1-.53V130l1-.87,2.48.14,2,1.49,3.37,1.34.43,1.84,2.49.84,2.92-.32L419,136l-.76,1.5,3.08-.69-.78-2.08,1.74-1.6-3,16.67-4.83-3.73-5.6-4.52ZM418,157.76l2.14,0,.07,1.4-2.71,1.49Zm-2.54,0H418l-.5,2.93-.27.15-1.56-.17-2.53-1.46.23-.58Zm54.09,33.4,1.75,1.56,1.77,2.48,0,.32-2.66,0-1.71-1,0-2.5Zm-15.24-.71,2.72-.36,1.51,1.63.57,2.81-1.48.79-1.44-2Zm4.39,6.14,3.71-1.5,3.64,3.54,2.61,1-1,3.6-3.46,1.18-1.94-.73-2.17-2.46Zm23.09,110.72-.36,1-4.43,3-1.9-1.42-3.15.76-2-2,.47-1.79-2-2-.9-5-1.41.37-.83-5.32-2-1.39,0-3.76.12-5,1.67-3.49-.45-2.61.66-2.09,2.22.46,1,1.49-.29,4.76-.38,4.33,1.11,6.07,2.32,4.83,1.94,5,3.29,2.85Zm-7.24-70.15,2.61-.37-1.47-.95-.58-3.16L477,230l1.71-1.15,2.83-.06,1.93,1.15,3.72,3,1.78.88.42-1.64.89-2L489,229l3.21-1-1.54-.45-1.47-2-.63-4.3,2.29-.77-1.7-5.7-3.89.92-.51-2.9-1.15-2L485,208l2.72-1.68,2.52.08,2.71-3,.47-2.9-5.87.66.52-3-3-1.64-.72-3.14-2.05-.26L481,190.78l-3.15,3.15-3.3-.4L466,182.22l.93-2.72-1.25-5.06-7-3.1-2.77-2.28-.25-2.19,2.23-2.55-1.44-2.09-3-.34-3.34-1.26L447,158.52l-3.87-.82-1.75-4.6-3.09.57.49,3-1.64,1.55-5.76-2.69-4.2-.59L421.9,152l-2.57-2.21,3-16.67,0,0,3.67-1.39,3.27.8L427.47,130l-.84-3.59-1-1.26,0-1.72,1-1,5,1.65,8.8-1.52,2.69.1,5.48-1.66,5.28-1.19,1.92-1.4,2.84,3.87,9.16-.28.45,1.82,3.75-.45,3.44,2,2.6-1.88,6-1.72,1-1.39-2.79-2.29,4.25-4.68,3,1.21,3.67-2.07-.14-2,7.11,1.16,4.52-2.91,5.66,1.93,4.2-2.39,7.87.24-1.07,2.64-3.52,4.88-5.79,7.3-6,3.15-4.32.35L500,128.25l-5-1.76-8.7,1.43-7.56,1.17-6.92.62-5.59,4.15,3.3,1,3.66-2.22,9.64-.61-1.47,5.15,7.4,2.37,11.68-1.36,0-3.14,6.57,3,4.21,2.42-2.82,1.85,3.11,3.14,4.74,1,6.15,6.24,8.12,6,15.07,3.4,18.26,5.89-2.44-4.25,1.92-2.16-1-2.86-3.63-.89-2.07-2.88,1.64-5.5,3.68-1.51,6.31.51,5.56-1.55,8.34-.92,10.36,2.86,4,.32,8.76,3.37,8.68,3.75,4.33,1.92,5.84,4.53,1.44,2.31-1,2.47,6.33,4.77,1.95.53-.58.55-2.49.1-1.15-1.89-6.09-.22-3.69,1.21-3.42-2.87-1.63-4.3-6.13-1.72-6-.37-2.58-1-5.42-.9,4.84,5,3.64,2.52,2.9,5-3.88,1.81-1.44,4.15L601,185.4l-4.33,1.52-2.56,1.31-1.62,1.31-4.21,2.24-.69,2.71L588,199l1.67,3.87,2.26,3.65,3.39,2.49.67-1.64h2.82l2.21,1.76,6.34,3.08,2.25.11,4.53,4.85-1,3.74,1.31,3.95-1.37,1.48-.17,1.87,4.47,5.34,1.47,4.49,1.64,3.3-.43,4,.28,3.07-2.5,1.35-2.31,2.54-.58,3,.69,4.22.89,3.29-2.32,3.83-3.83-.62-1.54,3.19-.83,2.56-2.44,2.64,4.78,5.06,3.1-.11,3,4.41-2,4-.78,3-2.71,1-.79,3.11L608,296.72l1,5.64,2.28,7.85-.28,3.6,0,1.38-3.4-.09-.85,4.11-2.43,0-1.71,1.44-3.2-.28-1.49,1-.67,4.7-4.39,2,1.56,3-14.22-2-5.15.73L574.2,328l.35,9-1.26,2.47-2.15-2-3.44,1.84-.7,3.21-4.74-2.82-3.82,3.18.12,3.39-3,6.64,0,1.93-6,9,.27,2.24,3.91,1.21-1.1,3L554,371l-.39,3.89,5.9-.63,1.09,2.4-3.28,2.78.34,1.8-4.65.51-3.62,3.23-1.19,3.82-4.12.56-7.46,1.09-3.79,2.84-2.25,8.27,1.65,3.44-4.29-.86.7,6.22,1.33.43.32,4.37,4.12,1.62,2-1.41L540,417.2l1.05,2.48,1.88-.19.23,3.48-2.42,2.49-.42,6.44,5.09,2.68,1.34,3.24,6.29,3.3-.9,3,.06,1.49-1.58.52L547,444.6l-1,.36-2.55.07-1.92-1.34-3.46.66-1.6,1.76-1-.57-5.44,0-5.12,1.57-3.11.49-.16.74-5.84-2.12-4.44-.19-3.91-1.63,2-1.74,1-5.09L508,436.47l3.77-3.94-.53-1-2.44,2-.79-2.14,1-2,2.78-1.68-.23-1.78-1.83-2.27.07-3-.67-1.35-5,.46-1.68.81-2.75-1.42-1.93,1.7-4.4-.15-.31-1-1.85-1.65-2.41.67-.81-1.39.35-1.24-2.87-2-2.8,1.55-1,.07-.34,1.35-1.15.18-1.78-2.84L477.27,413l.39-.63,2.34-.62.71-1.44-1.27-1-2.18-.18-.14-.92-1.44-.49-2.82-2.57.13-1.49-1.05-2.17-3-.29-1.22,1-.77-1.08-3.21-.36L462,398.21l-.95-2.28-1.59-.76.64-1.85-2.15-4.3.89-3.3-.64-.73,1.87-3.5L456.79,380l2.85-7.67,1-3.44-.11-2.7-4.4-2.15-.3-3.37-3.16-2.91-.17-4.5-4.24-4.63.37-4.11-3.93-2.24-.94-3.38L445,338l2.13-2.86,1-2.23,3.94,1.73,5-.84,9,2,2.52,1.41,1.85,2.86-.61,3.34-2.3,2.65-9.91.14-1.1,1.12,4.59,2.15,1.11,2.08,2.3,4.66,3.24.31L470,357l-.84-2.33L467,353.25l.37-2.28,6.11.6,1-1.9-3.09-2.62,1.65-6.52,1.76-.64,2.58.58-.94-3.54-3.07-1.73-.89-3-2.92-2,5.29-1.31,2.58,1.76-1.64,1.8,1.64,2.34,2.3.63,1.86-2.56L480,330l1.66-4.19,2.06-7.25,1.19-.67.77,3.46,2.1-1-.24-2.14,2.39-2.35.34-3.32,3.74.73-1.2-3.77-3.52-.73-.69-1.78,4.55-2.64,2.8-.76,8.72-1.38-1.59-2.56-3.32-.19-.95-.61-1.64,1.32-1.7-1.91-3.88-1.73-1.41-1-2.29-5-3.5-3.42-.3-1.42,3.19-2.42,2.73,1.22,3,3.4,2,.06,3.47,1.48,6.06,4.12,3.78.07,2.65,2.51,4.41,7.19,1.85-1.41L516,300.22l-.08-2.5-2-1.8-1.41-2.67-3.14-.64-2.66-2.47-1.3,1.39-2.76-1.16-4-3.8-4.79-.42L492,282.08l-3.51-1.5.23-.67,3,.71,4.29,2.93,1.63-1-3.74-1.17-.79-3.13,1-2.84,3.84-1.27-4.61-.56L488,271.49l-.18-2.55L489,266l.13-2.94-3,.16-3-2.42.19-1.39-2.12-2.92-.21-3.18-1.4-.66-.19-3,1.26-.76L478,246l.08-2-2.33-.45-2.34-1.13-2.4-2.47,1.54-1.76,1.5,1.41Zm-6.9,2.07,2.41,5.55-7.12-2.1-.65-.74.31-.65,2.83-2.3Zm-28,37.56-.4,1.17-.34.74.47.69-.26,1.22-1.55-.38-.64-1.48-1.62.91.74-1.6,1-.76,1.05.92-.45-1.18,0-1.07,1.71.07ZM464.84,244l.66,2-1.69,2.35-2.19,1.16-3.91,0-1.21.9-3.41-2.53-1.1-1.7,2.76-1.2L460,243.5Z"/><path class="cls-1" d="M533.36,675.51l2.39,2.09,0,2.8-1.49,1-2.88.39-1.41,3-3.31.4.27-2.64.71-.53-.06-2.8,1.42-1.65,1.34.16Z"/><path class="cls-1" d="M333.77,548.61l.3-2.66.68.13,0,.33-.23.94-1.13,7.46-14.74-3.3-2,12.56-4.38-.55-1.57,2.24-.36,7.25L292,568.3l-1.34,1.33.63-2,.08,0,10.49,2.43.89-1.61,2.31-1.71,2.79-6.36,7.29-3.76,3.23-5.69,1.46,0,2.13-3.5,3.83.28,1.51,1,2,.41,1.62-.84Z"/><path class="cls-1" d="M579.27,572.09l-1.18-1.77-1.78-.84-.9-1.75-2.83-.7-3.56-3-2.4-3.36-4-2-2.21,0-4.26-3.38-1.47-3.13-.64-2.92L549.91,545l-2.59-1.08-2.63-.09-2.22-2.22-.08-1.18-1.92-2-1.56-.61-2.7-3-3.7-2.95-3.1-2.55-2.09.76-.09-2.89-.29-1.76,0-2.11,4.84-.9,1.33-2.15.45-2.11,2.9-1.87.15-1.87,1.07-1.35-5.57-3.23,7.14-5.62.5-1,5.17-.74,7,.7,14.71,4.18,7.4-3.39,3.63-1.42,1.91,1.7,2.67-1.65,3.26,3.16,2.36,0,1.38,1.25,3.5.41,1.08,1.78.29,1.78,1.17,1.27,1.69.64,1.18,1.22,1.08.79,1.59.21.95-1,1.52,1.32.62,1,3.55,3.78,12.87-5.27.33-1.5,3.29,2.06,1.51,11-10.3,12.37-11.45,8.77-3.25,4.28L599,558.44l-1.79,1.84-1.62-1L594,560.34,589.61,562l-1-.08-5.1,2.54-1.08,1-2.21-.4-.49,2.88,1.06,1.8Z"/><path class="cls-1" d="M544.73,620.56l-.71.12-.34-2.4-.89-1.45-2.9-1.11-1.22-3.26-.06-3.71-2.34.35-.14,1.17-2.92,1.11,1.44,1.05.93,2.75-2.29,3.41-1.93,4.13-2.52,1.2-4.68-1.66-1.75,1.47-.31,1.52-2.48,1.55,0,1L514.52,629l-.84-.82-3.7.68-1.73,1.23-1.46-.1-3-2.22-1-1.13-3.6,1.41L498,630.59l-.83,4.51-1.67,1.24-1.53.82-.44-.14-1.94-1-.49-1.42.62-2.14-.23-1.94L488.21,628l-.8-1.95-.07-1.17-2-1.08-.36-2.78-1.27-1.67-1.75.58.32-1.85,1.09-2.23-.79-1.9,1.48-1.76-1.17-.94,1-3.21,1.84-4,4.31-.46-2.87-19.21-.23-2.06,5.47-1.13-1.53-9.74L509.45,567l17.75-5.12L545,555.83l2.71,4.19-.75,1.24,2,4.71,3.16,5.11,2.05.53,3,.82L555.51,576l-3.22,2-1.11,2,.3,3.35-.41,7.76.94,1.74.15,4.37-1,5.38L548.76,606l-1.38,4.33-.12,2.11-2.09,2.08-.56,5.44Z"/><path class="cls-3" d="M544.73,620.56l.71,3.69-.5,1.68-2.65.92L541,630.06l3.17-.58,3,1.54,1.2,1.62,2.5.38,3.86,4.21-3,4.19L549,645.2l-2.86,3.1-3.65,1-4,2.26-3.45-.16-2,1.85-5-2-1.5-1.7-2.78,1.71-2.46.27L520,652.7l-2.42,0L514,649.5l-1-1.31-4.12-1-1.64-2.56-2.41-1.6L501,641.24l-.22-1.53-3.06-1.36L494,637.16l1.53-.82,1.67-1.24.83-4.51,1.14-2.49,3.6-1.41,1,1.13,3,2.22,1.46.1,1.73-1.23,3.7-.68.84.82,5.07-1.22,0-1,2.48-1.55.31-1.52,1.75-1.47,4.68,1.66,2.52-1.2,1.93-4.13,2.29-3.41-.93-2.75-1.44-1.05,2.92-1.11.14-1.17,2.34-.35.06,3.71,1.22,3.26,2.9,1.11.89,1.45.34,2.4Z"/><path class="cls-1" d="M285.53,605.83l-1.36-4.29-2.12-2.39,2.31-.31,3-2.73,1.6-2.16,1.93-1.1,2.32,1,2.54-.44,2.71.63,2.08,2,3,2,2.42,4.23,2.77,4-.2,3,.6,3,1.69,1.74.18,1.95-.43,1.45-.76.12-2.69-1-.45.45-1.12-.13-3.44-2-2.41-.6L290.52,612l-1.42.2-1.62-.58-2.76.08-.19-3.89,4.48,1.29,1.3-.36.89.19,2-.65,2,1.54,2.14.61,2.31-.57-.79-1.63-1.76.42-1.53-.4-1.76-1.67-1.58-.32-1.3.85Z"/><path class="cls-1" d="M307.72,644.56l-1.37-.63-3.53-2.68-2.39-3.12-.69-1.93-.18-3.65,3-1.49.76-1.2,1-.84,1.42.19,1.3-.65,4.09.84,1.23,2,.88,2.22L313,635l.69,1.4-.25,1.73h1.46l-2.66,1.76L309.56,642l-.43,1.32Z"/><path class="cls-1" d="M29.65,371.43l-1,.34-.74-3.1-.12-2.27.21-3-.45-3.19.48-2.33.59-.39,1.36.86.65.57.39-.73.52,1,0,1.87L31.06,363l-.21,2.2-.46.71,1,1.84v1.35l-.21,1.13Z"/><path class="cls-1" d="M617,591.29l-1.28,4-2.19,5.58-4,2-17,1.5-2.24-.9L588,601.88,585.6,600l.62-2.13,1.1-3.29,1.76.21,1.43,1.56,2.64,1,2.35-1,4.1-3.25,4.92-3,3.65-3.47,2.19-1.46,1.38-1.7,2.55-1.51v.09l.57,2,1.4,4.78Z"/><path class="cls-3" d="M617.58,579.32l2.24-1.77,1.61-2.78,1.69-1,.52,1.25.46,3,.8,2.47-.43,2.23.25,5.81L624,595l-1.23,7.55-2.28,9-2.82,7.3L613.41,628l-4.13,6-6.55,7.89-4.05,5.51-4.62,7.89-.8,2.93-1,1.55-3.63-2.72L585.72,640l3.38-7.06,1.07-2,3.17-1.38,3.71-5.17,6.33-3,10.1-20.54,2.19-5.58,1.28-4-.71-2.47-1.4-4.78-.57-2V582l1.42-.86Z"/><path class="cls-1" d="M454,459l2.33.78.65,2,2.32,1,.89-1.33,1,.44-.65,1,.81.74-.65,1.3.67,1.75,2.16,1.79-1.07,1.83-.31,1.7.51.51-.47.82-1.68.41-1.19.53-.19-.35.33-.67.19-1.29-.51.13-.87-.79-.64-.12-.61-.71-.73-.19-.63-.61-.6.39-.22,1.74-.81.51.23-.48-1.55-.8-1.28-.34-.64-.61-1.09-.7.81-.36.16-2.43-2-1.65.55-2.34-1.27.22,1.06-2.09-1.33-1.25-1.14-1.8L448.9,456l2.18-.14,2.21,1.63Z"/><path class="cls-1" d="M443.76,439.83l.23.27,1.22-.89,1.93,1.5,1.72-1.4,1.61.24,2.18-1.14,3.44,1.3-.63,1.47-.23,2.13-.6.65-3.79-.85-1,.5-.56,1.31-1.44.89-.41-.26-1.48,1-1.3.36-.11,1-2.71,1-1.31-.37-1.87-1.05-.56-1.69.18-.67.32-1.16,1.47-.11,1-.68,0-.48.59-.33,0-1.17.71-.33.36-1Z"/><path class="cls-1" d="M428.73,456.86l2.89.12,1.62-1.32,3-.46.55-.92h.58l.87,1.61-2.59,1.66-.11,2.07-1.16.65.16,1.4-1.39,0-1.28-.7-.56.91-2.47.05.74-.53-1-2.07Z"/><path class="cls-1" d="M436.57,358.06l-1.21,3.82,1,2.92-2.63,4.6-3.58,5-.59,7.22,2.29,3.24,2.84,2.38-1.38,6-2.52,1.54.17,8.5-.95,4.87-3.45-.1-1.18,4.13-3.29.52-1.3-4.67-2.74-5.52-2.5-7,1-3,1.87-3.57.33-5.93L417,380.59l-.66-6.61,1.08-4.78,2.21-.1.56-2-1-1.62,2.45-7.3,1.24-5.71.73-3.67,1.82-.25v-2.8l3.64.19-.42-3.25,1.07-.41,3,1.88,3.73,2.64,2.07,7.42,1.18,1.72Z"/><path class="cls-1" d="M545.36,787.09l-1.25,2.11-3.24,1.13-3.11-1.6,0-1.44,1.6-1.89.59-1.34,1.61-.64,2.72.18.69,1.72Z"/><path class="cls-3" d="M536.08,498l-5.93,8.21-5-.23H525l.31-.93-.69-2,.12-3,1.53-2.63L525,495.8l-1.82.42-1.57-3.55.27-2.34.66-1.45.65-1.45-.72-2.76,1.55.45,3.61-3,2.29.07,3-1.32,3.5-3.66,2-.82,3.78-2.68-.62,3.83-1.51,2.1,1.73,3.3.84,6.38Z"/><path class="cls-1" d="M443.86,623.4l.39-2.31-3.28.16-.15-3.11-2.21-1.63,1.85-6.55,6.11-5.13-.16-6.35,1.18-10.1.89-2.21-2.13-1.48-.19-1.55-1.89-1.1-1.71-7.53,4.55-3.16,19.76,7,20.22,6.05L490,603.62l-4.31.46-1.84,4-1,3.21,1.17.94L482.54,614l.79,1.9-1.09,2.23-.32,1.85,1.75-.58,1.27,1.67.36,2.78,2,1.08.07,1.17-3.15,1.38-2.41,2.37-3.23,5.8-4.7,2.94-5.06.4-1.44.63.65,1.61-2.61,2-2.1,2.13-6.52,2.56-1.38-.94h-.88l-.9,1.32-4.35.77.76-1.36-1.83-3.13-.84-1.91-2.33-.61-3.23-2.54,1-2.34,2.4.29,1.45-.47,2.92-.22-3.07-4.09v-3.2l-.52-3.16Z"/><path class="cls-1" d="M377.91,656.39l-4.34.76-1.13-1.73-1.31-3.09-.33-2.39,1.34-4.2-1.25-1.82-.34-3.79.16-3.47L368.63,634l.45-1.46,4.54.42-.76,2.48,1.54,1.52,1.75,1.78.12,2.35,1,1-.59,10.9Z"/><path class="cls-1" d="M785.61,370.63l-2.93,2.94-1.18,4.55-2.64-3.86-1.29,4.58,3.83,4.79,4.23,8.76,2.46,5.37,2.56,2.69,1.26-3.28,3.77,1.73,3.18,2.76,2.86-.51,1.42-2.77,2.58-.56.79,3.59-.77,4.11-1.8-1.84-2.88,2.46.26,1.71-2,.42L797.43,407l-2.83.35-2.46.49,1.59,3.4-2.16-1.42-1.83-3.25L787.11,401l-2.63-6.79-2.31-6.66-3.86-1.67-1.63-1.94-2.19-1.63-3.95.25-2.21-.77-.12-2.45-2.64-5.18-3.09-.47-3.71.37-4.05-.94,0-2.73-3.48-6.18.81-3.59-.93-4.4-.19-3.61,1.76-1,2.46,1.84,1-3.2,3.87,5,3.53,3.13-1.06-7.49,1-.89.53-3.09-1.18-2.26,1-3.64,4-1.1,4,3.17,4.23-1.16,3.3,3.31,1.44,3.41L779.3,353l-.77,7.56,2.31,6.56Z"/><path class="cls-1" d="M620,393.52l.24,2.25-3.2,2.48,1.79,2.53,2.35-3.43,4.08-2.37,3.79-6.25,4,2.72.37-1.4,2.2-1,1.36,1.57,2.43,1.68L637,395.51l-1.88,1.86.11,3.66-.73,1.75-.12,1.89-2.12-.08L629.53,401l-.9.72-.81-1.52-2.11.72.16,2.64,1.13,1.9.12,1-1.58,1.68.73,2.78-1.52.21-.81,3.4-1.21.39-1.92-5.7-3.07-2.36L615,408l-.83-2.49,2.26-2.16-.74-3.53-1.48-3.41,2.32-4.69,1.17,2.39,1.33.66Z"/><path class="cls-1" d="M608.65,439.56l-2.73-3.38L603.59,438l-6-.91-2.72,1.51-4.79.49-2.43,1.29-.84,1.85-2.15,1.44-.7,4.18-2.3,2.87L579.22,448l-2.3-5-3.33.21-1-3.6-2.21,1.17-1.55-4.22,3.53-.95,1.77-3.34-3.83-1-2.42-1.9-1.7,2.83,1.66,3.46-2.68-2.22.43-2.4,2.78-3.32,2.76-.23,4.26,1.88,1.36-1.36,3.23-2.62-1.94-1.8,1.4-3.43.59-4.42,5.3-.94,2.75,3.1,1.69-.07,2.81-2.86,1.48-.08,4.59,3.05,5.31-.09,3.28.22,4.41-.81,5-1.93,1.93,2.58-.91.72-2.14.22.72,1.9-1.71,3.14,1.95,3.89-.67,2.83-1.82,2.8.75,2.49-1.84,2.62Z"/><path class="cls-1" d="M86.8,502.15l2.29,1.63.64,1L87.83,508l-3.16-2.73-.41-1.11,1.65-.13Z"/><path class="cls-1" d="M416.18,539.14l-2.08-8.91-2.69-2-.06-1.21-3.52-2.93-.4-3.77,2.55-2.83.91-4.15-.73-4.77L411,506l4.34-2.14,2.84.5,0,2.54,3.35-2,.33.95-1.92,2.56.07,2.32,1.47,1.18-.35,4.36-2.65,2.64.9,2.7h2.18l1.17,2.33,1.65.7-.06,3.85-2,1.54L421,531.69l-2.91,2,.53,2.05-.31,2.12Z"/><path class="cls-3" d="M515.36,462.76l5.67-.22,3.72-2.48,3.11-.91,2.94-4.34,3.45-2,4.25.67,1.32,1.35.72,2.43,3-.15,2,.65-1.7,2.55,3.52,4.79,0,1.8,3.6,2.74-1.33,1.67-1.77-.55-4.38,1.46-1.22,1.48-3.78,2.68-2,.82-3.5,3.66-3,1.32-2.29-.07-3.61,3-1.55-.45.72,2.76-.65,1.45-.66,1.45-2.12-1.65.82-2.35-2.15,1.28-3.51.05-1.73,3.72-5.66,2.53-3.86-1.6-4.19,1.13-.35,2.3-2.54,1.38-4.43-1.54L488,496.82l-3.44-4.3-3.44-2,1-4.3-2.94-1.76,3-5.77,5.62-1.75.54-4.16,7.06-1.45,3.33-4.56,3.66-2.79,5.72-2.22Zm-33.85,14.67-2.46,3.44-1.7-2-.18-1,.75-.77.4-3.37-2.08-.86,3.31-2.49,3.26-.17.92,1.77,3.57.69L487,474l-4.26,1.47Z"/><path class="cls-1" d="M735.39,229.79l8.3,6.5,4.31,4.12-3.5,1-3.41-1-5.24-5.17-4.47-5.68.92-1.82Z"/><path class="cls-1" d="M551.77,669.71l1,.25L573,673.55l.68,2.58,8.09,2.11-1.8,6.53.58,2.51,3.56.54.28,1.15-1.19,3.28.43,1.3-.15,2.31,2.1,2.26,2.56,3.78,2,.34-4.05,4.08L580.35,710l-3.23.94-1.84,2-3.75,1.25-1.38,1-6.58.6-4.07,1.5-1.87-5.74-2-1.61-1.17-1-5.38.56-3.18-.57-3.51.1-2.22-.23-2.35-.61-3.33-5-3.34-1.82-1.28-2.4.37-2.5-1.31-4,2.22-.74,1.82-2.13,1.89-2.91,1.24-1.29-.19-1.49-1.26-.76-.48-1.74,1.49-1,0-2.8-2.39-2.09,1.81-1L541,673Z"/><path class="cls-1" d="M541,673l-5.85,1.44-1.81,1-3.05,2.21-1.34-.16-.3-3.51,1.05-2.07-.1-3.81.88-2.44,1.74-2.94,1.88-1.76,1.49-2.1-2.18-.09-.37-5.57,2-1.85,3.45.16,4-2.26,3.65-1,2.86-3.1,2.93,2.54,1,2.18,3.06,4.7-1.42,4-2.16,3.86-1.26,2.33.66,4.93Z"/><path class="cls-3" d="M480.27,417.25l1.15-.18.34-1.35,1-.07,2.8-1.55,2.87,2-.35,1.24.81,1.39,2.41-.67,1.85,1.65.31,1,4.4.15,1.93-1.7,2.75,1.42,1.68-.81,5-.46.67,1.35-.07,3,1.83,2.27.23,1.78L509,429.38l-1,2,.79,2.14L506.48,435,505,437.38l-2.86,1.45-2.08,2.86,1.29,2.91,2,.54,3.2-1.61,0,2-3.27,2.24-3.52,4.47-2.2-.31,0-2.53-4.1-.14.28-1.13,2.6-2.72-1.33-.76-5.48.53-.81-1.73L485.9,445l-.4,3.07-1.51,4.4-1.77-.38-1.36,1.25-1.76-.47.7-.77.12-1.85.47-1.82-.48-.81.58-.59.52.58,2-.44.76-.63-.76-.31v-.8l-1.51-.89-1.08-1.9-1.42-.45-.25-1.72-1.83-.89-1.37.2-2.79-.86-2,1.06-.58.93-1.36.35-.52,1.36L466,443.68l-.94,1-1.8-.85-2.1.46-2.15-.11-1.2,1.36-.5-1.28-2.09-1,.23-2.13.63-1.47.76.14-1.29-2.06,2-4.73,1.42-.92v-1.46l-2.54-4,1.41-.52,1.34-1.72,2.3-.67,3.13-.39,3.67.27,2.38-.57,1.33.38.86-1.18,1.13.9,2.61-1.07,1.33.09-.61-2.5.55-1.36Z"/><path class="cls-1" d="M189.65,247.92l-2.85,1.27-.92,1.25-.42,2.41-.91,3.63-1.6,3.71.68,2.5-1.18,4.53.1,1.07,1.59,2.47-1.57,3.76-1.6,4-1.32,3.36-1.22,3.25-1.24.88-.36,1h-.51v1l.61.43-1.12.68-.66,1,.16.93-.5.77-.93,0-1.59,4.61-4.18,2.87-4,2.8-3,.42-2.94-.33-1.81.07-.51.18-.59.76-.48,1.63.2.91,3.45,2.83,1.64,3.26,3.54,3.27.49-.2,1.32-1.12.75-1.08,1.17,1.13,1,3.34,1,3.11h2.12l.49.2,4.46,1.49,1.36,1,1.88,4.88,2.42,5.86,1.22-.43.66.85,1.27.86,2.49-.28,3.83-1.43h4.37l-.68,1.78,1.7,1.46-.6,2.2-5.85,4.3-1.37,3.79-1.1,1.59-3.76-1.7-3.08-2.1-2.87-2.41-3.34.16-1.22.16-2.29,1.64-1.75,2.77.54,1.45,1.38-1.52-.47,1.7-1.33.66-1.75-1.71-.66-1.66-1.86-1.93-.86-1.31-1.06-1.82-2.43-2,2.92,4.43-.37,1.6L160.43,341l-.91-2.2.57-.27-1.62-.21.21,1.17-3.41,1.46-4.34-.2,1-1.06-.08-.95.64-1.94-2.06,2.39-.43,1.44-1.61,1.23-2.12,0-4.21.42,0-.46,3.35-1,1-3,3.47-2.94-2.14.6-2.48,2.71-.18-2.91-.5,3.52-4,3.1.1,1.29-1.33,1.47-4,3.71-4.06,0-2.73-3.06-3.4-.72-1-1.77-2.24-.86-1.62.48-4.19-2.42-2.74-.83-3.11-.11-3.21,1.58-2.71,3-3.15,4.19L98.87,352l-1.77,1.46-4,6-2.75,2.18-1.62,1.16-2.81,1-1-.89-.26-2.62,1.53-2.22.39-2.48,2.78-5.26,2.56-4.59,1.44-1.94,3-1.24,2-3,2.68-6,.24-2.17-3-3,0-.94,1.57-3.53.53-3.49L99,315.75l-.15-4.27L98,308.26l-1-1.43L96,308.37l-1.83,1.06L93.4,311l-.71-.5.43-2.11L92,307.15l-.26-3.42,2-4.87-.91-3.7.83-4-.48-2.71L92,285.14l-3.55-2.46L86.41,279l-2.21-1.47-2.08,0-3.19,1.67-2.21,1.46-1.56,1.82L75,280.57l1.05-4.1,1.54-4.66,2.25-2.52,3.33-2.73,2.86-4.19,2.9-3,3.47-3.88,2.25-4.21.37-3.9-3.41-1.52,2-4.63,1.87-3.07L98.42,236l2.83-2.49,2.7-3.56L106,227l2.12-2.26,2-8.18-2,.56,1-3.77,2.78-9.46,7.23-11.52,5.19-7.45.79.29,2-5.79,2-5.2,2.88-1,4.26-3.2,1.65-2.14,1.66-.58,1.56-2.51,2.17-1.65L146,159l1.42-1.13,3-.56,7.33-4.08,8.85-3.14,1,.21,2.74-1.66,6.05-2.68,4.23-.1,4-1.68,3.31,1.37L192,146l4.43-.54,3.4,2.16,3.94,1.21,3.95,1.25,6.7.75,4.74-.07,2.85-.37.61.6-5,4.08-5.66.76.69,1,4.23.28,4.62-.2-6,8.76-5.67,9.36-1.74,3.14-4.94,9.85-4.13,9.66-3.56,9.91-2.91,10L190.1,229l-1.71,11.4-.65,6.88,2-.46ZM337,112l2.35-2.5,2.2.35,1.48,1.52-2.1,2.26-1.32,1.14-2.2.51-2-.59Zm44.12.79,1.78-.86,2.19.52,2.07.9-2.92,1-2.5-.07Zm19.86,14.41-1.71-.74-1.67.49-2.29-1-2.78-.37.17-.47,2-1,2.19.78,1.1.7,2.41-.32.67.35Zm-29.82,36.2-2.17-1.4-.42,1-3.14.8-.39-.94-3.13.37-1.58,1.11-4.51.41L352.16,166l-1.7.2-1.8,1.77-3.47.38-2.26.59h0l-12-12.22L312.11,139l-2.51,1.46-3.32.77-3.25-.07-4.54-.27-.27,3.23-1.11,2.65-3.2-.37-3.14.23-3.88.66-4.31-.45-7-.44-6.61,2.41-2.74-1.21-.72-2.26,2.9-.5,3.45-1.31,4.25,1.3,6.34-.85,5,1.19,2.53-1.7,3.95-2.94,4-1.37,8.83-.63,3-1,5.6-1.62,3.29-2.31,6.52-1.26,4.33-.13,2.36-2.1L329.39,128l1.34-.92,2.68-2.14,1.65-2.23,2.7-2,1.8,1.93,1.05,4-2.15,2.27,1.36.59,2.14-3.37.39-3.12,2.63-4.08-3.23-1,1.32-3.6,2.5-2.63,2.6-2.11,0-1.87,4.26-3.37.27-2L356,99.67l2.52-.28,2.9-1.78,3.19-2-18.38-1.83,6-2.13.75.56,17.46,2.41-3.18,1.79L364.2,99.2,360,100.55l-1.09,1.93-3.72,3.39-.4.94-1.81,2,.79,3-.53,2.66,3.05-2.13,1.3.39,1.11-1.81,2.85,1.43.31-1.57,1.92,1.64,2.6-2.23,2-.39,1,2.26-.1,1.54,2.42,1,3.79-1.45,3.07,1.46,2.31.67.51,2.27L384,119l-.65,2.47L381.56,124l-.5,2.22-2.13.63-2-.34-1.61,2.33-2,0-1.6,1.66,1.1,1.73,1.67.43L373,134.62l1.53-.36,2.43-1.4.53-1,2.28.55,3.54-1,4,.51,1.36,1.55,3.54,2.12L389,137.62l-4.94,2.71-1.94.3L382,138.5l-5,1,2.66,2.18,3.26,1.09,2.11,1.83,2.52,1.49,3.26,1-.83,2.35-3.73.62L384,152.42l0,2.12-1.47,2.35-1.74.84-3,2.63-1.81.14-1.91,2.92Z"/><path class="cls-1" d="M618.51,417.86l-1.93-2.58-5,1.93-4.41.81-3.28-.22-5.31.09L594,414.83l-1.48.08-2.81,2.86-1.69.07-2.75-3.1-5.3.94-.59,4.42-1.4,3.43,1.94,1.8-3.23,2.62-10.84-15.82,5-8.1.76-.05,6.27-.54,3.32-.35,5.37,1.42,2.51-3.46,4-4.6,5.42-.16,3.25,4.19,1.23-1.26,3.3,2.72,3.25-3.33,2.31,1.11.89-1.06-1.46-4,.57-6.37.62-2.32,1-.47.45,4.85,3.05-.66.7-3,4.58-1.48-.25,6.5L620,393.52l-.88,1.29-1.33-.66-1.17-2.39-2.32,4.69,1.48,3.41.74,3.53-2.26,2.16L615,408l2.68-1.11,3.07,2.36,1.92,5.7-2.7,1.3Z"/><path class="cls-1" d="M752.89,309l3,9.54,3.43,7.35,2.72,3.44,4.93-.44,6-.5,3.14-2.77,3.66-.53,7.79,4,6.91,7.22,1.92,7.2,1.42,8.94,2.26,7.88L802,371.09l-2.76-.62-2.11-4.3-3,1.79-.43-6.34.89-6.08-2.75.06-1.32-12.23-4.6-5.13-2.83-1.16-3.87-4.57-3-1.12-3.4,1.63-4.09.28-5.52.29-3.51,4.11L758.44,335l-.53-4.14L754,330l-1.12,6.16-4.18-.8-3.84.26-.51-3.42.72-3.9.28-5.17-1.69-5.88,1.92-1.24,1.31-4,2.4,2.56,2-1.16Z"/><path class="cls-3" d="M524.9,507.75l.91,3-.16,1.64-1.71,1.34-.21-1.34.83-1-1.18-.18-.14-3.52Z"/><path class="cls-3" d="M624.07,547l-2.58,3.11,0,2.58.49,1.66-3.58,4.48-6.23,6.1-2.88,5.46-1.89,1.29-1.43.42-2,3.31-2.61,2.35-3.75,2.11-1.08.82-.64,1.73-1.11.91-.37,1.54-2.32,1-1.31,1.32-3.29,1.2-2-2.24-.58-2.66-1.14-1.07-1.88-3.12L580,577.85l.85-.63-1.08-2,.29-1.16-.8-2,1.55-2.4-1.06-1.8.49-2.88,2.21.4,1.08-1,5.1-2.54,1,.08,4.42-1.63,1.61-1.08,1.62,1,1.79-1.84,1.41-6.59,3.25-4.28,11.45-8.77,6.28,5.75Z"/><path class="cls-1" d="M541.48,798.28l-1.12.82-2.51,2.56-1.73,2.41-3.39,3.53-6.6,5.32L522,816l-4.3,2.5-5.84,2.44-2.79.63-.82,1.2-3.24-.1-2.77,1.13-5.82,0-3.35.9-2.24.07L485.1,827l-4.71,1.13L476.91,830l-2.49.34-2.2-1.16-1.84.1-2.23-1.51-.3.56-.66-1,.18-2.28-1.62-2.46,1.82-.87,0-3-3.43-3.38-2.63-3.13h0l-3.8-4.87,2.75-2.2,2.17.92.87,1.64,2.49.07,3.47.43,3-.58,5.07-2.57.59-15.07,1.5.45,3.19,3.53-.61,2.56,1.19,1.29,4-.9,2.87-2.18,2.7-1.58,1.45-2.16,2.76-1.34,2.33.17,2.61.77,4.52-.48,3.6-1.53.62-1.39L512,785l3-.84,1.74-1.86,2-3.13,5.1-4.07,8-4.66L534,770l2.66.17,1.88-.91,2.92-.2,2.42,5.45,1.29,2.71L544,782.2l.38,1.42-2.72-.18-1.61.64-.59,1.34-1.6,1.89,0,1.44,3.11,1.6,3.24-1.13,1.25-2.11,4.15-.88-1.6,3.37-.93,3.62-1.58,2.19Zm-13.8,1.46-2.29-.83-2.63,1.3-3.11,2.12-3.14,3.08,3.84,2.44,2-.74,1.13-1.48,3.11-1.18,1.05-1.51,1.85-2.31Z"/><path class="cls-1" d="M549.11,709.47l2.69,1.35,1.61,3.48-.86,1.47-.91,3.94,1.22,3.46-1.66,2-1.51,4.58,2.92.43L536,737.82l.59,3-4.18,1.52-3.13,2.42-.66,1.66-2,.75-4.82,4.54-3.08,3.4-1.88.45L515,755.4l-6.25.61-1-.15,0-.35-2.21-.61-3.64.34-4.59,1.69-3.67-2.16-3.81-3,.06-13.95,11.66-1.73-.51-1.45.79-1.79-1-1.92.57-2.26-.63-1.28,1.93-.21.37,1.33,2.61-.55,3.55-.21,1.93,1.69,4.47-.21,3.34-2.06,1.33,2.09,4.27-.23,2.1,1.47,2.35,2,4.23-.88-.63-4.7L531.06,728l-3.93-.91-1.52-.48.5-4.63.73-5.53-1.33-1.72,1.41-3.22,1.44-.86,7.31-2.44,2.18,0,2.35.61,2.22.23,3.51-.1Z"/><path class="cls-1" d="M541.48,769.09l-2.92.2-1.88.91L534,770l-2.25.41-3.49-1.23-4.28.17-1.58-2.4v-1.51l-2.38,0-6.26-3.58-1.74-2.19-1.12-.58L508.78,756l6.25-.61,1.81.17,1.88-.45,3.08-3.4,4.82-4.54,2-.75.66-1.66,3.13-2.42,4.18-1.52.38,1.57,4.61-1.13,2.57.34,1.2.81,2.63-.3,2.88.72,0,5.57-1.08,3.3-.26,3.32.87,1.08-.66,2.71-.84.59-1.52,3.46Z"/><circle class="cls-4" cx="526.09" cy="637.74" r="18.86"/><circle class="cls-4" cx="589.09" cy="468.99" r="18.86"/><circle class="cls-5" cx="535.98" cy="480.44" r="18.86"/><circle class="cls-4" cx="56.09" cy="269.49" r="18.86"/><circle class="cls-6" cx="543.33" cy="432.77" r="9.69"/><circle class="cls-7" cx="744.58" cy="374.77" r="9.69"/><circle class="cls-6" cx="603" cy="561.52" r="9.69"/><circle class="cls-6" cx="498.67" cy="689.85" r="9.69"/><circle class="cls-8" cx="480" cy="649.52" r="5.96"/><circle class="cls-9" cx="523.67" cy="511.64" r="5.96"/><circle class="cls-9" cx="451" cy="551.31" r="5.96"/><circle class="cls-9" cx="356.67" cy="596.98" r="5.96"/><circle class="cls-9" cx="531" cy="687.98" r="5.96"/><circle class="cls-9" cx="484.33" cy="432.64" r="5.96"/><circle class="cls-9" cx="650.67" cy="447.98" r="5.96"/><circle class="cls-10" cx="612.78" cy="617.74" r="4.22"/><circle class="cls-11" cx="652.86" cy="190.32" r="4.3"/><circle class="cls-12" cx="505.33" cy="543.85" r="4.77"/><circle class="cls-12" cx="518.67" cy="497.19" r="4.77"/><circle class="cls-13" cx="745.36" cy="266.49" r="4.14"/><circle class="cls-9" cx="554.17" cy="449.91" r="5.96"/><circle class="cls-14" cx="408" cy="643.52" r="9.69"/><circle class="cls-14" cx="701" cy="440.52" r="9.69"/><circle class="cls-14" cx="501" cy="481.52" r="9.69"/><circle class="cls-14" cx="562.67" cy="495.85" r="9.69"/><text class="cls-15" transform="translate(94.45 30.4)">Los conflictos que siguen en 2019</text><text class="cls-16" transform="translate(82.01 59.48)">Conflictos que han <tspan class="cls-17" x="188.04" y="0">aumentado </tspan><tspan x="310.86" y="0">o </tspan><tspan class="cls-18" x="329" y="0">se mantienen </tspan><tspan x="472.79" y="0">en el ltimo ao</tspan></text><circle class="cls-19" cx="55.33" cy="712.52" r="18.86"/><circle class="cls-19" cx="55" cy="627.22" r="5.96"/><circle class="cls-20" cx="55" cy="589.8" r="4.05"/><circle class="cls-19" cx="54.99" cy="667.85" r="9.69"/><text class="cls-21" transform="translate(80.37 720.42)">Ms de 100 mil</text><text class="cls-22" transform="translate(81.28 672.67)">Entre 10 y 100 mil</text><text class="cls-22" transform="translate(80.42 632.5)">Entre 1.000 y 10.000</text><text class="cls-22" transform="translate(79.88 596)">Entre 0 y 1.000</text><text class="cls-23" transform="translate(625.12 658.52)">GUERRA CIVIL<tspan class="cls-24"><tspan x="-26.22" y="22">SUDN DEL SUR</tspan></tspan></text><text class="cls-23" transform="translate(86.92 289.48)">GUERRA CONTRA LA DROGA<tspan class="cls-24"><tspan x="188.76" y="22">MXICO</tspan></tspan></text><text class="cls-22" transform="translate(48.94 568.15)">VCTIMAS MORTALES</text><text class="cls-23" transform="translate(682.18 491.52)">GUERRA <tspan class="cls-24"><tspan x="-41.76" y="22">AFGANISTN</tspan></tspan></text><text class="cls-22" transform="translate(5.66 790.52)">Fuente: Council on Foreing Relations y Polynational War Memorial</text><text class="cls-22" transform="translate(669.14 791.52)">LA VANGUARDIA</text><text class="cls-23" transform="translate(357 500.52)">GUERRA CIVIL <tspan class="cls-24"><tspan x="0" y="22">SIRIA</tspan></tspan></text><line class="cls-19" x1="526" y1="637.52" x2="753" y2="637.52"/><line class="cls-19" x1="58.02" y1="270.04" x2="355.67" y2="270.04"/><line class="cls-19" x1="588" y1="468.52" x2="766" y2="468.52"/><line class="cls-19" x1="357" y1="480.02" x2="535" y2="480.02"/></svg>