<svg id="Capa_1" data-name="Capa 1" xmlns="http://www.w3.org/2000/svg" viewBox="0 0 1856.69 1856.69"><defs><style>@import url('https://fonts.googleapis.com/css?family=Open+Sans:400,500,600,700');.cls-1{font-size:64px;font-family:OpenSans-Bold, Open Sans;}.cls-1,.cls-19,.cls-2,.cls-23,.cls-31{fill:#323232;}.cls-1,.cls-20,.cls-24{font-weight:700;}.cls-2{font-size:48px;}.cls-18,.cls-19,.cls-2,.cls-21,.cls-25,.cls-26,.cls-27,.cls-31{font-family:OpenSans, Open Sans;}.cls-3,.cls-9{fill:#8e244f;}.cls-3,.cls-4,.cls-5,.cls-6,.cls-7,.cls-8{stroke:#fff;}.cls-10,.cls-11,.cls-12,.cls-13,.cls-14,.cls-15,.cls-16,.cls-17,.cls-28,.cls-29,.cls-3,.cls-30,.cls-4,.cls-5,.cls-6,.cls-7,.cls-8,.cls-9{stroke-miterlimit:10;}.cls-10,.cls-11,.cls-12,.cls-13,.cls-15,.cls-29,.cls-3,.cls-4,.cls-5,.cls-6,.cls-7,.cls-8,.cls-9{stroke-width:3px;}.cls-10,.cls-11,.cls-12,.cls-13,.cls-14,.cls-3,.cls-4,.cls-5,.cls-6,.cls-7,.cls-9{opacity:0.76;}.cls-10,.cls-4{fill:#991d26;}.cls-11,.cls-5{fill:#d57928;}.cls-12,.cls-6{fill:#59a5a5;}.cls-13,.cls-7{fill:#9cc628;}.cls-15,.cls-8{fill:#d6d6d6;}.cls-10,.cls-11,.cls-12,.cls-13,.cls-15,.cls-9{stroke:#fefefe;}.cls-14,.cls-16,.cls-17,.cls-28,.cls-29,.cls-30{fill:none;}.cls-14,.cls-16,.cls-17,.cls-28,.cls-30{stroke:#323232;}.cls-14{stroke-width:4px;}.cls-16,.cls-17,.cls-28{stroke-width:5px;}.cls-17{stroke-dasharray:12.41 12.41;}.cls-18,.cls-20,.cls-23{font-size:45px;}.cls-18,.cls-21,.cls-22,.cls-26,.cls-27{fill:#757575;}.cls-19,.cls-21{font-size:50px;}.cls-20{fill:#fff;}.cls-20,.cls-23{font-family:OpenSans-Semibold, Open Sans;}.cls-22{font-size:65px;font-family:ArialMT, Arial;}.cls-26{letter-spacing:0em;}.cls-28{stroke-dasharray:11.71 11.71;}.cls-29{stroke:#757575;}.cls-30{stroke-width:2px;}.cls-31{font-size:40px;}</style></defs><title>2019.03_AndaluciaRepetir</title><text class="cls-1" transform="translate(148.03 66.56)">¿Cuál sería el resultado en Andalucía si hubiesen<tspan x="-13.53" y="80">votado los abstencionistas que habrían acudido a </tspan><tspan x="-105.22" y="160">las urnas de haber conocido el resultado de antemano?</tspan></text><text class="cls-2" transform="translate(204.83 313.98)">Comparación entre el 2-D y el desenlace hipotético si los 372.898 <tspan x="-188.26" y="57.6">abstencionistas que, de haber sabido el resultado, habrían apoyado algún partido</tspan></text><rect class="cls-3" x="41.36" y="1302.11" width="300.46" height="168.8"/><rect class="cls-4" x="341.82" y="1302.11" width="524.62" height="168.8"/><rect class="cls-5" x="944.44" y="1302.11" width="361.57" height="168.8"/><rect class="cls-6" x="1306" y="1302.11" width="318.27" height="168.8"/><rect class="cls-7" x="1624.27" y="1302.11" width="185.04" height="168.8"/><rect class="cls-8" x="866.44" y="1302.11" width="76.5" height="168.8"/><rect class="cls-9" x="35.58" y="535.15" width="273.01" height="168.8"/><rect class="cls-10" x="309.55" y="535.15" width="472.23" height="168.8"/><rect class="cls-11" x="859.84" y="535.15" width="350.49" height="168.8"/><rect class="cls-12" x="1212.25" y="535.15" width="306.21" height="168.8"/><rect class="cls-13" x="1520.38" y="535.15" width="184.47" height="168.8"/><rect class="cls-14" x="292.53" y="916.89" width="93.09" height="168.8"/><rect class="cls-15" x="783.44" y="535.15" width="73.79" height="168.8"/><line class="cls-16" x1="865.01" y1="529.66" x2="864.96" y2="535.66"/><line class="cls-17" x1="864.85" y1="548.08" x2="862.4" y2="839.75"/><line class="cls-16" x1="862.34" y1="845.96" x2="862.29" y2="851.96"/><text class="cls-18" transform="translate(44.11 498.32) scale(0.99 1)">RESULTADO ELECCIONES AUTONÓMICAS DE 2018</text><text class="cls-19" transform="translate(895.2 838.35) scale(0.99 1)">50% DE LOS VOTOS</text><text class="cls-20" transform="translate(52.11 1354.41) scale(0.99 1)">641.884</text><text class="cls-20" transform="translate(50.12 586.33) scale(0.99 1)">585.949</text><text class="cls-20" transform="translate(320.15 581.33) scale(0.99 1)">1.010.899</text><text class="cls-20" transform="translate(881.2 583.33) scale(0.99 1)">661.371</text><text class="cls-20" transform="translate(1232.23 583.33) scale(0.99 1)">750.778</text><text class="cls-20" transform="translate(1532.25 583.33) scale(0.99 1)">396.607</text><text class="cls-20" transform="translate(52.11 1413.42) scale(0.99 1)">ADELANTE</text><text class="cls-20" transform="translate(49.11 645.33) scale(0.99 1)">ADELANTE</text><text class="cls-20" transform="translate(356.14 1353.41) scale(0.99 1)">1.141.403</text><text class="cls-20" transform="translate(974.7 1353.41) scale(0.99 1)">680.016</text><text class="cls-20" transform="translate(1319.24 1353.41) scale(0.99 1)">791.797</text><text class="cls-20" transform="translate(1631.27 1353.41) scale(0.99 1)">396.607</text><text class="cls-20" transform="translate(356.14 1411.41) scale(0.99 1)">PSOE</text><text class="cls-20" transform="translate(323.14 639.33) scale(0.99 1)">PSOE</text><text class="cls-21" transform="translate(168.06 791.51) scale(0.99 1)">156.958 - OTROS </text><text class="cls-20" transform="translate(885.2 643.33) scale(0.99 1)">Cs</text><text class="cls-20" transform="translate(984.2 1406.91) scale(0.99 1)">Cs</text><text class="cls-20" transform="translate(1318.24 1411.41) scale(0.99 1)">PP</text><text class="cls-20" transform="translate(1230.24 637.33) scale(0.99 1)">PP</text><text class="cls-20" transform="translate(1634.27 1411.41) scale(0.99 1)">VOX</text><text class="cls-20" transform="translate(1530.27 643.33) scale(0.99 1)">VOX</text><text class="cls-22" transform="translate(185.13 1015.37) scale(0.99 1)">+</text><text class="cls-23" transform="translate(440.15 978.36) scale(0.99 1)"><tspan class="cls-24">249.842 ABSTENCIONISTAS</tspan><tspan class="cls-25" x="579.55" y="0"> </tspan><tspan class="cls-26" x="591.24" y="0">CON RECUERDO DE VOTO</tspan><tspan class="cls-27"><tspan x="0" y="54">IDENTIFICADO QUE APOYARÍAN A UN PARTIDO TRAS </tspan><tspan x="0" y="108">CONOCER EL RESULTADO DEL 2-D*</tspan></tspan></text><text class="cls-18" transform="translate(51.11 1223.4) scale(0.99 1)">RESULTADO HIPOTÉTICO CON LOS ABSTENCIONISTAS <tspan x="0" y="54">ADJUDICADOS POR RECUERDO DE VOTO</tspan></text><line class="cls-16" x1="929.68" y1="1303.71" x2="929.68" y2="1309.71"/><line class="cls-28" x1="929.68" y1="1321.42" x2="929.68" y2="1620.01"/><line class="cls-16" x1="929.68" y1="1625.87" x2="929.68" y2="1631.87"/><text class="cls-19" transform="translate(956.69 1623.89)">50% DE LOS VOTOS</text><line class="cls-29" x1="846.66" y1="704.67" x2="846.66" y2="741.87"/><line class="cls-29" x1="845.16" y1="740.18" x2="173.85" y2="740.18"/><text class="cls-21" transform="translate(194.06 1557.51) scale(0.99 1)"><tspan xml:space="preserve">160.687 -  OTROS </tspan></text><line class="cls-29" x1="872.66" y1="1470.67" x2="872.66" y2="1507.87"/><line class="cls-29" x1="871.16" y1="1506.18" x2="199.85" y2="1506.18"/><line class="cls-30" x1="6.58" y1="1726.19" x2="1848.85" y2="1726.19"/><text class="cls-31" transform="translate(22.47 1839.85) scale(0.99 1)">Fuente: Elaboración propia a partir del CIS y los resultados del 2D</text><text class="cls-31" transform="translate(22.47 1775.85) scale(0.99 1)">* No están incluídos los votantes no adscritos: nulos, blancos, abstención, no tenía edad y ns/nc </text><text class="cls-19" transform="translate(1451.47 1839.85) scale(0.99 1)">LA VANGUARDIA</text></svg>