<svg xmlns="http://www.w3.org/2000/svg" viewBox="0 0 2051.66 2051.66"><defs><style>@import url('https://fonts.googleapis.com/css?family=Open+Sans:400,500,600,700');.cls-1,.cls-13,.cls-20,.cls-21,.cls-22,.cls-23,.cls-24,.cls-7,.cls-8{fill:none;}.cls-1{stroke:#323232;stroke-width:0.75px;}.cls-1,.cls-8{stroke-miterlimit:10;}.cls-2{font-size:37px;}.cls-2,.cls-3,.cls-4,.cls-5,.cls-6{fill:#323232;}.cls-12,.cls-2,.cls-3,.cls-6,.cls-9{font-family:OpenSans, Open Sans;}.cls-11,.cls-12,.cls-3{font-size:50px;}.cls-4{font-size:84px;}.cls-11,.cls-4,.cls-5{font-family:OpenSans-Bold, Open Sans;font-weight:700;}.cls-5{font-size:52px;}.cls-6{font-size:53px;}.cls-7{stroke:#e6e6e6;}.cls-8{stroke:#aeaeae;stroke-width:2px;}.cls-9{font-size:46px;fill:#757575;}.cls-10,.cls-11,.cls-12{isolation:isolate;}.cls-11,.cls-12{fill:#606060;}.cls-13{stroke:#000;}.cls-14{opacity:0.15;}.cls-15{fill:#9cc628;}.cls-16{fill:#59a5a5;}.cls-17{fill:#d57928;}.cls-18{fill:#d73445;}.cls-19{fill:#8e244f;}.cls-20{stroke:#9cc628;}.cls-20,.cls-21,.cls-22,.cls-23,.cls-24{stroke-linecap:round;stroke-linejoin:round;stroke-width:8px;}.cls-21{stroke:#59a5a5;}.cls-22{stroke:#d57928;}.cls-23{stroke:#d73445;}.cls-24{stroke:#8e244f;}</style></defs><title>2019.03_Metaencuesta</title><g id="pie"><line class="cls-1" x1="3" y1="1981" x2="2052.5" y2="1981"/><text class="cls-2" transform="translate(36.9 2033.66) scale(0.99 1)">Fuente: GAD3, Gesop, Socimétrica, NC Report, Sigma Dos, Invymark, Sondaxe, Celeste-TEl</text><text class="cls-3" transform="translate(1665.9 2033.66) scale(0.99 1)">LA VANGUARDIA</text><text class="cls-4" transform="translate(183.18 96.31)">Evolución de los sondeos en el último año</text></g><g id="indicaciones"><text class="cls-5" transform="translate(1888.01 401.32) scale(0.99 1)">27,5</text><text class="cls-5" transform="translate(1862.53 703.32) scale(0.99 1)">21,03</text><text class="cls-5" transform="translate(1870.53 873.32) scale(0.99 1)">17,53</text><text class="cls-5" transform="translate(1870.53 1035.32) scale(0.99 1)">13,83</text><text class="cls-5" transform="translate(1929.48 1337.32) scale(0.99 1)">9,5</text><text class="cls-6" transform="translate(275.3 167.31)">Promedio semanal de intención de voto a cada partido político</text></g><g id="Capa_8" data-name="Capa 8"><line class="cls-7" x1="74.57" y1="1737.85" x2="2024.36" y2="1737.85"/><line class="cls-7" x1="74.57" y1="1503.85" x2="2024.36" y2="1503.85"/><line class="cls-8" x1="15" y1="1503.85" x2="2020.36" y2="1503.85"/><line class="cls-8" x1="9" y1="1262.86" x2="2024.36" y2="1262.86"/><text class="cls-9" transform="translate(10.77 1248.57) scale(0.99 1)">10</text><text class="cls-9" transform="translate(19.77 1486.57) scale(0.99 1)">5</text><line class="cls-8" x1="11" y1="1022.86" x2="2024.36" y2="1022.86"/><line class="cls-8" x1="11" y1="787.87" x2="2024.36" y2="787.87"/><text class="cls-9" transform="translate(10.77 770.58) scale(0.99 1)">20</text><text class="cls-9" transform="translate(10.77 534.58) scale(0.99 1)">25</text><text class="cls-9" transform="translate(10.77 1008.58) scale(0.99 1)">15</text><line class="cls-8" x1="11" y1="551.87" x2="2024.36" y2="551.87"/><line class="cls-8" x1="11" y1="312.87" x2="2024.36" y2="312.87"/><text class="cls-9" transform="translate(10.77 300.59) scale(0.99 1)">30</text><g class="cls-10"><text class="cls-11" transform="translate(224.49 1881.74) rotate(-90) scale(0.99 1)">2018</text></g><g class="cls-10"><text class="cls-12" transform="translate(378.47 1895.83) rotate(-90) scale(0.99 1)">Mayo</text></g><g class="cls-10"><text class="cls-12" transform="translate(539.86 1883.79) rotate(-90) scale(0.99 1)">Junio</text></g><g class="cls-10"><text class="cls-12" transform="translate(696.36 1865.87) rotate(-90) scale(0.99 1)">Julio</text></g><g class="cls-10"><text class="cls-12" transform="translate(837.77 1928.19) rotate(-90) scale(0.99 1)">Agosto</text></g><g class="cls-10"><text class="cls-12" transform="translate(993.69 1884.65) rotate(-90) scale(0.99 1)">Sept.</text></g><g class="cls-10"><text class="cls-12" transform="translate(1147.62 1957.23) rotate(-90) scale(0.99 1)">Octubre</text></g><g class="cls-10"><text class="cls-12" transform="translate(1299.2 1873.88) rotate(-90) scale(0.99 1)">Nov.</text></g><g class="cls-10"><text class="cls-12" transform="translate(1452.51 1853.98) rotate(-90) scale(0.99 1)">Dic.</text></g><g class="cls-10"><text class="cls-11" transform="translate(1591.62 1881.74) rotate(-90) scale(0.99 1)">2019</text></g><g class="cls-10"><text class="cls-12" transform="translate(1759.52 1950.66) rotate(-90) scale(0.99 1)">Febrero</text></g><g class="cls-10"><text class="cls-12" transform="translate(1910.85 1914.3) rotate(-90) scale(0.99 1)">Marzo</text></g><line class="cls-13" x1="12" y1="1737.85" x2="2024.36" y2="1737.85"/><g class="cls-14"><path class="cls-15" d="M519.44,1647.6a12.88,12.88,0,1,0,12.88-12.88A12.88,12.88,0,0,0,519.44,1647.6Z"/><path class="cls-15" d="M389.44,1630.6a12.88,12.88,0,1,0,12.88-12.88A12.88,12.88,0,0,0,389.44,1630.6Z"/><path class="cls-15" d="M529.38,1590.6a12.88,12.88,0,1,0,12.88-12.88A12.88,12.88,0,0,0,529.38,1590.6Z"/><path class="cls-15" d="M554.24,1619.1a12.88,12.88,0,1,0,12.88-12.88A12.88,12.88,0,0,0,554.24,1619.1Z"/><path class="cls-15" d="M579.09,1638.1A12.88,12.88,0,1,0,592,1625.22,12.88,12.88,0,0,0,579.09,1638.1Z"/><path class="cls-15" d="M584.06,1619.1a12.88,12.88,0,1,0,12.88-12.88A12.88,12.88,0,0,0,584.06,1619.1Z"/><path class="cls-15" d="M584.06,1685.6a12.88,12.88,0,1,0,12.88-12.88A12.88,12.88,0,0,0,584.06,1685.6Z"/><path class="cls-15" d="M653.65,1638.1a12.88,12.88,0,1,0,12.88-12.88A12.88,12.88,0,0,0,653.65,1638.1Z"/><path class="cls-15" d="M743.12,1623.85A12.88,12.88,0,1,0,756,1611,12.88,12.88,0,0,0,743.12,1623.85Z"/><path class="cls-15" d="M802.77,1657.1a12.88,12.88,0,1,0,12.88-12.88A12.88,12.88,0,0,0,802.77,1657.1Z"/><path class="cls-15" d="M862.42,1690.35a12.88,12.88,0,1,0,12.88-12.88A12.88,12.88,0,0,0,862.42,1690.35Z"/><path class="cls-15" d="M897.21,1628.6a12.88,12.88,0,1,0,12.88-12.88A12.88,12.88,0,0,0,897.21,1628.6Z"/><path class="cls-15" d="M996.62,1652.35a12.88,12.88,0,1,0,12.88-12.88A12.88,12.88,0,0,0,996.62,1652.35Z"/><path class="cls-15" d="M1036.39,1666.6a12.88,12.88,0,1,0,12.88-12.88A12.88,12.88,0,0,0,1036.39,1666.6Z"/><path class="cls-15" d="M1046.33,1661.85A12.88,12.88,0,1,0,1059.2,1649,12.88,12.88,0,0,0,1046.33,1661.85Z"/><path class="cls-15" d="M1056.27,1595.35a12.88,12.88,0,1,0,12.88-12.88A12.88,12.88,0,0,0,1056.27,1595.35Z"/><path class="cls-15" d="M1056.27,1671.35a12.88,12.88,0,1,0,12.88-12.88A12.88,12.88,0,0,0,1056.27,1671.35Z"/><path class="cls-15" d="M1160.65,1642.85a12.88,12.88,0,1,0,12.88-12.88A12.88,12.88,0,0,0,1160.65,1642.85Z"/><path class="cls-15" d="M1175.56,1619.1a12.88,12.88,0,1,0,12.88-12.88A12.88,12.88,0,0,0,1175.56,1619.1Z"/><path class="cls-15" d="M1175.56,1690.35a12.88,12.88,0,1,0,12.88-12.88A12.88,12.88,0,0,0,1175.56,1690.35Z"/><path class="cls-15" d="M1195.45,1676.1a12.88,12.88,0,1,0,12.88-12.88A12.88,12.88,0,0,0,1195.45,1676.1Z"/><path class="cls-15" d="M1205.39,1647.6a12.88,12.88,0,1,0,12.88-12.88A12.88,12.88,0,0,0,1205.39,1647.6Z"/><path class="cls-15" d="M1240.18,1495.6a12.88,12.88,0,1,0,12.88-12.88A12.88,12.88,0,0,0,1240.18,1495.6Z"/><path class="cls-15" d="M1279.95,1566.85a12.88,12.88,0,1,0,12.88-12.88A12.88,12.88,0,0,0,1279.95,1566.85Z"/><path class="cls-15" d="M1300,1666.6a12.88,12.88,0,1,0,12.88-12.88A12.88,12.88,0,0,0,1300,1666.6Z"/><path class="cls-15" d="M1300,1533.6a12.88,12.88,0,1,0,12.88-12.88A12.88,12.88,0,0,0,1300,1533.6Z"/><path class="cls-15" d="M1339.8,1576.35a12.88,12.88,0,1,0,12.88-12.88A12.88,12.88,0,0,0,1339.8,1576.35Z"/><path class="cls-15" d="M1349.74,1638.1a12.88,12.88,0,1,0,12.88-12.88A12.88,12.88,0,0,0,1349.74,1638.1Z"/><path class="cls-15" d="M1349.74,1666.6a12.88,12.88,0,1,0,12.88-12.88A12.88,12.88,0,0,0,1349.74,1666.6Z"/><path class="cls-15" d="M1359.68,1619.1a12.88,12.88,0,1,0,12.88-12.88A12.88,12.88,0,0,0,1359.68,1619.1Z"/><path class="cls-15" d="M1474,1243.86a12.88,12.88,0,1,0,12.88-12.88A12.88,12.88,0,0,0,1474,1243.86Z"/><path class="cls-15" d="M1488.92,1391.1a12.88,12.88,0,1,0,12.88-12.88A12.88,12.88,0,0,0,1488.92,1391.1Z"/><path class="cls-15" d="M1508.8,1414.85a12.88,12.88,0,1,0,12.88-12.88A12.88,12.88,0,0,0,1508.8,1414.85Z"/><path class="cls-15" d="M1513.77,1191.61a12.88,12.88,0,1,0,12.88-12.88A12.88,12.88,0,0,0,1513.77,1191.61Z"/><path class="cls-15" d="M1518.74,1357.85a12.88,12.88,0,1,0,12.88-12.88A12.88,12.88,0,0,0,1518.74,1357.85Z"/><path class="cls-15" d="M1523.71,1334.1a12.88,12.88,0,1,0,12.88-12.88A12.88,12.88,0,0,0,1523.71,1334.1Z"/><path class="cls-15" d="M1523.71,1324.6a12.88,12.88,0,1,0,12.88-12.88A12.88,12.88,0,0,0,1523.71,1324.6Z"/><path class="cls-15" d="M1523.71,1324.6a12.88,12.88,0,1,0,12.88-12.88A12.88,12.88,0,0,0,1523.71,1324.6Z"/><path class="cls-15" d="M1523.71,1324.6a12.88,12.88,0,1,0,12.88-12.88A12.88,12.88,0,0,0,1523.71,1324.6Z"/><path class="cls-15" d="M1533.65,1300.85a12.88,12.88,0,1,0,12.88-12.88A12.88,12.88,0,0,0,1533.65,1300.85Z"/><path class="cls-15" d="M1558.51,1367.35a12.88,12.88,0,1,0,12.88-12.88A12.88,12.88,0,0,0,1558.51,1367.35Z"/><path class="cls-15" d="M1588.33,1125.11a12.88,12.88,0,1,0,12.88-12.88A12.88,12.88,0,0,0,1588.33,1125.11Z"/><path class="cls-15" d="M1633.07,1144.11a12.88,12.88,0,1,0,12.88-12.88A12.88,12.88,0,0,0,1633.07,1144.11Z"/><path class="cls-15" d="M1648,1353.1a12.88,12.88,0,1,0,12.88-12.88A12.88,12.88,0,0,0,1648,1353.1Z"/><path class="cls-15" d="M1652.95,1191.61a12.88,12.88,0,1,0,12.88-12.88A12.88,12.88,0,0,0,1652.95,1191.61Z"/><path class="cls-15" d="M1672.83,1120.36a12.88,12.88,0,1,0,12.88-12.88A12.88,12.88,0,0,0,1672.83,1120.36Z"/><path class="cls-15" d="M1672.83,1429.1a12.88,12.88,0,1,0,12.88-12.88A12.88,12.88,0,0,0,1672.83,1429.1Z"/><path class="cls-15" d="M1682.77,1163.11a12.88,12.88,0,1,0,12.88-12.88A12.88,12.88,0,0,0,1682.77,1163.11Z"/><path class="cls-15" d="M1697.68,1315.1a12.88,12.88,0,1,0,12.88-12.88A12.88,12.88,0,0,0,1697.68,1315.1Z"/><path class="cls-15" d="M1727.51,1272.36a12.88,12.88,0,1,0,12.88-12.88A12.88,12.88,0,0,0,1727.51,1272.36Z"/><path class="cls-15" d="M1732.48,1291.35a12.88,12.88,0,1,0,12.88-12.88A12.88,12.88,0,0,0,1732.48,1291.35Z"/><path class="cls-15" d="M1757.33,1163.11a12.88,12.88,0,1,0,12.88-12.88A12.88,12.88,0,0,0,1757.33,1163.11Z"/><path class="cls-15" d="M1767.27,1205.86a12.88,12.88,0,1,0,12.88-12.88A12.88,12.88,0,0,0,1767.27,1205.86Z"/><path class="cls-15" d="M1802.07,1182.11a12.88,12.88,0,1,0,12.88-12.88A12.88,12.88,0,0,0,1802.07,1182.11Z"/><path class="cls-15" d="M1802.07,1315.1a12.88,12.88,0,1,0,12.88-12.88A12.88,12.88,0,0,0,1802.07,1315.1Z"/><path class="cls-15" d="M1826.92,1134.61a12.88,12.88,0,1,0,12.88-12.88A12.88,12.88,0,0,0,1826.92,1134.61Z"/><path class="cls-15" d="M1836.86,1177.36a12.88,12.88,0,1,0,12.88-12.88A12.88,12.88,0,0,0,1836.86,1177.36Z"/><path class="cls-15" d="M1836.86,1262.86a12.88,12.88,0,1,0,12.88-12.88A12.88,12.88,0,0,0,1836.86,1262.86Z"/><path class="cls-15" d="M1836.86,1120.36a12.88,12.88,0,1,0,12.88-12.88A12.88,12.88,0,0,0,1836.86,1120.36Z"/><path class="cls-15" d="M1836.86,1319.85a12.88,12.88,0,1,0,12.88-12.88A12.88,12.88,0,0,0,1836.86,1319.85Z"/><path class="cls-15" d="M1866.68,1063.36a12.88,12.88,0,1,0,12.88-12.88A12.88,12.88,0,0,0,1866.68,1063.36Z"/><path class="cls-15" d="M1866.68,1201.11a12.88,12.88,0,1,0,12.88-12.88A12.88,12.88,0,0,0,1866.68,1201.11Z"/><path class="cls-15" d="M1871.65,1106.11a12.88,12.88,0,1,0,12.88-12.88A12.88,12.88,0,0,0,1871.65,1106.11Z"/><path class="cls-15" d="M1871.65,1224.86a12.88,12.88,0,1,0,12.88-12.88A12.88,12.88,0,0,0,1871.65,1224.86Z"/><path class="cls-15" d="M1941.24,1163.11a12.88,12.88,0,1,0,12.88-12.88A12.88,12.88,0,0,0,1941.24,1163.11Z"/><path class="cls-15" d="M1941.24,1191.61a12.88,12.88,0,1,0,12.88-12.88A12.88,12.88,0,0,0,1941.24,1191.61Z"/><path class="cls-15" d="M1941.24,1163.11a12.88,12.88,0,1,0,12.88-12.88A12.88,12.88,0,0,0,1941.24,1163.11Z"/><path class="cls-15" d="M1951.18,1153.61a12.88,12.88,0,1,0,12.88-12.88A12.88,12.88,0,0,0,1951.18,1153.61Z"/><path class="cls-15" d="M1956.16,1281.86A12.88,12.88,0,1,0,1969,1269,12.88,12.88,0,0,0,1956.16,1281.86Z"/><path class="cls-15" d="M1966.1,1329.35a12.88,12.88,0,1,0,12.88-12.88A12.88,12.88,0,0,0,1966.1,1329.35Z"/><path class="cls-15" d="M1976,1248.61a12.88,12.88,0,1,0,12.88-12.88A12.88,12.88,0,0,0,1976,1248.61Z"/><path class="cls-16" d="M97.15,412.62A12.88,12.88,0,1,0,110,399.75,12.88,12.88,0,0,0,97.15,412.62Z"/><path class="cls-16" d="M97.15,502.87A12.88,12.88,0,1,0,110,490,12.88,12.88,0,0,0,97.15,502.87Z"/><path class="cls-16" d="M112.06,716.62a12.88,12.88,0,1,0,12.88-12.88A12.88,12.88,0,0,0,112.06,716.62Z"/><path class="cls-16" d="M122,787.87A12.88,12.88,0,1,0,134.88,775,12.88,12.88,0,0,0,122,787.87Z"/><path class="cls-16" d="M122,474.37a12.88,12.88,0,1,0,12.88-12.88A12.88,12.88,0,0,0,122,474.37Z"/><path class="cls-16" d="M156.8,607.37a12.88,12.88,0,1,0,12.88-12.88A12.88,12.88,0,0,0,156.8,607.37Z"/><path class="cls-16" d="M166.74,564.62a12.88,12.88,0,1,0,12.88-12.88A12.88,12.88,0,0,0,166.74,564.62Z"/><path class="cls-16" d="M166.74,545.62a12.88,12.88,0,1,0,12.88-12.88A12.88,12.88,0,0,0,166.74,545.62Z"/><path class="cls-16" d="M221.21,631.12a12.88,12.88,0,1,0,12.88-12.88A12.88,12.88,0,0,0,221.21,631.12Z"/><path class="cls-16" d="M231.15,697.62A12.88,12.88,0,1,0,244,684.74,12.88,12.88,0,0,0,231.15,697.62Z"/><path class="cls-16" d="M246.06,673.87A12.88,12.88,0,1,0,258.94,661,12.88,12.88,0,0,0,246.06,673.87Z"/><path class="cls-16" d="M265.94,768.87A12.88,12.88,0,1,0,278.82,756,12.88,12.88,0,0,0,265.94,768.87Z"/><path class="cls-16" d="M270.91,555.12a12.88,12.88,0,1,0,12.88-12.88A12.88,12.88,0,0,0,270.91,555.12Z"/><path class="cls-16" d="M285.83,835.36a12.88,12.88,0,1,0,12.88-12.88A12.88,12.88,0,0,0,285.83,835.36Z"/><path class="cls-16" d="M305.71,488.62a12.88,12.88,0,1,0,12.88-12.88A12.88,12.88,0,0,0,305.71,488.62Z"/><path class="cls-16" d="M305.71,559.87A12.88,12.88,0,1,0,318.58,547,12.88,12.88,0,0,0,305.71,559.87Z"/><path class="cls-16" d="M330.56,740.37a12.88,12.88,0,1,0,12.88-12.88A12.88,12.88,0,0,0,330.56,740.37Z"/><path class="cls-16" d="M390.21,502.87A12.88,12.88,0,1,0,403.08,490,12.88,12.88,0,0,0,390.21,502.87Z"/><path class="cls-16" d="M434.94,578.87A12.88,12.88,0,1,0,447.82,566,12.88,12.88,0,0,0,434.94,578.87Z"/><path class="cls-16" d="M434.94,811.61a12.88,12.88,0,1,0,12.88-12.88A12.88,12.88,0,0,0,434.94,811.61Z"/><path class="cls-16" d="M434.94,607.37a12.88,12.88,0,1,0,12.88-12.88A12.88,12.88,0,0,0,434.94,607.37Z"/><path class="cls-16" d="M439.91,745.12a12.88,12.88,0,1,0,12.88-12.88A12.88,12.88,0,0,0,439.91,745.12Z"/><path class="cls-16" d="M514.47,521.87A12.88,12.88,0,1,0,527.35,509,12.88,12.88,0,0,0,514.47,521.87Z"/><path class="cls-16" d="M519.44,939.86A12.88,12.88,0,1,0,532.32,927,12.88,12.88,0,0,0,519.44,939.86Z"/><path class="cls-16" d="M529.38,806.86A12.88,12.88,0,1,0,542.26,794,12.88,12.88,0,0,0,529.38,806.86Z"/><path class="cls-16" d="M529.38,887.61a12.88,12.88,0,1,0,12.88-12.88A12.88,12.88,0,0,0,529.38,887.61Z"/><path class="cls-16" d="M534.36,621.62a12.88,12.88,0,1,0,12.88-12.88A12.88,12.88,0,0,0,534.36,621.62Z"/><path class="cls-16" d="M554.24,882.86A12.88,12.88,0,1,0,567.11,870,12.88,12.88,0,0,0,554.24,882.86Z"/><path class="cls-16" d="M579.09,925.61A12.88,12.88,0,1,0,592,912.74,12.88,12.88,0,0,0,579.09,925.61Z"/><path class="cls-16" d="M584.06,759.37a12.88,12.88,0,1,0,12.88-12.88A12.88,12.88,0,0,0,584.06,759.37Z"/><path class="cls-16" d="M584.06,878.11a12.88,12.88,0,1,0,12.88-12.88A12.88,12.88,0,0,0,584.06,878.11Z"/><path class="cls-16" d="M584.06,612.12a12.88,12.88,0,1,0,12.88-12.88A12.88,12.88,0,0,0,584.06,612.12Z"/><path class="cls-16" d="M584.06,521.87A12.88,12.88,0,1,0,596.94,509,12.88,12.88,0,0,0,584.06,521.87Z"/><path class="cls-16" d="M584.06,583.62a12.88,12.88,0,1,0,12.88-12.88A12.88,12.88,0,0,0,584.06,583.62Z"/><path class="cls-16" d="M589,526.62a12.88,12.88,0,1,0,12.88-12.88A12.88,12.88,0,0,0,589,526.62Z"/><path class="cls-16" d="M603.94,555.12a12.88,12.88,0,1,0,12.88-12.88A12.88,12.88,0,0,0,603.94,555.12Z"/><path class="cls-16" d="M608.91,740.37a12.88,12.88,0,1,0,12.88-12.88A12.88,12.88,0,0,0,608.91,740.37Z"/><path class="cls-16" d="M653.65,811.61a12.88,12.88,0,1,0,12.88-12.88A12.88,12.88,0,0,0,653.65,811.61Z"/><path class="cls-16" d="M653.65,650.12a12.88,12.88,0,1,0,12.88-12.88A12.88,12.88,0,0,0,653.65,650.12Z"/><path class="cls-16" d="M693.41,540.87A12.88,12.88,0,1,0,706.29,528,12.88,12.88,0,0,0,693.41,540.87Z"/><path class="cls-16" d="M723.24,849.61a12.88,12.88,0,1,0,12.88-12.88A12.88,12.88,0,0,0,723.24,849.61Z"/><path class="cls-16" d="M723.24,588.37a12.88,12.88,0,1,0,12.88-12.88A12.88,12.88,0,0,0,723.24,588.37Z"/><path class="cls-16" d="M743.12,802.11A12.88,12.88,0,1,0,756,789.24,12.88,12.88,0,0,0,743.12,802.11Z"/><path class="cls-16" d="M743.12,768.87A12.88,12.88,0,1,0,756,756,12.88,12.88,0,0,0,743.12,768.87Z"/><path class="cls-16" d="M753.06,678.62a12.88,12.88,0,1,0,12.88-12.88A12.88,12.88,0,0,0,753.06,678.62Z"/><path class="cls-16" d="M758,626.37a12.88,12.88,0,1,0,12.88-12.88A12.88,12.88,0,0,0,758,626.37Z"/><path class="cls-16" d="M802.77,740.37a12.88,12.88,0,1,0,12.88-12.88A12.88,12.88,0,0,0,802.77,740.37Z"/><path class="cls-16" d="M817.68,578.87A12.88,12.88,0,1,0,830.56,566,12.88,12.88,0,0,0,817.68,578.87Z"/><path class="cls-16" d="M817.68,450.62a12.88,12.88,0,1,0,12.88-12.88A12.88,12.88,0,0,0,817.68,450.62Z"/><path class="cls-16" d="M822.65,493.37a12.88,12.88,0,1,0,12.88-12.88A12.88,12.88,0,0,0,822.65,493.37Z"/><path class="cls-16" d="M827.62,469.62a12.88,12.88,0,1,0,12.88-12.88A12.88,12.88,0,0,0,827.62,469.62Z"/><path class="cls-16" d="M827.62,578.87A12.88,12.88,0,1,0,840.5,566,12.88,12.88,0,0,0,827.62,578.87Z"/><path class="cls-16" d="M862.42,578.87A12.88,12.88,0,1,0,875.29,566,12.88,12.88,0,0,0,862.42,578.87Z"/><path class="cls-16" d="M862.42,650.12a12.88,12.88,0,1,0,12.88-12.88A12.88,12.88,0,0,0,862.42,650.12Z"/><path class="cls-16" d="M882.3,526.62a12.88,12.88,0,1,0,12.88-12.88A12.88,12.88,0,0,0,882.3,526.62Z"/><path class="cls-16" d="M897.21,721.37a12.88,12.88,0,1,0,12.88-12.88A12.88,12.88,0,0,0,897.21,721.37Z"/><path class="cls-16" d="M996.62,664.37a12.88,12.88,0,1,0,12.88-12.88A12.88,12.88,0,0,0,996.62,664.37Z"/><path class="cls-16" d="M1001.59,431.62a12.88,12.88,0,1,0,12.88-12.88A12.88,12.88,0,0,0,1001.59,431.62Z"/><path class="cls-16" d="M1036.39,735.62a12.88,12.88,0,1,0,12.88-12.88A12.88,12.88,0,0,0,1036.39,735.62Z"/><path class="cls-16" d="M1036.39,507.62a12.88,12.88,0,1,0,12.88-12.88A12.88,12.88,0,0,0,1036.39,507.62Z"/><path class="cls-16" d="M1036.39,483.87A12.88,12.88,0,1,0,1049.26,471,12.88,12.88,0,0,0,1036.39,483.87Z"/><path class="cls-16" d="M1046.33,569.37a12.88,12.88,0,1,0,12.88-12.88A12.88,12.88,0,0,0,1046.33,569.37Z"/><path class="cls-16" d="M1056.27,773.62a12.88,12.88,0,1,0,12.88-12.88A12.88,12.88,0,0,0,1056.27,773.62Z"/><path class="cls-16" d="M1056.27,749.87A12.88,12.88,0,1,0,1069.14,737,12.88,12.88,0,0,0,1056.27,749.87Z"/><path class="cls-16" d="M1071.18,593.12a12.88,12.88,0,1,0,12.88-12.88A12.88,12.88,0,0,0,1071.18,593.12Z"/><path class="cls-16" d="M1096,654.87A12.88,12.88,0,1,0,1108.91,642,12.88,12.88,0,0,0,1096,654.87Z"/><path class="cls-16" d="M1096,626.37a12.88,12.88,0,1,0,12.88-12.88A12.88,12.88,0,0,0,1096,626.37Z"/><path class="cls-16" d="M1140.77,569.37a12.88,12.88,0,1,0,12.88-12.88A12.88,12.88,0,0,0,1140.77,569.37Z"/><path class="cls-16" d="M1160.65,730.87A12.88,12.88,0,1,0,1173.53,718,12.88,12.88,0,0,0,1160.65,730.87Z"/><path class="cls-16" d="M1175.56,607.37a12.88,12.88,0,1,0,12.88-12.88A12.88,12.88,0,0,0,1175.56,607.37Z"/><path class="cls-16" d="M1175.56,616.87A12.88,12.88,0,1,0,1188.44,604,12.88,12.88,0,0,0,1175.56,616.87Z"/><path class="cls-16" d="M1175.56,488.62a12.88,12.88,0,1,0,12.88-12.88A12.88,12.88,0,0,0,1175.56,488.62Z"/><path class="cls-16" d="M1195.45,873.36a12.88,12.88,0,1,0,12.88-12.88A12.88,12.88,0,0,0,1195.45,873.36Z"/><path class="cls-16" d="M1205.39,469.62a12.88,12.88,0,1,0,12.88-12.88A12.88,12.88,0,0,0,1205.39,469.62Z"/><path class="cls-16" d="M1240.18,664.37a12.88,12.88,0,1,0,12.88-12.88A12.88,12.88,0,0,0,1240.18,664.37Z"/><path class="cls-16" d="M1275,692.87A12.88,12.88,0,1,0,1287.85,680,12.88,12.88,0,0,0,1275,692.87Z"/><path class="cls-16" d="M1279.95,588.37a12.88,12.88,0,1,0,12.88-12.88A12.88,12.88,0,0,0,1279.95,588.37Z"/><path class="cls-16" d="M1279.95,640.62a12.88,12.88,0,1,0,12.88-12.88A12.88,12.88,0,0,0,1279.95,640.62Z"/><path class="cls-16" d="M1289.89,602.62a12.88,12.88,0,1,0,12.88-12.88A12.88,12.88,0,0,0,1289.89,602.62Z"/><path class="cls-16" d="M1300,683.37a12.88,12.88,0,1,0,12.88-12.88A12.88,12.88,0,0,0,1300,683.37Z"/><path class="cls-16" d="M1300,726.12a12.88,12.88,0,1,0,12.88-12.88A12.88,12.88,0,0,0,1300,726.12Z"/><path class="cls-16" d="M1339.8,678.62a12.88,12.88,0,1,0,12.88-12.88A12.88,12.88,0,0,0,1339.8,678.62Z"/><path class="cls-16" d="M1349.74,488.62a12.88,12.88,0,1,0,12.88-12.88A12.88,12.88,0,0,0,1349.74,488.62Z"/><path class="cls-16" d="M1349.74,588.37a12.88,12.88,0,1,0,12.88-12.88A12.88,12.88,0,0,0,1349.74,588.37Z"/><path class="cls-16" d="M1349.74,512.37a12.88,12.88,0,1,0,12.88-12.88A12.88,12.88,0,0,0,1349.74,512.37Z"/><path class="cls-16" d="M1359.68,830.61a12.88,12.88,0,1,0,12.88-12.88A12.88,12.88,0,0,0,1359.68,830.61Z"/><path class="cls-16" d="M1374.59,806.86A12.88,12.88,0,1,0,1387.47,794,12.88,12.88,0,0,0,1374.59,806.86Z"/><path class="cls-16" d="M1474,830.61a12.88,12.88,0,1,0,12.88-12.88A12.88,12.88,0,0,0,1474,830.61Z"/><path class="cls-16" d="M1488.92,650.12a12.88,12.88,0,1,0,12.88-12.88A12.88,12.88,0,0,0,1488.92,650.12Z"/><path class="cls-16" d="M1508.8,564.62a12.88,12.88,0,1,0,12.88-12.88A12.88,12.88,0,0,0,1508.8,564.62Z"/><path class="cls-16" d="M1513.77,882.86A12.88,12.88,0,1,0,1526.65,870,12.88,12.88,0,0,0,1513.77,882.86Z"/><path class="cls-16" d="M1518.74,806.86A12.88,12.88,0,1,0,1531.62,794,12.88,12.88,0,0,0,1518.74,806.86Z"/><path class="cls-16" d="M1523.71,711.87A12.88,12.88,0,1,0,1536.59,699,12.88,12.88,0,0,0,1523.71,711.87Z"/><path class="cls-16" d="M1523.71,844.86A12.88,12.88,0,1,0,1536.59,832,12.88,12.88,0,0,0,1523.71,844.86Z"/><path class="cls-16" d="M1523.71,578.87A12.88,12.88,0,1,0,1536.59,566,12.88,12.88,0,0,0,1523.71,578.87Z"/><path class="cls-16" d="M1523.71,764.12a12.88,12.88,0,1,0,12.88-12.88A12.88,12.88,0,0,0,1523.71,764.12Z"/><path class="cls-16" d="M1533.65,730.87A12.88,12.88,0,1,0,1546.53,718,12.88,12.88,0,0,0,1533.65,730.87Z"/><path class="cls-16" d="M1558.51,702.37a12.88,12.88,0,1,0,12.88-12.88A12.88,12.88,0,0,0,1558.51,702.37Z"/><path class="cls-16" d="M1588.33,825.86A12.88,12.88,0,1,0,1601.21,813,12.88,12.88,0,0,0,1588.33,825.86Z"/><path class="cls-16" d="M1633.07,868.61a12.88,12.88,0,1,0,12.88-12.88A12.88,12.88,0,0,0,1633.07,868.61Z"/><path class="cls-16" d="M1648,607.37a12.88,12.88,0,1,0,12.88-12.88A12.88,12.88,0,0,0,1648,607.37Z"/><path class="cls-16" d="M1652.95,873.36a12.88,12.88,0,1,0,12.88-12.88A12.88,12.88,0,0,0,1652.95,873.36Z"/><path class="cls-16" d="M1672.83,830.61a12.88,12.88,0,1,0,12.88-12.88A12.88,12.88,0,0,0,1672.83,830.61Z"/><path class="cls-16" d="M1672.83,1030.11a12.88,12.88,0,1,0,12.88-12.88A12.88,12.88,0,0,0,1672.83,1030.11Z"/><path class="cls-16" d="M1682.77,830.61a12.88,12.88,0,1,0,12.88-12.88A12.88,12.88,0,0,0,1682.77,830.61Z"/><path class="cls-16" d="M1697.68,716.62a12.88,12.88,0,1,0,12.88-12.88A12.88,12.88,0,0,0,1697.68,716.62Z"/><path class="cls-16" d="M1727.51,645.37a12.88,12.88,0,1,0,12.88-12.88A12.88,12.88,0,0,0,1727.51,645.37Z"/><path class="cls-16" d="M1732.48,597.87A12.88,12.88,0,1,0,1745.35,585,12.88,12.88,0,0,0,1732.48,597.87Z"/><path class="cls-16" d="M1757.33,783.12a12.88,12.88,0,1,0,12.88-12.88A12.88,12.88,0,0,0,1757.33,783.12Z"/><path class="cls-16" d="M1767.27,726.12a12.88,12.88,0,1,0,12.88-12.88A12.88,12.88,0,0,0,1767.27,726.12Z"/><path class="cls-16" d="M1802.07,887.61a12.88,12.88,0,1,0,12.88-12.88A12.88,12.88,0,0,0,1802.07,887.61Z"/><path class="cls-16" d="M1802.07,640.62a12.88,12.88,0,1,0,12.88-12.88A12.88,12.88,0,0,0,1802.07,640.62Z"/><path class="cls-16" d="M1826.92,764.12a12.88,12.88,0,1,0,12.88-12.88A12.88,12.88,0,0,0,1826.92,764.12Z"/><path class="cls-16" d="M1836.86,854.36a12.88,12.88,0,1,0,12.88-12.88A12.88,12.88,0,0,0,1836.86,854.36Z"/><path class="cls-16" d="M1836.86,616.87A12.88,12.88,0,1,0,1849.74,604,12.88,12.88,0,0,0,1836.86,616.87Z"/><path class="cls-16" d="M1836.86,792.61a12.88,12.88,0,1,0,12.88-12.88A12.88,12.88,0,0,0,1836.86,792.61Z"/><path class="cls-16" d="M1836.86,616.87A12.88,12.88,0,1,0,1849.74,604,12.88,12.88,0,0,0,1836.86,616.87Z"/><path class="cls-16" d="M1866.68,821.11a12.88,12.88,0,1,0,12.88-12.88A12.88,12.88,0,0,0,1866.68,821.11Z"/><path class="cls-16" d="M1866.68,740.37a12.88,12.88,0,1,0,12.88-12.88A12.88,12.88,0,0,0,1866.68,740.37Z"/><path class="cls-16" d="M1871.65,830.61a12.88,12.88,0,1,0,12.88-12.88A12.88,12.88,0,0,0,1871.65,830.61Z"/><path class="cls-16" d="M1871.65,635.87A12.88,12.88,0,1,0,1884.53,623,12.88,12.88,0,0,0,1871.65,635.87Z"/><path class="cls-16" d="M1941.24,906.61a12.88,12.88,0,1,0,12.88-12.88A12.88,12.88,0,0,0,1941.24,906.61Z"/><path class="cls-16" d="M1941.24,768.87A12.88,12.88,0,1,0,1954.12,756,12.88,12.88,0,0,0,1941.24,768.87Z"/><path class="cls-16" d="M1941.24,688.12a12.88,12.88,0,1,0,12.88-12.88A12.88,12.88,0,0,0,1941.24,688.12Z"/><path class="cls-16" d="M1951.18,773.62a12.88,12.88,0,1,0,12.88-12.88A12.88,12.88,0,0,0,1951.18,773.62Z"/><path class="cls-16" d="M1956.16,654.87A12.88,12.88,0,1,0,1969,642,12.88,12.88,0,0,0,1956.16,654.87Z"/><path class="cls-16" d="M1966.1,925.61A12.88,12.88,0,1,0,1979,912.74,12.88,12.88,0,0,0,1966.1,925.61Z"/><path class="cls-16" d="M1976,635.87A12.88,12.88,0,1,0,1988.91,623,12.88,12.88,0,0,0,1976,635.87Z"/><path class="cls-17" d="M97.15,688.12A12.88,12.88,0,1,0,110,675.24,12.88,12.88,0,0,0,97.15,688.12Z"/><path class="cls-17" d="M97.15,597.87A12.88,12.88,0,1,0,110,585,12.88,12.88,0,0,0,97.15,597.87Z"/><path class="cls-17" d="M112.06,365.12a12.88,12.88,0,1,0,12.88-12.88A12.88,12.88,0,0,0,112.06,365.12Z"/><path class="cls-17" d="M122,331.87A12.88,12.88,0,1,0,134.88,319,12.88,12.88,0,0,0,122,331.87Z"/><path class="cls-17" d="M122,621.62a12.88,12.88,0,1,0,12.88-12.88A12.88,12.88,0,0,0,122,621.62Z"/><path class="cls-17" d="M156.8,441.12a12.88,12.88,0,1,0,12.88-12.88A12.88,12.88,0,0,0,156.8,441.12Z"/><path class="cls-17" d="M166.74,607.37a12.88,12.88,0,1,0,12.88-12.88A12.88,12.88,0,0,0,166.74,607.37Z"/><path class="cls-17" d="M166.74,550.37a12.88,12.88,0,1,0,12.88-12.88A12.88,12.88,0,0,0,166.74,550.37Z"/><path class="cls-17" d="M221.21,469.62a12.88,12.88,0,1,0,12.88-12.88A12.88,12.88,0,0,0,221.21,469.62Z"/><path class="cls-17" d="M231.15,436.37A12.88,12.88,0,1,0,244,423.5,12.88,12.88,0,0,0,231.15,436.37Z"/><path class="cls-17" d="M246.06,483.87A12.88,12.88,0,1,0,258.94,471,12.88,12.88,0,0,0,246.06,483.87Z"/><path class="cls-17" d="M265.94,374.62a12.88,12.88,0,1,0,12.88-12.88A12.88,12.88,0,0,0,265.94,374.62Z"/><path class="cls-17" d="M270.91,597.87A12.88,12.88,0,1,0,283.79,585,12.88,12.88,0,0,0,270.91,597.87Z"/><path class="cls-17" d="M285.83,317.62a12.88,12.88,0,1,0,12.88-12.88A12.88,12.88,0,0,0,285.83,317.62Z"/><path class="cls-17" d="M305.71,583.62a12.88,12.88,0,1,0,12.88-12.88A12.88,12.88,0,0,0,305.71,583.62Z"/><path class="cls-17" d="M305.71,540.87A12.88,12.88,0,1,0,318.58,528,12.88,12.88,0,0,0,305.71,540.87Z"/><path class="cls-17" d="M330.56,384.12a12.88,12.88,0,1,0,12.88-12.88A12.88,12.88,0,0,0,330.56,384.12Z"/><path class="cls-17" d="M390.21,802.11a12.88,12.88,0,1,0,12.88-12.88A12.88,12.88,0,0,0,390.21,802.11Z"/><path class="cls-17" d="M434.94,569.37a12.88,12.88,0,1,0,12.88-12.88A12.88,12.88,0,0,0,434.94,569.37Z"/><path class="cls-17" d="M434.94,355.62a12.88,12.88,0,1,0,12.88-12.88A12.88,12.88,0,0,0,434.94,355.62Z"/><path class="cls-17" d="M434.94,536.12a12.88,12.88,0,1,0,12.88-12.88A12.88,12.88,0,0,0,434.94,536.12Z"/><path class="cls-17" d="M439.91,331.87A12.88,12.88,0,1,0,452.79,319,12.88,12.88,0,0,0,439.91,331.87Z"/><path class="cls-17" d="M514.47,578.87A12.88,12.88,0,1,0,527.35,566,12.88,12.88,0,0,0,514.47,578.87Z"/><path class="cls-17" d="M519.44,384.12a12.88,12.88,0,1,0,12.88-12.88A12.88,12.88,0,0,0,519.44,384.12Z"/><path class="cls-17" d="M529.38,379.37a12.88,12.88,0,1,0,12.88-12.88A12.88,12.88,0,0,0,529.38,379.37Z"/><path class="cls-17" d="M529.38,597.87A12.88,12.88,0,1,0,542.26,585,12.88,12.88,0,0,0,529.38,597.87Z"/><path class="cls-17" d="M534.36,483.87A12.88,12.88,0,1,0,547.23,471,12.88,12.88,0,0,0,534.36,483.87Z"/><path class="cls-17" d="M554.24,588.37a12.88,12.88,0,1,0,12.88-12.88A12.88,12.88,0,0,0,554.24,588.37Z"/><path class="cls-17" d="M579.09,669.12A12.88,12.88,0,1,0,592,656.24,12.88,12.88,0,0,0,579.09,669.12Z"/><path class="cls-17" d="M584.06,517.12a12.88,12.88,0,1,0,12.88-12.88A12.88,12.88,0,0,0,584.06,517.12Z"/><path class="cls-17" d="M584.06,512.37a12.88,12.88,0,1,0,12.88-12.88A12.88,12.88,0,0,0,584.06,512.37Z"/><path class="cls-17" d="M584.06,683.37a12.88,12.88,0,1,0,12.88-12.88A12.88,12.88,0,0,0,584.06,683.37Z"/><path class="cls-17" d="M584.06,735.62a12.88,12.88,0,1,0,12.88-12.88A12.88,12.88,0,0,0,584.06,735.62Z"/><path class="cls-17" d="M584.06,735.62a12.88,12.88,0,1,0,12.88-12.88A12.88,12.88,0,0,0,584.06,735.62Z"/><path class="cls-17" d="M589,740.37a12.88,12.88,0,1,0,12.88-12.88A12.88,12.88,0,0,0,589,740.37Z"/><path class="cls-17" d="M603.94,759.37a12.88,12.88,0,1,0,12.88-12.88A12.88,12.88,0,0,0,603.94,759.37Z"/><path class="cls-17" d="M608.91,654.87A12.88,12.88,0,1,0,621.79,642,12.88,12.88,0,0,0,608.91,654.87Z"/><path class="cls-17" d="M653.65,536.12a12.88,12.88,0,1,0,12.88-12.88A12.88,12.88,0,0,0,653.65,536.12Z"/><path class="cls-17" d="M653.65,688.12a12.88,12.88,0,1,0,12.88-12.88A12.88,12.88,0,0,0,653.65,688.12Z"/><path class="cls-17" d="M693.41,759.37a12.88,12.88,0,1,0,12.88-12.88A12.88,12.88,0,0,0,693.41,759.37Z"/><path class="cls-17" d="M723.24,502.87A12.88,12.88,0,1,0,736.11,490,12.88,12.88,0,0,0,723.24,502.87Z"/><path class="cls-17" d="M723.24,759.37a12.88,12.88,0,1,0,12.88-12.88A12.88,12.88,0,0,0,723.24,759.37Z"/><path class="cls-17" d="M743.12,616.87A12.88,12.88,0,1,0,756,604,12.88,12.88,0,0,0,743.12,616.87Z"/><path class="cls-17" d="M743.12,768.87A12.88,12.88,0,1,0,756,756,12.88,12.88,0,0,0,743.12,768.87Z"/><path class="cls-17" d="M753.06,588.37a12.88,12.88,0,1,0,12.88-12.88A12.88,12.88,0,0,0,753.06,588.37Z"/><path class="cls-17" d="M758,697.62a12.88,12.88,0,1,0,12.88-12.88A12.88,12.88,0,0,0,758,697.62Z"/><path class="cls-17" d="M802.77,749.87A12.88,12.88,0,1,0,815.64,737,12.88,12.88,0,0,0,802.77,749.87Z"/><path class="cls-17" d="M817.68,783.12a12.88,12.88,0,1,0,12.88-12.88A12.88,12.88,0,0,0,817.68,783.12Z"/><path class="cls-17" d="M817.68,749.87A12.88,12.88,0,1,0,830.56,737,12.88,12.88,0,0,0,817.68,749.87Z"/><path class="cls-17" d="M822.65,806.86A12.88,12.88,0,1,0,835.53,794,12.88,12.88,0,0,0,822.65,806.86Z"/><path class="cls-17" d="M827.62,825.86A12.88,12.88,0,1,0,840.5,813,12.88,12.88,0,0,0,827.62,825.86Z"/><path class="cls-17" d="M827.62,735.62a12.88,12.88,0,1,0,12.88-12.88A12.88,12.88,0,0,0,827.62,735.62Z"/><path class="cls-17" d="M862.42,626.37a12.88,12.88,0,1,0,12.88-12.88A12.88,12.88,0,0,0,862.42,626.37Z"/><path class="cls-17" d="M862.42,730.87A12.88,12.88,0,1,0,875.29,718,12.88,12.88,0,0,0,862.42,730.87Z"/><path class="cls-17" d="M882.3,816.36a12.88,12.88,0,1,0,12.88-12.88A12.88,12.88,0,0,0,882.3,816.36Z"/><path class="cls-17" d="M897.21,692.87A12.88,12.88,0,1,0,910.09,680,12.88,12.88,0,0,0,897.21,692.87Z"/><path class="cls-17" d="M996.62,640.62a12.88,12.88,0,1,0,12.88-12.88A12.88,12.88,0,0,0,996.62,640.62Z"/><path class="cls-17" d="M1001.59,844.86A12.88,12.88,0,1,0,1014.47,832,12.88,12.88,0,0,0,1001.59,844.86Z"/><path class="cls-17" d="M1036.39,635.87A12.88,12.88,0,1,0,1049.26,623,12.88,12.88,0,0,0,1036.39,635.87Z"/><path class="cls-17" d="M1036.39,759.37a12.88,12.88,0,1,0,12.88-12.88A12.88,12.88,0,0,0,1036.39,759.37Z"/><path class="cls-17" d="M1036.39,849.61a12.88,12.88,0,1,0,12.88-12.88A12.88,12.88,0,0,0,1036.39,849.61Z"/><path class="cls-17" d="M1046.33,797.36a12.88,12.88,0,1,0,12.88-12.88A12.88,12.88,0,0,0,1046.33,797.36Z"/><path class="cls-17" d="M1056.27,602.62a12.88,12.88,0,1,0,12.88-12.88A12.88,12.88,0,0,0,1056.27,602.62Z"/><path class="cls-17" d="M1056.27,806.86A12.88,12.88,0,1,0,1069.14,794,12.88,12.88,0,0,0,1056.27,806.86Z"/><path class="cls-17" d="M1071.18,688.12a12.88,12.88,0,1,0,12.88-12.88A12.88,12.88,0,0,0,1071.18,688.12Z"/><path class="cls-17" d="M1096,749.87A12.88,12.88,0,1,0,1108.91,737,12.88,12.88,0,0,0,1096,749.87Z"/><path class="cls-17" d="M1096,659.62a12.88,12.88,0,1,0,12.88-12.88A12.88,12.88,0,0,0,1096,659.62Z"/><path class="cls-17" d="M1140.77,678.62a12.88,12.88,0,1,0,12.88-12.88A12.88,12.88,0,0,0,1140.77,678.62Z"/><path class="cls-17" d="M1160.65,640.62a12.88,12.88,0,1,0,12.88-12.88A12.88,12.88,0,0,0,1160.65,640.62Z"/><path class="cls-17" d="M1175.56,711.87A12.88,12.88,0,1,0,1188.44,699,12.88,12.88,0,0,0,1175.56,711.87Z"/><path class="cls-17" d="M1175.56,683.37a12.88,12.88,0,1,0,12.88-12.88A12.88,12.88,0,0,0,1175.56,683.37Z"/><path class="cls-17" d="M1175.56,821.11a12.88,12.88,0,1,0,12.88-12.88A12.88,12.88,0,0,0,1175.56,821.11Z"/><path class="cls-17" d="M1195.45,740.37a12.88,12.88,0,1,0,12.88-12.88A12.88,12.88,0,0,0,1195.45,740.37Z"/><path class="cls-17" d="M1205.39,811.61a12.88,12.88,0,1,0,12.88-12.88A12.88,12.88,0,0,0,1205.39,811.61Z"/><path class="cls-17" d="M1240.18,825.86A12.88,12.88,0,1,0,1253.06,813,12.88,12.88,0,0,0,1240.18,825.86Z"/><path class="cls-17" d="M1275,597.87A12.88,12.88,0,1,0,1287.85,585,12.88,12.88,0,0,0,1275,597.87Z"/><path class="cls-17" d="M1279.95,692.87A12.88,12.88,0,1,0,1292.82,680,12.88,12.88,0,0,0,1279.95,692.87Z"/><path class="cls-17" d="M1279.95,697.62a12.88,12.88,0,1,0,12.88-12.88A12.88,12.88,0,0,0,1279.95,697.62Z"/><path class="cls-17" d="M1289.89,787.87A12.88,12.88,0,1,0,1302.76,775,12.88,12.88,0,0,0,1289.89,787.87Z"/><path class="cls-17" d="M1300,726.12a12.88,12.88,0,1,0,12.88-12.88A12.88,12.88,0,0,0,1300,726.12Z"/><path class="cls-17" d="M1300,702.37a12.88,12.88,0,1,0,12.88-12.88A12.88,12.88,0,0,0,1300,702.37Z"/><path class="cls-17" d="M1339.8,697.62a12.88,12.88,0,1,0,12.88-12.88A12.88,12.88,0,0,0,1339.8,697.62Z"/><path class="cls-17" d="M1349.74,792.61a12.88,12.88,0,1,0,12.88-12.88A12.88,12.88,0,0,0,1349.74,792.61Z"/><path class="cls-17" d="M1349.74,659.62a12.88,12.88,0,1,0,12.88-12.88A12.88,12.88,0,0,0,1349.74,659.62Z"/><path class="cls-17" d="M1349.74,768.87A12.88,12.88,0,1,0,1362.62,756,12.88,12.88,0,0,0,1349.74,768.87Z"/><path class="cls-17" d="M1359.68,873.36a12.88,12.88,0,1,0,12.88-12.88A12.88,12.88,0,0,0,1359.68,873.36Z"/><path class="cls-17" d="M1374.59,673.87A12.88,12.88,0,1,0,1387.47,661,12.88,12.88,0,0,0,1374.59,673.87Z"/><path class="cls-17" d="M1474,721.37a12.88,12.88,0,1,0,12.88-12.88A12.88,12.88,0,0,0,1474,721.37Z"/><path class="cls-17" d="M1488.92,650.12a12.88,12.88,0,1,0,12.88-12.88A12.88,12.88,0,0,0,1488.92,650.12Z"/><path class="cls-17" d="M1508.8,816.36a12.88,12.88,0,1,0,12.88-12.88A12.88,12.88,0,0,0,1508.8,816.36Z"/><path class="cls-17" d="M1513.77,764.12a12.88,12.88,0,1,0,12.88-12.88A12.88,12.88,0,0,0,1513.77,764.12Z"/><path class="cls-17" d="M1518.74,759.37a12.88,12.88,0,1,0,12.88-12.88A12.88,12.88,0,0,0,1518.74,759.37Z"/><path class="cls-17" d="M1523.71,835.36a12.88,12.88,0,1,0,12.88-12.88A12.88,12.88,0,0,0,1523.71,835.36Z"/><path class="cls-17" d="M1523.71,768.87A12.88,12.88,0,1,0,1536.59,756,12.88,12.88,0,0,0,1523.71,768.87Z"/><path class="cls-17" d="M1523.71,882.86A12.88,12.88,0,1,0,1536.59,870,12.88,12.88,0,0,0,1523.71,882.86Z"/><path class="cls-17" d="M1523.71,754.62a12.88,12.88,0,1,0,12.88-12.88A12.88,12.88,0,0,0,1523.71,754.62Z"/><path class="cls-17" d="M1533.65,863.86A12.88,12.88,0,1,0,1546.53,851,12.88,12.88,0,0,0,1533.65,863.86Z"/><path class="cls-17" d="M1558.51,659.62a12.88,12.88,0,1,0,12.88-12.88A12.88,12.88,0,0,0,1558.51,659.62Z"/><path class="cls-17" d="M1588.33,844.86A12.88,12.88,0,1,0,1601.21,832,12.88,12.88,0,0,0,1588.33,844.86Z"/><path class="cls-17" d="M1633.07,859.11a12.88,12.88,0,1,0,12.88-12.88A12.88,12.88,0,0,0,1633.07,859.11Z"/><path class="cls-17" d="M1648,806.86A12.88,12.88,0,1,0,1660.85,794,12.88,12.88,0,0,0,1648,806.86Z"/><path class="cls-17" d="M1652.95,887.61a12.88,12.88,0,1,0,12.88-12.88A12.88,12.88,0,0,0,1652.95,887.61Z"/><path class="cls-17" d="M1672.83,792.61a12.88,12.88,0,1,0,12.88-12.88A12.88,12.88,0,0,0,1672.83,792.61Z"/><path class="cls-17" d="M1672.83,897.11a12.88,12.88,0,1,0,12.88-12.88A12.88,12.88,0,0,0,1672.83,897.11Z"/><path class="cls-17" d="M1682.77,892.36a12.88,12.88,0,1,0,12.88-12.88A12.88,12.88,0,0,0,1682.77,892.36Z"/><path class="cls-17" d="M1697.68,645.37a12.88,12.88,0,1,0,12.88-12.88A12.88,12.88,0,0,0,1697.68,645.37Z"/><path class="cls-17" d="M1727.51,925.61a12.88,12.88,0,1,0,12.88-12.88A12.88,12.88,0,0,0,1727.51,925.61Z"/><path class="cls-17" d="M1732.48,849.61a12.88,12.88,0,1,0,12.88-12.88A12.88,12.88,0,0,0,1732.48,849.61Z"/><path class="cls-17" d="M1757.33,806.86A12.88,12.88,0,1,0,1770.21,794,12.88,12.88,0,0,0,1757.33,806.86Z"/><path class="cls-17" d="M1767.27,745.12a12.88,12.88,0,1,0,12.88-12.88A12.88,12.88,0,0,0,1767.27,745.12Z"/><path class="cls-17" d="M1802.07,930.36a12.88,12.88,0,1,0,12.88-12.88A12.88,12.88,0,0,0,1802.07,930.36Z"/><path class="cls-17" d="M1802.07,825.86A12.88,12.88,0,1,0,1814.94,813,12.88,12.88,0,0,0,1802.07,825.86Z"/><path class="cls-17" d="M1826.92,1006.36a12.88,12.88,0,1,0,12.88-12.88A12.88,12.88,0,0,0,1826.92,1006.36Z"/><path class="cls-17" d="M1836.86,849.61a12.88,12.88,0,1,0,12.88-12.88A12.88,12.88,0,0,0,1836.86,849.61Z"/><path class="cls-17" d="M1836.86,840.11a12.88,12.88,0,1,0,12.88-12.88A12.88,12.88,0,0,0,1836.86,840.11Z"/><path class="cls-17" d="M1836.86,1049.11a12.88,12.88,0,1,0,12.88-12.88A12.88,12.88,0,0,0,1836.86,1049.11Z"/><path class="cls-17" d="M1836.86,925.61a12.88,12.88,0,1,0,12.88-12.88A12.88,12.88,0,0,0,1836.86,925.61Z"/><path class="cls-17" d="M1866.68,1096.61a12.88,12.88,0,1,0,12.88-12.88A12.88,12.88,0,0,0,1866.68,1096.61Z"/><path class="cls-17" d="M1866.68,778.37a12.88,12.88,0,1,0,12.88-12.88A12.88,12.88,0,0,0,1866.68,778.37Z"/><path class="cls-17" d="M1871.65,977.86A12.88,12.88,0,1,0,1884.53,965,12.88,12.88,0,0,0,1871.65,977.86Z"/><path class="cls-17" d="M1871.65,992.11a12.88,12.88,0,1,0,12.88-12.88A12.88,12.88,0,0,0,1871.65,992.11Z"/><path class="cls-17" d="M1941.24,892.36a12.88,12.88,0,1,0,12.88-12.88A12.88,12.88,0,0,0,1941.24,892.36Z"/><path class="cls-17" d="M1941.24,773.62a12.88,12.88,0,1,0,12.88-12.88A12.88,12.88,0,0,0,1941.24,773.62Z"/><path class="cls-17" d="M1941.24,1110.86a12.88,12.88,0,1,0,12.88-12.88A12.88,12.88,0,0,0,1941.24,1110.86Z"/><path class="cls-17" d="M1951.18,973.11a12.88,12.88,0,1,0,12.88-12.88A12.88,12.88,0,0,0,1951.18,973.11Z"/><path class="cls-17" d="M1956.16,878.11A12.88,12.88,0,1,0,1969,865.24,12.88,12.88,0,0,0,1956.16,878.11Z"/><path class="cls-17" d="M1966.1,944.61A12.88,12.88,0,1,0,1979,931.74,12.88,12.88,0,0,0,1966.1,944.61Z"/><path class="cls-17" d="M1976,892.36a12.88,12.88,0,1,0,12.88-12.88A12.88,12.88,0,0,0,1976,892.36Z"/><path class="cls-18" d="M97.15,597.87A12.88,12.88,0,1,0,110,585,12.88,12.88,0,0,0,97.15,597.87Z"/><path class="cls-18" d="M97.15,640.62A12.88,12.88,0,1,0,110,627.74,12.88,12.88,0,0,0,97.15,640.62Z"/><path class="cls-18" d="M112.06,816.36a12.88,12.88,0,1,0,12.88-12.88A12.88,12.88,0,0,0,112.06,816.36Z"/><path class="cls-18" d="M122,740.37a12.88,12.88,0,1,0,12.88-12.88A12.88,12.88,0,0,0,122,740.37Z"/><path class="cls-18" d="M122,583.62a12.88,12.88,0,1,0,12.88-12.88A12.88,12.88,0,0,0,122,583.62Z"/><path class="cls-18" d="M156.8,688.12a12.88,12.88,0,1,0,12.88-12.88A12.88,12.88,0,0,0,156.8,688.12Z"/><path class="cls-18" d="M166.74,768.87A12.88,12.88,0,1,0,179.61,756,12.88,12.88,0,0,0,166.74,768.87Z"/><path class="cls-18" d="M166.74,664.37a12.88,12.88,0,1,0,12.88-12.88A12.88,12.88,0,0,0,166.74,664.37Z"/><path class="cls-18" d="M221.21,802.11a12.88,12.88,0,1,0,12.88-12.88A12.88,12.88,0,0,0,221.21,802.11Z"/><path class="cls-18" d="M231.15,816.36A12.88,12.88,0,1,0,244,803.49,12.88,12.88,0,0,0,231.15,816.36Z"/><path class="cls-18" d="M246.06,768.87A12.88,12.88,0,1,0,258.94,756,12.88,12.88,0,0,0,246.06,768.87Z"/><path class="cls-18" d="M265.94,830.61a12.88,12.88,0,1,0,12.88-12.88A12.88,12.88,0,0,0,265.94,830.61Z"/><path class="cls-18" d="M270.91,593.12a12.88,12.88,0,1,0,12.88-12.88A12.88,12.88,0,0,0,270.91,593.12Z"/><path class="cls-18" d="M285.83,778.37a12.88,12.88,0,1,0,12.88-12.88A12.88,12.88,0,0,0,285.83,778.37Z"/><path class="cls-18" d="M305.71,621.62a12.88,12.88,0,1,0,12.88-12.88A12.88,12.88,0,0,0,305.71,621.62Z"/><path class="cls-18" d="M305.71,678.62a12.88,12.88,0,1,0,12.88-12.88A12.88,12.88,0,0,0,305.71,678.62Z"/><path class="cls-18" d="M330.56,764.12a12.88,12.88,0,1,0,12.88-12.88A12.88,12.88,0,0,0,330.56,764.12Z"/><path class="cls-18" d="M390.21,555.12a12.88,12.88,0,1,0,12.88-12.88A12.88,12.88,0,0,0,390.21,555.12Z"/><path class="cls-18" d="M434.94,745.12a12.88,12.88,0,1,0,12.88-12.88A12.88,12.88,0,0,0,434.94,745.12Z"/><path class="cls-18" d="M434.94,835.36a12.88,12.88,0,1,0,12.88-12.88A12.88,12.88,0,0,0,434.94,835.36Z"/><path class="cls-18" d="M434.94,754.62a12.88,12.88,0,1,0,12.88-12.88A12.88,12.88,0,0,0,434.94,754.62Z"/><path class="cls-18" d="M439.91,783.12a12.88,12.88,0,1,0,12.88-12.88A12.88,12.88,0,0,0,439.91,783.12Z"/><path class="cls-18" d="M514.47,616.87A12.88,12.88,0,1,0,527.35,604,12.88,12.88,0,0,0,514.47,616.87Z"/><path class="cls-18" d="M519.44,773.62a12.88,12.88,0,1,0,12.88-12.88A12.88,12.88,0,0,0,519.44,773.62Z"/><path class="cls-18" d="M529.38,759.37a12.88,12.88,0,1,0,12.88-12.88A12.88,12.88,0,0,0,529.38,759.37Z"/><path class="cls-18" d="M529.38,645.37a12.88,12.88,0,1,0,12.88-12.88A12.88,12.88,0,0,0,529.38,645.37Z"/><path class="cls-18" d="M534.36,664.37a12.88,12.88,0,1,0,12.88-12.88A12.88,12.88,0,0,0,534.36,664.37Z"/><path class="cls-18" d="M554.24,692.87A12.88,12.88,0,1,0,567.11,680,12.88,12.88,0,0,0,554.24,692.87Z"/><path class="cls-18" d="M579.09,540.87A12.88,12.88,0,1,0,592,528,12.88,12.88,0,0,0,579.09,540.87Z"/><path class="cls-18" d="M584.06,469.62a12.88,12.88,0,1,0,12.88-12.88A12.88,12.88,0,0,0,584.06,469.62Z"/><path class="cls-18" d="M584.06,621.62a12.88,12.88,0,1,0,12.88-12.88A12.88,12.88,0,0,0,584.06,621.62Z"/><path class="cls-18" d="M584.06,545.62a12.88,12.88,0,1,0,12.88-12.88A12.88,12.88,0,0,0,584.06,545.62Z"/><path class="cls-18" d="M584.06,369.87A12.88,12.88,0,1,0,596.94,357,12.88,12.88,0,0,0,584.06,369.87Z"/><path class="cls-18" d="M584.06,512.37a12.88,12.88,0,1,0,12.88-12.88A12.88,12.88,0,0,0,584.06,512.37Z"/><path class="cls-18" d="M589,555.12a12.88,12.88,0,1,0,12.88-12.88A12.88,12.88,0,0,0,589,555.12Z"/><path class="cls-18" d="M603.94,450.62a12.88,12.88,0,1,0,12.88-12.88A12.88,12.88,0,0,0,603.94,450.62Z"/><path class="cls-18" d="M608.91,379.37a12.88,12.88,0,1,0,12.88-12.88A12.88,12.88,0,0,0,608.91,379.37Z"/><path class="cls-18" d="M653.65,602.62a12.88,12.88,0,1,0,12.88-12.88A12.88,12.88,0,0,0,653.65,602.62Z"/><path class="cls-18" d="M653.65,469.62a12.88,12.88,0,1,0,12.88-12.88A12.88,12.88,0,0,0,653.65,469.62Z"/><path class="cls-18" d="M693.41,488.62a12.88,12.88,0,1,0,12.88-12.88A12.88,12.88,0,0,0,693.41,488.62Z"/><path class="cls-18" d="M723.24,445.87A12.88,12.88,0,1,0,736.11,433,12.88,12.88,0,0,0,723.24,445.87Z"/><path class="cls-18" d="M723.24,450.62a12.88,12.88,0,1,0,12.88-12.88A12.88,12.88,0,0,0,723.24,450.62Z"/><path class="cls-18" d="M743.12,483.87A12.88,12.88,0,1,0,756,471,12.88,12.88,0,0,0,743.12,483.87Z"/><path class="cls-18" d="M743.12,317.62A12.88,12.88,0,1,0,756,304.75,12.88,12.88,0,0,0,743.12,317.62Z"/><path class="cls-18" d="M753.06,488.62a12.88,12.88,0,1,0,12.88-12.88A12.88,12.88,0,0,0,753.06,488.62Z"/><path class="cls-18" d="M758,479.12a12.88,12.88,0,1,0,12.88-12.88A12.88,12.88,0,0,0,758,479.12Z"/><path class="cls-18" d="M802.77,498.12a12.88,12.88,0,1,0,12.88-12.88A12.88,12.88,0,0,0,802.77,498.12Z"/><path class="cls-18" d="M817.68,474.37a12.88,12.88,0,1,0,12.88-12.88A12.88,12.88,0,0,0,817.68,474.37Z"/><path class="cls-18" d="M817.68,536.12a12.88,12.88,0,1,0,12.88-12.88A12.88,12.88,0,0,0,817.68,536.12Z"/><path class="cls-18" d="M822.65,412.62a12.88,12.88,0,1,0,12.88-12.88A12.88,12.88,0,0,0,822.65,412.62Z"/><path class="cls-18" d="M827.62,436.37A12.88,12.88,0,1,0,840.5,423.5,12.88,12.88,0,0,0,827.62,436.37Z"/><path class="cls-18" d="M827.62,502.87A12.88,12.88,0,1,0,840.5,490,12.88,12.88,0,0,0,827.62,502.87Z"/><path class="cls-18" d="M862.42,526.62a12.88,12.88,0,1,0,12.88-12.88A12.88,12.88,0,0,0,862.42,526.62Z"/><path class="cls-18" d="M862.42,564.62a12.88,12.88,0,1,0,12.88-12.88A12.88,12.88,0,0,0,862.42,564.62Z"/><path class="cls-18" d="M882.3,407.87A12.88,12.88,0,1,0,895.17,395,12.88,12.88,0,0,0,882.3,407.87Z"/><path class="cls-18" d="M897.21,483.87A12.88,12.88,0,1,0,910.09,471,12.88,12.88,0,0,0,897.21,483.87Z"/><path class="cls-18" d="M996.62,512.37a12.88,12.88,0,1,0,12.88-12.88A12.88,12.88,0,0,0,996.62,512.37Z"/><path class="cls-18" d="M1001.59,417.37a12.88,12.88,0,1,0,12.88-12.88A12.88,12.88,0,0,0,1001.59,417.37Z"/><path class="cls-18" d="M1036.39,559.87A12.88,12.88,0,1,0,1049.26,547,12.88,12.88,0,0,0,1036.39,559.87Z"/><path class="cls-18" d="M1036.39,455.37a12.88,12.88,0,1,0,12.88-12.88A12.88,12.88,0,0,0,1036.39,455.37Z"/><path class="cls-18" d="M1036.39,398.37a12.88,12.88,0,1,0,12.88-12.88A12.88,12.88,0,0,0,1036.39,398.37Z"/><path class="cls-18" d="M1046.33,555.12a12.88,12.88,0,1,0,12.88-12.88A12.88,12.88,0,0,0,1046.33,555.12Z"/><path class="cls-18" d="M1056.27,479.12a12.88,12.88,0,1,0,12.88-12.88A12.88,12.88,0,0,0,1056.27,479.12Z"/><path class="cls-18" d="M1056.27,289.12a12.88,12.88,0,1,0,12.88-12.88A12.88,12.88,0,0,0,1056.27,289.12Z"/><path class="cls-18" d="M1071.18,550.37a12.88,12.88,0,1,0,12.88-12.88A12.88,12.88,0,0,0,1071.18,550.37Z"/><path class="cls-18" d="M1096,422.12a12.88,12.88,0,1,0,12.88-12.88A12.88,12.88,0,0,0,1096,422.12Z"/><path class="cls-18" d="M1096,479.12a12.88,12.88,0,1,0,12.88-12.88A12.88,12.88,0,0,0,1096,479.12Z"/><path class="cls-18" d="M1140.77,569.37a12.88,12.88,0,1,0,12.88-12.88A12.88,12.88,0,0,0,1140.77,569.37Z"/><path class="cls-18" d="M1160.65,536.12a12.88,12.88,0,1,0,12.88-12.88A12.88,12.88,0,0,0,1160.65,536.12Z"/><path class="cls-18" d="M1175.56,540.87A12.88,12.88,0,1,0,1188.44,528,12.88,12.88,0,0,0,1175.56,540.87Z"/><path class="cls-18" d="M1175.56,673.87A12.88,12.88,0,1,0,1188.44,661,12.88,12.88,0,0,0,1175.56,673.87Z"/><path class="cls-18" d="M1175.56,422.12a12.88,12.88,0,1,0,12.88-12.88A12.88,12.88,0,0,0,1175.56,422.12Z"/><path class="cls-18" d="M1195.45,236.88A12.88,12.88,0,1,0,1208.32,224,12.88,12.88,0,0,0,1195.45,236.88Z"/><path class="cls-18" d="M1205.39,464.87A12.88,12.88,0,1,0,1218.26,452,12.88,12.88,0,0,0,1205.39,464.87Z"/><path class="cls-18" d="M1240.18,540.87A12.88,12.88,0,1,0,1253.06,528,12.88,12.88,0,0,0,1240.18,540.87Z"/><path class="cls-18" d="M1275,502.87A12.88,12.88,0,1,0,1287.85,490,12.88,12.88,0,0,0,1275,502.87Z"/><path class="cls-18" d="M1279.95,517.12a12.88,12.88,0,1,0,12.88-12.88A12.88,12.88,0,0,0,1279.95,517.12Z"/><path class="cls-18" d="M1279.95,692.87A12.88,12.88,0,1,0,1292.82,680,12.88,12.88,0,0,0,1279.95,692.87Z"/><path class="cls-18" d="M1289.89,578.87A12.88,12.88,0,1,0,1302.76,566,12.88,12.88,0,0,0,1289.89,578.87Z"/><path class="cls-18" d="M1300,569.37a12.88,12.88,0,1,0,12.88-12.88A12.88,12.88,0,0,0,1300,569.37Z"/><path class="cls-18" d="M1300,536.12a12.88,12.88,0,1,0,12.88-12.88A12.88,12.88,0,0,0,1300,536.12Z"/><path class="cls-18" d="M1339.8,474.37a12.88,12.88,0,1,0,12.88-12.88A12.88,12.88,0,0,0,1339.8,474.37Z"/><path class="cls-18" d="M1349.74,479.12a12.88,12.88,0,1,0,12.88-12.88A12.88,12.88,0,0,0,1349.74,479.12Z"/><path class="cls-18" d="M1349.74,531.37a12.88,12.88,0,1,0,12.88-12.88A12.88,12.88,0,0,0,1349.74,531.37Z"/><path class="cls-18" d="M1349.74,460.12a12.88,12.88,0,1,0,12.88-12.88A12.88,12.88,0,0,0,1349.74,460.12Z"/><path class="cls-18" d="M1359.68,255.88A12.88,12.88,0,1,0,1372.56,243,12.88,12.88,0,0,0,1359.68,255.88Z"/><path class="cls-18" d="M1374.59,593.12a12.88,12.88,0,1,0,12.88-12.88A12.88,12.88,0,0,0,1374.59,593.12Z"/><path class="cls-18" d="M1474,821.11a12.88,12.88,0,1,0,12.88-12.88A12.88,12.88,0,0,0,1474,821.11Z"/><path class="cls-18" d="M1488.92,635.87A12.88,12.88,0,1,0,1501.79,623,12.88,12.88,0,0,0,1488.92,635.87Z"/><path class="cls-18" d="M1508.8,540.87A12.88,12.88,0,1,0,1521.68,528,12.88,12.88,0,0,0,1508.8,540.87Z"/><path class="cls-18" d="M1513.77,683.37a12.88,12.88,0,1,0,12.88-12.88A12.88,12.88,0,0,0,1513.77,683.37Z"/><path class="cls-18" d="M1518.74,512.37a12.88,12.88,0,1,0,12.88-12.88A12.88,12.88,0,0,0,1518.74,512.37Z"/><path class="cls-18" d="M1523.71,669.12a12.88,12.88,0,1,0,12.88-12.88A12.88,12.88,0,0,0,1523.71,669.12Z"/><path class="cls-18" d="M1523.71,635.87A12.88,12.88,0,1,0,1536.59,623,12.88,12.88,0,0,0,1523.71,635.87Z"/><path class="cls-18" d="M1523.71,559.87A12.88,12.88,0,1,0,1536.59,547,12.88,12.88,0,0,0,1523.71,559.87Z"/><path class="cls-18" d="M1523.71,588.37a12.88,12.88,0,1,0,12.88-12.88A12.88,12.88,0,0,0,1523.71,588.37Z"/><path class="cls-18" d="M1533.65,593.12a12.88,12.88,0,1,0,12.88-12.88A12.88,12.88,0,0,0,1533.65,593.12Z"/><path class="cls-18" d="M1558.51,621.62a12.88,12.88,0,1,0,12.88-12.88A12.88,12.88,0,0,0,1558.51,621.62Z"/><path class="cls-18" d="M1588.33,664.37a12.88,12.88,0,1,0,12.88-12.88A12.88,12.88,0,0,0,1588.33,664.37Z"/><path class="cls-18" d="M1633.07,673.87A12.88,12.88,0,1,0,1645.94,661,12.88,12.88,0,0,0,1633.07,673.87Z"/><path class="cls-18" d="M1648,593.12a12.88,12.88,0,1,0,12.88-12.88A12.88,12.88,0,0,0,1648,593.12Z"/><path class="cls-18" d="M1652.95,545.62a12.88,12.88,0,1,0,12.88-12.88A12.88,12.88,0,0,0,1652.95,545.62Z"/><path class="cls-18" d="M1672.83,726.12a12.88,12.88,0,1,0,12.88-12.88A12.88,12.88,0,0,0,1672.83,726.12Z"/><path class="cls-18" d="M1672.83,317.62a12.88,12.88,0,1,0,12.88-12.88A12.88,12.88,0,0,0,1672.83,317.62Z"/><path class="cls-18" d="M1682.77,612.12a12.88,12.88,0,1,0,12.88-12.88A12.88,12.88,0,0,0,1682.77,612.12Z"/><path class="cls-18" d="M1697.68,635.87A12.88,12.88,0,1,0,1710.56,623,12.88,12.88,0,0,0,1697.68,635.87Z"/><path class="cls-18" d="M1727.51,479.12a12.88,12.88,0,1,0,12.88-12.88A12.88,12.88,0,0,0,1727.51,479.12Z"/><path class="cls-18" d="M1732.48,588.37a12.88,12.88,0,1,0,12.88-12.88A12.88,12.88,0,0,0,1732.48,588.37Z"/><path class="cls-18" d="M1757.33,640.62a12.88,12.88,0,1,0,12.88-12.88A12.88,12.88,0,0,0,1757.33,640.62Z"/><path class="cls-18" d="M1767.27,602.62a12.88,12.88,0,1,0,12.88-12.88A12.88,12.88,0,0,0,1767.27,602.62Z"/><path class="cls-18" d="M1802.07,531.37a12.88,12.88,0,1,0,12.88-12.88A12.88,12.88,0,0,0,1802.07,531.37Z"/><path class="cls-18" d="M1802.07,612.12a12.88,12.88,0,1,0,12.88-12.88A12.88,12.88,0,0,0,1802.07,612.12Z"/><path class="cls-18" d="M1826.92,426.87A12.88,12.88,0,1,0,1839.8,414,12.88,12.88,0,0,0,1826.92,426.87Z"/><path class="cls-18" d="M1836.86,583.62a12.88,12.88,0,1,0,12.88-12.88A12.88,12.88,0,0,0,1836.86,583.62Z"/><path class="cls-18" d="M1836.86,593.12a12.88,12.88,0,1,0,12.88-12.88A12.88,12.88,0,0,0,1836.86,593.12Z"/><path class="cls-18" d="M1836.86,436.37a12.88,12.88,0,1,0,12.88-12.88A12.88,12.88,0,0,0,1836.86,436.37Z"/><path class="cls-18" d="M1836.86,398.37a12.88,12.88,0,1,0,12.88-12.88A12.88,12.88,0,0,0,1836.86,398.37Z"/><path class="cls-18" d="M1866.68,398.37a12.88,12.88,0,1,0,12.88-12.88A12.88,12.88,0,0,0,1866.68,398.37Z"/><path class="cls-18" d="M1866.68,583.62a12.88,12.88,0,1,0,12.88-12.88A12.88,12.88,0,0,0,1866.68,583.62Z"/><path class="cls-18" d="M1871.65,441.12a12.88,12.88,0,1,0,12.88-12.88A12.88,12.88,0,0,0,1871.65,441.12Z"/><path class="cls-18" d="M1871.65,365.12a12.88,12.88,0,1,0,12.88-12.88A12.88,12.88,0,0,0,1871.65,365.12Z"/><path class="cls-18" d="M1941.24,426.87A12.88,12.88,0,1,0,1954.12,414,12.88,12.88,0,0,0,1941.24,426.87Z"/><path class="cls-18" d="M1941.24,540.87A12.88,12.88,0,1,0,1954.12,528,12.88,12.88,0,0,0,1941.24,540.87Z"/><path class="cls-18" d="M1941.24,284.38a12.88,12.88,0,1,0,12.88-12.88A12.88,12.88,0,0,0,1941.24,284.38Z"/><path class="cls-18" d="M1951.18,460.12a12.88,12.88,0,1,0,12.88-12.88A12.88,12.88,0,0,0,1951.18,460.12Z"/><path class="cls-18" d="M1956.16,531.37A12.88,12.88,0,1,0,1969,518.49,12.88,12.88,0,0,0,1956.16,531.37Z"/><path class="cls-18" d="M1966.1,255.88A12.88,12.88,0,1,0,1979,243,12.88,12.88,0,0,0,1966.1,255.88Z"/><path class="cls-18" d="M1976,502.87A12.88,12.88,0,1,0,1988.91,490,12.88,12.88,0,0,0,1976,502.87Z"/><path class="cls-19" d="M97.15,987.36A12.88,12.88,0,1,0,110,974.49,12.88,12.88,0,0,0,97.15,987.36Z"/><path class="cls-19" d="M97.15,954.11A12.88,12.88,0,1,0,110,941.24,12.88,12.88,0,0,0,97.15,954.11Z"/><path class="cls-19" d="M112.06,930.36a12.88,12.88,0,1,0,12.88-12.88A12.88,12.88,0,0,0,112.06,930.36Z"/><path class="cls-19" d="M122,916.11a12.88,12.88,0,1,0,12.88-12.88A12.88,12.88,0,0,0,122,916.11Z"/><path class="cls-19" d="M122,968.36a12.88,12.88,0,1,0,12.88-12.88A12.88,12.88,0,0,0,122,968.36Z"/><path class="cls-19" d="M156.8,944.61a12.88,12.88,0,1,0,12.88-12.88A12.88,12.88,0,0,0,156.8,944.61Z"/><path class="cls-19" d="M166.74,977.86A12.88,12.88,0,1,0,179.61,965,12.88,12.88,0,0,0,166.74,977.86Z"/><path class="cls-19" d="M166.74,939.86A12.88,12.88,0,1,0,179.61,927,12.88,12.88,0,0,0,166.74,939.86Z"/><path class="cls-19" d="M221.21,863.86A12.88,12.88,0,1,0,234.08,851,12.88,12.88,0,0,0,221.21,863.86Z"/><path class="cls-19" d="M231.15,968.36A12.88,12.88,0,1,0,244,955.49,12.88,12.88,0,0,0,231.15,968.36Z"/><path class="cls-19" d="M246.06,878.11a12.88,12.88,0,1,0,12.88-12.88A12.88,12.88,0,0,0,246.06,878.11Z"/><path class="cls-19" d="M265.94,868.61a12.88,12.88,0,1,0,12.88-12.88A12.88,12.88,0,0,0,265.94,868.61Z"/><path class="cls-19" d="M270.91,949.36a12.88,12.88,0,1,0,12.88-12.88A12.88,12.88,0,0,0,270.91,949.36Z"/><path class="cls-19" d="M285.83,901.86A12.88,12.88,0,1,0,298.7,889,12.88,12.88,0,0,0,285.83,901.86Z"/><path class="cls-19" d="M305.71,968.36a12.88,12.88,0,1,0,12.88-12.88A12.88,12.88,0,0,0,305.71,968.36Z"/><path class="cls-19" d="M305.71,925.61a12.88,12.88,0,1,0,12.88-12.88A12.88,12.88,0,0,0,305.71,925.61Z"/><path class="cls-19" d="M330.56,878.11a12.88,12.88,0,1,0,12.88-12.88A12.88,12.88,0,0,0,330.56,878.11Z"/><path class="cls-19" d="M390.21,897.11a12.88,12.88,0,1,0,12.88-12.88A12.88,12.88,0,0,0,390.21,897.11Z"/><path class="cls-19" d="M434.94,806.86A12.88,12.88,0,1,0,447.82,794,12.88,12.88,0,0,0,434.94,806.86Z"/><path class="cls-19" d="M434.94,797.36a12.88,12.88,0,1,0,12.88-12.88A12.88,12.88,0,0,0,434.94,797.36Z"/><path class="cls-19" d="M434.94,859.11a12.88,12.88,0,1,0,12.88-12.88A12.88,12.88,0,0,0,434.94,859.11Z"/><path class="cls-19" d="M439.91,920.86A12.88,12.88,0,1,0,452.79,908,12.88,12.88,0,0,0,439.91,920.86Z"/><path class="cls-19" d="M514.47,987.36a12.88,12.88,0,1,0,12.88-12.88A12.88,12.88,0,0,0,514.47,987.36Z"/><path class="cls-19" d="M519.44,821.11a12.88,12.88,0,1,0,12.88-12.88A12.88,12.88,0,0,0,519.44,821.11Z"/><path class="cls-19" d="M529.38,802.11a12.88,12.88,0,1,0,12.88-12.88A12.88,12.88,0,0,0,529.38,802.11Z"/><path class="cls-19" d="M529.38,783.12a12.88,12.88,0,1,0,12.88-12.88A12.88,12.88,0,0,0,529.38,783.12Z"/><path class="cls-19" d="M534.36,916.11a12.88,12.88,0,1,0,12.88-12.88A12.88,12.88,0,0,0,534.36,916.11Z"/><path class="cls-19" d="M554.24,745.12a12.88,12.88,0,1,0,12.88-12.88A12.88,12.88,0,0,0,554.24,745.12Z"/><path class="cls-19" d="M579.09,764.12A12.88,12.88,0,1,0,592,751.24,12.88,12.88,0,0,0,579.09,764.12Z"/><path class="cls-19" d="M584.06,954.11a12.88,12.88,0,1,0,12.88-12.88A12.88,12.88,0,0,0,584.06,954.11Z"/><path class="cls-19" d="M584.06,811.61a12.88,12.88,0,1,0,12.88-12.88A12.88,12.88,0,0,0,584.06,811.61Z"/><path class="cls-19" d="M584.06,916.11a12.88,12.88,0,1,0,12.88-12.88A12.88,12.88,0,0,0,584.06,916.11Z"/><path class="cls-19" d="M584.06,1115.61a12.88,12.88,0,1,0,12.88-12.88A12.88,12.88,0,0,0,584.06,1115.61Z"/><path class="cls-19" d="M584.06,911.36a12.88,12.88,0,1,0,12.88-12.88A12.88,12.88,0,0,0,584.06,911.36Z"/><path class="cls-19" d="M589,944.61a12.88,12.88,0,1,0,12.88-12.88A12.88,12.88,0,0,0,589,944.61Z"/><path class="cls-19" d="M603.94,1044.36a12.88,12.88,0,1,0,12.88-12.88A12.88,12.88,0,0,0,603.94,1044.36Z"/><path class="cls-19" d="M608.91,949.36a12.88,12.88,0,1,0,12.88-12.88A12.88,12.88,0,0,0,608.91,949.36Z"/><path class="cls-19" d="M653.65,935.11a12.88,12.88,0,1,0,12.88-12.88A12.88,12.88,0,0,0,653.65,935.11Z"/><path class="cls-19" d="M653.65,887.61a12.88,12.88,0,1,0,12.88-12.88A12.88,12.88,0,0,0,653.65,887.61Z"/><path class="cls-19" d="M693.41,968.36a12.88,12.88,0,1,0,12.88-12.88A12.88,12.88,0,0,0,693.41,968.36Z"/><path class="cls-19" d="M723.24,916.11a12.88,12.88,0,1,0,12.88-12.88A12.88,12.88,0,0,0,723.24,916.11Z"/><path class="cls-19" d="M723.24,897.11a12.88,12.88,0,1,0,12.88-12.88A12.88,12.88,0,0,0,723.24,897.11Z"/><path class="cls-19" d="M743.12,906.61A12.88,12.88,0,1,0,756,893.74,12.88,12.88,0,0,0,743.12,906.61Z"/><path class="cls-19" d="M743.12,996.86A12.88,12.88,0,1,0,756,984,12.88,12.88,0,0,0,743.12,996.86Z"/><path class="cls-19" d="M753.06,973.11a12.88,12.88,0,1,0,12.88-12.88A12.88,12.88,0,0,0,753.06,973.11Z"/><path class="cls-19" d="M758,878.11a12.88,12.88,0,1,0,12.88-12.88A12.88,12.88,0,0,0,758,878.11Z"/><path class="cls-19" d="M802.77,859.11a12.88,12.88,0,1,0,12.88-12.88A12.88,12.88,0,0,0,802.77,859.11Z"/><path class="cls-19" d="M817.68,973.11a12.88,12.88,0,1,0,12.88-12.88A12.88,12.88,0,0,0,817.68,973.11Z"/><path class="cls-19" d="M817.68,939.86A12.88,12.88,0,1,0,830.56,927,12.88,12.88,0,0,0,817.68,939.86Z"/><path class="cls-19" d="M822.65,1020.61a12.88,12.88,0,1,0,12.88-12.88A12.88,12.88,0,0,0,822.65,1020.61Z"/><path class="cls-19" d="M827.62,987.36a12.88,12.88,0,1,0,12.88-12.88A12.88,12.88,0,0,0,827.62,987.36Z"/><path class="cls-19" d="M827.62,868.61a12.88,12.88,0,1,0,12.88-12.88A12.88,12.88,0,0,0,827.62,868.61Z"/><path class="cls-19" d="M862.42,1011.11a12.88,12.88,0,1,0,12.88-12.88A12.88,12.88,0,0,0,862.42,1011.11Z"/><path class="cls-19" d="M862.42,849.61a12.88,12.88,0,1,0,12.88-12.88A12.88,12.88,0,0,0,862.42,849.61Z"/><path class="cls-19" d="M882.3,916.11a12.88,12.88,0,1,0,12.88-12.88A12.88,12.88,0,0,0,882.3,916.11Z"/><path class="cls-19" d="M897.21,939.86A12.88,12.88,0,1,0,910.09,927,12.88,12.88,0,0,0,897.21,939.86Z"/><path class="cls-19" d="M996.62,954.11a12.88,12.88,0,1,0,12.88-12.88A12.88,12.88,0,0,0,996.62,954.11Z"/><path class="cls-19" d="M1001.59,977.86A12.88,12.88,0,1,0,1014.47,965,12.88,12.88,0,0,0,1001.59,977.86Z"/><path class="cls-19" d="M1036.39,949.36a12.88,12.88,0,1,0,12.88-12.88A12.88,12.88,0,0,0,1036.39,949.36Z"/><path class="cls-19" d="M1036.39,982.61a12.88,12.88,0,1,0,12.88-12.88A12.88,12.88,0,0,0,1036.39,982.61Z"/><path class="cls-19" d="M1036.39,925.61a12.88,12.88,0,1,0,12.88-12.88A12.88,12.88,0,0,0,1036.39,925.61Z"/><path class="cls-19" d="M1046.33,892.36a12.88,12.88,0,1,0,12.88-12.88A12.88,12.88,0,0,0,1046.33,892.36Z"/><path class="cls-19" d="M1056.27,1006.36a12.88,12.88,0,1,0,12.88-12.88A12.88,12.88,0,0,0,1056.27,1006.36Z"/><path class="cls-19" d="M1056.27,973.11a12.88,12.88,0,1,0,12.88-12.88A12.88,12.88,0,0,0,1056.27,973.11Z"/><path class="cls-19" d="M1071.18,854.36a12.88,12.88,0,1,0,12.88-12.88A12.88,12.88,0,0,0,1071.18,854.36Z"/><path class="cls-19" d="M1096,1020.61a12.88,12.88,0,1,0,12.88-12.88A12.88,12.88,0,0,0,1096,1020.61Z"/><path class="cls-19" d="M1096,968.36a12.88,12.88,0,1,0,12.88-12.88A12.88,12.88,0,0,0,1096,968.36Z"/><path class="cls-19" d="M1140.77,892.36a12.88,12.88,0,1,0,12.88-12.88A12.88,12.88,0,0,0,1140.77,892.36Z"/><path class="cls-19" d="M1160.65,982.61a12.88,12.88,0,1,0,12.88-12.88A12.88,12.88,0,0,0,1160.65,982.61Z"/><path class="cls-19" d="M1175.56,916.11a12.88,12.88,0,1,0,12.88-12.88A12.88,12.88,0,0,0,1175.56,916.11Z"/><path class="cls-19" d="M1175.56,849.61a12.88,12.88,0,1,0,12.88-12.88A12.88,12.88,0,0,0,1175.56,849.61Z"/><path class="cls-19" d="M1175.56,911.36a12.88,12.88,0,1,0,12.88-12.88A12.88,12.88,0,0,0,1175.56,911.36Z"/><path class="cls-19" d="M1195.45,916.11a12.88,12.88,0,1,0,12.88-12.88A12.88,12.88,0,0,0,1195.45,916.11Z"/><path class="cls-19" d="M1205.39,939.86A12.88,12.88,0,1,0,1218.26,927,12.88,12.88,0,0,0,1205.39,939.86Z"/><path class="cls-19" d="M1240.18,897.11a12.88,12.88,0,1,0,12.88-12.88A12.88,12.88,0,0,0,1240.18,897.11Z"/><path class="cls-19" d="M1275,930.36a12.88,12.88,0,1,0,12.88-12.88A12.88,12.88,0,0,0,1275,930.36Z"/><path class="cls-19" d="M1279.95,916.11a12.88,12.88,0,1,0,12.88-12.88A12.88,12.88,0,0,0,1279.95,916.11Z"/><path class="cls-19" d="M1279.95,859.11a12.88,12.88,0,1,0,12.88-12.88A12.88,12.88,0,0,0,1279.95,859.11Z"/><path class="cls-19" d="M1289.89,977.86A12.88,12.88,0,1,0,1302.76,965,12.88,12.88,0,0,0,1289.89,977.86Z"/><path class="cls-19" d="M1300,906.61a12.88,12.88,0,1,0,12.88-12.88A12.88,12.88,0,0,0,1300,906.61Z"/><path class="cls-19" d="M1300,973.11a12.88,12.88,0,1,0,12.88-12.88A12.88,12.88,0,0,0,1300,973.11Z"/><path class="cls-19" d="M1339.8,949.36a12.88,12.88,0,1,0,12.88-12.88A12.88,12.88,0,0,0,1339.8,949.36Z"/><path class="cls-19" d="M1349.74,930.36a12.88,12.88,0,1,0,12.88-12.88A12.88,12.88,0,0,0,1349.74,930.36Z"/><path class="cls-19" d="M1349.74,930.36a12.88,12.88,0,1,0,12.88-12.88A12.88,12.88,0,0,0,1349.74,930.36Z"/><path class="cls-19" d="M1349.74,916.11a12.88,12.88,0,1,0,12.88-12.88A12.88,12.88,0,0,0,1349.74,916.11Z"/><path class="cls-19" d="M1359.68,882.86A12.88,12.88,0,1,0,1372.56,870,12.88,12.88,0,0,0,1359.68,882.86Z"/><path class="cls-19" d="M1374.59,878.11a12.88,12.88,0,1,0,12.88-12.88A12.88,12.88,0,0,0,1374.59,878.11Z"/><path class="cls-19" d="M1474,901.86A12.88,12.88,0,1,0,1486.88,889,12.88,12.88,0,0,0,1474,901.86Z"/><path class="cls-19" d="M1488.92,1034.86a12.88,12.88,0,1,0,12.88-12.88A12.88,12.88,0,0,0,1488.92,1034.86Z"/><path class="cls-19" d="M1508.8,968.36a12.88,12.88,0,1,0,12.88-12.88A12.88,12.88,0,0,0,1508.8,968.36Z"/><path class="cls-19" d="M1513.77,887.61a12.88,12.88,0,1,0,12.88-12.88A12.88,12.88,0,0,0,1513.77,887.61Z"/><path class="cls-19" d="M1518.74,1001.61a12.88,12.88,0,1,0,12.88-12.88A12.88,12.88,0,0,0,1518.74,1001.61Z"/><path class="cls-19" d="M1523.71,892.36a12.88,12.88,0,1,0,12.88-12.88A12.88,12.88,0,0,0,1523.71,892.36Z"/><path class="cls-19" d="M1523.71,897.11a12.88,12.88,0,1,0,12.88-12.88A12.88,12.88,0,0,0,1523.71,897.11Z"/><path class="cls-19" d="M1523.71,920.86A12.88,12.88,0,1,0,1536.59,908,12.88,12.88,0,0,0,1523.71,920.86Z"/><path class="cls-19" d="M1523.71,1063.36a12.88,12.88,0,1,0,12.88-12.88A12.88,12.88,0,0,0,1523.71,1063.36Z"/><path class="cls-19" d="M1533.65,944.61a12.88,12.88,0,1,0,12.88-12.88A12.88,12.88,0,0,0,1533.65,944.61Z"/><path class="cls-19" d="M1558.51,1015.86a12.88,12.88,0,1,0,12.88-12.88A12.88,12.88,0,0,0,1558.51,1015.86Z"/><path class="cls-19" d="M1588.33,987.36a12.88,12.88,0,1,0,12.88-12.88A12.88,12.88,0,0,0,1588.33,987.36Z"/><path class="cls-19" d="M1633.07,925.61a12.88,12.88,0,1,0,12.88-12.88A12.88,12.88,0,0,0,1633.07,925.61Z"/><path class="cls-19" d="M1648,973.11a12.88,12.88,0,1,0,12.88-12.88A12.88,12.88,0,0,0,1648,973.11Z"/><path class="cls-19" d="M1652.95,1072.86a12.88,12.88,0,1,0,12.88-12.88A12.88,12.88,0,0,0,1652.95,1072.86Z"/><path class="cls-19" d="M1672.83,963.61a12.88,12.88,0,1,0,12.88-12.88A12.88,12.88,0,0,0,1672.83,963.61Z"/><path class="cls-19" d="M1672.83,1006.36a12.88,12.88,0,1,0,12.88-12.88A12.88,12.88,0,0,0,1672.83,1006.36Z"/><path class="cls-19" d="M1682.77,925.61a12.88,12.88,0,1,0,12.88-12.88A12.88,12.88,0,0,0,1682.77,925.61Z"/><path class="cls-19" d="M1697.68,1053.86a12.88,12.88,0,1,0,12.88-12.88A12.88,12.88,0,0,0,1697.68,1053.86Z"/><path class="cls-19" d="M1727.51,1186.86a12.88,12.88,0,1,0,12.88-12.88A12.88,12.88,0,0,0,1727.51,1186.86Z"/><path class="cls-19" d="M1732.48,949.36a12.88,12.88,0,1,0,12.88-12.88A12.88,12.88,0,0,0,1732.48,949.36Z"/><path class="cls-19" d="M1757.33,1030.11a12.88,12.88,0,1,0,12.88-12.88A12.88,12.88,0,0,0,1757.33,1030.11Z"/><path class="cls-19" d="M1767.27,1096.61a12.88,12.88,0,1,0,12.88-12.88A12.88,12.88,0,0,0,1767.27,1096.61Z"/><path class="cls-19" d="M1802.07,1077.61a12.88,12.88,0,1,0,12.88-12.88A12.88,12.88,0,0,0,1802.07,1077.61Z"/><path class="cls-19" d="M1802.07,987.36a12.88,12.88,0,1,0,12.88-12.88A12.88,12.88,0,0,0,1802.07,987.36Z"/><path class="cls-19" d="M1826.92,1082.36a12.88,12.88,0,1,0,12.88-12.88A12.88,12.88,0,0,0,1826.92,1082.36Z"/><path class="cls-19" d="M1836.86,1015.86a12.88,12.88,0,1,0,12.88-12.88A12.88,12.88,0,0,0,1836.86,1015.86Z"/><path class="cls-19" d="M1836.86,977.86A12.88,12.88,0,1,0,1849.74,965,12.88,12.88,0,0,0,1836.86,977.86Z"/><path class="cls-19" d="M1836.86,1091.86a12.88,12.88,0,1,0,12.88-12.88A12.88,12.88,0,0,0,1836.86,1091.86Z"/><path class="cls-19" d="M1836.86,1148.86a12.88,12.88,0,1,0,12.88-12.88A12.88,12.88,0,0,0,1836.86,1148.86Z"/><path class="cls-19" d="M1866.68,1063.36a12.88,12.88,0,1,0,12.88-12.88A12.88,12.88,0,0,0,1866.68,1063.36Z"/><path class="cls-19" d="M1866.68,1077.61a12.88,12.88,0,1,0,12.88-12.88A12.88,12.88,0,0,0,1866.68,1077.61Z"/><path class="cls-19" d="M1871.65,1053.86a12.88,12.88,0,1,0,12.88-12.88A12.88,12.88,0,0,0,1871.65,1053.86Z"/><path class="cls-19" d="M1871.65,1191.61a12.88,12.88,0,1,0,12.88-12.88A12.88,12.88,0,0,0,1871.65,1191.61Z"/><path class="cls-19" d="M1941.24,1068.11a12.88,12.88,0,1,0,12.88-12.88A12.88,12.88,0,0,0,1941.24,1068.11Z"/><path class="cls-19" d="M1941.24,1110.86a12.88,12.88,0,1,0,12.88-12.88A12.88,12.88,0,0,0,1941.24,1110.86Z"/><path class="cls-19" d="M1941.24,1177.36a12.88,12.88,0,1,0,12.88-12.88A12.88,12.88,0,0,0,1941.24,1177.36Z"/><path class="cls-19" d="M1951.18,1196.36a12.88,12.88,0,1,0,12.88-12.88A12.88,12.88,0,0,0,1951.18,1196.36Z"/><path class="cls-19" d="M1956.16,1058.61a12.88,12.88,0,1,0,12.88-12.88A12.88,12.88,0,0,0,1956.16,1058.61Z"/><path class="cls-19" d="M1966.1,1148.86A12.88,12.88,0,1,0,1979,1136,12.88,12.88,0,0,0,1966.1,1148.86Z"/><path class="cls-19" d="M1976,1034.86a12.88,12.88,0,1,0,12.88-12.88A12.88,12.88,0,0,0,1976,1034.86Z"/></g><path class="cls-20" d="M109.16,1734H353.93l30-89.29,5,89.29h70l110-131.59,30,42.3,35,89.29,35-98.69,35,98.69,35-112.79,35,112.79,35-79.89,35,79.89,35-47,35-61.09,105,23.5,35,11.75,35-30.55,35,103.39h35l35-86,35,10.81,35-164.49,35,70.49,35.21,32.9,35,24.44,35,111.85,105-415.91,35,4.23,35,45.12,35-239.68,35,18.8,35,127.83,35-33.84,35,42.3,35-96.34,35,63.44,35-45.12,45-53.58,60,18.8,35,117.49"/><path class="cls-21" d="M109.16,467.46l35,199.73,35-86,69.79,94,35-5.64,35-33.84,35,111.38,30-9.4,5-225.58,70,180.93,110,112.79,30-111.85,35-38.54,35,82.24,35-188,35,209.13,35-98.69,35,86.94,35-223.7,35,99.16,35,9.4,105-75.19,35,25.85,35,130.18,35-64.38,35-70.49,35,40.89,35,60.15,35-7,35-32.9,35.21,72.84,35-84.12,35,185.16,105-65.79,35-4.7,35-32.9,35,122.19,35,42.3,35-32.9L1719,780l35-150.39,35,131.59,35,9.4,35-34.78,45,27.73,60,26.79,35-44.65"/><path class="cls-22" d="M109.16,650.75l35-201.14,35,92.11,69.79-68.61,35,22.56,35-5.64,35-95.4,30,96.34,5,317.22,70-350.12,110,63.44,30,142.4,35,50.29,35-94,35,145.69,35-96.34,35-18.8,35,105.74,35,30.08,35-100.57,35,75.19,105-11.75,35,17.39,35-60.62,35,5.64,35-25.85,35,35.25,35,61.09,35,49.35,35-130.65,35.21,20.21,35,43.71,35-83.65L1509,693l35,118.43,35-144.28,35,183.28,35,14.1,35-13.16,35-76.13,35,117.49,35-110.44,35,101,35,55.45,45,26.79,60-23.5,35-32"/><path class="cls-23" d="M109.16,627.25l35,93.05,35-6.11,69.79,87.88,35-83.18,35-18.8,35,70.49,30-68.14,5-138.64,70,221.82,110-87.88,30-172,35-100.57L668.9,545l35-47,35-63.44,35,58.74,35,14.1,35-25.38,35,72.37,35-98.69,105,18.8,35,26.79,35-51.7,35,10.81,35,117.49,35-25.85,35-190.33,35,188,35,31.49,35.21-19.74,35-111.38,35,151.33,105,133.94,35-129.24,35,23.5,35,42.3,35,9.4,35-126.89,35,77.54,35-89.29,35,86.94,35-49.35,35-83.18,45-40.42,60-18.8,35,2.35"/><path class="cls-24" d="M109.16,975l35-32,35,15.51,69.79-50.29,35,5.64,35,22.56,35-53.11,30,25.85,5-7,70-50.76,110-33.84,30,103.86,35,79.42,35-84.59,35,56.39,35-39,35-3.29,35-65.79,35,97.75,35-27.26,35-2.35,105,37.6,35-28.2,35,7,35,49.35,35-101,35,22.09,35,13.16,35-30.55,35,23.5,35.21,18.8,35-17.86,35-43.24,105,89.29,35-21.15,35,68.14,35-28.2,35-61.09,35,77.54,35-14.1,35,77.54,35-4.7,35-30.55,35,30.55,45,32.9,60,40.89,35-56.39"/></g></svg>