<svg id="Capa_1" data-name="Capa 1" xmlns="http://www.w3.org/2000/svg" viewBox="0 0 1842.52 1842.52"><defs><style>@import url('https://fonts.googleapis.com/css?family=Open+Sans:400,500,600,700');.cls-1{font-size:46px;}.cls-1,.cls-2{fill:#757575;}.cls-1,.cls-12,.cls-13{font-family:OpenSans, Open Sans;}.cls-10,.cls-11,.cls-2{font-size:42px;}.cls-2{font-family:ArialMT, Arial;}.cls-3{letter-spacing:-0.02em;}.cls-4{letter-spacing:-0.07em;}.cls-5{letter-spacing:0em;}.cls-6{letter-spacing:-0.07em;}.cls-7{letter-spacing:-0.06em;}.cls-8{letter-spacing:-0.04em;}.cls-9{letter-spacing:-0.07em;}.cls-10,.cls-17{fill:#3f4d78;}.cls-10,.cls-11{font-family:Arial-BoldMT, Arial;}.cls-10,.cls-11,.cls-14{font-weight:700;}.cls-11,.cls-18{fill:#efb21b;}.cls-12{font-size:47px;}.cls-12,.cls-13,.cls-14{fill:#323232;}.cls-13{font-size:43.03px;}.cls-14{font-size:72px;font-family:OpenSans-Bold, Open Sans;}.cls-15,.cls-16,.cls-19{fill:none;}.cls-15{stroke:#323232;stroke-width:0.75px;}.cls-15,.cls-16,.cls-17,.cls-18{stroke-miterlimit:10;}.cls-16{stroke:#aeaeae;}.cls-17,.cls-18{stroke:#fff;stroke-width:0.5px;opacity:0.76;}.cls-19{stroke:#333;}</style></defs><title>2019.03_GeneracionZeta</title><text class="cls-1" transform="translate(426.81 1740.48) scale(0.99 1)">0</text><text class="cls-1" transform="translate(597.81 1740.48) scale(0.99 1)">2</text><text class="cls-1" transform="translate(750.81 1740.48) scale(0.99 1)">4</text><text class="cls-1" transform="translate(918.81 1740.48) scale(0.99 1)">6</text><text class="cls-1" transform="translate(1074.81 1740.48) scale(0.99 1)">8</text><text class="cls-1" transform="translate(1234.69 1740.48) scale(0.99 1)">10</text><text class="cls-1" transform="translate(1391.69 1740.48) scale(0.99 1)">12</text><text class="cls-1" transform="translate(1553.69 1740.48) scale(0.99 1)">14</text><text class="cls-1" transform="translate(1718.69 1740.48) scale(0.99 1)">16</text><text class="cls-2" transform="translate(24.27 560.84) scale(0.99 1)">CONSE<tspan class="cls-3" x="149.36" y="0">R</tspan><tspan class="cls-4" x="178.93" y="0">V</tspan><tspan class="cls-5" x="203.83" y="0">ADOR</tspan></text><text class="cls-2" transform="translate(92.61 1361.84) scale(0.99 1)">DEMÓCR<tspan class="cls-6" x="186.66" y="0">AT</tspan><tspan class="cls-7" x="234.1" y="0">A</tspan><tspan x="259.79" y="0"> </tspan><tspan x="42.78" y="46">CRISTIANO</tspan></text><text class="cls-2" transform="translate(171.17 915.84) scale(0.99 1)">LIBERA<tspan class="cls-8" x="149.4" y="0">L</tspan></text><text class="cls-2" transform="translate(49.29 807.84) scale(0.99 1)">PROGRESIS<tspan class="cls-9" x="249.72" y="0">T</tspan><tspan class="cls-7" x="272.26" y="0">A</tspan></text><text class="cls-2" transform="translate(102.93 1038.84) scale(0.99 1)">SOCIALDEM.</text><text class="cls-2" transform="translate(107.89 330.84) scale(0.99 1)">SOCIALIS<tspan class="cls-9" x="193.74" y="0">T</tspan><tspan class="cls-7" x="216.28" y="0">A</tspan></text><text class="cls-10" transform="translate(1123.44 182.84) scale(0.99 1)">Media población</text><text class="cls-11" transform="translate(266.51 180.84) scale(0.99 1)">Jóvenes que votan por primera vez</text><text class="cls-2" transform="translate(131.69 690.84) scale(0.99 1)">APOLÍTICO</text><text class="cls-2" transform="translate(50.65 1638.84) scale(0.99 1)">NACIONALIS<tspan class="cls-6" x="254.4" y="0">T</tspan><tspan class="cls-7" x="276.94" y="0">A</tspan></text><text class="cls-2" transform="translate(131.12 1161.84) scale(0.99 1)">FEMINIS<tspan class="cls-9" x="170.34" y="0">T</tspan><tspan class="cls-7" x="192.88" y="0">A</tspan></text><text class="cls-2" transform="translate(85.41 1518.84) scale(0.99 1)">ECOLOGIS<tspan class="cls-9" x="219.39" y="0">T</tspan><tspan class="cls-7" x="241.93" y="0">A</tspan></text><text class="cls-2" transform="translate(202.87 1278.84) scale(0.99 1)">OTROS</text><text class="cls-2" transform="translate(221.41 447.84) scale(0.99 1)">NS/NC</text><text class="cls-12" transform="translate(11 124.28)">Identificación política de los jóvenes en comparación con el conjunto de la sociedad</text><text class="cls-13" transform="translate(18.9 1826.66) scale(0.99 1)">Fuente: Barómetro del CIS de Enero de 2018</text><text class="cls-13" transform="translate(1494.9 1826.66) scale(0.99 1)">LA VANGUARDIA</text><text class="cls-14" transform="translate(-4.38 60.72)">La mayoría de jóvenes se identifican como liberales</text><line class="cls-15" x1="3" y1="1780" x2="1842" y2="1780"/><path class="cls-16" d="M1704.94,217V1744"/><path class="cls-16" d="M1545.15,217V1744"/><path class="cls-16" d="M1382.45,217V1744"/><path class="cls-16" d="M1222.66,217V1744"/><path class="cls-16" d="M1060,217V1744"/><path class="cls-16" d="M900.18,217V1744"/><path class="cls-16" d="M737.48,217V1744"/><path class="cls-16" d="M577.69,217V1744"/><rect class="cls-17" x="415" y="264.73" width="1048.8" height="45.46"/><rect class="cls-18" x="415" y="310.19" width="743.75" height="45.46"/><rect class="cls-17" x="415" y="382.93" width="1040.08" height="45.46"/><rect class="cls-18" x="415" y="428.39" width="854.15" height="45.46"/><rect class="cls-17" x="415" y="501.13" width="993.6" height="45.46"/><rect class="cls-18" x="415" y="546.59" width="636.25" height="45.46"/><rect class="cls-17" x="415" y="619.32" width="952.93" height="45.46"/><rect class="cls-18" x="415" y="664.78" width="1066.23" height="45.46"/><rect class="cls-17" x="415" y="737.52" width="830.91" height="45.46"/><rect class="cls-18" x="415" y="782.98" width="531.66" height="45.46"/><rect class="cls-17" x="415" y="855.71" width="830.91" height="45.46"/><rect class="cls-18" x="415" y="901.18" width="1380" height="45.46"/><rect class="cls-17" x="415" y="973.91" width="644.97" height="45.46"/><rect class="cls-18" x="415" y="1019.37" width="313.77" height="45.46"/><rect class="cls-17" x="415" y="1092.11" width="403.83" height="45.46"/><rect class="cls-18" x="415" y="1137.57" width="952.93" height="45.46"/><rect class="cls-17" x="415" y="1210.3" width="371.87" height="45.46"/><rect class="cls-18" x="415" y="1255.76" width="313.77" height="45.46"/><rect class="cls-17" x="415" y="1328.5" width="345.73" height="45.46"/><rect class="cls-18" x="415" y="1373.96" width="313.77" height="45.46"/><rect class="cls-17" x="415" y="1446.7" width="322.48" height="45.46"/><rect class="cls-18" x="415" y="1492.16" width="427.07" height="45.46"/><rect class="cls-17" x="415" y="1564.89" width="273.09" height="45.46"/><rect class="cls-18" x="415" y="1610.35" width="531.66" height="45.46"/><path class="cls-19" d="M415,217V1744"/></svg>