<svg id="Capa_1" data-name="Capa 1" xmlns="http://www.w3.org/2000/svg" viewBox="0 0 1842.52 1842.52"><defs><style>@import url('https://fonts.googleapis.com/css?family=Open+Sans:400,500,600,700');.cls-1,.cls-26,.cls-27,.cls-9{fill:none;}.cls-1{stroke:#757575;}.cls-1,.cls-13,.cls-14,.cls-16,.cls-17,.cls-18,.cls-19,.cls-26,.cls-27,.cls-9{stroke-miterlimit:10;}.cls-1,.cls-27,.cls-9{stroke-width:2px;}.cls-2,.cls-29{font-size:46px;}.cls-14,.cls-2,.cls-24,.cls-4,.cls-8{fill:#757575;}.cls-11,.cls-2,.cls-3,.cls-8{font-family:OpenSans, Open Sans;}.cls-3{font-size:43.03px;}.cls-10,.cls-11,.cls-28,.cls-29,.cls-3{fill:#323232;}.cls-4{font-size:42px;font-family:ArialMT, Arial;}.cls-5{letter-spacing:-0.07em;}.cls-6{letter-spacing:-0.06em;}.cls-7{letter-spacing:0em;}.cls-8{font-size:44px;}.cls-9{stroke:#aeaeae;}.cls-10{font-size:78px;}.cls-10,.cls-29{font-family:OpenSans-Bold, Open Sans;font-weight:700;}.cls-11{font-size:47px;}.cls-12{opacity:0.82;}.cls-13,.cls-25{fill:#991d26;}.cls-13,.cls-14,.cls-16,.cls-17,.cls-18,.cls-19{stroke:#fff;stroke-width:0.5px;}.cls-13,.cls-14,.cls-16,.cls-17,.cls-18,.cls-19,.cls-20,.cls-21,.cls-22,.cls-23,.cls-24,.cls-25{opacity:0.76;}.cls-15{opacity:0.86;}.cls-16,.cls-23{fill:#59a5a5;}.cls-17,.cls-21{fill:#9cc628;}.cls-18,.cls-20{fill:#d57928;}.cls-19,.cls-22{fill:#8e244f;}.cls-26,.cls-27{stroke:#323232;}.cls-26{stroke-width:0.75px;}</style></defs><title>2019.03_GeneracionZeta</title><line class="cls-1" x1="27.97" y1="1657.64" x2="1821" y2="1657.64"/><text class="cls-2" transform="translate(22.81 1633.48) scale(0.99 1)">0</text><text class="cls-2" transform="translate(22.5 1377.88) scale(0.99 1)">5</text><text class="cls-2" transform="translate(15.21 1133.66) scale(0.99 1)">10</text><text class="cls-2" transform="translate(26.03 636.19) scale(0.99 1)">20</text><text class="cls-2" transform="translate(20.17 377.32) scale(0.99 1)">25</text><text class="cls-2" transform="translate(17.17 877.44) scale(0.99 1)">15</text><text class="cls-3" transform="translate(18.9 1826.66) scale(0.99 1)">Fuente: Barómetro del CIS</text><text class="cls-3" transform="translate(1494.9 1826.66) scale(0.99 1)">LA VANGUARDIA</text><text class="cls-4" transform="translate(1091.17 387.84) scale(0.99 1)">RESU<tspan class="cls-5" x="116.69" y="0">LT</tspan><tspan x="159.47" y="0">ADO DE CAD</tspan><tspan class="cls-6" x="420.84" y="0">A</tspan><tspan class="cls-7" x="446.54" y="0" xml:space="preserve"> BARÓMETRO</tspan></text><text class="cls-8" transform="translate(844.5 1713.22) scale(0.99 1)">Cs</text><text class="cls-8" transform="translate(507.52 1713.22) scale(0.99 1)">PSOE</text><text class="cls-8" transform="translate(214.29 1710.22) scale(0.99 1)">No sabe <tspan x="14.27" y="46">todavía</tspan></text><text class="cls-8" transform="translate(1099.58 1713.22) scale(0.99 1)">Unidos<tspan x="-24.26" y="46">Podemos</tspan></text><text class="cls-8" transform="translate(1430.98 1713.22) scale(0.99 1)">PP</text><text class="cls-8" transform="translate(1683.98 1713.22) scale(0.99 1)">VOX</text><line class="cls-9" x1="24" y1="1402.31" x2="1815.36" y2="1402.31"/><line class="cls-9" x1="24" y1="1150.71" x2="1815.36" y2="1150.71"/><line class="cls-9" x1="24" y1="899.1" x2="1815.36" y2="899.1"/><line class="cls-9" x1="24" y1="655.61" x2="1815.36" y2="655.61"/><line class="cls-9" x1="24" y1="404" x2="1809" y2="404"/><text class="cls-10" transform="translate(111.13 64.28)">A quién van a votar los jóvenes que votan <tspan x="500.93" y="80">por primera vez</tspan></text><text class="cls-11" transform="translate(61.14 203.28)">Promedio de intención de voto a cada partido en los últimos siete barómetros<tspan x="76.43" y="56.4">del CIS de quienes no tenían la edad mínima para votar el 26-J del 2016</tspan></text><g class="cls-12"><rect class="cls-13" x="499.23" y="935" width="141.79" height="716.76"/></g><g class="cls-12"><rect class="cls-14" x="231.23" y="573" width="141.79" height="1079.76"/></g><g class="cls-15"><rect class="cls-16" x="1386.21" y="1070" width="141.79" height="583.76"/></g><g class="cls-15"><rect class="cls-17" x="1647.21" y="1590" width="141.79" height="63.76"/></g><g class="cls-12"><polygon class="cls-18" points="798.78 956 941.11 956 941.11 1652.61 799.02 1652.61 798.78 956"/></g><g class="cls-15"><rect class="cls-19" x="1096.55" y="977" width="141.79" height="676.76"/></g><circle class="cls-20" cx="862.37" cy="1120.56" r="16.55"/><circle class="cls-20" cx="847.56" cy="976.66" r="16.55"/><circle class="cls-20" cx="910.81" cy="899" r="16.55"/><circle class="cls-20" cx="817.92" cy="1123.55" r="16.55"/><circle class="cls-20" cx="893.94" cy="1109.15" r="16.55"/><circle class="cls-20" cx="858.18" cy="403.05" r="16.55"/><circle class="cls-20" cx="877.9" cy="1255.98" r="16.55"/><circle class="cls-21" cx="1675.9" cy="1606.98" r="16.55"/><circle class="cls-21" cx="1699.9" cy="1579.98" r="16.55"/><circle class="cls-21" cx="1726.9" cy="1423.98" r="16.55"/><circle class="cls-21" cx="1747.9" cy="1492.98" r="16.55"/><circle class="cls-21" cx="1771.9" cy="1585.98" r="16.55"/><circle class="cls-22" cx="1123.7" cy="1008.42" r="16.55"/><circle class="cls-22" cx="1152.25" cy="530.85" r="16.55"/><circle class="cls-22" cx="1214.8" cy="1165.78" r="16.55"/><circle class="cls-22" cx="1130.63" cy="1315.84" r="16.55"/><circle class="cls-22" cx="1157.52" cy="859.4" r="16.55"/><circle class="cls-22" cx="1186.24" cy="1334.02" r="16.55"/><circle class="cls-22" cx="1190.76" cy="689.12" r="16.55"/><circle class="cls-23" cx="1429.63" cy="1112.25" r="16.55"/><circle class="cls-23" cx="1451.08" cy="1019.25" r="16.55"/><circle class="cls-23" cx="1502.18" cy="1023.74" r="16.55"/><circle class="cls-23" cx="1445.08" cy="1368.3" r="16.55"/><circle class="cls-23" cx="1490.97" cy="1336.36" r="16.55"/><circle class="cls-23" cx="1458.73" cy="823.94" r="16.55"/><circle class="cls-23" cx="1399.86" cy="950" r="16.55"/><circle class="cls-24" cx="247.89" cy="746.27" r="16.55"/><circle class="cls-24" cx="274.89" cy="893.27" r="16.55"/><circle class="cls-24" cx="307.89" cy="428.27" r="16.55"/><circle class="cls-24" cx="307.89" cy="629.27" r="16.55"/><circle class="cls-24" cx="316.89" cy="518.27" r="16.55"/><circle class="cls-24" cx="346.89" cy="593.27" r="16.55"/><circle class="cls-25" cx="515.37" cy="693.11" r="16.55"/><circle class="cls-25" cx="569.92" cy="935.2" r="16.55"/><circle class="cls-25" cx="590.85" cy="1111.4" r="16.55"/><circle class="cls-25" cx="530.3" cy="907.72" r="16.55"/><circle class="cls-25" cx="596.17" cy="842.92" r="16.55"/><circle class="cls-25" cx="557.82" cy="752.68" r="16.55"/><line class="cls-26" x1="3" y1="1780" x2="1842" y2="1780"/><path class="cls-27" d="M1065,369c-113.88.06-98.94,179.93,48.18,164.14"/><polygon class="cls-28" points="1106.43 545.2 1109.5 533.53 1103.22 523.22 1130.89 530.4 1106.43 545.2"/><text class="cls-29" transform="translate(517.94 989.32) scale(0.99 1)">14,2</text><text class="cls-29" transform="translate(823.94 1016.32) scale(0.99 1)">13,9</text><text class="cls-29" transform="translate(1120.94 1034.32) scale(0.99 1)">13,2</text><text class="cls-29" transform="translate(1411.94 1121.32) scale(0.99 1)">11,3</text><text class="cls-29" transform="translate(1687.01 1636.32) scale(0.99 1)">1,8</text><text class="cls-29" transform="translate(250.94 629.32) scale(0.99 1)">21,9</text></svg>