<svg id="Capa_1" data-name="Capa 1" xmlns="http://www.w3.org/2000/svg" viewBox="0 0 637.08 650.18"><defs><style>@import url('https://fonts.googleapis.com/css?family=Open+Sans:400,500,600,700');.cls-1{fill:none;stroke:#323232;}.cls-1,.cls-3,.cls-4{stroke-miterlimit:10;}.cls-2,.cls-6,.cls-7{font-size:20px;}.cls-2,.cls-3,.cls-7{fill:#757575;}.cls-2,.cls-6,.cls-8{font-family:OpenSans-Regular, Open Sans;}.cls-3{stroke:#757575;}.cls-3,.cls-4{stroke-width:0.5px;}.cls-4{fill:#4ab9c5;stroke:#4ab9c5;}.cls-5{font-size:25px;}.cls-5,.cls-6{fill:#323232;}.cls-5,.cls-7{font-family:OpenSans-Bold, Open Sans;font-weight:700;}.cls-8{font-weight:400;}</style></defs><title>CuentasTwitter</title><line class="cls-1" x1="19.59" y1="580.4" x2="630.96" y2="580.4"/><text class="cls-2" transform="translate(19.64 573.76)">0</text><text class="cls-2" transform="translate(73.01 609.76)">MARZO</text><text x="-8.41" y="-7.9"/><text class="cls-2" transform="translate(0 644.76)">Fuente: Twitter</text><text class="cls-2" transform="translate(482.25 644.76)">LA VANGUARDIA</text><text class="cls-2" transform="translate(410.14 609.76)">ABRIL</text><text class="cls-2" transform="translate(18.21 509.46)">10</text><text class="cls-2" transform="translate(18.21 445.17)">20</text><text class="cls-2" transform="translate(18.21 380.87)">30</text><text class="cls-2" transform="translate(18.21 316.57)">40</text><text class="cls-2" transform="translate(18.21 252.28)">50</text><text class="cls-2" transform="translate(18.21 187.98)">60</text><text class="cls-2" transform="translate(18.21 123.69)">70</text><path class="cls-3" d="M25.81,588.3" transform="translate(-8.41 -7.9)"/><line class="cls-3" x1="17.59" y1="516.1" x2="630.59" y2="516.1"/><line class="cls-3" x1="17.59" y1="451.81" x2="630.59" y2="451.81"/><line class="cls-3" x1="17.59" y1="387.51" x2="630.59" y2="387.51"/><line class="cls-3" x1="17.59" y1="323.21" x2="630.59" y2="323.21"/><line class="cls-3" x1="17.59" y1="258.92" x2="630.59" y2="258.92"/><line class="cls-3" x1="17.59" y1="194.62" x2="630.59" y2="194.62"/><line class="cls-3" x1="17.59" y1="130.32" x2="630.59" y2="130.32"/><path class="cls-3" d="M639,73.93" transform="translate(-8.41 -7.9)"/><rect class="cls-4" x="68.08" y="559.11" width="8.27" height="19.29"/><rect class="cls-4" x="79.56" y="559.11" width="8.27" height="19.29"/><rect class="cls-4" x="91.04" y="366.22" width="8.27" height="212.18"/><rect class="cls-4" x="102.53" y="507.67" width="8.27" height="70.73"/><rect class="cls-4" x="114.01" y="571.97" width="8.27" height="6.43"/><rect class="cls-4" x="125.49" y="501.24" width="8.27" height="77.16"/><rect class="cls-4" x="136.97" y="539.82" width="8.27" height="38.58"/><rect class="cls-4" x="148.45" y="546.25" width="8.27" height="32.15"/><rect class="cls-4" x="169.59" y="533.39" width="8.27" height="45.01"/><rect class="cls-4" x="181.07" y="552.68" width="8.27" height="25.72"/><rect class="cls-4" x="192.55" y="571.97" width="8.27" height="6.43"/><rect class="cls-4" x="204.03" y="565.54" width="8.27" height="12.86"/><rect class="cls-4" x="226.98" y="565.54" width="8.27" height="12.86"/><rect class="cls-4" x="249.33" y="546.25" width="8.27" height="32.15"/><rect class="cls-4" x="283.75" y="559.11" width="8.27" height="19.29"/><rect class="cls-4" x="295.23" y="565.54" width="8.27" height="12.86"/><rect class="cls-4" x="306.71" y="475.52" width="8.27" height="102.87"/><rect class="cls-4" x="318.19" y="571.97" width="8.27" height="6.43"/><rect class="cls-4" x="329.67" y="430.52" width="8.27" height="147.88"/><rect class="cls-4" x="341.15" y="346.93" width="8.27" height="231.47"/><rect class="cls-4" x="352.63" y="571.97" width="8.27" height="6.43"/><rect class="cls-4" x="364.11" y="559.11" width="8.27" height="19.29"/><rect class="cls-4" x="387.06" y="546.25" width="8.27" height="32.15"/><rect class="cls-4" x="398.54" y="546.25" width="8.27" height="32.15"/><rect class="cls-4" x="421.49" y="154.04" width="8.27" height="424.35"/><rect class="cls-4" x="609.64" y="565.54" width="8.27" height="12.86"/><rect class="cls-4" x="622.33" y="571.97" width="8.27" height="6.43"/><line class="cls-1" x1="107.09" y1="580.1" x2="107.09" y2="591.1"/><line class="cls-1" x1="439.09" y1="580.1" x2="439.09" y2="591.1"/><text class="cls-5" transform="translate(87.9 21.42)">Las cuentas falsas vinculadas al PP se <tspan x="8.09" y="25">crearon entre febrero y abril de 2019</tspan></text><text class="cls-6" transform="translate(84.86 81.42)">Evolución del número de usuarios creados por día</text><text class="cls-7" transform="translate(436.55 168.42)">30 de marzo<tspan class="cls-8"><tspan x="0" y="19">66 cuentas</tspan></tspan></text><text class="cls-7" transform="translate(102.55 413.42)">28 de febrero<tspan class="cls-8"><tspan x="0" y="19">33 cuentas</tspan></tspan></text><text class="cls-7" transform="translate(216.92 360.42)">23 de marzo<tspan class="cls-8"><tspan x="19.55" y="19">36 cuentas</tspan></tspan></text></svg>